<?xml version="1.0" standalone="no"?>
<!DOCTYPE svg PUBLIC "-//W3C//DTD SVG 20010904//EN"
 "http://www.w3.org/TR/2001/REC-SVG-20010904/DTD/svg10.dtd">
<svg version="1.0" xmlns="http://www.w3.org/2000/svg"
 width="900.000000pt" height="563.000000pt" viewBox="0 0 900.000000 563.000000"
 preserveAspectRatio="xMidYMid meet">

<g transform="translate(0.000000,563.000000) scale(0.100000,-0.100000)"
fill="#000000" stroke="none">
<path d="M0 2815 l0 -2815 4500 0 4500 0 0 2815 0 2815 -4500 0 -4500 0 0
-2815z m4164 2548 c-12 -2 -27 -15 -34 -28 -13 -24 -12 -51 5 -277 5 -57 3
-67 -9 -62 -21 8 -45 -44 -51 -106 -5 -62 -13 -90 -26 -90 -6 0 -8 -4 -5 -8 3
-5 -22 -62 -55 -128 -59 -118 -60 -120 -66 -225 -5 -94 -3 -115 17 -175 12
-38 26 -76 31 -84 5 -8 20 -38 33 -65 30 -60 118 -168 170 -210 21 -16 56 -48
77 -69 39 -39 39 -39 39 -121 0 -59 -4 -86 -14 -94 -12 -10 -15 4 -18 90 -3
88 -6 103 -23 115 -11 8 -55 38 -99 66 -269 178 -406 423 -341 608 22 62 74
154 162 288 92 140 123 201 123 240 0 16 -12 74 -26 128 -45 174 -44 167 -28
192 13 20 22 22 87 21 39 -1 63 -4 51 -6z m162 -18 c81 -25 78 -20 85 -162 6
-132 9 -142 86 -323 12 -27 -25 9 -75 74 -69 89 -66 81 -103 260 -14 64 -61
143 -93 156 -38 16 46 11 100 -5z m747 -76 c86 -44 187 -119 187 -139 0 -11
-18 -82 -39 -159 -63 -220 -63 -221 9 -461 72 -240 81 -306 53 -371 -22 -49
-124 -188 -172 -233 -26 -25 -31 -37 -31 -78 0 -27 5 -81 12 -119 10 -65 10
-72 -8 -90 -31 -30 -132 -62 -199 -62 -43 0 -72 6 -104 22 -34 18 -54 22 -87
17 -24 -3 -46 -1 -49 4 -4 6 13 10 40 10 28 0 44 4 40 10 -9 15 -1 12 46 -15
60 -34 142 -35 170 -2 24 29 24 79 -1 147 -34 91 -36 148 -9 226 19 55 23 90
23 174 0 67 -5 114 -13 129 -8 14 -20 51 -27 83 -8 33 -31 94 -51 135 -32 65
-57 96 -180 218 -78 78 -144 137 -146 132 -3 -11 -84 160 -89 189 -3 18 4 19
108 19 107 0 112 -1 185 -37 41 -20 101 -61 134 -90 87 -77 99 -86 94 -69 -3
8 11 30 32 48 29 27 41 47 50 89 14 63 4 109 -24 109 -10 0 -22 6 -26 14 -5 8
-18 12 -30 8 -18 -4 -19 -2 -11 14 6 10 20 48 31 84 11 36 24 65 30 65 5 0 29
-10 52 -21z m-137 -191 c4 -6 3 -8 -4 -4 -6 3 -14 1 -19 -6 -16 -26 -103 -77
-103 -60 1 7 100 79 112 81 4 1 10 -4 14 -11z m-412 -810 c14 -23 -3 -72 -27
-76 -42 -8 -63 50 -31 83 20 19 43 16 58 -7z m-94 -142 c0 -31 8 -67 19 -89
18 -35 18 -36 0 -26 -24 12 -36 35 -49 93 -13 58 -4 102 16 85 9 -7 14 -31 14
-63z m471 23 c-8 -38 -9 -40 -10 -12 -1 17 2 39 5 48 11 29 14 10 5 -36z
m-1934 -43 c125 -64 174 -245 92 -338 -11 -13 -18 -17 -14 -10 10 19 -54 92
-96 111 -83 38 -136 108 -142 189 -1 20 -6 42 -10 49 -4 7 0 14 10 17 32 9
129 -1 160 -18z m-207 -6 c0 -5 -5 -10 -11 -10 -5 0 -7 5 -4 10 3 6 8 10 11
10 2 0 4 -4 4 -10z m-65 -54 c-19 -14 -27 -49 -28 -131 -2 -70 9 -101 41 -121
19 -11 33 -31 41 -60 7 -25 23 -51 34 -59 35 -24 -1 -17 -52 10 -101 55 -147
202 -96 302 18 34 65 86 73 79 3 -4 -3 -12 -13 -20z m1892 0 c-4 -10 -1 -13 7
-10 7 3 18 -7 24 -21 8 -16 17 -23 25 -19 9 5 9 4 0 -6 -14 -15 -109 -15 -145
0 -22 9 -22 9 4 9 17 1 35 12 50 30 24 32 44 41 35 17z m-106 -13 c13 -16 12
-17 -3 -4 -17 13 -22 21 -14 21 2 0 10 -8 17 -17z m-491 -63 c0 -5 -4 -10 -9
-10 -5 0 -16 -12 -26 -26 -12 -18 -13 -24 -4 -19 8 3 5 -1 -5 -9 -11 -9 -23
-16 -27 -16 -8 0 -23 -37 -44 -112 -8 -32 -19 -58 -23 -58 -8 0 -34 -166 -34
-215 0 -13 -4 -22 -9 -19 -14 8 -10 183 5 239 22 83 63 159 113 209 47 46 63
55 63 36z m-756 -255 c144 -205 172 -236 247 -270 l62 -28 -26 -14 c-15 -7
-43 -24 -62 -38 -48 -32 -126 -30 -172 4 -31 23 -45 60 -79 206 -4 17 -27 74
-50 129 -40 89 -56 166 -36 166 4 0 56 -70 116 -155z m875 67 c-16 -25 -32
-62 -35 -81 -10 -53 -22 -71 -47 -71 -21 0 -24 6 -26 45 -4 86 41 149 109 151
l28 2 -29 -46z m811 -123 c0 -6 -4 -7 -10 -4 -5 3 -10 11 -10 16 0 6 5 7 10 4
6 -3 10 -11 10 -16z m-1479 -18 c81 -21 181 -64 200 -87 11 -13 8 -13 -17 0
-88 43 -229 82 -265 73 -10 -3 -19 -1 -19 5 0 6 -6 8 -14 5 -8 -3 -20 1 -26 9
-11 12 -6 14 27 14 22 0 73 -9 114 -19z m-511 -21 c0 -5 -14 -10 -32 -10 -25
0 -29 -3 -20 -12 7 -7 12 -16 12 -21 0 -9 -14 4 -39 36 -12 16 -10 17 33 17
25 0 46 -4 46 -10z m1273 -15 c20 -8 38 -19 41 -24 8 -12 -55 -21 -76 -10 -9
5 -29 9 -45 9 -15 0 -46 5 -67 11 -29 8 -36 13 -25 20 22 14 133 10 172 -6z
m347 -82 c4 -37 11 -76 15 -86 7 -17 6 -18 -15 -5 -34 20 -49 64 -38 107 21
83 27 80 38 -16z m-975 5 c11 -2 22 -5 25 -8 8 -8 99 -57 160 -87 47 -24 72
-28 173 -33 l119 -5 44 -47 c53 -57 60 -98 17 -98 -16 0 -53 7 -83 15 -30 9
-88 15 -129 14 -63 -2 -75 1 -84 17 -19 36 -91 104 -121 114 -17 5 -56 12 -86
14 -62 5 -161 46 -202 84 -16 14 -28 28 -28 32 0 5 126 -3 195 -12z m-685 -17
c0 -5 -7 -11 -15 -15 -17 -6 -20 -26 -4 -26 5 0 8 4 5 9 -7 10 19 23 28 14 10
-11 7 -55 -4 -48 -10 6 -40 -17 -40 -30 0 -10 -43 -65 -51 -65 -18 0 -13 38 8
72 13 21 23 40 23 43 0 4 8 17 18 30 17 25 32 32 32 16z m1914 -44 c120 -55
242 -214 277 -362 29 -124 8 -299 -49 -415 l-27 -55 -7 65 c-4 36 -12 108 -17
160 -18 181 -59 261 -226 435 -54 57 -98 112 -101 127 -4 15 -13 29 -21 32 -8
3 -11 10 -8 16 3 5 1 10 -4 10 -6 0 -11 5 -11 11 0 21 131 4 194 -24z m-1120
-69 c53 -16 109 -73 130 -133 20 -61 20 -94 -1 -147 -17 -47 -35 -73 -27 -41
7 25 -41 96 -108 162 -25 25 -56 68 -69 94 -12 27 -28 51 -36 54 -12 5 -12 7
-1 14 19 12 64 11 112 -3z m-892 -65 c-7 -3 -25 -18 -40 -34 -22 -24 -38 -30
-88 -35 -58 -6 -63 -5 -95 24 l-34 30 35 6 c19 3 76 11 125 19 57 8 94 10 100
4 7 -6 6 -11 -3 -14z m-321 -4 c66 -22 128 -105 129 -171 0 -34 -24 -37 -78
-9 -65 33 -104 115 -72 147 13 13 -3 29 -35 37 -19 4 -19 5 1 6 12 0 36 -4 55
-10z m-151 -4 c0 -3 -12 -28 -26 -55 -28 -54 -40 -115 -30 -155 4 -14 27 -44
53 -68 25 -23 54 -50 65 -60 10 -10 16 -23 12 -29 -4 -6 -3 -8 2 -5 6 3 16 1
24 -4 11 -7 -2 -9 -43 -6 -43 3 -68 11 -100 33 -113 78 -117 258 -8 331 33 22
51 29 51 18z m2542 -284 c10 -23 9 -71 -1 -71 -5 0 -11 14 -15 31 -3 18 -29
54 -61 88 -30 32 -55 64 -55 70 0 15 122 -94 132 -118z m-949 62 c-13 -2 -35
-2 -50 0 -16 2 -5 4 22 4 28 0 40 -2 28 -4z m-1095 -20 c15 -9 47 -35 72 -58
57 -54 133 -94 196 -104 l49 -9 -40 -1 c-76 -2 -225 46 -303 97 -17 11 -20 17
-10 23 30 18 -11 17 -149 -6 -61 -11 -55 8 15 44 66 35 129 40 170 14z m662
-16 c0 -5 9 -6 19 -2 14 4 23 0 31 -15 6 -11 19 -20 28 -20 10 0 23 -5 29 -11
12 -12 126 -8 158 6 15 6 13 3 -5 -11 -56 -44 -110 -54 -184 -33 -39 11 -107
69 -119 100 -5 14 -2 15 19 5 13 -6 24 -15 24 -19z m605 -277 c145 -148 215
-229 215 -246 0 -4 16 -38 35 -75 43 -83 60 -189 42 -259 -12 -51 -25 -88 -38
-111 -7 -13 -13 -28 -14 -33 0 -4 -21 -16 -46 -26 l-46 -17 43 81 c55 104 69
163 53 231 -25 108 -95 210 -265 386 -142 147 -171 195 -188 314 -6 38 -5 37
26 -25 25 -50 66 -100 183 -220z m1258 18 c88 -85 168 -132 287 -169 88 -28
125 -60 272 -239 120 -147 180 -228 307 -420 108 -162 136 -193 238 -261 42
-28 71 -56 89 -87 14 -26 53 -74 86 -108 54 -56 60 -65 68 -121 4 -33 16 -75
25 -92 18 -36 17 -77 -3 -73 -6 1 -11 -3 -10 -9 2 -6 -2 -13 -9 -16 -7 -2 -11
4 -11 14 2 26 -44 120 -88 180 -22 29 -65 88 -96 131 -69 96 -69 95 -171 146
-74 37 -86 48 -127 108 -25 36 -76 102 -114 147 -38 44 -83 103 -100 131 -17
28 -61 97 -97 154 -96 149 -163 202 -534 418 -22 13 -60 41 -85 64 -25 22 -71
62 -103 88 l-58 46 -3 110 -2 110 80 -88 c44 -48 115 -122 159 -164z m-3602
210 c82 -30 208 -104 274 -160 186 -157 379 -399 572 -718 136 -225 272 -410
390 -529 35 -35 63 -66 63 -68 0 -7 -34 15 -55 34 -11 11 -28 24 -37 29 -25
14 -165 143 -222 204 -28 30 -70 72 -93 94 -24 22 -43 45 -43 52 0 8 -14 27
-30 44 -17 17 -28 35 -25 41 4 5 3 9 -2 9 -4 0 -19 24 -33 53 -14 28 -42 72
-63 97 -22 25 -50 66 -62 91 -13 25 -31 51 -40 59 -9 7 -23 29 -31 48 -7 19
-26 49 -41 68 -16 18 -41 51 -58 74 -170 231 -327 357 -580 460 -26 11 -109
22 -162 23 -24 0 -43 3 -43 8 0 13 49 17 155 14 76 -2 116 -8 166 -27z m808
-6 c-6 -10 -26 -28 -45 -40 -40 -26 -63 -30 -44 -7 7 8 18 15 25 15 6 0 25 11
41 25 35 30 38 31 23 7z m-839 -312 c0 -5 -2 -10 -4 -10 -3 0 -8 5 -11 10 -3
6 -1 10 4 10 6 0 11 -4 11 -10z m3245 -20 c3 -5 10 -65 14 -133 6 -84 14 -133
26 -157 37 -73 217 -350 225 -345 13 8 124 -91 196 -174 214 -246 354 -568
354 -813 0 -70 -7 -88 -32 -88 -25 0 -48 53 -64 145 -16 92 -45 195 -77 272
-30 70 -130 248 -157 278 -10 11 -39 61 -65 110 -59 112 -118 214 -140 240 -9
11 -6 0 8 -25 14 -25 42 -76 63 -115 l38 -70 -80 75 c-145 138 -243 156 -341
61 -29 -27 -43 -27 -43 2 0 32 -36 141 -84 256 -32 75 -54 268 -37 327 13 49
71 128 109 148 31 18 78 21 87 6z m-3058 -101 c23 -21 45 -49 48 -61 4 -13 20
-36 36 -53 33 -33 63 -78 99 -145 13 -25 30 -52 37 -61 19 -23 163 -318 163
-333 0 -7 7 -28 17 -46 9 -18 15 -53 14 -77 0 -24 4 -54 11 -66 6 -12 13 -33
14 -47 2 -14 6 -40 9 -57 5 -22 3 -33 -4 -33 -6 0 -11 -7 -11 -15 0 -8 4 -15
9 -15 5 0 11 -11 13 -25 4 -20 3 -23 -8 -14 -8 6 -14 16 -14 21 0 6 -19 49
-41 97 -23 47 -57 126 -76 175 -123 318 -246 548 -406 765 -37 50 -45 67 -36
77 12 15 25 6 126 -87z m3294 16 c30 -14 61 -29 69 -34 21 -14 207 -96 252
-112 46 -16 134 -82 131 -97 -2 -6 4 -9 12 -6 10 4 15 0 15 -11 0 -9 11 -26
26 -37 14 -11 23 -23 20 -26 -3 -3 2 -11 12 -18 9 -7 17 -18 17 -26 1 -7 6
-12 13 -10 7 1 12 -4 12 -11 0 -7 9 -20 20 -29 10 -9 32 -36 47 -60 15 -24 40
-56 56 -73 15 -16 42 -52 59 -80 18 -27 35 -52 39 -55 11 -8 38 -78 32 -84 -3
-3 0 -12 7 -21 7 -9 11 -18 8 -21 -3 -2 -41 47 -84 111 -176 258 -214 309
-301 410 -49 56 -72 74 -105 84 -42 12 -251 111 -314 149 -37 21 -112 81 -103
82 4 0 31 -11 60 -25z m-4158 -134 c-1 -25 6 -93 17 -151 10 -58 21 -136 24
-175 5 -73 30 -248 46 -325 6 -25 12 -79 15 -120 3 -41 8 -93 10 -115 l5 -40
-14 30 c-25 52 -74 212 -102 333 -25 106 -28 136 -28 322 -1 205 10 344 23
306 4 -10 6 -39 4 -65z m3240 -471 c-31 -30 -99 -80 -109 -80 -3 0 -19 -14
-37 -31 -36 -36 -101 -79 -120 -79 -8 0 -20 -11 -27 -25 -7 -14 -18 -25 -23
-25 -5 0 -30 -20 -56 -45 -25 -24 -50 -45 -56 -46 -5 0 -16 -5 -23 -11 -18
-15 -26 -3 -10 13 8 8 22 25 31 39 31 45 141 153 202 198 65 49 208 121 239
122 17 0 15 -4 -11 -30z m891 -47 c106 -69 198 -184 246 -308 32 -86 36 -100
20 -90 -5 3 -10 15 -10 25 0 11 -17 37 -37 58 -79 83 -93 99 -93 111 0 6 -11
16 -25 21 -19 7 -25 17 -25 38 0 24 -7 32 -41 48 -27 13 -42 27 -45 45 -3 14
-18 33 -32 42 -17 10 -21 17 -12 18 8 0 2 7 -15 15 l-30 15 30 -6 c17 -4 47
-18 69 -32z m849 -195 c-11 -13 -24 -33 -28 -45 -3 -13 -11 -23 -16 -23 -6 0
-8 -4 -5 -8 3 -5 -8 -27 -24 -48 -17 -24 -30 -55 -32 -79 l-3 -40 -18 46 c-19
47 -19 47 4 73 12 14 27 26 33 26 12 1 66 81 66 98 0 6 8 13 18 15 9 3 19 5
21 6 3 0 -5 -9 -16 -21z m-2217 -137 c0 -11 -5 -17 -13 -14 -10 4 -11 9 -2 19
15 18 15 18 15 -5z m2296 -7 c3 -3 -1 -19 -9 -36 -12 -23 -14 -45 -8 -97 11
-97 11 -114 -1 -118 -22 -7 -56 66 -61 130 -5 59 -3 63 27 95 32 32 42 37 52
26z m355 -95 c6 -13 15 -37 19 -53 7 -30 7 -30 -13 -10 -21 20 -36 46 -53 90
-10 26 -10 27 12 12 13 -8 28 -26 35 -39z m-1947 31 c0 -5 7 -10 15 -10 20 0
38 -74 30 -128 -5 -37 -11 -46 -36 -55 -16 -6 -29 -17 -29 -24 0 -7 -9 -13
-20 -13 -11 0 -20 1 -20 3 0 1 -9 27 -20 57 -23 62 -26 117 -8 155 9 20 18 25
50 25 21 0 38 -4 38 -10z m-1424 -25 c17 -16 14 -18 -10 -9 -9 3 -16 10 -16
15 0 13 9 11 26 -6z m3055 -155 c13 -44 6 -81 -13 -62 -13 13 -19 114 -6 106
4 -3 13 -22 19 -44z"/>
<path d="M5137 4125 c-4 -27 -12 -68 -17 -90 -12 -54 -6 -55 15 -3 10 27 15
64 13 94 l-3 49 -8 -50z"/>
<path d="M5365 1681 c-3 -5 -2 -12 3 -15 5 -3 9 1 9 9 0 17 -3 19 -12 6z"/>
</g>
</svg>
