<?xml version="1.0" standalone="no"?>
<!DOCTYPE svg PUBLIC "-//W3C//DTD SVG 20010904//EN"
 "http://www.w3.org/TR/2001/REC-SVG-20010904/DTD/svg10.dtd">
<svg version="1.0" xmlns="http://www.w3.org/2000/svg"
 width="1920.000000pt" height="1080.000000pt" viewBox="0 0 1920.000000 1080.000000"
 preserveAspectRatio="xMidYMid meet">

<g transform="translate(0.000000,1080.000000) scale(0.100000,-0.100000)"
fill="#000000" stroke="none">
<path d="M0 10000 l0 -800 25 0 c15 0 39 -7 55 -15 19 -10 53 -15 94 -14 35 1
68 -1 74 -5 5 -3 32 -6 58 -7 27 0 72 -9 99 -18 89 -32 121 -41 144 -41 12 0
32 -5 44 -12 14 -7 59 -11 122 -9 81 1 110 -2 160 -20 33 -12 69 -30 80 -39
16 -13 38 -17 103 -15 54 1 89 -3 100 -12 9 -7 27 -13 38 -13 12 0 32 -8 45
-18 13 -10 32 -22 43 -25 16 -6 18 -14 13 -50 -3 -24 -13 -56 -21 -72 -9 -17
-16 -36 -16 -42 0 -7 -7 -13 -15 -13 -8 0 -15 5 -15 11 0 6 -13 27 -30 46 -16
18 -30 40 -30 48 0 8 -7 15 -15 15 -9 0 -49 16 -91 36 -41 19 -83 35 -92 35
-9 -1 -26 -2 -37 -2 -26 -1 -80 20 -126 49 -20 12 -50 22 -67 22 -17 0 -34 5
-37 10 -4 7 -11 8 -18 2 -7 -6 -39 -8 -72 -5 -33 2 -73 4 -89 4 -16 0 -36 4
-43 10 -9 8 -17 8 -27 0 -11 -10 -20 -10 -36 -1 -17 9 -29 9 -51 0 -18 -8 -54
-10 -101 -6 -44 3 -76 2 -84 -5 -9 -7 -19 -7 -33 1 -16 8 -27 8 -42 -1 -12 -6
-42 -9 -65 -6 l-44 5 0 -1089 c0 -747 3 -1089 10 -1089 6 0 27 17 48 38 l37
38 140 18 c77 9 159 21 183 26 23 6 62 10 85 10 23 0 67 9 97 19 76 27 280 28
280 2 0 -9 11 -32 25 -51 14 -19 25 -46 25 -61 0 -22 -6 -29 -33 -37 -49 -15
-178 -24 -191 -13 -8 6 -35 7 -74 1 -34 -4 -87 -5 -119 0 -32 4 -61 6 -65 4
-10 -6 -127 -24 -187 -29 -69 -5 -110 -14 -141 -30 -14 -8 -46 -19 -72 -26
l-48 -13 0 -613 0 -613 25 -6 c14 -3 30 -15 36 -25 7 -15 14 -17 28 -10 20 11
41 -3 41 -27 0 -10 7 -12 24 -8 18 4 29 1 38 -12 7 -10 25 -22 40 -26 15 -3
32 -15 38 -26 6 -11 21 -20 34 -20 24 0 36 -17 36 -50 0 -22 -28 -34 -46 -20
-7 7 -27 8 -48 5 -27 -5 -46 -1 -83 19 -37 19 -141 56 -160 56 -2 0 -3 -236
-3 -524 l0 -524 43 -6 c23 -3 67 -6 97 -5 81 2 168 -11 181 -27 6 -8 30 -14
54 -14 56 0 75 -8 75 -30 0 -23 -46 -54 -90 -60 -29 -4 -34 -9 -32 -26 5 -40
-18 -46 -110 -30 -45 8 -113 17 -150 19 l-68 5 0 -2074 0 -2074 2072 2 2072 3
9 40 c4 22 12 56 17 75 5 19 13 55 19 80 6 25 26 113 46 195 19 83 40 173 46
200 6 28 18 65 26 82 15 32 11 103 -5 103 -10 0 -52 -52 -52 -64 0 -6 -7 -24
-16 -41 -19 -34 -79 -237 -90 -299 -3 -22 -12 -52 -19 -66 -7 -14 -15 -50 -19
-82 -7 -67 -14 -88 -30 -88 -6 0 -27 -11 -46 -24 -19 -13 -67 -36 -105 -51
-39 -15 -79 -34 -90 -41 -11 -8 -23 -14 -27 -14 -13 0 -9 34 6 55 7 11 16 44
20 74 4 29 20 92 35 140 34 102 155 431 177 481 9 19 41 100 71 180 30 80 74
184 99 233 24 48 44 95 44 105 0 17 31 107 50 147 6 11 19 54 30 95 10 41 26
93 34 115 8 22 15 52 16 67 0 15 5 30 11 34 11 7 8 -89 -6 -155 -8 -33 10
-137 27 -155 13 -16 9 -123 -7 -187 -9 -32 -18 -91 -20 -131 -3 -40 -9 -116
-14 -168 -5 -52 -13 -171 -16 -265 -11 -296 -12 -316 -19 -322 -3 -4 -6 -31
-6 -62 -1 -50 -2 -54 -14 -38 -11 14 -16 15 -22 6 -4 -7 -2 -15 4 -17 17 -5
15 -98 -2 -125 -8 -12 -16 -43 -19 -69 l-5 -48 6247 1 c4840 1 6238 4 6211 13
-61 21 -150 66 -150 77 0 5 11 15 25 21 14 6 25 19 25 30 0 12 7 18 24 18 13
0 26 7 29 15 4 8 21 21 39 29 18 7 43 23 54 34 23 22 126 46 166 38 35 -7 58
-17 58 -27 0 -5 5 -9 11 -9 6 0 17 -7 25 -15 9 -8 26 -15 39 -15 13 0 36 -11
51 -25 15 -14 35 -25 45 -25 11 0 19 -6 19 -14 0 -8 7 -16 15 -20 8 -3 15 -14
15 -25 0 -30 17 -34 40 -11 l21 21 26 -20 c20 -17 22 -22 10 -27 -8 -3 -17
-13 -20 -23 -2 -10 -19 -22 -38 -26 l-34 -9 34 -3 c21 -3 37 1 42 9 6 10 13
10 26 2 10 -6 55 -11 101 -12 82 -1 83 -1 76 21 -4 12 -13 45 -20 72 -16 65
-46 168 -78 274 -31 100 -31 97 -9 105 10 3 23 8 28 11 6 3 16 -10 24 -27 7
-18 20 -46 27 -63 33 -76 64 -160 99 -272 l40 -123 89 0 90 0 -30 33 c-63 66
-76 83 -110 139 -20 32 -46 85 -60 118 -46 114 -31 108 93 -33 55 -61 131
-145 170 -185 l70 -72 631 0 632 0 0 390 0 390 -40 0 c-22 0 -40 5 -40 10 0 6
5 10 10 10 22 0 9 40 -15 46 -40 10 -49 29 -20 44 39 21 30 30 -27 30 -29 0
-48 -4 -42 -8 6 -4 13 -21 16 -38 4 -30 3 -31 -34 -29 -46 3 -50 6 -52 39 -1
20 -6 26 -23 26 -33 0 -36 16 -7 35 19 12 29 14 33 6 5 -8 15 -5 31 9 26 23
78 19 93 -6 5 -8 21 -13 37 -12 26 2 34 18 9 18 -6 0 -17 6 -24 14 -12 12 -10
15 13 25 15 5 39 13 54 17 18 4 28 13 28 25 0 15 -5 18 -32 12 -18 -3 -39 -10
-45 -16 -18 -13 -189 -46 -245 -47 -66 0 -62 21 9 53 86 38 291 117 303 117 5
0 10 20 10 45 0 50 -2 52 -45 29 -29 -16 -47 -20 -93 -23 -13 0 -21 -5 -17
-10 6 -11 -26 -31 -49 -31 -28 0 -17 28 14 35 16 4 32 11 35 16 4 5 17 9 30 9
15 0 40 15 61 35 19 19 42 35 50 35 8 0 14 5 14 10 0 6 -7 10 -15 10 -20 0
-19 17 1 28 13 8 15 36 11 228 -5 231 -13 335 -25 344 -14 10 -32 50 -32 69 0
11 -4 22 -9 25 -5 3 -11 16 -14 28 -2 13 -8 32 -12 42 -7 15 -5 17 6 11 8 -4
4 2 -8 14 -13 12 -23 28 -23 36 0 8 -9 15 -20 15 -12 0 -20 7 -20 18 0 18 -41
62 -58 62 -6 0 -13 8 -17 19 -6 20 -78 57 -93 47 -5 -3 -16 2 -23 10 -8 9 -32
25 -55 35 -48 20 -63 37 -43 50 8 5 9 9 3 9 -6 0 -23 -9 -37 -20 -14 -11 -30
-20 -35 -20 -15 0 -76 -60 -68 -67 3 -4 12 -1 18 5 7 7 36 12 66 12 44 0 53
-3 48 -15 -7 -18 5 -20 22 -3 9 9 12 9 12 0 0 -7 10 -9 30 -6 26 6 30 4 30
-15 0 -11 5 -21 11 -21 6 0 9 -7 6 -14 -4 -10 -1 -13 7 -10 7 3 13 -2 13 -11
0 -8 -4 -15 -8 -15 -5 0 -6 -8 -3 -17 4 -10 -3 -5 -14 11 -11 16 -34 35 -51
43 -17 9 -29 19 -26 23 2 4 -7 5 -20 2 -14 -2 -25 0 -25 5 0 5 -38 8 -85 7
-85 -2 -272 -47 -337 -80 l-27 -14 -31 81 c-17 44 -34 95 -37 112 -3 18 -15
45 -25 60 -25 35 -18 65 21 92 16 11 85 59 152 106 147 102 424 269 447 269
29 0 255 -240 288 -306 37 -74 84 -144 95 -144 5 0 9 29 9 65 0 50 -3 65 -14
65 -8 0 -17 8 -20 18 -3 9 -24 37 -47 62 -118 132 -141 160 -124 160 9 0 50
-26 92 -57 42 -32 84 -64 94 -72 18 -13 19 -10 19 47 0 34 -5 64 -10 67 -5 3
-10 11 -10 16 0 6 5 7 10 4 7 -4 10 353 10 1064 l0 1071 -34 0 c-19 0 -47 5
-63 11 -15 6 -71 13 -123 15 -54 2 -96 8 -98 14 -2 5 -23 10 -47 10 -24 0 -47
5 -50 10 -4 6 -46 10 -101 9 -52 -1 -100 3 -107 9 -6 5 -46 13 -87 17 -41 3
-81 12 -89 18 -9 8 -71 11 -202 9 -152 -2 -195 1 -227 13 -24 10 -80 18 -143
20 -136 5 -229 15 -229 25 0 4 -13 10 -29 13 -16 3 -35 13 -43 21 -8 8 -32 15
-54 17 -21 1 -48 11 -59 20 -11 10 -38 25 -59 34 -21 9 -36 19 -32 22 3 3 1
13 -4 23 -12 23 -104 32 -179 19 -85 -16 -208 -56 -273 -91 -48 -26 -62 -29
-82 -20 -31 14 -40 49 -16 62 10 6 25 10 33 10 16 0 38 64 30 86 -6 17 -30 18
-36 2 -4 -8 -6 -7 -6 4 -1 19 25 48 42 48 7 0 27 13 44 29 18 16 38 31 44 33
7 2 10 11 6 20 -7 19 -40 14 -58 -8 -6 -8 -19 -14 -29 -14 -10 0 -69 -20 -131
-45 -62 -25 -119 -43 -126 -41 -28 11 -10 35 69 92 46 32 99 73 118 90 19 17
73 51 120 75 47 23 113 60 148 81 34 21 64 38 67 38 2 0 23 13 47 28 24 15 94
52 155 81 130 62 124 61 563 83 346 17 527 16 790 -5 118 -9 288 -19 378 -23
l162 -7 0 1446 0 1447 -40 0 c-22 0 -40 -4 -40 -10 0 -6 -87 -10 -240 -10
-132 0 -240 4 -240 9 0 17 -66 36 -112 33 -43 -3 -48 -2 -48 17 0 12 -6 21
-15 21 -11 0 -15 -11 -15 -40 0 -29 4 -40 15 -40 29 0 14 -27 -25 -45 -39 -17
-41 -17 -80 0 -35 16 -54 17 -158 10 -64 -5 -156 -9 -204 -9 -47 -1 -84 -4
-81 -8 2 -5 -32 -8 -76 -8 -54 0 -81 4 -84 13 -3 10 -9 10 -26 0 -11 -7 -28
-13 -36 -13 -8 0 -15 -9 -15 -20 0 -14 -7 -20 -21 -20 -11 0 -17 5 -14 10 4 6
-5 10 -19 10 -14 0 -26 4 -26 8 0 5 -18 17 -40 27 -30 14 -40 24 -40 42 l0 23
-150 0 c-93 0 -150 -4 -150 -10 0 -6 43 -10 110 -10 91 0 110 -3 110 -15 0
-13 -21 -15 -129 -15 -77 0 -132 -4 -136 -10 -4 -6 -11 -8 -16 -5 -5 4 -12 -1
-15 -10 -4 -9 -13 -14 -20 -11 -8 3 -11 0 -7 -10 4 -11 -9 -14 -76 -14 -65 0
-81 3 -81 15 0 11 -11 15 -40 15 -33 0 -40 -3 -38 -17 2 -14 -5 -19 -37 -21
-26 -2 -53 -14 -77 -33 -44 -34 -48 -35 -48 -9 0 23 -10 25 -29 8 -11 -11 -12
-10 -6 2 6 12 5 13 -6 3 -16 -15 -33 -17 -24 -3 3 6 1 10 -4 10 -6 0 -11 -9
-11 -20 0 -14 -7 -20 -22 -20 -23 1 -23 1 -3 15 18 14 17 15 -18 13 -35 -3
-37 -5 -37 -35 0 -32 -2 -33 -37 -32 -36 0 -93 17 -65 18 7 1 10 6 7 11 -4 6
-55 10 -122 10 l-115 0 -29 -31 c-24 -26 -31 -28 -43 -17 -8 7 -10 15 -5 16 5
2 9 8 9 13 0 4 -7 6 -15 3 -8 -4 -15 -17 -15 -30 0 -22 -4 -23 -67 -26 l-68
-3 3 -42 c3 -34 0 -43 -13 -43 -12 0 -15 5 -10 22 6 17 4 20 -9 15 -9 -4 -16
-2 -16 4 0 6 -5 7 -11 3 -6 -3 -15 0 -20 7 -7 11 -11 11 -17 2 -5 -7 -40 -13
-89 -15 -60 -3 -87 -8 -101 -21 -15 -14 -38 -17 -116 -17 -97 0 -98 0 -127
-31 -16 -17 -29 -35 -29 -40 0 -5 -36 -9 -80 -9 -73 0 -80 2 -80 20 0 17 -7
20 -40 20 -22 0 -40 5 -40 10 0 6 -18 10 -40 10 -34 0 -40 3 -40 21 0 22 -14
23 -148 5 -13 -1 -33 -14 -45 -29 -12 -14 -35 -31 -52 -37 -22 -9 -26 -13 -15
-20 23 -14 -59 -24 -102 -13 -21 6 -41 7 -43 3 -3 -4 -26 -11 -52 -15 -27 -4
-54 -12 -61 -17 -7 -6 -35 -8 -69 -5 -52 5 -58 4 -83 -23 -21 -23 -30 -26 -39
-17 -10 9 -12 9 -9 -3 2 -11 -7 -15 -39 -14 -24 0 -43 -3 -43 -6 0 -3 -24 -6
-52 -5 -29 1 -62 -5 -73 -12 -11 -7 -29 -13 -40 -13 -12 0 -25 -4 -30 -9 -6
-6 -21 -11 -35 -13 -33 -5 -90 -31 -90 -41 0 -27 -32 -37 -119 -37 -50 0 -93
-4 -96 -10 -4 -6 -10 -8 -15 -5 -4 3 -10 -4 -13 -15 -4 -15 -14 -20 -41 -20
-20 0 -36 -4 -36 -9 0 -13 -58 -34 -75 -27 -9 3 -14 2 -10 -3 3 -5 -13 -12
-35 -16 -22 -4 -40 -10 -40 -13 0 -11 -79 -33 -139 -39 -55 -6 -101 -37 -101
-68 0 -20 -66 -20 -77 -1 -7 13 -11 13 -27 0 -19 -14 -19 -14 5 -15 18 -1 20
-2 6 -6 -13 -3 -17 -11 -14 -24 4 -14 0 -19 -13 -19 -10 0 -20 5 -22 12 -7 19
-25 0 -32 -33 -4 -20 -11 -29 -19 -26 -7 3 -19 -4 -25 -14 -7 -10 -16 -19 -21
-19 -4 0 -36 -27 -71 -60 -35 -33 -69 -60 -76 -60 -7 0 -19 -8 -26 -18 -7 -10
-29 -27 -48 -38 -19 -10 -37 -21 -40 -24 -13 -14 -89 -67 -120 -84 -19 -11
-37 -22 -40 -25 -17 -21 -309 -151 -337 -151 -6 0 -16 -6 -22 -14 -7 -8 -24
-17 -39 -21 -15 -4 -57 -26 -93 -51 -37 -24 -81 -47 -98 -50 -17 -4 -31 -10
-31 -15 0 -4 -18 -15 -39 -25 -22 -9 -41 -25 -44 -34 -4 -17 -118 -80 -144
-80 -7 0 -13 -4 -13 -9 0 -5 -10 -13 -22 -17 -13 -4 -37 -19 -54 -34 -18 -15
-54 -35 -80 -45 -27 -10 -59 -28 -71 -41 -12 -13 -29 -24 -38 -24 -15 0 -64
-27 -75 -41 -5 -7 -103 -65 -148 -88 -15 -7 -35 -20 -44 -29 -10 -8 -39 -25
-65 -38 -26 -12 -66 -37 -88 -53 -22 -17 -56 -39 -75 -48 -19 -10 -43 -25 -53
-35 -11 -9 -39 -27 -64 -40 -25 -12 -56 -32 -68 -43 -94 -84 -120 -101 -204
-130 -55 -20 -67 -28 -83 -61 -10 -21 -23 -43 -28 -48 -13 -13 -13 63 0 135 5
30 14 81 20 115 27 155 39 436 30 699 -9 257 -11 280 -45 362 -28 70 -69 62
-46 -9 25 -83 34 -207 34 -508 1 -242 -3 -344 -16 -440 -20 -149 -37 -239 -49
-262 -11 -22 -34 -23 -46 -3 -7 13 -13 14 -38 4 -27 -12 -28 -13 -6 -16 27 -5
27 -7 0 -43 -15 -21 -21 -42 -20 -70 2 -22 -2 -40 -7 -40 -5 0 -15 -16 -22
-35 -16 -43 -27 -44 -42 -5 -9 23 -16 28 -32 24 -16 -4 -21 0 -22 16 -2 18 3
21 30 18 23 -2 33 -9 37 -26 l5 -23 18 22 c10 11 17 22 15 23 -2 1 -23 12 -48
24 -25 12 -56 30 -70 41 l-25 21 23 0 c32 0 68 38 55 59 -6 9 -19 17 -30 19
-17 3 -20 -1 -15 -23 4 -21 0 -28 -25 -37 -16 -6 -37 -24 -46 -40 -19 -33 -37
-36 -44 -7 -5 19 -11 21 -57 15 -28 -3 -61 -6 -73 -6 -13 0 -23 -6 -23 -13 0
-29 -61 -43 -160 -37 -52 3 -99 2 -104 -2 -6 -4 -20 -8 -33 -8 -18 0 -23 -6
-23 -25 0 -22 -4 -25 -40 -25 -29 0 -40 4 -40 15 0 11 -11 15 -39 15 -22 0
-43 5 -46 10 -3 6 -40 10 -81 10 -43 0 -74 -4 -74 -10 0 -5 -18 -10 -40 -10
-29 0 -40 4 -40 15 0 8 9 15 20 15 12 0 20 7 20 16 0 13 -7 15 -30 11 -26 -6
-31 -3 -36 18 -9 36 -54 36 -54 0 0 -22 -4 -25 -40 -25 -36 0 -40 3 -40 25 0
18 -5 25 -20 25 -11 0 -28 4 -38 9 -9 5 -36 17 -60 26 -32 14 -42 23 -42 42 0
20 -5 23 -40 23 -33 0 -40 3 -40 20 0 17 -7 20 -40 20 -22 0 -40 5 -40 10 0 6
-24 10 -52 10 -52 0 -53 1 -72 40 -11 22 -24 39 -30 37 -13 -4 -61 71 -52 80
15 16 -29 43 -70 43 -37 0 -43 -3 -46 -22 -6 -42 -48 42 -48 95 0 45 -1 46
-35 53 -20 3 -49 4 -64 1 -19 -4 -33 -1 -41 8 -7 8 -19 15 -26 15 -8 0 -19 11
-24 25 -8 22 -16 25 -57 25 -46 0 -49 2 -67 40 -11 22 -23 40 -28 40 -4 0 -8
-23 -8 -52 0 -28 -3 -48 -7 -44 -5 4 -8 11 -8 15 0 4 -9 24 -20 44 -13 26 -26
37 -42 37 -19 0 -22 6 -25 47 -2 39 -7 50 -28 60 -13 6 -28 21 -32 32 -5 15
-16 21 -37 21 -24 0 -32 5 -37 25 -5 21 -12 25 -45 25 -28 0 -39 4 -39 15 0
13 -20 15 -120 15 -113 0 -120 1 -120 20 0 17 -7 20 -41 20 -37 0 -41 2 -37
23 4 21 1 22 -43 19 -46 -4 -48 -3 -71 37 l-23 41 -105 0 -105 0 -19 40 c-20
41 -36 52 -36 25 0 -13 -21 -15 -125 -15 -98 0 -132 -4 -161 -17 l-37 -18 44
-6 c34 -5 23 -7 -48 -9 -130 -4 -127 -3 -134 -13 -11 -16 -181 -18 -214 -2
-20 9 -24 14 -12 14 23 1 25 81 2 81 -12 0 -15 16 -15 83 0 122 -19 76 -22
-53 -1 -58 -3 -88 -5 -67 -4 35 -6 37 -39 37 -30 0 -34 3 -34 26 l0 27 -67 -7
c-38 -4 -69 -11 -71 -16 -5 -14 -29 -12 -62 5 -27 14 -30 14 -30 0 0 -9 9 -15
25 -15 14 0 25 -4 25 -10 0 -5 -13 -10 -30 -10 -29 0 -30 2 -30 46 l0 46 -40
-4 -40 -4 0 54 0 53 -51 -2 c-44 -2 -55 1 -72 22 -17 21 -17 24 -3 27 9 2 16
8 16 13 0 5 7 9 15 9 10 0 15 10 15 30 0 26 -3 30 -29 30 -25 0 -28 -3 -23
-25 4 -21 0 -26 -27 -31 -17 -4 -31 -10 -31 -15 0 -5 -11 -9 -25 -9 -30 0 -33
16 -5 23 17 4 19 11 14 31 -5 23 -3 26 20 26 21 0 26 5 26 26 0 14 -7 33 -16
42 -15 15 -14 17 17 27 37 13 51 35 21 35 -11 0 -22 -6 -24 -12 -5 -13 -68
-21 -68 -8 0 11 57 52 105 75 22 11 46 26 53 33 7 6 20 12 27 12 8 0 40 18 71
40 32 22 61 40 66 40 4 0 31 16 58 35 27 19 52 35 56 35 3 0 24 13 47 28 23
15 85 57 137 92 52 35 109 74 125 87 104 82 301 246 365 302 41 36 97 86 125
111 98 87 439 428 606 606 l170 181 77 22 c42 13 127 42 187 66 120 47 612
213 875 295 91 29 183 58 205 66 58 20 282 82 415 114 177 43 211 50 250 50
26 0 40 -4 40 -13 0 -7 -29 -73 -65 -146 -84 -170 -151 -278 -380 -611 -72
-105 -218 -300 -300 -400 -34 -41 -107 -132 -163 -202 -198 -247 -421 -484
-466 -496 -45 -12 -39 -35 14 -49 25 -7 70 -19 100 -28 75 -21 395 -75 447
-75 44 0 63 14 44 33 -7 7 -44 19 -83 27 -39 8 -73 20 -75 27 -5 14 225 246
405 408 324 292 658 546 1315 1000 32 22 97 67 145 101 48 33 170 116 272 184
102 68 198 134 213 147 33 27 47 29 47 7 0 -32 -132 -382 -241 -641 -38 -89
-69 -164 -69 -167 0 -4 -124 -287 -238 -541 -62 -140 -128 -271 -152 -305 -10
-14 -43 -87 -74 -162 -73 -181 -102 -237 -131 -250 -18 -8 -57 -7 -162 7 -152
20 -247 24 -259 12 -15 -14 13 -22 143 -41 70 -10 162 -25 203 -32 141 -26
135 -28 291 90 93 70 329 205 774 441 50 26 95 51 100 55 6 4 64 35 130 70 66
34 147 77 180 95 402 217 786 403 1195 579 85 37 170 74 188 82 46 20 247 98
302 117 92 32 238 86 301 110 221 88 368 128 558 152 94 12 219 15 540 15 387
-1 554 5 806 30 55 5 206 14 335 20 129 6 264 14 300 19 87 12 245 37 350 56
47 8 144 21 215 30 72 9 186 25 255 35 150 23 348 46 525 60 810 66 1253 123
1535 195 30 8 79 19 108 26 48 10 52 13 52 39 0 32 19 33 -170 -13 -283 -70
-638 -120 -1130 -162 -368 -31 -660 -60 -800 -79 -58 -8 -139 -18 -180 -21
-41 -4 -138 -18 -215 -31 -365 -65 -642 -104 -744 -104 -42 0 -94 -5 -116 -11
-109 -30 -880 -56 -1163 -40 -413 25 -702 -19 -1077 -163 -130 -50 -320 -119
-350 -127 -48 -12 -184 -64 -255 -96 -36 -17 -75 -33 -87 -37 -13 -4 -23 -11
-23 -16 0 -14 -49 -37 -94 -46 -22 -4 -77 -24 -123 -46 -59 -28 -93 -38 -116
-35 -27 3 -29 5 -12 11 27 9 30 47 5 53 -10 3 -21 11 -24 19 -6 15 10 68 30
99 9 15 10 31 2 65 -17 78 -25 184 -15 198 8 10 14 9 31 -7 12 -11 35 -21 51
-23 21 -2 30 -8 29 -20 -2 -19 30 -25 41 -8 3 6 20 10 36 10 26 0 29 -3 24
-21 -4 -12 -1 -27 8 -37 8 -9 17 -26 19 -37 2 -12 13 -21 28 -23 14 -2 32 -10
40 -18 18 -16 84 -44 102 -44 21 0 17 175 -5 222 -9 21 -17 42 -17 48 0 5 -3
9 -7 8 -12 -4 -15 5 -8 22 6 17 -29 93 -39 83 -3 -4 -6 4 -6 16 0 12 -5 32
-12 44 l-12 22 -7 -25 -7 -25 -7 23 c-4 12 -11 22 -16 22 -5 0 -9 14 -9 30 0
28 -2 30 -40 30 -30 0 -40 -4 -40 -16 0 -8 -5 -12 -10 -9 -6 4 -10 14 -8 23 3
19 -9 42 -21 42 -15 0 -45 -54 -43 -77 1 -13 -3 -23 -8 -23 -6 0 -10 6 -10 14
0 8 -7 16 -15 20 -19 7 -19 26 0 26 10 0 17 14 21 40 4 22 10 43 15 46 4 2 6
11 3 18 -3 7 2 16 10 19 22 9 20 27 -2 27 -10 0 -31 14 -45 30 -17 18 -37 30
-52 30 -16 0 -25 6 -25 15 0 9 -10 19 -23 24 -12 5 -29 20 -36 35 -8 14 -18
23 -24 19 -13 -8 -28 18 -21 39 5 18 -11 59 -24 57 -35 -6 -37 1 -36 89 0 78
-2 90 -24 117 -14 17 -33 32 -44 35 -10 3 -19 7 -19 10 0 38 16 90 27 90 13 0
19 13 15 33 -1 5 3 6 9 2 9 -6 14 6 11 31 -1 6 5 17 13 23 21 17 9 41 -20 41
-15 0 -24 6 -24 15 0 13 -24 15 -159 15 l-160 0 134 -275 c144 -296 160 -344
126 -385 -28 -35 -47 -20 -93 71 -21 41 -46 83 -56 94 -28 30 -65 101 -96 185
-15 41 -34 90 -42 108 -8 18 -14 44 -14 57 0 14 -9 39 -20 57 -11 18 -20 45
-20 61 0 28 -15 37 -23 15 -2 -7 -2 -29 1 -48 l5 -35 -20 22 c-11 12 -39 29
-64 37 -24 8 -45 20 -47 26 -5 15 -188 13 -212 -2 -16 -10 -24 -10 -40 0 -28
17 -1590 18 -1590 0 0 -9 -3 -9 -12 0 -19 19 -262 16 -293 -4 -24 -16 -65 -12
-65 7 0 5 -175 9 -442 9 l-443 0 -80 -92 c-44 -51 -140 -164 -214 -253 -74
-88 -180 -212 -236 -275 -55 -63 -186 -216 -289 -340 -104 -124 -207 -246
-230 -271 -22 -25 -66 -74 -96 -110 -344 -401 -934 -951 -1286 -1200 -50 -35
-104 -71 -120 -80 -16 -10 -60 -36 -99 -59 -79 -48 -318 -160 -340 -160 -8 0
-15 -4 -15 -9 0 -11 -55 -31 -86 -31 -14 0 -24 -6 -24 -14 0 -7 -9 -16 -20
-19 -11 -3 -20 -1 -20 4 0 13 -58 -1 -117 -28 -28 -12 -60 -23 -69 -23 -10 0
-25 -6 -33 -14 -9 -7 -41 -21 -71 -31 -30 -10 -76 -28 -102 -41 -26 -13 -54
-24 -63 -24 -10 0 -15 -10 -15 -32 1 -28 2 -31 13 -17 7 9 30 22 52 29 22 7
57 24 77 37 21 12 51 23 68 23 16 0 30 5 30 10 0 6 12 10 28 10 20 0 1 -13
-73 -50 -55 -27 -107 -50 -115 -50 -9 0 -20 -4 -25 -9 -10 -9 -38 -14 -62 -12
-7 0 -13 7 -13 15 0 8 -9 18 -20 21 -11 3 -20 12 -20 19 0 15 115 136 130 136
5 0 10 7 10 15 0 8 4 15 9 15 5 0 28 21 52 46 24 26 57 58 73 73 116 105 116
105 110 143 -7 39 -26 48 -100 48 -23 0 -37 6 -44 20 -7 14 -7 20 0 20 5 0 10
4 10 8 0 14 -36 52 -49 52 -6 0 -11 5 -11 10 0 6 7 10 15 10 8 0 15 5 15 10 0
6 9 10 20 10 11 0 20 -4 20 -10 0 -5 16 -10 35 -10 43 0 45 13 5 37 -32 18
-40 43 -15 43 11 0 15 11 15 40 0 22 -4 40 -10 40 -5 0 -10 18 -10 40 0 38 13
54 23 28 4 -10 7 -10 18 0 12 11 11 15 -3 26 -14 10 -17 24 -14 65 6 63 15 76
57 79 18 2 42 12 52 23 10 11 22 18 25 14 4 -3 0 -10 -8 -15 -8 -5 -11 -12 -7
-16 3 -4 13 -1 22 6 8 7 15 8 15 3 0 -14 111 -24 177 -16 42 5 57 10 61 25 3
13 14 18 43 18 37 0 39 1 39 33 0 25 8 38 36 61 21 17 39 24 43 19 10 -17 91
-21 91 -5 0 7 -5 10 -11 6 -7 -4 -10 -1 -7 7 5 14 88 27 88 13 0 -4 -13 -20
-30 -36 -33 -31 -38 -63 -15 -94 19 -25 19 -44 0 -44 -19 0 -19 -7 0 -27 10
-10 24 -13 41 -9 14 4 31 3 37 -2 7 -5 24 -12 39 -16 23 -5 33 -1 54 24 15 16
33 30 39 30 14 0 318 300 355 350 36 48 184 198 254 256 161 132 398 354 408
379 8 25 325 306 420 375 100 71 68 96 -52 42 -86 -39 -177 -71 -202 -72 -9 0
-73 -27 -143 -60 -70 -33 -130 -60 -134 -60 -5 0 -14 -7 -21 -15 -7 -8 -19
-15 -28 -15 -9 0 -67 -25 -130 -56 -109 -53 -169 -77 -272 -109 -68 -21 -163
-54 -185 -64 -11 -5 -37 -15 -57 -21 -21 -6 -40 -16 -43 -21 -4 -5 -13 -9 -21
-9 -9 0 -45 -13 -81 -30 -35 -16 -67 -30 -71 -30 -3 0 -24 -9 -46 -19 -23 -11
-79 -35 -126 -54 -47 -19 -103 -44 -125 -56 -22 -11 -47 -21 -55 -21 -16 0
-171 -70 -192 -87 -13 -11 -20 -12 -153 -37 -170 -32 -280 -15 -388 61 -26 18
-51 33 -56 33 -11 0 -106 73 -145 111 -30 31 -46 30 -46 -3 0 -14 -5 -18 -16
-14 -9 3 -33 6 -54 6 -32 0 -38 4 -42 25 -6 29 8 43 25 26 6 -6 15 -11 21 -11
5 0 -3 10 -18 23 -18 16 -25 29 -20 40 10 28 32 19 44 -18 9 -27 17 -35 35
-35 29 0 25 22 -9 56 -12 12 -37 42 -56 67 -19 25 -43 50 -52 56 -29 18 -23
-24 7 -47 32 -25 36 -82 6 -82 -10 0 -21 -7 -25 -15 -8 -21 -34 -19 -41 5 -3
10 -1 28 4 39 14 25 14 34 1 26 -15 -9 -50 14 -50 32 0 9 9 26 20 38 14 14 16
24 9 35 -8 13 -12 11 -29 -8 -16 -19 -23 -21 -40 -12 -11 6 -20 19 -20 29 0
10 -11 30 -25 45 -14 15 -25 30 -25 34 0 4 -24 22 -54 40 -50 30 -126 121
-126 151 0 6 -12 8 -30 5 -28 -6 -30 -5 -30 25 0 26 -4 31 -25 31 -19 0 -25 5
-25 21 0 11 -3 18 -7 16 -5 -3 -8 15 -8 39 -1 49 6 54 28 22 l14 -23 -1 25
c-1 14 -7 24 -13 23 -6 -1 -18 6 -28 17 -16 18 -51 17 -39 -1 3 -5 -2 -6 -10
-3 -18 7 -22 24 -6 24 6 0 10 7 10 15 0 8 -4 15 -9 15 -5 0 -7 9 -4 20 3 12
-2 28 -10 38 -9 10 -19 38 -22 62 -4 25 -9 52 -13 60 -3 8 -6 22 -7 31 -5 38
-16 69 -25 64 -10 -6 -16 10 -30 84 -5 30 -15 61 -22 68 -7 8 -13 24 -15 34
-2 11 -10 31 -19 44 l-16 25 -704 0 -704 0 -2 -62 c-1 -73 -2 -81 -22 -210 -8
-54 -18 -102 -21 -109 -4 -6 -9 -30 -11 -53 -2 -22 -6 -54 -9 -71 -2 -16 -10
-67 -16 -112 -8 -58 -16 -83 -25 -83 -8 0 -14 -11 -14 -26 0 -14 -7 -32 -15
-40 -8 -9 -15 -33 -15 -55 0 -26 -4 -39 -14 -39 -9 0 -15 -16 -19 -46 -2 -26
-9 -49 -14 -53 -14 -10 -34 -62 -28 -72 4 -5 2 -9 -3 -9 -5 0 -15 -21 -22 -47
-7 -27 -18 -52 -24 -58 -21 -18 -54 -99 -55 -136 0 -20 -5 -48 -11 -63 -5 -15
-10 -43 -10 -62 0 -24 -5 -34 -15 -34 -8 0 -15 -9 -15 -21 0 -34 -19 -59 -45
-59 -13 0 -26 6 -29 13 -4 6 -4 1 -2 -12 3 -13 -2 -37 -10 -54 -12 -23 -13
-32 -4 -41 9 -8 14 -8 17 2 3 6 10 12 16 12 19 1 67 47 67 65 0 8 5 15 10 15
6 0 10 -4 10 -10 0 -14 -23 -64 -37 -78 -7 -7 -13 -18 -13 -23 0 -5 -7 -9 -15
-9 -23 0 -19 -47 5 -55 22 -7 27 -40 8 -52 -7 -4 -14 -17 -15 -28 -3 -35 -30
-120 -37 -117 -23 9 -40 -16 -29 -44 4 -12 8 -12 13 -4 15 24 22 -49 8 -80
-16 -37 -28 -39 -28 -5 0 14 -6 25 -14 25 -10 0 -12 -9 -6 -38 4 -21 10 -43
13 -49 3 -5 -3 -20 -14 -32 -21 -22 -22 -43 -20 -279 0 -34 -3 -43 -14 -38 -8
3 -15 1 -15 -4 0 -6 -5 -9 -11 -8 -6 2 -13 -5 -14 -14 -2 -10 3 -18 11 -18 17
0 11 -35 -17 -96 -10 -22 -19 -59 -19 -81 0 -23 -6 -48 -14 -55 -7 -8 -19 -30
-27 -51 -7 -20 -18 -37 -24 -37 -7 0 -17 -12 -24 -27 -8 -16 -17 -35 -22 -45
-4 -9 -9 -36 -10 -60 -3 -50 -17 -77 -30 -56 -6 8 -9 1 -9 -19 0 -23 -5 -33
-15 -33 -11 0 -15 -11 -15 -40 0 -29 4 -40 15 -40 8 0 15 -9 15 -20 0 -16 -7
-20 -34 -20 -40 0 -66 -8 -66 -21 0 -8 -20 -35 -47 -64 -7 -8 -13 -17 -13 -22
0 -5 -25 -20 -56 -33 -30 -14 -62 -33 -71 -42 -22 -25 -33 -22 -33 8 0 33 -33
30 -38 -4 -5 -36 -39 -28 -46 12 -4 18 -4 40 -1 48 3 7 7 29 10 48 7 58 23
147 29 166 3 11 1 26 -4 34 -8 13 -10 13 -10 -1 0 -9 -7 -30 -15 -45 -8 -16
-15 -44 -15 -62 0 -18 -5 -43 -11 -54 -6 -11 -17 -55 -25 -97 -7 -42 -27 -134
-44 -206 -17 -71 -35 -150 -40 -175 -5 -25 -15 -63 -21 -85 -6 -22 -19 -67
-29 -100 -19 -67 -39 -142 -50 -195 -4 -19 -15 -62 -24 -95 -9 -33 -23 -112
-31 -175 -22 -175 -42 -273 -81 -410 -45 -155 -64 -224 -75 -275 -11 -47 -29
-85 -41 -85 -18 0 -1 242 27 365 21 93 61 290 80 395 10 52 30 147 45 210 15
63 38 160 50 215 12 55 39 161 60 235 20 74 45 169 54 210 28 120 62 257 91
365 7 28 16 62 19 76 3 15 17 34 31 43 19 13 25 25 25 54 0 58 56 206 81 214
11 4 30 48 53 123 7 22 17 51 23 65 6 14 39 97 73 185 34 88 68 174 75 190 7
17 29 66 49 111 47 107 173 352 250 486 33 59 75 132 91 162 17 30 51 85 77
123 25 37 65 106 89 153 23 47 54 110 69 140 15 30 37 85 50 122 12 37 26 70
31 73 5 4 9 16 9 29 0 12 4 26 9 31 17 17 42 137 52 240 5 55 13 110 19 123 5
13 10 45 10 71 0 27 6 66 14 87 7 22 16 67 20 102 4 35 10 70 13 78 4 11 -6
14 -45 14 l-50 0 -1 -47 c0 -43 -21 -182 -52 -358 -29 -165 -101 -404 -160
-532 -16 -35 -29 -65 -29 -68 0 -7 -120 -215 -155 -270 -18 -27 -56 -95 -85
-150 -29 -55 -62 -115 -73 -133 -28 -48 -237 -470 -237 -480 0 -7 -44 -115
-85 -207 -7 -16 -20 -55 -29 -85 -29 -99 -78 -220 -87 -214 -13 8 -11 27 8 70
22 54 26 130 6 150 -11 10 -14 26 -10 50 3 20 2 45 -4 57 -7 16 -5 38 7 77 8
30 17 71 19 90 2 19 13 69 24 110 11 41 21 89 21 105 0 17 7 41 15 55 9 15 14
54 15 100 0 45 6 86 15 103 8 15 17 43 21 62 3 18 13 36 21 39 12 5 14 17 8
62 -5 46 -4 59 11 76 16 16 18 36 17 120 -2 69 2 107 11 122 17 26 27 133 16
161 -7 18 -8 17 -14 -10 -4 -16 -11 -46 -17 -65 -21 -78 -29 -128 -29 -195 0
-43 -10 -104 -26 -160 -14 -49 -28 -110 -31 -135 -3 -25 -12 -54 -18 -65 -7
-11 -15 -49 -18 -85 -8 -92 -83 -461 -102 -496 -8 -16 -15 -36 -15 -45 0 -8
-8 -47 -19 -85 -10 -38 -30 -114 -45 -169 -27 -100 -66 -234 -112 -376 -13
-42 -24 -91 -24 -108 0 -17 -10 -64 -21 -104 -19 -62 -22 -102 -25 -297 -2
-215 -10 -280 -34 -280 -15 0 -27 34 -46 139 -19 106 -14 307 10 403 8 29 17
78 21 108 11 83 52 242 85 324 17 41 37 106 45 145 8 39 33 146 55 238 64 266
68 283 89 383 11 52 27 127 36 165 20 93 26 118 86 405 46 225 73 350 100 470
5 25 16 88 24 140 8 52 21 120 29 150 8 30 20 93 26 140 13 95 36 230 51 305
6 28 12 60 15 73 l4 22 -865 0 -865 0 0 -800z m12270 655 c0 -8 -4 -15 -10
-15 -5 0 -10 -9 -10 -19 0 -10 -7 -22 -15 -25 -20 -7 -36 32 -23 57 11 21 58
23 58 2z m-10661 -152 c5 -10 6 -58 2 -110 -5 -74 -10 -96 -28 -115 -19 -21
-21 -32 -18 -113 3 -86 -7 -143 -30 -174 -8 -11 -11 -4 -16 30 -4 30 -2 47 7
54 8 7 14 42 15 105 l3 95 -164 5 c-91 3 -239 2 -329 -2 -109 -5 -169 -4 -177
3 -7 6 -64 11 -127 11 -94 0 -120 -3 -145 -18 -39 -23 -46 -16 -26 24 13 27
19 30 44 25 25 -4 31 -1 41 20 10 21 18 25 54 25 29 -1 53 6 73 21 26 18 35
20 53 10 16 -8 23 -8 29 1 6 9 13 9 28 1 28 -15 38 -14 58 6 9 10 41 20 76 24
39 5 67 14 82 28 14 13 29 18 44 14 12 -3 29 0 36 6 9 7 42 12 78 11 35 -1 81
3 103 9 22 5 49 8 60 6 11 -3 43 -1 70 4 77 13 94 12 104 -6z m10311 -58 c0
-8 -7 -15 -15 -15 -9 0 -12 6 -9 15 4 8 10 15 15 15 5 0 9 -7 9 -15z m46 -22
c-10 -10 -19 5 -10 18 6 11 8 11 12 0 2 -7 1 -15 -2 -18z m-2218 -66 c12 -14
9 -153 -3 -165 -4 -4 -13 2 -21 13 -13 17 -18 18 -48 7 -25 -9 -51 -10 -98 -3
-34 5 -187 8 -338 7 -238 -3 -285 -6 -350 -24 -41 -11 -100 -23 -130 -26 -101
-12 -280 -67 -280 -86 0 -14 -31 -20 -51 -10 -29 16 -23 46 14 74 39 30 251
105 382 135 50 12 99 24 110 27 51 14 191 26 305 25 167 -1 253 -10 319 -32
65 -23 137 -25 144 -5 3 8 3 24 0 36 -9 32 25 52 45 27z m-9305 -100 c24 -13
25 -14 9 -40 -9 -15 -25 -30 -34 -33 -10 -3 -18 -10 -18 -15 0 -5 -5 -8 -12
-6 -7 1 -15 -15 -18 -37 -10 -52 -31 -64 -47 -25 -6 16 -17 29 -24 29 -7 0 -5
9 6 26 27 42 49 64 62 64 8 0 18 11 23 25 11 29 18 30 53 12z m3648 -108 c-9
-23 -10 -22 -10 11 -1 23 2 31 9 24 7 -7 7 -19 1 -35z m5707 26 c15 -8 53 -26
86 -40 75 -33 126 -72 119 -91 -3 -7 3 -34 13 -59 14 -33 24 -45 40 -45 35 0
50 -50 34 -112 -11 -43 -10 -52 3 -65 13 -14 16 -13 22 6 5 17 12 20 33 15 54
-13 55 -29 2 -49 -19 -7 -55 -21 -79 -31 -44 -18 -44 -18 -59 4 -11 17 -18 20
-34 11 -51 -27 -99 11 -63 51 10 11 14 26 10 41 -3 14 1 41 10 62 14 34 17 36
31 22 15 -15 34 -20 34 -9 0 10 -28 34 -41 34 -22 0 -38 35 -39 83 0 41 -3 49
-24 57 -13 5 -31 19 -40 32 -9 13 -33 32 -54 44 -20 11 -38 28 -40 37 -4 21 2
21 36 2z m-9518 -64 c0 -24 -18 -37 -32 -23 -8 8 -7 16 2 27 17 21 30 19 30
-4z m-82 -62 c-10 -6 -18 -17 -18 -24 0 -8 -5 -15 -11 -15 -5 0 -7 -5 -4 -11
4 -6 -2 -5 -14 3 -28 17 -27 22 11 52 22 17 36 22 43 15 7 -7 4 -13 -7 -20z
m56 -58 c-4 -20 -11 -42 -17 -48 -10 -14 -4 -17 27 -13 18 2 18 0 -2 -27 -11
-15 -34 -41 -51 -57 -17 -17 -31 -40 -31 -53 0 -13 -5 -23 -11 -23 -8 0 -9 11
-5 33 12 56 14 97 5 97 -5 0 -9 5 -9 10 0 6 7 10 15 10 8 0 15 9 15 19 0 11 5
23 11 27 6 3 8 17 5 30 -4 16 -1 26 11 32 30 17 44 3 37 -37z m-146 -34 c2
-16 -5 -35 -17 -49 -26 -27 -26 -29 -1 -56 24 -26 25 -30 3 -54 -16 -18 -16
-19 4 -24 25 -7 20 -34 -6 -34 -27 0 -42 20 -30 42 5 10 7 23 4 28 -11 18 -6
151 6 166 17 21 33 12 37 -19z m12350 -118 c44 -32 53 -58 27 -79 -12 -10 -21
-10 -44 0 -16 6 -42 11 -58 9 -15 -1 -35 1 -43 4 -8 3 -23 8 -32 11 -32 10
-18 31 40 58 31 15 59 27 63 28 3 0 24 -14 47 -31z m-1143 -4 c44 -8 116 -20
160 -26 73 -10 256 -40 365 -59 50 -9 262 -66 298 -81 20 -8 100 -27 205 -49
20 -4 40 -3 43 1 7 12 53 0 85 -22 32 -23 43 -66 23 -96 -8 -12 -14 -33 -14
-46 0 -30 -50 -127 -72 -141 -13 -8 -23 -8 -35 0 -10 5 -45 18 -78 28 -33 10
-75 25 -93 32 -18 8 -44 14 -57 14 -13 0 -28 6 -32 14 -10 17 -84 28 -208 30
-55 1 -119 8 -143 16 -35 11 -51 11 -97 0 -38 -9 -58 -10 -67 -2 -11 9 -93 12
-303 11 -27 0 -88 4 -135 9 -67 7 -88 6 -101 -4 -8 -8 -21 -14 -27 -14 -15 0
-16 32 -2 46 14 14 70 173 70 198 0 10 15 49 33 87 31 66 34 69 67 69 19 0 71
-7 115 -15z m1461 -92 c-3 -8 -6 -17 -6 -19 0 -2 -4 -4 -10 -4 -5 0 -10 11
-10 25 0 18 4 23 16 18 8 -3 13 -12 10 -20z m-96 -8 c0 -14 -4 -25 -10 -25 -5
0 -10 11 -10 25 0 14 5 25 10 25 6 0 10 -11 10 -25z m-2142 -52 c-3 -19 -51
-53 -159 -113 -34 -19 -92 -57 -128 -85 -80 -60 -221 -155 -275 -183 -21 -11
-45 -30 -53 -41 -14 -21 -43 -29 -43 -11 0 5 4 19 9 32 50 129 65 147 183 219
63 39 246 129 262 129 3 0 17 5 33 12 64 26 149 57 161 57 8 1 12 -7 10 -16z
m2189 -35 c-3 -7 -5 -2 -5 12 0 14 2 19 5 13 2 -7 2 -19 0 -25z m-2937 -400
c22 -18 40 -38 40 -45 0 -7 -30 -33 -67 -60 -38 -26 -71 -51 -74 -56 -4 -5
-20 -6 -37 -2 -16 3 -50 8 -73 10 -24 2 -45 8 -47 14 -2 5 -23 4 -51 -4 -67
-17 -91 -3 -57 34 24 26 46 26 96 1 22 -11 47 -20 57 -20 18 0 91 46 109 69 7
9 20 12 37 7 30 -7 43 6 22 24 -16 13 -20 42 -8 53 10 10 11 10 53 -25z m2717
-114 c-3 -3 -12 -4 -19 -1 -8 3 -5 6 6 6 11 1 17 -2 13 -5z m-1214 -119 c156
-24 312 -65 477 -128 122 -46 142 -65 92 -86 -26 -11 -51 -5 -255 63 -124 41
-255 82 -291 90 -94 22 -373 23 -445 3 -56 -17 -71 -15 -71 7 0 24 24 35 105
49 107 20 263 20 388 2z m-5955 -38 c2 -12 -3 -17 -17 -17 -12 0 -21 6 -21 13
0 31 32 34 38 4z m682 -31 c0 -8 -4 -18 -10 -21 -5 -3 -10 3 -10 14 0 12 5 21
10 21 6 0 10 -6 10 -14z m6069 -7 c-8 -5 -21 -9 -29 -9 -12 1 -11 4 4 15 10 8
23 12 29 8 5 -3 3 -9 -4 -14z m-6609 -34 c0 -8 9 -15 20 -15 11 0 20 -7 20
-15 0 -11 -12 -15 -44 -15 -25 0 -48 5 -51 10 -3 6 -1 10 4 10 6 0 11 9 11 20
0 13 7 20 20 20 11 0 20 -7 20 -15z m3979 -7 c-14 -29 -43 -53 -94 -80 -38
-20 -62 -23 -349 -54 -32 -3 -74 -12 -92 -20 -43 -18 -44 -18 -44 9 0 41 74
97 128 97 16 0 35 7 42 15 8 9 30 15 59 15 25 0 64 5 86 11 34 9 94 16 253 27
20 2 22 0 11 -20z m9181 -118 c0 -11 -4 -20 -10 -20 -5 0 -10 2 -10 4 0 2 -3
11 -6 20 -4 11 -1 16 10 16 9 0 16 -8 16 -20z m-12616 -21 c-8 -14 -24 -10
-24 6 0 9 6 12 15 9 8 -4 12 -10 9 -15z m13096 -19 c0 -16 -7 -20 -30 -20 -23
0 -30 4 -30 20 0 16 7 20 30 20 23 0 30 -4 30 -20z m-12990 -5 c0 -8 -7 -15
-15 -15 -16 0 -20 12 -8 23 11 12 23 8 23 -8z m3061 8 c0 -5 2 -16 4 -25 5
-25 -13 -33 -33 -14 -19 16 -45 14 -99 -10 -40 -18 -40 -18 -46 5 -6 24 10 31
66 31 23 0 49 5 57 10 18 12 50 13 51 3z m66 1 c-3 -3 -12 -4 -19 -1 -8 3 -5
6 6 6 11 1 17 -2 13 -5z m8343 -54 c0 -27 -2 -30 -20 -20 -11 6 -24 19 -30 30
-10 18 -7 20 20 20 27 0 30 -3 30 -30z m623 23 c-13 -2 -23 -11 -23 -19 0 -22
53 -18 70 6 13 18 26 20 152 20 l138 0 0 -25 0 -25 -200 0 -200 0 0 25 c0 23
3 25 43 24 23 -1 32 -4 20 -6z m-16993 -32 c0 -38 -18 -49 -29 -19 -10 28 -4
48 15 48 9 0 14 -11 14 -29z m7690 13 c0 -12 -34 -33 -52 -34 -10 0 -18 6 -18
14 0 9 8 12 25 8 15 -2 25 0 25 7 0 6 5 11 10 11 6 0 10 -3 10 -6z m-80 -49
c0 -9 -9 -15 -21 -15 -18 0 -19 2 -9 15 7 8 16 15 21 15 5 0 9 -7 9 -15z
m8757 -27 c-3 -8 -6 -5 -6 6 -1 11 2 17 5 13 3 -3 4 -12 1 -19z m563 8 c0 -12
-14 -14 -80 -9 l-80 5 0 -31 c0 -30 -2 -31 -40 -31 l-40 0 0 40 0 40 120 0
c98 0 120 -3 120 -14z m160 -25 l0 -39 -70 -4 c-81 -3 -90 -2 -90 18 0 10 12
14 40 14 36 0 40 3 40 25 0 23 4 25 40 25 40 0 40 0 40 -39z m240 29 c0 -5
-18 -10 -40 -10 -22 0 -40 5 -40 10 0 6 18 10 40 10 22 0 40 -4 40 -10z
m-2177 -27 c-13 -2 -33 -2 -45 0 -13 2 -3 4 22 4 25 0 35 -2 23 -4z m1185 -15
c19 -19 14 -28 -18 -28 -23 0 -30 4 -30 20 0 23 29 27 48 8z m-1158 -16 c0 -5
-13 -7 -30 -4 -16 2 -30 6 -30 8 0 2 14 4 30 4 17 0 30 -4 30 -8z m-267 -19
c-13 -2 -33 -2 -45 0 -13 2 -3 4 22 4 25 0 35 -2 23 -4z m1720 -50 c-35 -2
-91 -2 -125 0 -35 2 -7 3 62 3 69 0 97 -1 63 -3z m-903 -33 c0 -5 -4 -10 -9
-10 -6 0 -13 5 -16 10 -3 6 1 10 9 10 9 0 16 -4 16 -10z m-5796 -25 c-10 -8
-27 -15 -37 -15 -10 0 -20 -7 -23 -15 -7 -16 -44 -21 -44 -5 0 5 11 12 25 16
14 3 25 10 25 14 0 9 23 17 54 19 20 1 20 1 0 -14z m-158 -84 c-32 -33 -66
-46 -66 -26 0 7 17 22 38 33 53 28 60 26 28 -7z m-141 -81 c-3 -5 -13 -10 -21
-10 -8 0 -12 5 -9 10 3 6 13 10 21 10 8 0 12 -4 9 -10z m-115 -60 c0 -5 -2
-10 -4 -10 -3 0 -8 5 -11 10 -3 6 -1 10 4 10 6 0 11 -4 11 -10z m-66 -16 c18
-7 12 -24 -10 -24 -8 0 -14 7 -14 15 0 17 2 18 24 9z m-2159 -14 c8 -13 -15
-13 -35 0 -12 8 -11 10 7 10 12 0 25 -4 28 -10z m137 -22 c-6 -6 -19 -7 -29
-3 -17 7 -17 8 2 15 24 9 41 2 27 -12z m1818 -13 c0 -20 -22 -65 -32 -65 -7 0
-4 30 8 68 5 17 24 15 24 -3z m170 9 c0 -14 -34 -31 -52 -26 -14 3 -16 7 -7
18 11 14 59 20 59 8z m-176 -89 c-7 -16 -24 -21 -24 -6 0 8 7 13 27 20 1 1 0
-6 -3 -14z m-5364 -5 c0 -5 -7 -10 -15 -10 -8 0 -15 5 -15 10 0 6 7 10 15 10
8 0 15 -4 15 -10z m-63 -92 c-3 -8 -6 -5 -6 6 -1 11 2 17 5 13 3 -3 4 -12 1
-19z m383 -148 c-8 -6 -23 -10 -32 -10 -9 0 -20 -4 -23 -10 -7 -12 -25 -13
-25 -2 0 4 19 15 43 24 43 16 63 15 37 -2z m-428 -45 c0 -5 -5 -11 -10 -13 -5
-1 -9 4 -9 13 0 9 4 14 9 13 5 -2 10 -8 10 -13z m623 -59 c17 -7 14 -10 -20
-21 -21 -8 -41 -12 -43 -11 -5 6 31 46 37 42 3 -2 15 -6 26 -10z m-725 -6 c0
-5 -4 -10 -10 -10 -5 0 -10 5 -10 10 0 6 5 10 10 10 6 0 10 -4 10 -10z m130
-71 c0 -5 -8 -9 -17 -9 -9 0 -26 -8 -37 -18 -12 -11 -41 -27 -66 -36 -38 -15
-46 -16 -55 -3 -6 8 -19 17 -30 19 -16 4 -14 6 10 12 17 4 59 15 95 24 78 21
100 24 100 11z m487 -21 c-3 -8 -6 -5 -6 6 -1 11 2 17 5 13 3 -3 4 -12 1 -19z
m-776 -39 c11 -5 17 -14 14 -20 -10 -16 -32 -10 -38 11 -6 23 -3 24 24 9z
m107 -31 c-2 -6 -27 -23 -54 -38 -28 -15 -75 -42 -105 -61 -30 -19 -65 -41
-79 -49 -84 -48 -137 -80 -150 -92 -18 -15 -70 -40 -70 -32 0 14 73 75 85 70
9 -3 12 0 9 9 -3 8 3 16 15 20 12 3 19 11 16 16 -3 5 0 6 8 3 8 -3 20 2 27 11
7 8 18 15 24 15 6 0 19 9 29 20 11 13 29 20 52 20 19 0 35 4 35 9 0 5 3 16 6
25 4 11 1 16 -10 16 -9 0 -16 5 -16 10 0 14 19 12 36 -4 20 -20 50 -9 64 24 7
16 19 31 28 33 22 5 54 -11 50 -25z m852 6 c0 -8 -4 -12 -10 -9 -5 3 -10 13
-10 21 0 8 5 12 10 9 6 -3 10 -13 10 -21z m-180 -94 c0 -16 -4 -30 -9 -30 -5
0 -9 14 -9 30 1 17 5 30 10 30 4 0 8 -13 8 -30z m-140 -10 c0 -11 -4 -20 -9
-20 -5 0 -11 9 -14 20 -3 13 0 20 9 20 8 0 14 -9 14 -20z m-4028 -75 c4 -20 3
-23 -8 -14 -16 13 -19 39 -5 39 5 0 11 -11 13 -25z m2808 -45 c0 -11 -5 -20
-10 -20 -6 0 -32 -21 -57 -46 -54 -52 -152 -116 -270 -174 -24 -12 -43 -25
-43 -30 0 -5 -17 -14 -37 -21 -21 -7 -42 -18 -48 -25 -13 -18 -75 -30 -75 -16
0 14 40 42 58 42 8 0 23 11 34 25 11 14 24 25 30 25 6 0 61 34 123 75 61 41
115 75 119 75 4 0 27 16 50 35 24 19 48 35 53 35 5 0 18 9 28 20 10 11 24 20
32 20 7 0 13 -9 13 -20z m-2800 -25 c0 -8 -4 -15 -10 -15 -5 0 -10 7 -10 15 0
8 5 15 10 15 6 0 10 -7 10 -15z m3917 -27 c-3 -8 -6 -5 -6 6 -1 11 2 17 5 13
3 -3 4 -12 1 -19z m-897 -15 c0 -5 -33 -26 -72 -48 -40 -22 -87 -50 -105 -62
-58 -39 -143 -84 -143 -75 0 9 110 82 125 82 6 0 15 10 20 23 6 12 21 23 35
25 14 2 29 8 35 13 5 5 17 9 27 9 10 0 18 4 18 8 0 5 10 14 23 20 27 13 37 14
37 5z m-3050 -63 c0 -5 -5 -10 -11 -10 -5 0 -7 5 -4 10 3 6 8 10 11 10 2 0 4
-4 4 -10z m3910 0 c0 -17 -30 -24 -43 -11 -9 9 -8 11 6 6 10 -4 17 -2 17 4 0
6 5 11 10 11 6 0 10 -5 10 -10z m12890 -162 c-23 -105 -82 -274 -115 -334 -14
-25 -25 -51 -25 -58 0 -8 -18 -49 -39 -92 -21 -44 -49 -101 -61 -129 -11 -27
-25 -59 -30 -70 -8 -19 -35 -85 -65 -165 -20 -52 -45 -145 -45 -168 0 -27 -14
-30 -140 -31 -157 -2 -266 -26 -330 -71 -29 -20 -60 -27 -60 -12 0 40 116 260
194 368 28 40 89 125 136 190 57 80 135 170 240 274 85 85 197 201 249 257 52
57 97 101 99 98 2 -2 -1 -28 -8 -57z m-13166 7 c-10 -25 -54 -45 -54 -25 0 6
7 10 15 10 9 0 18 7 21 15 4 8 10 15 15 15 4 0 6 -7 3 -15z m-964 -15 c-24
-15 -37 -11 -16 5 11 8 22 12 25 9 3 -3 -1 -9 -9 -14z m-2970 -21 c0 -27 -28
-35 -48 -15 -15 15 -15 17 3 30 24 17 45 10 45 -15z m-96 15 c20 -8 11 -24
-15 -24 -19 0 -25 11 -12 23 8 8 8 8 27 1z m4249 -81 c-13 -2 -33 -2 -45 0
-13 2 -3 4 22 4 25 0 35 -2 23 -4z m2657 -83 c0 -5 -6 -10 -14 -10 -8 0 -18 5
-21 10 -3 6 3 10 14 10 12 0 21 -4 21 -10z m-4230 -54 c0 -2 -8 -10 -17 -17
-16 -13 -17 -12 -4 4 13 16 21 21 21 13z m136 -68 c-4 -18 -11 -58 -16 -88
-14 -91 -102 -413 -141 -518 -13 -33 -70 -55 -106 -41 -15 6 -55 15 -88 20
-36 6 -69 18 -82 31 -21 20 -24 20 -47 4 -26 -16 -164 -23 -213 -10 -22 6
-113 115 -113 137 0 11 84 62 103 62 5 0 17 -16 26 -35 17 -37 43 -49 66 -30
18 15 19 53 4 81 -5 11 -7 27 -4 37 6 18 144 112 165 112 10 0 12 -21 8 -89
-6 -92 0 -111 33 -111 35 0 43 27 41 141 l-1 110 42 26 c131 78 246 151 271
171 42 33 60 29 52 -10z m-1615 -120 c9 -18 8 -29 -9 -62 -30 -59 -52 -112
-52 -125 0 -15 -39 -34 -56 -27 -39 15 3 154 63 211 34 31 39 31 54 3z m6652
-305 c-13 -2 -33 -2 -45 0 -13 2 -3 4 22 4 25 0 35 -2 23 -4z m-5874 -114 c19
-22 29 -44 25 -48 -14 -12 -174 -1 -174 13 1 9 92 71 111 75 3 1 20 -17 38
-40z m6213 -79 c-4 -25 -7 -28 -23 -20 -10 6 -23 19 -29 30 -10 18 -7 20 23
20 32 0 33 -2 29 -30z m718 20 c0 -6 -33 -10 -80 -10 -47 0 -80 4 -80 10 0 6
33 10 80 10 47 0 80 -4 80 -10z m-337 -67 c-13 -2 -33 -2 -45 0 -13 2 -3 4 22
4 25 0 35 -2 23 -4z m5578 -306 c23 -15 40 -38 52 -72 32 -90 12 -295 -46
-475 -50 -156 -188 -445 -221 -462 -28 -15 -36 -28 -36 -61 0 -37 -81 -123
-152 -163 -65 -35 -166 -41 -211 -11 -53 35 -91 140 -102 284 -5 70 -3 98 8
120 10 20 12 35 5 53 -13 36 7 168 42 267 27 77 38 101 93 197 31 54 198 210
255 237 26 13 70 36 97 52 104 61 162 70 216 34z m-12863 -601 c5 -93 -20 -99
-75 -17 -48 70 -45 83 20 79 l52 -3 3 -59z m476 -132 c17 -17 20 -68 8 -124
-5 -19 -5 -46 -1 -60 l7 -25 1 25 c2 30 17 57 27 47 13 -13 8 -68 -26 -261 -6
-33 -8 -66 -6 -73 3 -8 6 -142 7 -299 1 -219 4 -294 15 -319 7 -18 18 -35 23
-37 5 -1 12 -18 14 -37 3 -18 10 -38 16 -44 6 -6 11 -19 11 -29 0 -10 6 -18
13 -18 6 0 32 -25 57 -54 25 -30 54 -57 65 -60 10 -3 17 -8 14 -10 -10 -10
-82 16 -134 49 -103 67 -169 172 -211 341 -20 84 -27 135 -38 299 -5 71 12
340 26 405 6 30 12 71 13 91 5 88 28 179 51 202 12 12 31 8 48 -9z m31 -114
c3 -5 1 -10 -4 -10 -6 0 -11 5 -11 10 0 6 2 10 4 10 3 0 8 -4 11 -10z m-284
-47 c11 -12 14 -63 15 -222 1 -113 4 -214 9 -223 6 -15 2 -18 -18 -18 -13 0
-29 6 -35 13 -6 7 -11 95 -13 217 -3 240 4 279 42 233z m5879 -171 c0 -4 -37
-25 -82 -46 -46 -20 -90 -42 -98 -47 -52 -32 -94 -50 -107 -47 -19 4 53 52 93
62 15 4 40 16 55 27 15 10 31 19 36 19 6 0 18 9 28 20 17 19 75 29 75 12z
m192 -94 c25 -87 35 -188 19 -188 -6 0 -11 17 -12 38 -1 46 -3 59 -27 147 -17
62 -19 95 -5 82 2 -3 14 -38 25 -79z m-142 -18 c0 -5 -4 -10 -10 -10 -5 0 -10
5 -10 10 0 6 5 10 10 10 6 0 10 -4 10 -10z m-376 -54 c-5 -13 -46 -36 -65 -36
-6 0 -25 -11 -42 -24 -18 -13 -79 -48 -137 -79 -222 -116 -285 -150 -298 -160
-7 -5 -15 -7 -18 -4 -8 8 57 53 99 68 20 7 37 16 37 20 0 9 128 84 160 94 14
4 37 16 52 26 14 11 30 19 36 19 8 0 28 15 72 52 41 36 115 53 104 24z m566
-181 c4 -5 10 -35 14 -65 6 -43 5 -52 -5 -43 -15 15 -38 132 -30 153 4 10 7 7
9 -10 2 -14 7 -29 12 -35z m-6149 -3 c103 -68 99 -63 99 -120 0 -54 -13 -92
-30 -92 -30 0 -157 188 -146 216 7 19 45 18 77 -4z m-551 -31 c0 -5 -10 -13
-22 -17 -13 -3 -45 -21 -73 -39 -56 -37 -208 -115 -273 -141 -28 -11 -48 -27
-55 -44 -13 -30 -84 -96 -94 -87 -8 9 21 77 51 122 14 21 26 41 26 46 0 5 22
15 49 23 27 8 82 29 122 47 64 28 239 94 262 98 4 0 7 -3 7 -8z m13460 -28
c54 -36 140 -116 140 -129 0 -23 -24 -16 -107 31 -76 42 -112 82 -98 106 9 14
38 11 65 -8z m-146 -19 c86 -12 46 -19 -111 -19 -162 0 -326 -22 -382 -51 -14
-8 -34 -14 -43 -14 -9 0 -19 -4 -22 -9 -3 -5 -18 -12 -33 -15 -37 -9 -190 -83
-228 -110 -41 -29 -77 -47 -83 -42 -2 3 5 18 17 35 20 28 170 111 201 111 14
0 49 17 165 80 l70 38 201 1 c111 1 222 -2 248 -5z m-6570 -162 c4 -52 5 -97
1 -100 -13 -13 -22 22 -29 103 -3 46 -9 91 -12 100 -6 15 -4 15 13 4 17 -10
22 -27 27 -107z m-1224 88 c-8 -5 -17 -7 -19 -4 -3 3 1 9 9 14 8 5 17 7 19 4
3 -3 -1 -9 -9 -14z m7836 -10 c32 -6 73 -16 89 -22 43 -15 204 -96 243 -122
54 -35 273 -320 424 -551 35 -55 108 -165 160 -245 112 -172 243 -385 280
-456 14 -27 35 -66 46 -85 34 -61 104 -191 158 -293 l52 -100 -26 -20 c-17
-13 -37 -19 -62 -17 -43 3 -55 -9 -102 -102 l-34 -69 -25 48 c-53 102 -182
138 -349 98 -55 -14 -105 -18 -188 -16 -135 4 -151 -3 -180 -79 l-19 -52 -39
69 c-23 39 -51 74 -66 81 -35 17 -248 29 -274 15 -11 -6 -103 -16 -204 -23
-204 -13 -235 -22 -245 -69 -7 -30 -7 -30 -41 37 -19 37 -45 86 -58 108 -26
43 -88 166 -117 230 -10 22 -32 72 -50 110 -17 39 -47 120 -66 180 -18 61 -43
139 -55 175 -11 36 -27 92 -35 125 -9 33 -24 89 -33 125 -10 36 -22 89 -25
117 -4 30 -17 68 -31 88 -13 20 -24 42 -24 49 0 8 -9 33 -20 57 -11 24 -20 59
-20 77 0 18 -5 43 -11 54 -8 15 -8 27 0 45 9 19 9 29 0 39 -9 11 -5 16 15 25
14 7 26 18 26 26 0 7 5 12 11 11 6 -2 14 3 17 11 3 11 -1 12 -19 7 -44 -14
-79 -18 -79 -10 1 15 24 40 49 53 13 7 43 28 66 46 45 34 321 172 388 195 110
36 351 51 473 30z m-7866 -9 c0 -10 -30 -24 -37 -17 -3 3 -2 9 2 15 8 13 35
15 35 2z m-80 -41 c0 -6 -12 -15 -26 -20 -37 -14 -40 -12 -18 9 21 22 44 27
44 11z m8360 -35 c0 -8 -2 -15 -4 -15 -2 0 -6 7 -10 15 -3 8 -1 15 4 15 6 0
10 -7 10 -15z m-8478 -35 c-13 -10 -30 -16 -39 -13 -14 6 -14 8 3 20 10 7 27
13 38 13 20 -1 20 -1 -2 -20z m8522 4 c9 -3 16 -14 16 -24 0 -10 7 -23 15 -30
9 -7 13 -15 11 -17 -6 -7 -66 55 -66 67 0 12 3 12 24 4z m-13202 -31 c9 -10
18 -45 21 -78 13 -140 27 -205 62 -295 21 -52 46 -117 57 -145 15 -38 31 -58
70 -85 28 -19 67 -49 87 -67 21 -18 58 -37 86 -44 61 -14 85 -26 85 -40 0 -35
-172 43 -245 111 -22 20 -54 42 -71 49 -27 11 -74 59 -74 76 0 4 -14 37 -31
73 -17 37 -37 87 -45 112 -24 82 -54 247 -54 299 0 43 3 51 18 51 11 0 26 -8
34 -17z m4593 -23 c-3 -5 -15 -10 -26 -10 -11 0 -17 5 -14 10 3 6 15 10 26 10
11 0 17 -4 14 -10z m8713 -76 c6 -11 17 -15 30 -12 14 4 22 0 25 -13 3 -11 1
-19 -4 -19 -15 0 3 -30 47 -78 24 -26 44 -51 44 -55 0 -5 5 -5 10 -2 6 4 18 4
26 1 14 -5 14 -8 0 -22 -18 -18 -20 -30 -7 -39 6 -3 14 3 20 12 6 10 11 14 11
8 1 -5 5 -1 10 10 7 17 9 17 9 3 1 -10 6 -18 11 -18 6 0 10 -7 10 -15 0 -8 -4
-15 -10 -15 -5 0 -10 -7 -10 -16 0 -8 4 -13 9 -10 4 3 16 -11 25 -32 45 -100
73 -132 93 -106 6 9 16 13 22 9 17 -10 13 -25 -6 -26 -16 -1 -16 -2 0 -6 12
-3 17 -11 14 -23 -4 -14 1 -17 18 -15 16 1 22 -2 18 -11 -3 -8 3 -21 12 -30 9
-9 14 -23 11 -30 -3 -8 3 -20 14 -26 11 -7 20 -18 20 -25 0 -6 9 -15 21 -18
13 -5 19 -14 18 -28 -3 -22 57 -127 72 -127 11 0 30 -73 21 -80 -17 -11 -22
-40 -6 -40 8 0 18 10 23 23 13 35 39 53 54 38 9 -9 7 -20 -9 -49 l-22 -37 26
-2 c14 0 31 5 37 12 5 7 30 15 55 18 l45 6 -25 -19 c-14 -11 -33 -22 -43 -26
-11 -3 -39 -19 -63 -36 -25 -16 -50 -28 -57 -25 -7 3 -29 38 -51 78 -21 41
-44 81 -51 89 -7 8 -22 33 -33 55 -11 22 -40 71 -65 109 -38 57 -44 74 -40
102 5 32 3 34 -26 40 -21 5 -31 12 -31 25 0 11 -7 19 -15 19 -8 0 -21 15 -30
33 -8 17 -25 45 -37 61 -69 89 -118 160 -118 172 0 8 -3 14 -7 14 -5 0 -19 17
-33 38 -13 20 -36 51 -50 69 -59 75 -69 91 -63 97 11 10 22 7 31 -10z m-7153
-23 c3 -5 1 -12 -5 -16 -5 -3 -10 1 -10 9 0 18 6 21 15 7z m-7325 -10 c0 -5
-7 -14 -15 -21 -16 -14 -18 -10 -9 14 6 17 24 22 24 7z m2342 -21 c15 -17 31
-53 37 -81 6 -28 18 -63 27 -78 14 -24 14 -30 0 -64 -13 -32 -19 -37 -49 -37
-19 0 -40 7 -47 15 -13 15 -33 252 -24 267 10 16 30 7 56 -22z m-1244 -28 c3
-20 -9 -28 -92 -67 -116 -55 -149 -74 -391 -234 -322 -212 -553 -382 -680
-502 -65 -61 -142 -115 -151 -106 -3 2 7 24 21 48 35 63 237 238 442 384 78
56 354 240 403 269 25 15 74 46 110 69 93 60 302 167 320 164 8 -1 16 -12 18
-25z m4422 4 c0 -3 -4 -8 -10 -11 -5 -3 -10 -1 -10 4 0 6 5 11 10 11 6 0 10
-2 10 -4z m-75 -46 c-3 -5 -12 -7 -20 -3 -21 7 -19 13 6 13 11 0 18 -4 14 -10z
m9205 -21 c0 -5 -7 -9 -15 -9 -8 0 -15 7 -15 15 0 9 6 12 15 9 8 -4 15 -10 15
-15z m-9273 -15 c-3 -3 -12 -4 -19 -1 -8 3 -5 6 6 6 11 1 17 -2 13 -5z m1773
-54 c0 -5 -7 -10 -16 -10 -8 0 -12 5 -9 10 3 6 10 10 16 10 5 0 9 -4 9 -10z
m-90 -30 c0 -5 -12 -10 -27 -9 -25 0 -26 1 -8 9 27 12 35 12 35 0z m-103 -36
c-3 -3 -12 -4 -19 -1 -8 3 -5 6 6 6 11 1 17 -2 13 -5z m-150 -30 c-3 -3 -12
-4 -19 -1 -8 3 -5 6 6 6 11 1 17 -2 13 -5z m8003 -38 c0 -6 -5 -4 -10 4 -9 13
-11 13 -20 0 -11 -17 -13 -1 -3 26 6 16 7 16 20 -2 7 -10 13 -23 13 -28z
m-8300 4 c0 -5 -4 -10 -9 -10 -6 0 -13 5 -16 10 -3 6 1 10 9 10 9 0 16 -4 16
-10z m-257 -27 c-7 -2 -19 -2 -25 0 -7 3 -2 5 12 5 14 0 19 -2 13 -5z m-4932
-219 c56 -60 191 -146 263 -166 39 -11 93 -29 120 -39 37 -15 75 -19 160 -19
105 0 109 -1 87 -16 -24 -17 -131 -27 -131 -12 0 4 -4 8 -10 8 -16 0 -12 -22
7 -35 24 -18 10 -44 -20 -38 -19 4 -27 0 -31 -15 -4 -11 -16 -22 -27 -25 -11
-3 -23 -15 -26 -26 -5 -18 -24 -26 -54 -23 -3 1 -12 -10 -19 -22 -7 -13 -31
-37 -53 -52 -23 -16 -57 -46 -77 -66 -20 -21 -44 -38 -52 -38 -8 0 -28 -15
-44 -33 -16 -18 -44 -39 -61 -46 -21 -8 -33 -20 -33 -32 0 -10 -10 -24 -22
-30 -13 -7 -37 -24 -54 -38 -63 -53 -88 -70 -96 -65 -4 3 -8 0 -8 -5 0 -6 -10
-10 -22 -8 -19 2 -23 -2 -20 -24 3 -23 -1 -27 -31 -32 -24 -4 -53 -23 -93 -61
-33 -31 -66 -63 -75 -71 -9 -8 -19 -15 -23 -15 -3 0 -21 -16 -38 -35 -24 -28
-33 -33 -44 -24 -11 9 -14 8 -14 -5 0 -9 -6 -16 -12 -17 -10 0 -10 -2 0 -6 25
-10 11 -21 -24 -16 -31 4 -40 0 -72 -34 -20 -21 -59 -54 -85 -73 -26 -19 -67
-50 -90 -67 -23 -18 -49 -33 -59 -33 -16 0 -62 -47 -70 -71 -7 -22 -28 1 -28
30 0 54 74 288 122 386 34 69 118 214 128 220 4 2 30 -24 59 -59 50 -61 85
-86 116 -86 29 0 14 21 -39 55 -29 19 -61 41 -70 50 -21 21 -20 79 1 113 26
41 172 218 245 297 36 39 113 131 171 205 137 173 196 240 211 240 7 0 23 -12
37 -26z m15259 6 c0 -5 -15 -10 -32 -10 -25 0 -29 3 -18 10 20 13 50 13 50 0z
m387 -26 c-3 -3 -12 -4 -19 -1 -8 3 -5 6 6 6 11 1 17 -2 13 -5z m-354 -164
c14 -164 44 -275 134 -505 30 -79 42 -110 48 -132 3 -12 16 -37 29 -55 12 -19
27 -61 33 -93 6 -33 14 -70 18 -82 5 -16 3 -23 -6 -23 -7 0 -20 -7 -30 -16
-16 -14 -20 -14 -43 1 -14 10 -26 22 -26 29 0 6 -6 4 -13 -5 -10 -12 -53 -18
-220 -29 l-208 -13 -25 24 c-22 20 -35 24 -83 22 l-58 -2 -6 87 c-3 48 -10
107 -16 132 -6 25 -23 108 -37 185 -15 77 -35 165 -45 195 -31 97 -51 183 -46
202 4 14 -1 18 -23 18 -33 0 -60 9 -60 20 0 10 32 19 150 40 52 10 156 30 230
44 74 15 145 24 156 21 12 -3 35 2 50 10 16 9 43 14 59 13 l30 -3 8 -85z m594
64 c-3 -3 -12 -4 -19 -1 -8 3 -5 6 6 6 11 1 17 -2 13 -5z m-14178 -191 c6 -93
16 -249 22 -348 5 -99 11 -186 14 -192 6 -17 -4 -43 -16 -43 -32 0 -58 189
-66 487 -4 180 -3 236 7 248 7 8 16 15 19 15 4 0 13 -75 20 -167z m-861 100
c2 -12 -2 -31 -8 -43 -9 -17 -14 -19 -26 -9 -14 12 -19 60 -7 73 13 13 38 1
41 -21z m13392 7 c-20 -13 -43 -13 -35 0 3 6 16 10 28 10 18 0 19 -2 7 -10z
m1314 -45 c136 -29 280 -96 375 -175 65 -54 76 -81 40 -101 -18 -9 -26 -6 -58
23 -52 49 -106 83 -191 119 -92 39 -249 79 -312 79 -52 0 -63 9 -54 46 6 22
11 24 69 24 34 0 93 -7 131 -15z m-1536 -25 c-14 -4 -31 -11 -37 -15 -6 -3
-11 1 -11 9 0 12 10 16 38 15 34 -1 35 -1 10 -9z m45 -112 c-30 -34 -41 -74
-48 -173 -15 -187 -9 -253 17 -227 16 16 28 15 28 -3 0 -8 5 -15 11 -15 5 0 7
-5 3 -12 -6 -9 -9 -9 -12 0 -5 17 -22 15 -22 -3 0 -9 12 -27 28 -42 15 -14 26
-31 24 -39 -4 -20 47 -96 69 -101 10 -3 19 -13 19 -22 0 -14 -2 -14 -10 -1 -6
10 -10 11 -10 3 0 -7 -12 -13 -28 -13 -20 0 -30 7 -39 28 -48 112 -62 139 -76
151 -10 7 -17 24 -17 38 0 13 -6 26 -14 29 -30 12 -38 57 -21 124 15 60 17 80
14 198 -1 71 19 102 68 102 l36 0 -20 -22z m2269 -102 l21 -28 -24 7 c-39 12
-92 62 -82 78 7 12 63 -25 85 -57z m136 36 c2 -7 -3 -12 -12 -12 -9 0 -16 7
-16 16 0 17 22 14 28 -4z m58 -53 c4 -8 1 -8 -14 0 -12 6 -24 16 -28 22 -4 8
-1 8 14 0 12 -6 24 -16 28 -22z m-16790 -426 c-10 -10 -19 5 -10 18 6 11 8 11
12 0 2 -7 1 -15 -2 -18z m2064 -27 c0 -19 -4 -23 -19 -19 -11 3 -21 -1 -24 -9
-2 -7 -3 -5 -2 5 2 9 -1 17 -7 17 -5 0 -6 5 -2 11 5 8 8 8 14 0 5 -9 10 -8 20
4 17 20 20 19 20 -9z m14320 -69 c11 -5 9 -6 -4 -4 -11 1 -21 9 -23 17 -3 10
-2 11 4 4 4 -6 15 -14 23 -17z m-14343 -64 c-3 -10 -5 -2 -5 17 0 19 2 27 5
18 2 -10 2 -26 0 -35z m43 20 c0 -20 -3 -24 -11 -16 -7 7 -9 19 -6 27 10 24
17 19 17 -11z m449 -71 c5 -20 14 -50 20 -67 27 -75 62 -198 57 -202 -21 -21
-142 314 -128 356 6 17 40 -40 51 -87z m11976 22 l40 -5 39 -105 c22 -58 44
-107 49 -111 5 -3 7 3 4 13 -3 11 -9 56 -12 102 l-7 82 73 0 c100 0 149 -9
149 -27 0 -11 8 -13 28 -9 32 7 299 46 313 46 5 0 9 -11 9 -25 0 -24 3 -25 58
-25 31 1 145 7 252 14 107 8 196 13 196 12 1 0 5 -33 9 -73 l7 -71 -64 -6
c-34 -3 -76 -7 -93 -8 -16 -2 -29 -7 -28 -13 1 -5 4 -79 7 -162 4 -102 3 -153
-4 -153 -5 0 -10 8 -11 18 0 15 -1 15 -8 -2 -6 -16 -8 -17 -13 -4 -4 9 -2 20
4 26 6 6 1 8 -16 5 -17 -4 -26 -12 -26 -24 0 -11 -6 -19 -14 -19 -23 0 -24
-32 -3 -73 17 -33 18 -40 6 -48 -11 -7 -11 -9 4 -9 9 0 17 -4 17 -10 0 -13
-77 -13 -85 0 -3 5 -11 111 -17 235 l-12 226 -95 -1 c-129 -2 -131 -2 -131 15
0 11 -8 13 -32 8 -18 -3 -37 -9 -42 -14 -6 -6 -27 -188 -36 -311 0 -5 41 -8
90 -8 l90 0 0 -75 0 -75 -180 0 -180 0 0 -85 0 -85 -64 0 -63 0 -64 180 c-35
99 -67 180 -70 180 -3 0 -4 -67 -1 -150 l3 -150 -25 0 c-25 0 -25 0 -10 -35
19 -46 18 -53 -8 -57 -13 -2 28 -8 90 -12 l112 -8 0 -93 c0 -127 6 -152 38
-158 l25 -5 -7 120 -6 121 46 -7 c26 -3 66 -6 90 -6 l42 0 6 -62 c7 -80 14
-279 8 -255 -2 9 -10 17 -17 17 -14 0 -45 53 -45 79 -1 9 -7 3 -15 -14 -7 -16
-14 -26 -14 -21 -1 5 -12 -1 -26 -14 -13 -12 -22 -28 -18 -34 3 -6 0 -5 -8 1
-20 19 -33 16 -14 -3 10 -11 13 -19 6 -23 -14 -9 -2 -53 13 -44 6 3 8 3 4 -1
-3 -4 0 -19 7 -32 8 -15 11 -42 8 -65 -3 -22 -1 -50 5 -62 14 -28 21 -97 10
-97 -4 0 -8 -7 -8 -16 0 -9 5 -12 12 -8 8 5 9 2 5 -9 -3 -9 -2 -19 3 -22 15
-10 12 -23 -7 -28 -14 -4 -12 -5 5 -6 24 -1 30 -16 10 -25 -7 -3 1 -3 17 0 32
7 69 40 59 55 -3 6 2 21 11 35 9 13 13 29 10 34 -4 6 1 13 9 16 11 4 13 11 6
30 -7 17 -6 23 3 21 7 -1 11 4 9 12 -3 12 -1 12 13 1 9 -7 15 -9 14 -4 -4 23
2 43 21 64 11 13 20 32 20 42 0 11 5 16 10 13 6 -3 10 -1 10 4 0 6 5 11 10 11
16 0 12 -21 -7 -37 -10 -8 -12 -11 -5 -8 11 6 12 3 4 -11 -5 -11 -26 -55 -47
-99 -20 -44 -41 -83 -47 -86 -5 -3 -9 -9 -9 -13 1 -3 1 -33 1 -66 l0 -60 -70
0 c-63 0 -70 2 -70 20 0 16 -7 20 -30 20 -36 0 -36 2 -9 50 21 37 21 39 5 166
-22 168 -23 174 -40 168 -8 -3 -17 -1 -21 5 -3 6 -1 11 4 11 6 0 11 5 11 10 0
6 -8 5 -20 -2 -19 -12 -20 -24 -20 -205 l0 -193 -85 0 -85 0 0 111 c0 61 5
119 11 131 8 16 8 19 -1 13 -7 -4 -17 -1 -22 6 -7 10 -8 8 -3 -8 8 -28 -41
-85 -98 -112 -86 -41 -211 -37 -270 9 -14 11 -28 20 -31 20 -3 0 -6 -52 -6
-115 l0 -115 -64 0 -63 0 -64 180 c-35 99 -67 180 -71 180 -4 0 -4 -67 -1
-150 l6 -150 -26 0 -25 0 15 -40 c9 -22 14 -42 12 -44 -2 -2 -34 -7 -70 -10
l-66 -7 -83 193 c-46 106 -83 194 -84 195 -1 0 -22 4 -48 8 l-48 7 -40 -83
-41 -84 36 -3 35 -3 0 -76 0 -75 -186 6 c-102 3 -196 9 -210 12 -28 7 -29 -1
-9 -48 l14 -35 -71 -7 c-39 -3 -73 -4 -76 -1 -3 3 -42 89 -86 192 l-81 187
-40 8 c-21 5 -44 7 -50 5 -5 -3 -42 -72 -80 -154 l-69 -150 -90 -7 c-49 -3
-91 -4 -93 -2 -3 2 0 13 6 24 15 28 6 32 -70 32 -64 0 -67 1 -77 28 -211 597
-205 582 -232 582 -22 0 -40 34 -40 77 l0 25 108 -7 c59 -4 110 -9 113 -11 4
-2 10 -16 14 -31 7 -33 103 -339 114 -368 5 -13 22 41 55 179 l48 198 102 -7
c55 -4 102 -8 103 -9 2 -1 -40 -132 -92 -292 -52 -159 -95 -291 -94 -294 0 -3
74 143 164 324 144 288 166 326 174 305 28 -75 194 -475 198 -479 3 -3 3 4 0
15 -3 11 -9 90 -12 175 -4 85 -9 158 -12 163 -2 4 -15 4 -28 1 -23 -6 -23 -5
-14 38 6 23 13 46 17 49 4 3 43 20 86 37 61 25 82 29 88 20 4 -7 8 -56 9 -108
1 -52 2 -99 3 -105 1 -5 6 -91 10 -190 5 -99 12 -188 18 -197 7 -14 22 -18 68
-18 l60 0 152 305 c84 168 155 305 158 305 3 0 12 -19 21 -42 9 -24 47 -119
85 -212 l69 -170 3 50 c2 27 1 109 -3 182 -7 130 -7 132 -30 132 -29 0 -32 5
-36 55 l-4 40 75 -3 c151 -6 140 2 184 -118 22 -58 44 -107 49 -111 5 -3 7 3
4 13 -3 11 -9 56 -12 102 l-7 82 73 0 c41 0 91 -3 112 -6 l37 -7 0 -55 c0 -52
1 -54 18 -40 78 69 243 73 347 8 41 -26 42 -25 37 9 -3 22 -10 30 -33 35 -27
5 -29 9 -29 51 l0 45 -38 -6 -38 -6 -84 194 c-46 106 -83 194 -84 195 -1 0
-22 4 -48 8 l-48 7 -74 -156 -75 -156 -68 -1 c-37 0 -78 -2 -90 -5 -26 -4 -26
-6 31 107 l39 76 -28 104 c-41 151 -59 173 -105 124 l-23 -25 22 -126 c13 -69
21 -127 18 -130 -7 -7 -110 -34 -114 -30 -3 3 -73 432 -73 449 0 6 -9 2 -20
-8 -19 -17 -20 -17 -30 9 -5 15 -10 32 -10 39 0 30 -25 -29 -125 -288 -59
-154 -110 -283 -113 -287 -4 -3 -45 -10 -91 -14 -80 -7 -84 -6 -77 12 26 62
96 268 96 280 0 7 -37 79 -82 160 l-81 146 -61 -7 c-33 -3 -62 -7 -62 -8 -1
-1 2 -81 6 -177 5 -96 9 -204 9 -239 l1 -64 -78 5 c-43 2 -83 7 -89 11 -6 4
-13 74 -17 169 -3 90 -9 191 -12 226 l-6 62 -109 0 -109 0 0 73 0 73 202 13
c114 7 206 17 209 23 4 7 43 8 112 3 l106 -7 24 -42 c13 -22 46 -83 73 -135
l49 -94 12 29 c7 16 26 71 44 123 l31 93 97 -6 c79 -6 110 -3 175 14 151 38
262 19 301 -53 16 -31 17 -36 1 -68 -9 -19 -26 -47 -39 -63 l-23 -29 22 -22
c12 -12 28 -42 34 -66 7 -24 14 -51 17 -59 3 -8 51 76 106 188 56 111 105 202
108 202 4 0 9 -8 11 -18 3 -10 41 -106 84 -212 79 -193 79 -193 82 -144 2 27
1 108 -3 181 l-7 132 -26 3 c-24 3 -27 8 -30 49 l-3 47 68 -5 c37 -2 86 -6
108 -9z m-3076 -111 c1 -47 -1 -53 -21 -58 -30 -6 -201 -35 -210 -35 -5 0 -8
-25 -8 -56 l0 -55 43 6 c23 4 69 12 101 19 58 11 59 12 71 54 41 137 186 195
358 142 69 -21 147 -84 147 -117 0 -11 -29 -36 -76 -66 -61 -38 -79 -45 -90
-36 -8 7 -33 15 -57 20 -53 10 -81 -6 -97 -56 -20 -61 14 -115 71 -115 17 0
20 3 12 11 -8 8 -6 22 6 50 10 22 21 42 24 46 4 3 45 -9 92 -27 47 -18 87 -31
89 -29 2 2 49 94 104 204 91 183 101 198 110 175 6 -14 85 -205 176 -424 91
-220 164 -401 162 -403 -2 -2 -36 -5 -76 -6 l-73 -2 -82 190 -82 190 -43 8
c-23 5 -46 5 -50 0 -4 -4 -38 -73 -75 -153 -37 -80 -73 -149 -81 -153 -8 -4
-14 -15 -14 -23 0 -14 -12 -15 -87 -9 -49 4 -89 9 -91 10 -2 2 6 33 17 70 12
37 21 69 21 71 0 2 -31 4 -70 4 l-70 0 0 -71 0 -71 -47 6 c-27 3 -115 8 -198
11 -245 9 -272 13 -279 40 -6 24 -14 27 -137 40 l-56 6 -12 80 c-7 45 -16 90
-20 101 -7 19 -9 18 -20 -11 -8 -17 -17 -31 -21 -31 -3 0 -18 21 -32 46 l-26
47 -7 -91 -7 -90 -100 -7 c-54 -4 -101 -6 -103 -4 -6 7 45 513 53 521 4 3 44
8 90 9 l83 3 21 -36 22 -37 20 52 21 52 59 0 59 0 48 -220 c50 -231 55 -234
42 -22 l-6 107 -25 -7 -24 -6 3 81 c2 44 8 84 12 88 4 5 101 22 215 39 l207
31 6 -25 c4 -14 7 -50 8 -78z m-9349 72 c0 -8 -4 -15 -10 -15 -5 0 -10 7 -10
15 0 8 5 15 10 15 6 0 10 -7 10 -15z m13802 -113 c25 -64 65 -162 88 -217 100
-239 138 -339 133 -349 -3 -6 -2 -8 2 -3 8 7 64 -106 65 -130 0 -8 -14 -13
-39 -13 -21 0 -52 -3 -68 -6 l-29 -6 -72 172 c-40 94 -69 176 -66 182 4 6 3 8
-4 4 -6 -3 -13 3 -17 14 -4 13 -19 22 -43 26 -20 4 -42 11 -49 16 -11 9 -26
-5 -29 -27 -1 -6 -27 -64 -58 -129 -31 -65 -56 -122 -56 -126 0 -5 -7 -16 -16
-24 -11 -12 -36 -16 -96 -16 -89 0 -90 1 -45 67 17 25 23 29 27 17 4 -9 21
-22 38 -30 18 -7 30 -9 27 -4 -3 6 1 10 10 10 8 0 23 16 32 35 9 19 20 35 24
35 4 0 5 10 1 22 -3 14 -1 19 6 14 12 -7 26 29 17 44 -4 6 -1 9 7 8 7 -2 14 8
16 22 2 14 17 37 33 51 16 14 29 31 29 37 0 7 11 12 25 12 31 0 33 20 3 21
-18 1 -19 2 -5 6 10 3 14 10 11 16 -5 8 -2 8 7 0 15 -15 33 -17 25 -4 -4 5 3
7 14 4 11 -3 20 -9 20 -14 0 -5 8 -9 18 -10 14 0 14 -2 -3 -9 -16 -7 -16 -9
-4 -9 9 -1 20 -12 23 -26 4 -14 11 -23 17 -20 5 4 8 3 7 -2 -1 -4 5 -22 15
-39 9 -17 13 -35 9 -38 -3 -4 2 -4 12 0 13 5 17 4 12 -4 -3 -6 8 -37 25 -69
18 -32 35 -71 38 -87 5 -23 12 -29 37 -32 29 -3 30 -2 30 41 0 35 -3 42 -13
33 -10 -8 -12 -3 -7 23 l5 34 -16 -27 c-18 -31 -21 -33 -31 -16 -4 7 -3 8 4 4
7 -4 12 -3 12 3 0 5 3 16 6 24 3 8 -1 21 -9 28 -31 31 -36 53 -19 74 9 11 10
14 2 8 -21 -19 -30 -16 -30 11 0 14 -7 31 -15 40 -8 8 -15 22 -15 31 0 9 -7
23 -15 31 -8 9 -15 24 -15 34 0 32 -20 33 -47 3 -14 -15 -22 -22 -19 -16 4 7
2 23 -4 35 -11 22 -10 22 4 4 9 -11 16 -15 16 -9 0 7 -7 19 -16 28 -11 10 -14
25 -11 44 3 16 1 34 -6 41 -9 10 -9 11 0 6 21 -12 23 10 2 32 -25 27 -30 27
-53 0 -23 -27 -32 -98 -14 -111 9 -6 8 -7 -4 -3 -10 3 -18 1 -18 -3 0 -5 5
-11 12 -13 7 -3 8 -9 3 -18 -6 -10 -10 -8 -17 11 -9 23 -10 23 -23 5 -8 -10
-18 -15 -24 -11 -7 3 -11 -3 -11 -15 0 -12 -5 -18 -10 -15 -6 4 -13 -7 -16
-25 -7 -32 -42 -66 -55 -52 -8 7 199 432 210 432 3 0 27 -53 53 -118z m472
107 c51 -14 96 -59 96 -95 0 -29 -45 -104 -63 -104 -6 0 -7 3 -4 7 4 3 -1 15
-10 25 -15 17 -15 18 -1 13 11 -4 18 0 21 12 8 29 1 68 -12 68 -6 0 -15 5 -19
11 -4 7 -23 19 -44 27 -28 12 -45 13 -75 5 -21 -5 -61 -15 -90 -22 -28 -6 -60
-19 -70 -29 -21 -18 -39 -22 -46 -9 -2 4 -2 0 1 -8 3 -8 5 -23 6 -32 0 -9 4
-14 8 -12 5 3 11 -2 14 -10 3 -9 11 -13 17 -9 5 3 7 1 4 -5 -11 -16 3 -41 19
-35 10 3 14 -2 14 -18 0 -14 3 -19 8 -12 4 6 8 -9 9 -33 2 -49 24 -126 30
-106 3 6 11 12 19 12 13 0 19 13 15 33 -1 5 8 5 20 2 15 -5 19 -4 15 4 -4 6
-15 11 -24 11 -11 0 -13 3 -6 8 6 4 10 15 9 24 -4 22 15 38 42 35 14 -1 21 -7
20 -18 -1 -10 -5 -15 -9 -13 -4 3 -8 -4 -8 -15 0 -12 -5 -21 -11 -21 -5 0 -8
-4 -4 -9 3 -5 -4 -16 -15 -24 -19 -13 -19 -14 5 -142 14 -71 25 -130 25 -130
0 -4 -112 -26 -115 -23 -2 1 -17 93 -34 203 -45 281 -39 260 -62 239 -18 -16
-19 -16 -25 2 -4 11 -15 41 -26 67 -10 26 -18 52 -18 57 0 17 230 78 300 79
19 1 53 -4 74 -10z m-14310 -54 c-4 -8 -8 -15 -10 -15 -2 0 -4 7 -4 15 0 8 4
15 10 15 5 0 7 -7 4 -15z m63 -22 c-3 -10 -5 -4 -5 12 0 17 2 24 5 18 2 -7 2
-21 0 -30z m14078 -61 c-3 -3 -11 0 -18 7 -9 10 -8 11 6 5 10 -3 15 -9 12 -12z
m-25 -5 c0 -2 -9 -12 -20 -22 -24 -21 -27 -14 -4 9 15 15 24 20 24 13z m9 -38
c-22 -13 -31 -11 -17 5 7 8 17 12 22 9 4 -3 2 -9 -5 -14z m131 -10 c0 -5 -4
-7 -10 -4 -9 5 -14 -6 -12 -26 1 -3 -5 -6 -13 -6 -11 0 -10 5 2 24 16 24 33
31 33 12z m-8913 -14 c13 -36 -120 -356 -185 -442 -61 -82 -56 6 7 117 9 16
13 27 73 205 22 66 45 123 52 127 19 13 46 9 53 -7z m8790 -22 c-3 -10 -5 -4
-5 12 0 17 2 24 5 18 2 -7 2 -21 0 -30z m-14233 11 c11 -29 6 -35 -51 -61 -32
-14 -76 -34 -97 -44 -22 -10 -52 -19 -68 -19 -24 0 -28 4 -28 28 0 24 6 29 58
45 31 10 80 29 107 42 59 29 71 30 79 9z m14442 -11 c0 -10 4 -17 11 -16 20 4
43 -62 67 -194 14 -70 28 -142 31 -160 7 -30 5 -32 -31 -42 -53 -15 -62 -14
-68 7 -29 96 -74 276 -71 282 8 13 60 19 73 8 8 -7 12 -7 12 0 0 5 -7 15 -15
22 -12 10 -18 10 -29 0 -12 -9 -15 -8 -13 8 1 14 6 18 22 14 19 -5 19 -5 2 15
-14 16 -15 22 -5 26 10 4 11 7 1 18 -17 17 -16 29 1 29 8 0 13 -8 12 -17z
m-17161 -22 c6 -10 -16 -154 -36 -236 -6 -27 -11 -74 -10 -104 2 -63 -8 -78
-58 -87 -20 -4 -67 -20 -106 -35 -38 -16 -76 -29 -82 -29 -15 0 -18 36 -4 44
5 4 28 39 51 79 22 39 54 92 69 117 16 25 56 93 91 153 60 103 72 118 85 98z
m13453 -8 c-2 -9 -9 -18 -17 -21 -8 -3 -11 0 -7 7 4 6 1 11 -8 11 -8 0 -18 5
-21 10 -4 6 7 10 25 10 24 0 31 -4 28 -17z m3654 -46 c10 -18 3 -37 -13 -37
-6 0 -7 4 -4 10 3 5 -6 15 -20 22 -16 7 -21 14 -14 19 18 11 40 4 51 -14z
m-14661 -17 c24 -13 25 -36 2 -49 -58 -30 -554 -128 -597 -117 -10 3 -30 0
-44 -5 -14 -6 -82 -17 -149 -24 -108 -13 -128 -13 -158 0 -41 17 -49 52 -12
59 12 2 117 12 232 21 196 15 337 36 480 70 88 20 166 43 173 49 9 10 52 7 73
-4z m266 -117 c-6 -135 -25 -205 -58 -214 -22 -7 -22 -7 -3 -8 26 -1 40 -42
24 -71 -13 -24 -12 -24 -54 -6 -19 8 -65 19 -103 25 -72 11 -95 8 -233 -33
-94 -28 -262 -105 -353 -163 -21 -13 -79 -63 -130 -111 -93 -88 -186 -162
-205 -162 -13 0 -24 29 -16 42 3 5 10 41 15 79 9 76 21 115 69 229 42 100 85
186 119 235 26 38 30 40 77 38 57 -2 208 21 309 48 39 10 104 26 145 35 41 9
89 22 105 29 17 7 77 32 135 55 58 23 114 46 125 50 11 5 24 9 28 9 5 1 7 -47
4 -106z m-2208 58 c29 -40 61 -140 61 -188 0 -24 -8 -69 -19 -101 -10 -31 -22
-70 -25 -86 -5 -18 -43 -67 -94 -121 -48 -50 -98 -108 -112 -128 -14 -20 -29
-36 -34 -34 -47 15 -74 439 -32 502 7 11 42 51 77 89 100 109 138 123 178 67z
m16011 -21 c0 -5 -2 -10 -4 -10 -3 0 -8 5 -11 10 -3 6 -1 10 4 10 6 0 11 -4
11 -10z m-15125 -10 c3 -5 -1 -10 -9 -10 -9 0 -16 5 -16 10 0 6 4 10 9 10 6 0
13 -4 16 -10z m15009 -26 c13 -5 14 -9 5 -20 -13 -16 -29 -9 -29 12 0 16 2 16
24 8z m356 -25 c0 -5 -4 -9 -10 -9 -5 0 -10 7 -10 16 0 8 5 12 10 9 6 -3 10
-10 10 -16z m-15362 -29 c40 -9 52 -16 50 -29 -4 -20 -51 -25 -299 -36 -172
-8 -229 -4 -229 14 0 18 116 43 255 56 77 7 147 11 155 10 8 -2 39 -9 68 -15z
m14968 -3 c0 -13 -6 -24 -13 -24 -8 0 -8 7 0 24 13 29 15 29 13 0z m399 -17
c3 -5 1 -10 -4 -10 -6 0 -11 5 -11 10 0 6 2 10 4 10 3 0 8 -4 11 -10z m-2385
-90 c-20 -13 -33 -13 -25 0 3 6 14 10 23 10 15 0 15 -2 2 -10z m-40 -10 c0 -5
-5 -10 -11 -10 -5 0 -7 5 -4 10 3 6 8 10 11 10 2 0 4 -4 4 -10z m-14171 -214
c16 -17 22 -33 19 -57 -5 -55 -30 -48 -50 14 -10 30 -18 57 -18 60 0 15 28 5
49 -17z m13889 -23 c-30 -30 -46 -26 -28 6 6 12 21 21 33 21 21 0 21 -1 -5
-27z m-1350 -263 c56 -135 133 -321 171 -414 39 -94 69 -171 68 -173 -2 -1
-36 -4 -76 -5 l-74 -3 -82 190 -81 189 -39 8 c-22 5 -44 7 -50 4 -5 -2 -41
-71 -79 -153 l-69 -150 -90 -7 c-50 -3 -92 -4 -94 -2 -2 2 83 177 189 390 106
212 196 382 199 378 4 -4 52 -117 107 -252z m3307 137 c61 -149 155 -377 170
-412 45 -102 125 -297 125 -305 0 -6 -17 -10 -39 -10 -21 0 -52 -3 -68 -6
l-29 -6 -72 172 c-40 94 -69 176 -66 182 4 7 2 8 -4 4 -7 -4 -12 -3 -12 3 0
20 -33 41 -66 41 -34 0 -49 22 -21 33 6 3 2 6 -10 6 -12 1 -24 5 -28 10 -8 14
76 18 100 6 30 -15 30 -15 15 -25 -10 -7 -11 -10 -2 -10 6 0 12 -7 12 -15 0
-18 36 -39 45 -25 3 5 11 10 18 10 6 0 4 -6 -5 -12 -17 -15 -33 -53 -18 -43 6
3 10 -2 10 -12 1 -20 24 -55 32 -47 3 3 8 -6 12 -19 3 -15 16 -27 31 -31 14
-4 25 -11 25 -17 0 -8 -5 -7 -15 1 -22 18 -31 4 -12 -18 10 -10 17 -24 17 -30
0 -7 5 -12 12 -12 6 0 3 -6 -8 -14 -10 -8 -16 -18 -11 -22 4 -4 7 -2 7 6 0 10
3 10 15 0 25 -21 40 2 26 40 -6 18 -8 37 -4 43 4 6 1 7 -7 2 -10 -6 -11 -1 -6
21 4 17 3 24 -2 16 -6 -8 -16 6 -32 45 -14 32 -23 62 -22 67 4 14 -9 47 -17
42 -4 -3 -8 11 -9 32 -1 20 -6 38 -12 40 -6 2 -15 15 -20 28 -9 23 -30 34 -30
15 0 -5 -9 -11 -20 -14 -11 -3 -20 -1 -20 4 0 5 4 9 10 9 5 0 7 7 3 16 -5 13
-7 13 -14 2 -6 -8 -9 -1 -9 22 0 20 -6 42 -12 50 -11 12 -10 12 5 1 20 -15 23
-2 5 19 -11 12 -10 12 5 0 17 -12 18 -11 11 16 -4 16 -15 41 -24 56 -13 22
-19 25 -30 15 -10 -10 -12 -9 -6 3 4 8 0 6 -8 -4 -9 -11 -16 -28 -16 -38 0
-10 -4 -18 -10 -18 -16 0 -11 -59 7 -87 17 -26 17 -27 0 -20 -11 4 -25 -1 -37
-13 -11 -11 -20 -16 -20 -11 0 5 7 16 15 25 19 18 19 26 1 26 -7 0 -16 -9 -19
-21 -3 -12 -10 -18 -16 -14 -15 9 -14 -8 2 -24 10 -10 9 -11 -5 -6 -10 4 -18
15 -18 25 0 20 143 321 149 314 3 -2 23 -50 46 -107z m-3922 86 l28 -5 -7
-106 c-3 -59 -8 -109 -10 -111 -2 -3 -21 0 -41 5 l-36 9 -28 105 c-15 58 -28
109 -28 113 -1 8 54 3 122 -10z m220 1 l28 -6 -7 -106 c-4 -59 -8 -109 -10
-110 -1 -2 -20 -1 -41 2 l-38 7 -25 102 c-13 56 -26 108 -28 115 -4 13 34 12
121 -4z m4717 -43 c23 -107 -25 -280 -67 -239 -11 11 -12 28 -3 84 5 38 10 97
10 131 0 48 4 64 18 72 27 16 29 14 42 -48z m-825 43 l50 -6 -7 -92 c-3 -50
-7 -97 -7 -103 -1 -8 -15 -13 -35 -13 l-34 0 -26 105 c-14 57 -26 107 -26 110
0 7 23 6 85 -1z m246 -4 c16 0 19 -8 19 -59 0 -32 -3 -79 -6 -105 -6 -44 -8
-46 -40 -46 -29 0 -35 4 -40 28 -3 15 -14 60 -25 100 -26 98 -27 96 27 88 26
-3 55 -6 65 -6z m-13846 -60 c11 -18 -12 -35 -102 -76 -161 -71 -291 -149
-458 -275 -98 -74 -423 -397 -661 -659 -160 -175 -181 -196 -190 -187 -38 38
592 732 816 898 114 85 204 141 326 203 189 96 255 119 269 96z m-2406 -34 c6
-4 11 -18 11 -32 0 -21 -4 -24 -41 -24 -22 0 -71 -9 -107 -19 -93 -26 -265
-65 -402 -91 -63 -11 -142 -27 -175 -35 -33 -7 -96 -21 -140 -30 -44 -10 -102
-24 -129 -31 -58 -16 -96 -18 -96 -4 0 32 263 114 525 165 155 30 329 70 405
94 53 16 128 20 149 7z m411 -56 c166 -33 331 -87 510 -167 163 -72 209 -100
210 -125 0 -12 -41 -20 -53 -9 -18 14 -316 133 -417 166 -124 40 -393 95 -466
95 -43 0 -58 20 -38 48 21 30 75 29 254 -8z m15327 -2 c-3 -8 -6 -5 -6 6 -1
11 2 17 5 13 3 -3 4 -12 1 -19z m1390 -24 c-3 -3 -12 -4 -19 -1 -8 3 -5 6 6 6
11 1 17 -2 13 -5z m-77 -24 c0 -5 -5 -10 -11 -10 -5 0 -7 5 -4 10 3 6 8 10 11
10 2 0 4 -4 4 -10z m-30 -10 c0 -5 -7 -10 -15 -10 -8 0 -15 5 -15 10 0 6 7 10
15 10 8 0 15 -4 15 -10z m-1273 -22 c-3 -8 -6 -5 -6 6 -1 11 2 17 5 13 3 -3 4
-12 1 -19z m-40 -80 c-3 -8 -6 -5 -6 6 -1 11 2 17 5 13 3 -3 4 -12 1 -19z
m-160 -20 c-3 -8 -6 -5 -6 6 -1 11 2 17 5 13 3 -3 4 -12 1 -19z m1500 -12 c-2
-6 -9 -11 -15 -10 -7 1 -23 2 -37 3 -31 1 -33 18 -2 23 32 5 58 -3 54 -16z
m-92 -26 c3 -5 -1 -10 -10 -10 -9 0 -13 5 -10 10 3 6 8 10 10 10 2 0 7 -4 10
-10z m90 -40 c3 -5 -1 -10 -9 -10 -9 0 -16 5 -16 10 0 6 4 10 9 10 6 0 13 -4
16 -10z m-1148 -112 c-3 -8 -6 -5 -6 6 -1 11 2 17 5 13 3 -3 4 -12 1 -19z m93
-128 c0 -5 -4 -10 -10 -10 -5 0 -10 5 -10 10 0 6 5 10 10 10 6 0 10 -4 10 -10z
m-1190 -541 c0 -11 -38 -22 -51 -14 -7 5 -4 13 7 26 13 14 20 16 31 8 7 -6 13
-15 13 -20z"/>
<path d="M1196 10449 c7 -11 41 -17 54 -9 7 5 -2 9 -23 12 -20 2 -34 1 -31 -3z"/>
<path d="M10020 9894 c0 -8 5 -12 10 -9 6 4 8 11 5 16 -9 14 -15 11 -15 -7z"/>
<path d="M11208 9648 c9 -9 15 -9 24 0 9 9 7 12 -12 12 -19 0 -21 -3 -12 -12z"/>
<path d="M18020 6905 c0 -8 5 -15 10 -15 6 0 10 7 10 15 0 8 -4 15 -10 15 -5
0 -10 -7 -10 -15z"/>
<path d="M17967 6830 c-14 -23 -15 -30 -5 -30 19 0 38 21 38 42 0 27 -13 22
-33 -12z"/>
<path d="M17920 6765 c0 -8 -34 -48 -75 -90 -42 -41 -92 -94 -111 -117 -62
-76 -109 -131 -125 -148 -8 -9 -18 -24 -22 -33 -11 -28 22 -5 71 50 23 26 72
82 108 123 36 41 86 96 110 122 24 26 44 50 44 53 0 4 7 13 15 21 8 9 15 20
15 25 0 5 -7 9 -15 9 -8 0 -15 -7 -15 -15z"/>
<path d="M17545 6299 c-6 -19 0 -38 9 -28 10 12 16 49 7 49 -5 0 -13 -9 -16
-21z"/>
<path d="M17496 6223 c-28 -30 -34 -47 -14 -41 16 6 53 56 46 63 -3 4 -18 -6
-32 -22z"/>
<path d="M17440 6149 c0 -5 5 -7 10 -4 6 3 10 8 10 11 0 2 -4 4 -10 4 -5 0
-10 -5 -10 -11z"/>
<path d="M15018 4133 c7 -3 16 -2 19 1 4 3 -2 6 -13 5 -11 0 -14 -3 -6 -6z"/>
<path d="M14800 4099 c0 -5 5 -7 10 -4 6 3 10 8 10 11 0 2 -4 4 -10 4 -5 0
-10 -5 -10 -11z"/>
<path d="M15420 4040 c0 -5 7 -10 15 -10 8 0 15 5 15 10 0 6 -7 10 -15 10 -8
0 -15 -4 -15 -10z"/>
<path d="M14390 3950 c0 -5 5 -10 11 -10 5 0 7 5 4 10 -3 6 -8 10 -11 10 -2 0
-4 -4 -4 -10z"/>
<path d="M2900 2929 c0 -5 5 -7 10 -4 6 3 10 8 10 11 0 2 -4 4 -10 4 -5 0 -10
-5 -10 -11z"/>
<path d="M2360 2490 c0 -5 5 -10 11 -10 5 0 7 5 4 10 -3 6 -8 10 -11 10 -2 0
-4 -4 -4 -10z"/>
<path d="M17771 3103 c-2 -78 2 -111 13 -128 8 -12 18 -38 21 -58 4 -20 13
-38 21 -41 8 -3 14 -16 14 -29 0 -14 7 -30 15 -37 8 -7 15 -21 15 -31 0 -10 5
-21 10 -24 6 -3 10 -1 10 6 0 23 -24 94 -36 109 -27 32 -43 103 -50 215 -5 76
-11 116 -19 119 -10 3 -13 -22 -14 -101z"/>
<path d="M17408 3123 c6 -2 18 -2 25 0 6 3 1 5 -13 5 -14 0 -19 -2 -12 -5z"/>
<path d="M17400 3080 c0 -5 5 -10 10 -10 6 0 10 5 10 10 0 6 -4 10 -10 10 -5
0 -10 -4 -10 -10z"/>
<path d="M17900 2686 c0 -8 4 -18 10 -21 15 -10 39 -67 42 -104 2 -19 9 -37
17 -39 21 -7 8 69 -21 126 -24 46 -48 66 -48 38z"/>
<path d="M17990 2490 c0 -14 9 -42 20 -62 13 -26 18 -48 14 -70 -4 -25 -3 -29
5 -18 18 25 12 82 -14 130 -21 39 -24 41 -25 20z"/>
<path d="M16686 2465 c-3 -8 -1 -15 3 -15 5 0 11 7 15 15 3 8 1 15 -3 15 -5 0
-11 -7 -15 -15z"/>
<path d="M16107 2063 c-15 -4 -17 -12 -11 -51 9 -68 20 -73 60 -30 34 38 45
78 22 78 -7 0 -22 2 -33 4 -11 2 -28 2 -38 -1z"/>
<path d="M17218 2023 c-16 -4 -18 -20 -18 -159 l0 -154 24 0 c30 0 34 22 39
203 3 125 4 123 -45 110z"/>
<path d="M16552 1927 c-12 -32 -22 -62 -22 -66 0 -5 18 -11 40 -13 40 -4 41
-3 34 26 -4 17 -12 49 -18 71 l-12 40 -22 -58z"/>
<path d="M16866 1075 c-46 -32 -51 -33 -68 -19 -9 9 -37 19 -61 21 -39 5 -46
2 -70 -27 -29 -34 -34 -73 -16 -114 24 -52 107 -50 152 4 l25 29 47 -42 c27
-22 55 -42 63 -43 11 -2 12 0 3 9 -7 7 -11 51 -11 114 0 57 -3 103 -7 102 -5
0 -30 -15 -57 -34z"/>
<path d="M15063 1045 c-12 -32 -20 -62 -17 -67 3 -4 21 -8 40 -8 38 0 38 -4
10 95 l-12 39 -21 -59z"/>
<path d="M15872 1047 c-12 -32 -22 -62 -22 -66 0 -5 18 -11 40 -13 40 -4 41
-3 34 26 -4 17 -12 49 -18 71 l-12 40 -22 -58z"/>
<path d="M17311 1054 c0 -11 3 -14 6 -6 3 7 2 16 -1 19 -3 4 -6 -2 -5 -13z"/>
<path d="M17148 1013 c6 -2 18 -2 25 0 6 3 1 5 -13 5 -14 0 -19 -2 -12 -5z"/>
<path d="M17042 850 c0 -19 2 -27 5 -17 2 9 2 25 0 35 -3 9 -5 1 -5 -18z"/>
<path d="M16990 743 c0 -10 9 -33 20 -51 19 -30 22 -32 36 -17 13 13 14 22 5
53 l-11 37 5 -35 c5 -32 4 -33 -9 -15 -9 11 -16 26 -16 33 0 19 -30 14 -30 -5z"/>
<path d="M14421 1918 c-24 -57 -19 -68 31 -68 l26 0 -15 58 c-8 31 -16 58 -17
60 -2 1 -13 -21 -25 -50z"/>
<path d="M13650 1811 c-97 -19 -97 -19 -85 -127 l6 -62 72 -6 c40 -3 107 -7
150 -9 l78 -2 -26 18 c-31 23 -71 91 -80 137 -10 53 -16 70 -23 69 -4 -1 -45
-9 -92 -18z"/>
<path d="M13402 1680 c0 -14 2 -19 5 -12 2 6 2 18 0 25 -3 6 -5 1 -5 -13z"/>
<path d="M18227 1963 c-4 -3 -7 -11 -7 -17 0 -6 5 -5 12 2 6 6 9 14 7 17 -3 3
-9 2 -12 -2z"/>
<path d="M18350 1530 c0 -5 5 -10 11 -10 5 0 7 5 4 10 -3 6 -8 10 -11 10 -2 0
-4 -4 -4 -10z"/>
<path d="M18597 1937 c3 -5 1 -12 -5 -16 -6 -4 -8 -12 -4 -18 5 -8 12 -3 18
16 9 21 8 28 -2 28 -7 0 -10 -5 -7 -10z"/>
<path d="M18740 1929 c0 -5 5 -7 10 -4 6 3 10 8 10 11 0 2 -4 4 -10 4 -5 0
-10 -5 -10 -11z"/>
<path d="M18670 1901 c0 -6 4 -13 10 -16 6 -3 7 1 4 9 -7 18 -14 21 -14 7z"/>
<path d="M3455 1589 c-4 -6 -5 -13 -2 -16 7 -7 27 6 27 18 0 12 -17 12 -25 -2z"/>
<path d="M3915 1593 c-11 -3 -24 -8 -30 -13 -5 -4 -32 -13 -60 -20 -27 -7 -61
-22 -74 -32 -14 -11 -32 -16 -43 -12 -13 4 -52 -17 -125 -65 -58 -39 -110 -71
-114 -71 -5 0 -9 -7 -9 -15 0 -8 -15 -21 -32 -28 -40 -17 -69 -47 -45 -47 15
0 99 65 105 81 2 5 10 9 17 9 7 0 34 16 59 35 52 40 166 95 196 95 11 0 28 4
38 9 9 5 44 17 77 26 85 25 105 33 105 45 0 10 -29 12 -65 3z"/>
<path d="M3422 1530 c-7 -11 -8 -20 -3 -20 9 0 24 30 18 36 -1 2 -8 -6 -15
-16z"/>
<path d="M3372 1458 c-15 -15 -16 -38 -2 -38 12 0 23 25 18 40 -2 7 -7 7 -16
-2z"/>
<path d="M3330 1374 c-6 -14 -10 -31 -10 -37 0 -7 -10 -28 -21 -47 -19 -30
-49 -112 -49 -133 0 -14 21 4 31 26 5 12 18 37 29 54 11 18 17 40 14 48 -4 9
1 24 10 34 20 22 33 81 17 81 -6 0 -16 -12 -21 -26z"/>
<path d="M14151 1038 c-24 -57 -19 -68 31 -68 l26 0 -15 58 c-8 31 -16 58 -17
60 -2 1 -13 -21 -25 -50z"/>
<path d="M17587 1083 c-4 -3 -7 -11 -7 -17 0 -6 5 -5 12 2 6 6 9 14 7 17 -3 3
-9 2 -12 -2z"/>
<path d="M17710 649 c7 -11 14 -19 16 -16 7 7 -7 37 -17 37 -6 0 -5 -9 1 -21z"/>
<path d="M4630 10737 c0 -143 43 -586 60 -618 32 -59 148 -217 333 -453 l23
-30 100 44 c54 23 320 154 589 290 270 135 528 263 574 284 46 22 148 69 225
106 78 37 209 97 291 133 83 36 209 91 280 122 160 70 399 177 404 182 2 1
-300 3 -673 3 -670 0 -677 0 -666 -20 34 -63 140 -405 140 -451 0 -9 -73 -49
-89 -49 -18 0 -392 -180 -416 -200 -6 -5 -69 -39 -140 -76 -390 -201 -579
-294 -595 -294 -11 0 -25 10 -31 22 -16 30 -114 162 -165 223 -23 28 -62 82
-86 121 -39 61 -47 82 -57 155 -20 150 -31 274 -37 423 l-7 146 -29 0 c-28 0
-28 0 -28 -63z"/>
<path d="M12720 9976 c0 -14 5 -26 10 -26 6 0 10 9 10 19 0 11 -4 23 -10 26
-6 4 -10 -5 -10 -19z"/>
<path d="M2117 9454 c-4 -4 -7 -16 -7 -27 0 -13 5 -17 15 -13 10 4 19 -2 25
-17 8 -18 9 -15 7 18 -2 38 -22 57 -40 39z"/>
<path d="M12662 9434 c3 -23 10 -29 57 -41 30 -7 59 -17 65 -22 6 -5 27 -12
46 -15 35 -7 35 -7 10 8 -14 9 -33 18 -42 22 -9 3 -19 12 -22 20 -3 8 -20 14
-42 14 -27 0 -37 5 -41 20 -8 31 -35 25 -31 -6z"/>
<path d="M2071 9334 c0 -11 3 -14 6 -6 3 7 2 16 -1 19 -3 4 -6 -2 -5 -13z"/>
<path d="M1990 9147 c0 -13 3 -26 6 -30 12 -12 34 6 34 29 0 17 -6 24 -20 24
-14 0 -20 -7 -20 -23z"/>
<path d="M2056 9108 c-20 -28 -20 -48 -1 -48 8 0 15 -6 15 -12 1 -17 30 22 30
40 0 7 -6 20 -14 28 -13 12 -17 11 -30 -8z"/>
<path d="M1970 9105 c-11 -13 -11 -19 2 -32 14 -14 17 -13 23 7 9 29 -8 46
-25 25z"/>
<path d="M2010 9050 c0 -5 7 -10 16 -10 8 0 12 5 9 10 -3 6 -10 10 -16 10 -5
0 -9 -4 -9 -10z"/>
<path d="M18640 8900 c0 -19 7 -20 120 -20 73 0 120 4 120 10 0 6 -43 10 -110
10 -67 0 -110 4 -110 10 0 6 -4 10 -10 10 -5 0 -10 -9 -10 -20z"/>
<path d="M17143 8823 c9 -2 23 -2 30 0 6 3 -1 5 -18 5 -16 0 -22 -2 -12 -5z"/>
<path d="M18160 8815 c0 -12 20 -15 120 -15 100 0 120 3 120 15 0 13 -20 15
-120 15 -100 0 -120 -2 -120 -15z"/>
<path d="M5831 8683 c-1 -32 3 -43 14 -43 8 0 15 -4 15 -10 0 -14 37 -12 43 3
4 9 8 9 15 -2 7 -9 12 -10 16 -2 4 6 2 11 -3 11 -6 0 -11 11 -11 24 0 22 -3
24 -39 19 -35 -5 -40 -3 -44 18 -2 14 -5 7 -6 -18z"/>
<path d="M16480 8620 c0 -13 20 -13 40 0 12 8 9 10 -12 10 -16 0 -28 -4 -28
-10z"/>
<path d="M5601 8613 c0 -8 -16 -13 -41 -13 -33 0 -40 -3 -40 -20 0 -17 7 -20
39 -20 22 0 41 -5 43 -12 8 -24 14 8 7 42 -3 19 -7 29 -8 23z"/>
<path d="M15353 8562 l-73 -3 0 -39 0 -40 98 0 c83 1 94 3 80 14 -10 7 -18 25
-18 39 0 14 -3 27 -7 29 -5 2 -41 2 -80 0z"/>
<path d="M5906 8531 c-4 -7 -5 -15 -2 -18 9 -9 19 4 14 18 -4 11 -6 11 -12 0z"/>
<path d="M1980 8469 c0 -5 5 -7 10 -4 6 3 10 8 10 11 0 2 -4 4 -10 4 -5 0 -10
-5 -10 -11z"/>
<path d="M5826 8471 c-4 -7 -5 -15 -2 -18 9 -9 19 4 14 18 -4 11 -6 11 -12 0z"/>
<path d="M5440 8194 c0 -14 3 -14 15 -4 8 7 15 14 15 16 0 2 -7 4 -15 4 -8 0
-15 -7 -15 -16z"/>
<path d="M6065 7910 c3 -5 10 -10 16 -10 5 0 9 5 9 10 0 6 -7 10 -16 10 -8 0
-12 -4 -9 -10z"/>
<path d="M5740 7761 c-8 -3 -17 -15 -18 -26 -2 -11 -1 -17 3 -13 11 11 45 -10
45 -27 0 -8 5 -15 10 -15 6 0 10 19 10 42 0 23 -3 38 -7 35 -3 -4 -11 -3 -17
2 -6 5 -18 6 -26 2z"/>
<path d="M6800 7395 c0 -11 11 -15 40 -15 29 0 40 4 40 15 0 11 -11 15 -40 15
-29 0 -40 -4 -40 -15z"/>
<path d="M8400 6656 c0 -9 5 -16 10 -16 6 0 10 4 10 9 0 6 -4 13 -10 16 -5 3
-10 -1 -10 -9z"/>
<path d="M10144 6514 c3 -9 6 -19 6 -24 0 -7 64 -50 75 -50 2 0 -2 11 -8 25
-9 20 -17 24 -35 20 -15 -4 -22 -1 -21 7 3 25 -1 38 -12 38 -6 0 -8 -7 -5 -16z"/>
<path d="M10098 6483 c7 -3 16 -2 19 1 4 3 -2 6 -13 5 -11 0 -14 -3 -6 -6z"/>
<path d="M10240 6421 c0 -19 47 -61 69 -61 6 0 11 -9 11 -20 0 -13 7 -20 20
-20 11 0 20 3 20 6 0 8 -106 114 -113 114 -4 0 -7 -9 -7 -19z"/>
<path d="M10080 6280 c0 -5 5 -10 10 -10 6 0 10 5 10 10 0 6 -4 10 -10 10 -5
0 -10 -4 -10 -10z"/>
<path d="M17021 5556 c-7 -8 -26 -18 -42 -21 -41 -9 -46 -25 -7 -25 19 0 40 7
49 18 9 9 25 22 35 29 18 11 18 12 -2 12 -12 1 -27 -5 -33 -13z"/>
<path d="M19030 2575 c-7 -8 -18 -15 -25 -15 -12 0 -25 -21 -25 -41 0 -15 36
-10 50 6 7 8 21 15 31 15 22 0 23 4 9 31 -13 23 -23 24 -40 4z"/>
<path d="M19090 2515 c0 -8 5 -15 10 -15 6 0 10 7 10 15 0 8 -4 15 -10 15 -5
0 -10 -7 -10 -15z"/>
<path d="M19127 2493 c-4 -3 -7 -13 -7 -21 0 -12 3 -12 15 -2 8 7 15 16 15 21
0 11 -14 12 -23 2z"/>
<path d="M18791 2451 c-7 -5 -9 -11 -4 -14 5 -3 15 -2 22 2 7 5 9 11 4 14 -5
3 -15 2 -22 -2z"/>
<path d="M19150 2434 c0 -8 5 -12 10 -9 6 4 8 11 5 16 -9 14 -15 11 -15 -7z"/>
<path d="M19120 2401 c0 -5 5 -13 10 -16 6 -3 10 -2 10 4 0 5 -4 13 -10 16 -5
3 -10 2 -10 -4z"/>
<path d="M19162 2368 c-17 -17 -15 -48 4 -48 8 0 12 5 9 11 -4 5 1 19 11 30
14 15 14 19 3 19 -8 0 -20 -5 -27 -12z"/>
<path d="M18880 2330 c0 -5 7 -10 16 -10 8 0 12 5 9 10 -3 6 -10 10 -16 10 -5
0 -9 -4 -9 -10z"/>
<path d="M19120 2158 c0 -16 5 -28 10 -28 13 0 13 20 0 40 -8 12 -10 9 -10
-12z"/>
<path d="M4234 1085 c-7 -39 2 -58 16 -35 13 20 13 70 0 70 -5 0 -12 -16 -16
-35z"/>
<path d="M4211 983 c0 -16 4 -36 8 -46 6 -17 8 -17 25 2 11 12 14 21 8 21 -6
0 -13 -6 -15 -12 -3 -7 -6 4 -6 25 -1 20 -5 37 -11 37 -5 0 -10 -12 -9 -27z"/>
<path d="M4180 902 c0 -17 -18 -65 -50 -137 -11 -24 -37 -97 -51 -142 -5 -18
-14 -35 -19 -38 -6 -4 -10 -19 -10 -34 0 -16 -7 -34 -15 -41 -8 -7 -15 -18
-15 -25 0 -7 -7 -26 -15 -41 -8 -16 -15 -36 -15 -45 0 -9 -7 -22 -15 -29 -8
-7 -15 -20 -15 -29 0 -9 -11 -38 -25 -66 -13 -27 -24 -57 -24 -65 0 -10 2 -11
6 -2 2 6 11 12 18 12 9 0 15 14 17 37 3 34 4 36 20 20 26 -26 31 -21 24 24 -5
30 -2 48 9 66 9 13 25 52 36 86 11 34 26 72 35 84 8 13 12 23 8 23 -3 0 1 11
10 25 9 13 16 37 16 53 0 15 7 37 15 48 8 10 15 26 15 34 0 8 7 28 15 44 8 15
15 34 15 41 0 7 9 24 21 39 22 27 23 67 2 74 -8 2 -13 -5 -13 -16z"/>
<path d="M4311 477 c0 -10 -5 -15 -11 -12 -6 4 -10 -8 -10 -29 0 -20 -4 -36
-10 -36 -5 0 -9 -19 -9 -42 1 -28 3 -34 6 -18 3 14 13 33 24 43 10 10 19 23
19 30 0 7 -4 6 -10 -3 -8 -12 -10 -11 -10 7 0 12 5 23 11 25 6 2 9 15 6 28 -3
16 -5 18 -6 7z"/>
<path d="M4230 179 c0 -45 26 -61 40 -25 5 13 14 27 19 31 21 12 11 23 -24 27
-34 4 -35 3 -35 -33z"/>
<path d="M3970 179 c0 -5 5 -7 10 -4 6 3 10 8 10 11 0 2 -4 4 -10 4 -5 0 -10
-5 -10 -11z"/>
<path d="M4204 108 c-11 -28 -6 -108 7 -108 5 0 8 28 7 65 -2 36 -3 65 -4 65
0 0 -5 -10 -10 -22z"/>
</g>
</svg>
