<?xml version="1.0" standalone="no"?>
<!DOCTYPE svg PUBLIC "-//W3C//DTD SVG 20010904//EN"
 "http://www.w3.org/TR/2001/REC-SVG-20010904/DTD/svg10.dtd">
<svg version="1.0" xmlns="http://www.w3.org/2000/svg"
 width="900.000000pt" height="506.000000pt" viewBox="0 0 900.000000 506.000000"
 preserveAspectRatio="xMidYMid meet">

<g transform="translate(0.000000,506.000000) scale(0.100000,-0.100000)"
fill="#000000" stroke="none">
<path d="M1325 5051 c3 -6 0 -13 -7 -18 -7 -4 -22 -19 -33 -32 l-20 -24 21 7
c17 5 26 0 42 -26 l21 -33 -30 -8 c-17 -5 -29 -10 -27 -12 2 -2 32 3 67 12 35
9 57 19 51 23 -9 5 -6 19 10 50 12 23 16 39 10 35 -18 -11 -80 4 -80 20 0 8
-7 15 -16 15 -8 0 -13 -4 -9 -9z"/>
<path d="M965 4961 c-11 -5 -31 -21 -45 -36 -14 -15 -34 -31 -46 -35 -12 -5
-65 -38 -119 -75 -79 -53 -112 -69 -164 -80 -36 -7 -93 -27 -125 -44 -44 -23
-72 -31 -112 -31 -49 0 -55 -3 -80 -35 -14 -19 -33 -35 -41 -35 -8 0 -12 -4
-9 -9 7 -10 -34 -80 -47 -81 -14 0 -34 -24 -42 -49 -4 -12 -28 -44 -53 -70
-77 -77 -82 -88 -82 -196 0 -52 4 -95 8 -95 12 0 92 96 92 109 0 6 6 11 14 11
9 0 12 8 9 25 -6 30 44 85 77 85 30 0 80 37 80 59 0 21 21 41 47 45 10 2 17
10 15 19 -3 19 34 42 43 27 9 -15 24 -3 20 18 -3 21 53 82 76 82 10 0 20 4 24
9 7 12 88 58 118 67 12 3 29 12 37 19 8 7 40 20 70 30 72 24 168 59 255 94 39
16 97 38 130 51 138 51 145 59 99 105 -20 20 -29 23 -40 15 -13 -11 -63 -10
-154 4 -19 3 -44 2 -55 -3z"/>
<path d="M1180 4806 c-125 -44 -240 -119 -378 -244 -41 -36 -86 -75 -101 -87
-15 -11 -57 -49 -94 -85 -48 -47 -81 -70 -112 -79 -31 -9 -45 -19 -45 -31 0
-10 -7 -23 -15 -30 -12 -10 -13 -15 -3 -21 9 -6 8 -13 -6 -28 -14 -16 -22 -18
-32 -10 -10 9 -16 5 -26 -17 -7 -16 -18 -35 -25 -42 -7 -7 -13 -18 -13 -23 0
-5 -11 -27 -25 -50 -24 -37 -24 -41 -10 -62 8 -12 15 -29 15 -38 0 -21 -62
-69 -88 -69 -36 0 -43 -53 -10 -79 19 -16 20 -21 10 -50 -6 -18 -23 -46 -37
-63 -14 -16 -25 -34 -25 -39 0 -5 -9 -9 -19 -9 -17 0 -19 6 -15 53 l4 53 -42
-1 c-24 0 -53 -6 -65 -13 l-23 -13 0 -1109 0 -1109 28 5 c47 10 57 -13 39 -93
-15 -65 -14 -69 4 -86 25 -24 24 -36 -5 -46 -20 -8 -24 -18 -30 -76 -6 -64 7
-135 25 -135 4 0 11 -21 14 -48 9 -61 22 -104 51 -169 14 -29 27 -75 29 -104
3 -28 11 -63 19 -77 7 -15 16 -39 20 -54 3 -16 12 -28 20 -28 7 0 21 -20 30
-44 14 -37 15 -49 5 -67 -8 -16 -10 -57 -6 -139 7 -125 14 -156 59 -272 l31
-78 43 0 c24 0 44 2 44 5 0 3 -13 32 -29 63 -50 100 -63 161 -58 270 11 188
18 218 66 262 18 16 41 24 41 14 0 -17 -23 -44 -32 -38 -7 4 -8 3 -4 -4 4 -6
-2 -39 -13 -74 -26 -83 -34 -149 -22 -179 8 -20 10 -14 10 34 1 31 6 57 11 57
6 0 10 -5 10 -11 0 -6 6 -17 12 -24 30 -33 38 -45 38 -53 0 -5 10 -21 21 -36
21 -27 21 -27 36 -7 21 31 50 27 58 -8 12 -57 70 -181 105 -226 33 -42 37 -44
88 -45 50 0 52 1 42 21 -17 32 -5 49 35 49 19 0 35 4 35 8 0 11 -47 52 -60 52
-6 0 -9 3 -8 7 4 14 -34 78 -63 105 -15 15 -52 39 -81 53 -61 31 -100 70 -125
126 -12 27 -20 36 -28 29 -17 -14 -95 30 -95 53 0 52 132 227 171 227 8 0 20
-12 28 -28 35 -70 71 -167 71 -191 0 -28 52 -135 62 -130 4 2 20 -16 37 -41
38 -58 64 -81 126 -114 43 -22 52 -24 70 -12 11 7 21 25 23 40 3 26 16 34 27
16 8 -14 48 -13 62 1 9 9 23 9 57 0 25 -6 55 -11 68 -10 l23 0 -25 17 c-44 30
-112 96 -142 137 -16 22 -32 40 -36 41 -4 0 -24 8 -46 17 -21 9 -42 17 -46 17
-14 0 -70 32 -70 40 0 5 -18 29 -39 54 -38 44 -91 142 -91 168 0 8 -5 19 -11
25 -16 16 58 35 114 31 37 -3 42 -6 42 -28 1 -30 45 -91 86 -121 37 -26 39 -6
4 45 -29 42 -30 47 -13 64 10 10 23 2 60 -35 50 -50 66 -49 23 1 -14 16 -25
35 -25 43 0 8 -8 22 -17 31 -16 16 -13 17 41 20 84 4 336 -50 776 -168 221
-59 452 -109 622 -134 75 -12 132 -13 260 -6 241 13 333 32 443 91 66 35 79
38 230 53 232 23 401 35 561 40 141 4 142 4 137 -17 -5 -22 -5 -22 10 -2 33
43 27 -4 -15 -114 -8 -20 -11 -22 -19 -10 -6 10 -9 7 -9 -14 0 -32 8 -27 49
31 29 42 174 157 179 143 2 -6 11 -11 19 -11 14 0 14 3 -2 20 -10 11 -14 20
-9 20 5 0 15 -9 22 -20 21 -35 77 -22 119 29 12 14 22 31 23 38 0 6 9 14 20
18 11 3 29 19 40 36 15 21 30 29 51 29 22 0 29 5 29 20 0 11 7 20 15 20 20 0
65 45 65 65 0 8 5 15 10 15 6 0 10 7 10 16 0 20 24 44 44 44 9 0 16 4 16 9 0
5 14 14 30 21 17 7 30 16 30 21 0 5 14 9 30 9 23 0 30 5 30 19 0 14 10 21 35
25 19 4 47 17 62 30 25 22 26 26 28 142 2 103 5 128 28 187 15 37 27 76 27 85
0 10 15 40 34 66 33 46 33 49 18 79 -21 44 -21 44 -16 0 5 -36 1 -42 -66 -113
-39 -41 -102 -112 -141 -157 -38 -45 -73 -84 -77 -87 -5 -3 -29 18 -54 47 -45
53 -118 99 -173 111 -16 4 2 -9 41 -29 71 -35 120 -79 149 -134 l15 -29 -93
-105 c-50 -58 -145 -166 -210 -241 -65 -75 -122 -136 -126 -136 -17 0 -53 50
-71 99 -14 34 -20 78 -21 134 -1 45 -3 74 -6 65 -7 -29 -40 -21 -93 21 -27 22
-64 43 -82 46 -33 8 -188 85 -286 143 -46 28 -67 33 -170 43 -397 36 -551 88
-705 237 -169 163 -136 387 94 653 28 32 65 67 84 79 31 19 32 22 24 58 -9 43
-12 48 -21 45 -4 -2 -12 6 -18 17 -6 11 -8 20 -6 20 3 0 -12 24 -34 53 -22 28
-54 81 -71 117 -17 36 -46 95 -65 132 -30 60 -34 77 -34 147 0 74 2 80 23 87
12 4 37 6 55 5 17 -1 48 3 67 9 43 14 103 82 111 125 8 46 -26 109 -74 135
-33 19 -25 20 17 2 8 -3 12 -1 8 5 -16 26 33 45 145 59 151 18 220 18 244 -1
25 -19 60 -19 67 -1 8 20 -68 83 -158 131 -38 21 -74 41 -80 45 -22 17 -171
52 -239 57 -39 3 -107 0 -151 -7 -44 -6 -96 -14 -116 -17 l-36 -5 -13 63 c-6
35 -18 98 -25 140 -29 170 -80 304 -134 353 -11 10 -18 23 -14 29 3 5 1 7 -5
3 -6 -3 -17 0 -25 8 -8 8 -17 13 -19 10 -3 -2 -8 19 -11 48 -4 30 -13 74 -21
98 -8 25 -20 64 -26 88 -10 41 -58 102 -80 102 -5 0 -10 3 -10 8 0 14 -65 11
-88 -4 -14 -9 -21 -11 -18 -5 4 6 2 11 -3 11 -6 0 -11 -10 -11 -22 -1 -13 -3
-70 -6 -127 -5 -77 -1 -129 12 -198 18 -99 15 -128 -9 -71 -29 70 -50 186 -57
323 l-7 140 -3 -110 c-2 -60 -2 -117 -2 -125 7 -65 7 -100 0 -100 -4 0 -8 7
-8 15 0 8 -7 15 -16 15 -16 0 -15 19 2 64 3 9 1 16 -4 16 -22 0 -162 121 -168
144 -15 61 -189 40 -196 -23 -4 -33 -33 -39 -48 -11 -17 32 -4 82 36 134 47
61 25 58 -45 -6 -50 -46 -73 -59 -182 -97 -116 -41 -127 -43 -174 -34 -48 10
-51 10 -85 -21 -19 -17 -53 -42 -75 -56 -63 -39 -95 -78 -88 -110 4 -21 -1
-32 -22 -49 -15 -11 -40 -21 -56 -21 -69 0 -130 -22 -167 -60 -149 -152 -242
-263 -242 -287 0 -5 -11 -15 -25 -21 -17 -8 -25 -19 -24 -34 l2 -23 4 23 c2
12 8 22 13 22 16 0 -1 -32 -54 -102 -51 -70 -54 -72 -80 -62 -23 9 -20 26 19
100 19 36 35 75 35 85 0 24 25 75 51 102 10 12 19 23 19 26 0 4 15 12 33 20
108 46 138 66 202 131 39 39 87 80 108 91 28 15 37 25 32 38 -10 33 23 77 79
107 62 32 86 67 97 137 8 51 32 87 56 87 24 0 40 25 38 58 -2 20 4 37 16 48
11 9 19 21 19 26 0 5 7 17 16 26 15 14 15 16 -6 24 -11 4 -18 12 -15 18 9 15
-14 12 -85 -14z m1007 -588 c-3 -7 -5 -2 -5 12 0 14 2 19 5 13 2 -7 2 -19 0
-25z m368 -49 c64 -59 108 -168 109 -270 1 -67 -2 -80 -26 -111 -23 -30 -31
-34 -64 -31 -21 1 -50 11 -64 21 -64 46 -96 197 -48 223 30 16 48 -10 41 -59
-6 -45 11 -64 45 -51 19 7 22 14 16 31 -4 13 -17 33 -30 45 -13 12 -24 27 -24
32 0 6 -9 15 -20 21 -28 15 -57 -6 -74 -55 -13 -37 -14 -38 -15 -11 -1 25 -4
28 -26 24 -18 -4 -25 -1 -26 11 -1 9 -5 -2 -10 -24 -6 -30 -7 -22 -4 36 4 88
23 139 66 180 48 44 97 41 154 -12z m-865 0 c0 -5 -9 -9 -20 -9 -22 0 -23 1
-14 24 5 13 9 14 20 5 8 -6 14 -15 14 -20z m194 -115 c3 -8 2 -22 -3 -32 -5
-9 -17 -42 -26 -72 -19 -58 -29 -70 -59 -70 -10 0 -34 -13 -53 -30 -33 -29
-47 -34 -88 -31 -28 3 -53 35 -50 66 6 50 30 73 170 161 54 34 98 37 109 8z
m166 -74 c14 -26 5 -40 -24 -40 -29 0 -86 -20 -86 -30 0 -4 -11 -19 -25 -34
-21 -22 -28 -25 -45 -16 -24 13 -26 42 -5 60 8 6 31 13 52 13 29 2 40 8 49 26
22 44 66 55 84 21z m248 -65 c6 -16 33 -80 60 -142 40 -89 60 -123 101 -162
43 -42 48 -51 36 -61 -8 -7 -15 -20 -15 -30 0 -19 -27 -30 -72 -30 -16 0 -28
-6 -28 -13 0 -14 -59 -41 -112 -51 -44 -8 -116 -74 -137 -124 -13 -31 -41 -45
-41 -19 0 6 18 41 40 77 21 36 47 81 57 99 22 42 52 75 76 84 9 3 17 14 17 24
0 10 9 24 20 31 11 7 20 23 20 37 0 14 9 34 20 45 12 12 15 20 8 20 -9 0 -8 4
2 10 13 9 13 10 0 10 -8 0 -31 -4 -50 -9 -19 -5 -58 -12 -87 -16 -51 -7 -51
-6 -77 32 -35 51 -33 87 7 139 32 44 125 101 138 87 3 -5 11 -21 17 -38z m82
-125 c0 -11 -2 -20 -4 -20 -2 0 -6 9 -9 20 -3 11 -1 20 4 20 5 0 9 -9 9 -20z
m50 -40 c6 -11 16 -20 23 -20 7 0 30 -12 52 -27 22 -15 60 -30 84 -33 44 -5
71 -30 32 -30 -14 0 -21 -8 -23 -27 -2 -20 -9 -29 -25 -31 -16 -2 -20 -8 -15
-20 4 -11 -9 -5 -35 16 -57 45 -105 101 -97 114 4 7 2 8 -4 4 -11 -7 -33 52
-25 67 7 13 22 7 33 -13z m-2087 -11 c15 -25 0 -66 -32 -85 -35 -21 -79 -86
-87 -131 -11 -57 -21 -36 -12 25 14 90 28 134 54 175 27 41 57 47 77 16z m427
-8 c0 -21 -13 -41 -26 -41 -17 0 -17 5 -2 30 13 21 28 27 28 11z m1790 -241
c0 -5 -5 -10 -11 -10 -5 0 -7 5 -4 10 3 6 8 10 11 10 2 0 4 -4 4 -10z m-151
-146 c-7 -9 -14 -23 -15 -31 -2 -8 -12 -26 -24 -38 -12 -13 -20 -29 -18 -37 3
-7 -3 -21 -13 -31 -15 -17 -28 -58 -30 -97 0 -8 -3 -22 -6 -30 -3 -8 -5 -32
-4 -53 3 -52 -14 -89 -49 -110 -21 -13 -32 -29 -38 -60 -8 -32 -10 -36 -12
-17 -2 15 -5 8 -9 -20 -6 -44 -5 -46 36 -73 57 -38 123 -104 123 -122 0 -26
-60 -56 -100 -50 -19 3 -66 8 -105 10 -94 6 -152 19 -174 39 -9 9 -27 16 -39
16 -12 0 -40 7 -62 16 -24 10 -45 13 -49 8 -4 -5 -18 -52 -31 -104 -27 -112
-38 -140 -57 -140 -7 0 -13 -4 -13 -9 0 -16 -67 -41 -108 -41 -34 0 -48 7 -95
50 -42 38 -54 56 -51 73 4 19 3 19 -4 3 -8 -17 -11 -16 -36 15 l-28 34 19 -35
c23 -41 18 -63 -21 -99 -14 -14 -26 -30 -26 -37 0 -7 -4 -14 -8 -16 -27 -11
-152 -247 -152 -288 0 -10 -4 -21 -9 -24 -5 -3 -11 -23 -14 -43 -3 -21 -13
-67 -22 -103 -33 -125 -37 -146 -45 -280 -5 -74 -12 -152 -15 -172 -6 -31 -4
-39 14 -50 13 -8 21 -24 22 -43 1 -46 13 -68 39 -70 22 -2 23 -1 16 74 -3 42
-11 92 -17 111 -21 68 -8 162 27 198 13 13 21 14 47 4 16 -6 34 -9 38 -6 14 8
49 95 49 120 0 13 4 24 9 24 17 0 20 -43 10 -157 -9 -115 -7 -133 13 -133 6 0
16 -7 23 -17 11 -15 14 -14 33 5 12 12 33 24 47 28 21 5 25 12 26 48 1 22 1
45 0 49 -1 5 3 6 9 2 5 -3 10 -12 10 -19 0 -33 23 -34 69 0 71 52 91 67 125
94 66 54 197 90 326 90 44 0 45 -2 55 -100 15 -155 16 -164 61 -355 56 -236
142 -394 279 -516 69 -61 142 -98 270 -136 82 -24 83 -24 60 -33 -59 -25 -453
-1 -585 35 -482 131 -728 188 -1065 245 l-40 7 38 7 c30 7 37 12 31 25 -3 9
-12 36 -19 61 -16 61 -31 86 -68 120 -29 26 -32 33 -29 82 1 29 2 93 2 141 0
49 5 97 11 108 8 15 5 36 -12 87 -20 57 -23 89 -24 208 0 89 4 150 12 165 6
13 16 53 22 88 6 35 18 72 26 81 9 10 12 21 7 24 -14 9 16 134 44 182 14 24
78 94 142 154 110 106 116 110 127 90 10 -18 11 -13 7 33 -12 149 62 245 220
287 40 10 64 20 53 20 -15 1 -16 3 -5 7 8 3 19 12 23 20 12 20 68 41 134 48
86 11 91 12 121 33 19 13 39 18 69 14 59 -6 134 22 175 65 18 19 41 44 51 54
22 24 42 25 31 2 -4 -10 -28 -80 -53 -155 -43 -128 -48 -137 -72 -138 -14 0
-34 -6 -44 -14 -10 -7 -28 -12 -39 -9 -12 2 -3 -5 19 -16 44 -21 59 -25 51
-13 -2 4 4 8 15 8 10 0 19 -4 19 -8 0 -4 -5 -8 -11 -8 -5 0 -7 -4 -4 -10 13
-21 22 -8 33 53 17 90 64 232 101 306 47 92 125 211 139 211 2 0 -2 -7 -9 -16z
m656 -48 c12 -34 -11 -80 -42 -84 -26 -4 -69 35 -77 68 -4 22 0 28 32 42 45
19 74 11 87 -26z m-356 -52 c25 -13 51 -62 51 -97 0 -11 -9 -50 -20 -86 -21
-71 -71 -137 -97 -127 -8 3 -12 2 -9 -3 3 -5 -7 -14 -23 -19 -31 -11 -71 -6
-71 9 0 5 -7 9 -16 9 -8 0 -12 -4 -9 -10 9 -15 -3 -12 -24 7 -11 9 -18 20 -15
25 3 5 0 7 -8 6 -19 -4 -26 68 -11 125 15 64 46 108 102 146 50 33 104 38 150
15z m265 -48 c13 -8 33 -16 47 -18 19 -2 24 -9 24 -33 0 -28 -3 -30 -43 -33
-39 -3 -47 1 -78 33 -19 20 -34 44 -33 53 0 11 2 12 6 5 2 -7 11 -13 19 -13 8
0 14 -5 14 -11 0 -5 5 -7 12 -3 8 5 5 11 -10 17 -12 6 -22 14 -22 18 0 11 38
2 64 -15z m-2810 -52 c21 -8 21 -72 0 -102 -17 -24 -53 -29 -72 -10 -18 18
-15 31 18 76 33 46 31 45 54 36z m385 -373 c15 -9 8 -55 -11 -78 -13 -16 -78
-124 -78 -130 0 -3 -10 -19 -22 -35 -12 -17 -25 -54 -29 -82 -7 -44 -15 -57
-56 -93 -27 -23 -53 -42 -60 -43 -19 0 -53 50 -53 79 0 39 11 71 24 71 27 0
91 42 96 63 3 12 12 22 20 22 9 0 20 17 27 40 18 55 54 135 76 168 19 27 41
34 66 18z m155 -149 c3 -4 0 -28 -5 -51 -8 -35 -7 -47 6 -61 22 -24 19 -32
-12 -28 -32 3 -39 31 -28 105 6 40 25 57 39 35z m-142 -247 c-2 -11 -17 -46
-33 -78 -16 -32 -29 -73 -29 -91 0 -51 -9 -66 -39 -66 -15 0 -43 -13 -63 -30
-28 -24 -41 -45 -56 -98 -61 -205 -81 -327 -87 -512 -5 -140 -4 -143 10 -95 8
28 15 75 16 105 0 30 4 75 8 100 7 41 8 37 15 -52 5 -54 5 -110 1 -125 -11
-42 -14 -333 -4 -374 11 -46 42 -74 79 -71 22 2 38 -8 76 -48 27 -28 51 -56
53 -63 2 -6 11 -18 19 -26 12 -13 11 -17 -14 -34 -16 -11 -64 -56 -107 -99
-43 -43 -80 -78 -81 -78 -1 0 -2 9 -3 21 -1 11 -18 49 -37 85 -27 48 -41 92
-55 172 -11 59 -27 128 -35 152 -9 25 -16 55 -16 68 0 13 -4 21 -9 18 -4 -3
-11 23 -14 57 -4 34 -9 90 -13 125 -8 75 12 208 35 231 15 15 25 41 56 151 22
74 24 103 13 147 -9 39 -8 46 25 100 19 32 38 76 41 98 10 62 28 95 56 102 27
6 70 41 70 55 0 5 7 16 15 24 12 12 15 12 16 2 0 -7 6 7 13 32 20 73 47 121
65 118 10 -2 15 -11 13 -23z m820 -104 c27 15 48 4 48 -24 0 -24 -22 -49 -52
-60 -19 -7 -48 21 -48 47 0 19 23 49 28 35 2 -5 13 -4 24 2z m158 -30 c0 -27
-19 -36 -37 -18 -18 18 -9 37 18 37 12 0 19 -7 19 -19z m-846 -6 c-6 -16 -24
-21 -24 -7 0 11 11 22 21 22 5 0 6 -7 3 -15z m696 -282 c-9 -21 -20 -45 -23
-53 -4 -12 -6 -12 -6 2 -1 21 30 88 40 88 4 0 -1 -17 -11 -37z m-964 -47 c7
-17 -51 -133 -84 -169 -15 -15 -32 -40 -38 -55 -10 -22 -12 -23 -13 -7 -1 46
28 138 49 152 11 8 28 32 37 54 15 39 39 51 49 25z m1066 -101 c-2 -19 -8 -35
-13 -35 -14 0 -11 58 4 63 6 3 12 6 12 6 1 1 -1 -15 -3 -34z m-807 -325 c4
-13 0 -32 -11 -47 l-17 -27 -9 24 c-11 31 -2 70 17 70 7 0 17 -9 20 -20z m155
-62 c0 -7 7 -25 15 -41 8 -15 17 -54 21 -87 6 -50 4 -61 -10 -66 -24 -9 -30 1
-32 54 -1 26 -9 67 -18 91 -9 24 -13 47 -10 52 8 14 34 11 34 -3z m-181 -168
c4 -24 14 -39 33 -48 22 -10 28 -22 34 -60 3 -26 21 -77 40 -115 19 -37 34
-74 34 -82 0 -8 -17 -19 -41 -25 -23 -6 -52 -16 -65 -20 -21 -8 -27 -5 -48 28
-23 34 -24 46 -22 147 1 61 6 116 10 124 5 7 6 41 2 74 -4 51 -3 57 6 37 6
-14 14 -41 17 -60z m1911 -480 c8 -5 11 -10 5 -10 -5 0 -17 5 -25 10 -8 5 -10
10 -5 10 6 0 17 -5 25 -10z m125 -50 c3 -5 1 -10 -4 -10 -6 0 -11 5 -11 10 0
6 2 10 4 10 3 0 8 -4 11 -10z m682 -36 c-3 -3 -12 -4 -19 -1 -8 3 -5 6 6 6 11
1 17 -2 13 -5z m-110 -10 c-3 -3 -12 -4 -19 -1 -8 3 -5 6 6 6 11 1 17 -2 13
-5z m-2437 -168 c0 -2 -7 -7 -16 -10 -8 -3 -12 -2 -9 4 6 10 25 14 25 6z m4
-42 c3 -8 2 -12 -4 -9 -6 3 -10 10 -10 16 0 14 7 11 14 -7z"/>
<path d="M2351 4024 c0 -11 3 -14 6 -6 3 7 2 16 -1 19 -3 4 -6 -2 -5 -13z"/>
<path d="M2460 3651 c0 -6 4 -12 8 -15 5 -3 9 1 9 9 0 8 -4 15 -9 15 -4 0 -8
-4 -8 -9z"/>
<path d="M1828 2893 c6 -2 18 -2 25 0 6 3 1 5 -13 5 -14 0 -19 -2 -12 -5z"/>
<path d="M1966 2861 c10 -10 72 -26 63 -17 -4 4 -21 11 -39 16 -19 5 -29 6
-24 1z"/>
<path d="M1462 2620 c0 -14 2 -19 5 -12 2 6 2 18 0 25 -3 6 -5 1 -5 -13z"/>
<path d="M1310 1472 c0 -27 10 -52 21 -52 15 0 10 47 -6 60 -12 10 -15 9 -15
-8z"/>
<path d="M1620 1080 c0 -13 7 -20 20 -20 12 0 24 -10 30 -22 5 -15 9 -17 9 -7
1 9 -12 28 -29 42 -28 25 -30 26 -30 7z"/>
<path d="M1720 975 c0 -39 4 -42 26 -21 19 20 18 33 -6 46 -18 10 -20 8 -20
-25z"/>
<path d="M2678 3223 c7 -3 16 -2 19 1 4 3 -2 6 -13 5 -11 0 -14 -3 -6 -6z"/>
<path d="M2690 3000 c0 -5 5 -10 11 -10 5 0 7 5 4 10 -3 6 -8 10 -11 10 -2 0
-4 -4 -4 -10z"/>
<path d="M2490 2950 c0 -14 15 -19 29 -11 9 6 7 10 -8 14 -12 3 -21 1 -21 -3z"/>
<path d="M2203 4785 c-3 -9 -3 -18 -1 -21 3 -3 8 4 11 16 6 23 -1 27 -10 5z"/>
<path d="M8046 3833 c-34 -43 -49 -82 -26 -68 6 3 10 2 10 -3 0 -5 9 -21 21
-36 21 -27 21 -27 39 -6 9 11 20 20 24 20 15 0 66 62 66 80 0 29 -36 60 -69
60 -22 0 -36 -10 -65 -47z"/>
<path d="M4015 3620 c-126 -33 -353 -148 -339 -172 4 -7 2 -8 -4 -4 -6 4 -30
-10 -53 -31 l-41 -37 -19 23 c-11 13 -23 21 -26 17 -4 -4 5 -17 19 -29 43 -35
114 -156 143 -242 22 -64 30 -113 40 -245 7 -91 13 -147 14 -126 0 22 4 37 7
33 4 -3 13 0 20 8 8 8 20 12 28 9 7 -3 27 8 45 25 l31 29 -26 21 c-15 12 -35
21 -45 21 -11 0 -19 5 -19 10 0 6 -7 10 -15 10 -15 0 -35 37 -35 65 0 7 10 17
21 20 17 6 19 9 8 16 -11 7 -10 9 4 9 41 0 161 61 165 84 4 19 -43 22 -68 5
-11 -8 -5 -9 25 -4 39 7 39 6 22 -13 -18 -20 -95 -48 -105 -38 -3 3 0 17 6 31
15 33 81 65 137 65 63 0 175 55 161 79 -4 5 -2 12 4 16 5 3 10 1 10 -4 0 -6 5
-11 11 -11 5 0 8 4 5 8 -3 5 10 15 29 22 44 17 45 30 3 30 -48 -1 -96 -21
-192 -78 -47 -29 -102 -58 -122 -67 -48 -20 -104 -20 -104 0 0 8 7 15 16 15
17 0 102 63 116 85 4 7 25 24 48 40 22 15 40 32 40 37 0 6 22 30 49 54 27 24
52 56 56 71 4 16 15 36 26 46 12 12 19 31 19 57 0 35 -3 40 -22 41 -13 0 -32
2 -43 3 -11 2 -33 0 -50 -4z m-266 -565 l0 -20 -9 20 c-5 11 -9 27 -9 35 -1
13 0 13 9 0 5 -8 9 -24 9 -35z"/>
<path d="M7842 3559 c-9 -18 -27 -41 -39 -52 -13 -11 -23 -27 -23 -34 0 -7 -6
-13 -12 -13 -15 0 -88 -104 -88 -123 0 -7 -5 -18 -12 -25 -9 -9 -4 -12 24 -12
28 0 42 7 62 31 14 17 26 41 26 55 0 13 9 43 20 67 16 33 29 46 66 61 53 21
65 41 38 61 -29 22 -43 18 -62 -16z"/>
<path d="M3610 3003 c-7 -16 -15 -61 -18 -100 -4 -57 -1 -78 12 -98 21 -32 41
-32 63 2 20 31 23 166 3 202 -15 29 -44 26 -60 -6z m48 -35 c3 -36 -18 -66
-38 -53 -23 14 -2 101 23 92 7 -2 13 -19 15 -39z m2 -83 c18 11 10 -42 -9 -66
-16 -20 -21 -21 -35 -10 -16 13 -22 71 -10 84 4 3 15 2 26 -4 10 -5 23 -7 28
-4z"/>
<path d="M3150 2972 c0 -22 58 -107 67 -98 4 3 -2 15 -12 26 -9 10 -20 34 -24
51 -7 36 -31 52 -31 21z"/>
<path d="M3380 2967 c0 -7 9 -18 21 -25 16 -11 24 -11 36 -1 13 12 13 14 -3
26 -23 17 -54 17 -54 0z"/>
<path d="M3450 2780 c-24 -8 -23 -8 8 -9 17 -1 32 4 32 9 0 11 -5 11 -40 0z"/>
<path d="M3737 2713 c-4 -3 -7 -14 -7 -24 0 -10 -6 -38 -14 -61 -50 -160 -54
-177 -33 -161 16 13 174 -11 244 -37 55 -20 89 -27 67 -12 -6 4 -15 30 -19 57
-6 45 -10 52 -44 68 -21 9 -50 17 -66 17 -60 0 -135 42 -135 74 0 6 4 28 9 49
9 38 9 42 -2 30z"/>
<path d="M8957 2634 c-17 -14 -27 -31 -23 -39 3 -9 -3 -20 -14 -27 -12 -8 -20
-24 -20 -39 0 -15 -7 -43 -16 -64 -25 -61 -15 -71 31 -30 22 20 50 41 63 45
20 9 22 16 22 95 0 47 -3 85 -7 85 -5 0 -21 -12 -36 -26z"/>
<path d="M7130 2576 c0 -2 7 -9 15 -16 13 -11 14 -10 9 4 -5 14 -24 23 -24 12z"/>
<path d="M3690 2436 c0 -3 35 -26 78 -51 79 -49 290 -204 312 -230 19 -23 29
-18 35 18 9 48 -20 115 -54 124 -26 6 -159 56 -196 73 -11 6 -38 16 -60 24
-22 8 -57 21 -77 30 -21 9 -38 14 -38 12z"/>
<path d="M6663 2088 c-5 -7 -22 -31 -37 -53 l-28 -40 32 35 c31 34 55 70 47
70 -3 0 -9 -6 -14 -12z"/>
<path d="M6546 1930 c-9 -17 -13 -30 -8 -30 9 0 35 50 29 56 -2 2 -11 -10 -21
-26z"/>
<path d="M6490 1858 l-23 -33 28 27 c16 15 26 30 23 33 -3 4 -16 -9 -28 -27z"/>
<path d="M6566 1835 c-9 -26 -7 -32 5 -12 6 10 9 21 6 23 -2 3 -7 -2 -11 -11z"/>
<path d="M8573 1804 c-17 -21 -39 -38 -50 -39 -33 -2 -43 -15 -43 -55 0 -21
-10 -63 -21 -94 -12 -31 -19 -59 -16 -62 9 -9 47 16 47 31 0 7 21 35 46 62 70
72 96 116 92 154 -4 45 -19 46 -55 3z"/>
<path d="M6360 1714 c-55 -57 -86 -71 -110 -49 -22 20 -30 19 -30 -3 0 -15 8
-19 36 -20 20 -1 44 3 54 8 16 9 107 110 98 110 -2 0 -24 -21 -48 -46z"/>
<path d="M4283 1548 c-36 -41 -63 -95 -63 -127 0 -24 7 -35 35 -53 31 -20 35
-27 31 -53 -4 -27 -3 -26 14 10 10 22 19 47 19 55 1 14 28 65 73 138 11 17 17
32 15 32 -3 0 -18 -20 -34 -45 -30 -48 -47 -56 -57 -27 -3 9 -11 25 -18 34
-10 14 -10 22 0 38 16 26 10 25 -15 -2z"/>
<path d="M4478 1563 c12 -2 30 -2 40 0 9 3 -1 5 -23 4 -22 0 -30 -2 -17 -4z"/>
<path d="M8982 1525 c-16 -35 -15 -55 3 -55 11 0 15 11 15 40 0 47 -3 49 -18
15z"/>
<path d="M8373 1405 c-56 -64 -83 -112 -104 -184 -9 -30 -22 -50 -41 -60 -15
-9 -28 -19 -28 -23 0 -5 -7 -8 -16 -8 -8 0 -22 -17 -30 -37 -8 -21 -19 -46
-25 -57 -10 -17 -8 -18 18 -12 49 11 56 11 60 -1 2 -6 -13 -21 -34 -32 -32
-17 -34 -20 -15 -21 12 0 25 -8 29 -17 3 -10 13 -26 22 -36 14 -17 14 -20 -2
-32 -9 -7 -17 -25 -17 -41 0 -16 -9 -54 -21 -84 -11 -30 -25 -69 -30 -85 -5
-17 -22 -44 -37 -62 -43 -47 -75 -102 -68 -118 9 -24 48 -17 85 14 18 16 51
34 74 41 22 6 48 21 58 33 l17 22 7 -26 c6 -24 -10 -106 -30 -151 -5 -13 -3
-18 7 -18 24 0 79 31 72 41 -3 5 -2 9 3 8 22 -4 33 3 33 19 0 26 93 144 147
187 77 61 118 108 153 173 18 34 60 89 94 122 33 33 52 58 41 54 -11 -4 -27
-12 -35 -19 -38 -30 -40 -28 -33 42 l6 68 -27 -28 c-14 -15 -26 -32 -26 -37 0
-8 -17 -24 -139 -124 l-53 -45 -87 3 -86 3 -17 33 c-9 18 -22 37 -29 41 -9 5
-9 14 -1 36 6 15 18 55 27 88 13 44 28 70 56 96 21 20 35 39 32 43 -4 3 0 6 9
6 10 0 15 10 15 33 0 17 5 58 12 90 7 32 11 72 9 90 l-3 31 -52 -59z"/>
<path d="M8937 933 c-15 -32 -31 -65 -36 -73 -5 -8 -18 -36 -30 -62 -11 -27
-24 -48 -28 -48 -5 0 -9 -11 -9 -24 -1 -14 -24 -48 -58 -83 -39 -41 -56 -66
-56 -85 0 -18 -7 -29 -20 -33 -25 -8 -120 -120 -120 -141 0 -18 18 -53 36 -71
14 -14 64 -18 64 -5 0 12 89 57 96 49 22 -22 -2 -153 -36 -192 -16 -19 -90
-150 -90 -160 0 -3 28 -5 61 -5 60 0 63 1 103 44 31 33 51 45 82 51 34 5 45
13 63 46 12 21 27 39 32 39 6 0 8 61 7 158 l-3 157 -34 3 c-33 3 -33 3 -17
-20 22 -31 20 -38 -9 -38 -14 0 -25 4 -25 9 0 5 -13 23 -29 39 -22 22 -31 42
-36 85 -5 36 -4 57 3 57 5 0 13 -7 16 -16 11 -28 28 -3 22 31 -5 24 -1 39 16
61 32 41 76 84 88 84 6 0 10 39 10 100 0 89 -2 100 -18 100 -11 0 -27 -20 -45
-57z"/>
<path d="M110 820 c6 -11 13 -20 16 -20 2 0 0 9 -6 20 -6 11 -13 20 -16 20 -2
0 0 -9 6 -20z"/>
<path d="M3 720 c0 -30 2 -43 4 -27 2 15 2 39 0 55 -2 15 -4 2 -4 -28z"/>
<path d="M6066 683 c-6 -14 -5 -15 5 -6 7 7 10 15 7 18 -3 3 -9 -2 -12 -12z"/>
<path d="M1096 657 c19 -25 132 -87 160 -87 13 0 13 4 -2 29 -18 31 -81 66
-139 77 l-38 7 19 -26z"/>
<path d="M505 489 c-4 -6 -5 -12 -2 -15 2 -3 7 2 10 11 7 17 1 20 -8 4z"/>
<path d="M6462 440 c-25 -32 -99 -83 -172 -119 -221 -110 -235 -119 -280 -172
-25 -30 -57 -67 -72 -82 -16 -16 -28 -38 -28 -50 0 -16 3 -18 9 -8 7 10 10 10
13 1 8 -25 71 9 178 96 143 116 220 165 389 251 80 40 135 73 123 73 -12 0
-44 9 -72 20 -28 11 -54 20 -58 19 -4 0 -17 -13 -30 -29z"/>
<path d="M6678 443 c7 -3 16 -2 19 1 4 3 -2 6 -13 5 -11 0 -14 -3 -6 -6z"/>
<path d="M5044 369 c-3 -6 -17 -8 -30 -5 -17 5 -24 2 -24 -9 0 -8 -6 -15 -14
-15 -8 0 -17 -4 -20 -9 -3 -4 6 -6 19 -3 22 4 25 1 25 -28 0 -35 -50 -191 -82
-253 -11 -22 -17 -42 -14 -45 3 -3 6 1 6 9 0 12 2 11 11 -1 8 -11 12 -12 16
-2 2 7 11 18 18 26 8 7 11 17 7 21 -4 5 -1 5 6 1 8 -5 10 -16 6 -28 -4 -14 -3
-18 6 -13 7 4 9 18 5 35 -3 16 -2 31 4 35 6 3 8 17 5 31 -3 13 -2 24 4 24 5 0
17 12 27 26 14 21 15 28 4 35 -11 6 -9 12 6 26 39 35 62 153 31 153 -8 0 -18
-5 -22 -11z"/>
<path d="M8099 292 c-93 -71 -128 -88 -200 -97 -70 -9 -112 10 -136 60 -9 19
-20 35 -23 35 -14 0 -140 -122 -140 -136 0 -8 -8 -14 -17 -14 -10 0 -27 -7
-37 -15 -10 -8 -42 -22 -70 -31 -31 -11 -66 -32 -88 -56 l-38 -38 99 0 99 0
50 40 c28 21 53 44 57 50 9 14 35 13 35 -2 0 -6 -10 -22 -22 -36 l-23 -24 27
7 c21 5 29 2 38 -14 16 -31 114 -30 141 1 11 11 19 28 19 37 1 40 43 81 150
143 46 27 180 148 164 148 -5 0 -43 -26 -85 -58z"/>
<path d="M3798 256 c-20 -19 -34 -37 -31 -40 4 -3 1 -6 -5 -6 -7 0 -12 -5 -12
-11 0 -17 -161 -164 -182 -165 -11 -1 -27 -9 -36 -18 -15 -15 -14 -16 10 -16
31 0 183 139 253 231 25 32 44 59 42 59 -1 0 -19 -15 -39 -34z"/>
<path d="M4890 269 c-59 -50 -92 -81 -88 -84 2 -2 30 21 63 50 58 52 75 76 25
34z"/>
<path d="M2472 248 c-20 -20 -14 -29 21 -26 20 2 32 8 32 18 0 19 -36 25 -53
8z"/>
<path d="M2386 221 c-4 -6 -30 -13 -58 -17 -28 -4 -59 -15 -68 -24 -15 -15
-20 -16 -46 -2 -22 12 -34 12 -58 4 -16 -6 -33 -9 -38 -6 -4 3 -21 -4 -37 -15
-16 -12 -39 -21 -51 -21 -31 0 -80 -28 -80 -46 0 -24 38 -31 190 -35 l145 -4
3 28 c2 18 13 32 31 41 28 15 88 92 78 102 -3 3 -8 1 -11 -5z m-211 -51 c3 -5
1 -10 -4 -10 -6 0 -11 5 -11 10 0 6 2 10 4 10 3 0 8 -4 11 -10z"/>
<path d="M4023 207 c-18 -6 -33 -14 -33 -19 0 -5 -38 -48 -85 -96 -47 -47 -85
-87 -85 -89 0 -2 22 -3 48 -3 48 0 49 1 62 40 7 22 21 47 31 56 10 9 16 21 13
25 -3 5 2 6 10 3 9 -3 16 -2 16 3 0 5 14 23 31 41 38 38 35 51 -8 39z"/>
<path d="M1347 193 c-4 -3 -7 -18 -7 -32 0 -54 137 -132 203 -116 26 7 120
-17 143 -36 7 -6 19 -9 25 -7 7 2 -16 19 -52 37 -35 18 -77 46 -94 61 -33 31
-167 100 -194 100 -10 0 -21 -3 -24 -7z"/>
<path d="M4760 170 c-13 -8 -13 -10 2 -10 9 0 20 5 23 10 8 13 -5 13 -25 0z"/>
<path d="M410 152 c0 -7 4 -20 10 -30 5 -9 19 -41 31 -70 12 -30 28 -52 36
-52 11 0 13 3 5 13 -6 6 -26 44 -46 82 -20 39 -36 64 -36 57z"/>
<path d="M4721 127 c-13 -21 -12 -21 5 -5 10 10 16 20 13 22 -3 3 -11 -5 -18
-17z"/>
<path d="M4679 94 c-7 -9 -37 -30 -66 -46 -29 -16 -53 -34 -53 -39 0 -15 17
-10 24 6 3 8 14 15 24 15 10 0 36 18 57 40 21 22 36 40 33 40 -3 0 -12 -7 -19
-16z"/>
<path d="M970 10 c0 -5 5 -10 10 -10 6 0 10 5 10 10 0 6 -4 10 -10 10 -5 0
-10 -4 -10 -10z"/>
</g>
</svg>
