<?xml version="1.0" standalone="no"?>
<!DOCTYPE svg PUBLIC "-//W3C//DTD SVG 20010904//EN"
 "http://www.w3.org/TR/2001/REC-SVG-20010904/DTD/svg10.dtd">
<svg version="1.0" xmlns="http://www.w3.org/2000/svg"
 width="900.000000pt" height="506.000000pt" viewBox="0 0 900.000000 506.000000"
 preserveAspectRatio="xMidYMid meet">

<g transform="translate(0.000000,506.000000) scale(0.100000,-0.100000)"
fill="#000000" stroke="none">
<path d="M0 2530 l0 -2530 4500 0 4500 0 0 2530 0 2530 -4500 0 -4500 0 0
-2530z m4217 2388 c-3 -8 -6 -5 -6 6 -1 11 2 17 5 13 3 -3 4 -12 1 -19z m-153
-54 c-18 -15 -18 -15 9 -10 15 3 38 9 51 12 17 4 30 -1 45 -17 17 -19 21 -20
21 -6 0 9 5 17 10 17 12 0 13 -6 1 -29 -7 -12 -5 -26 5 -45 8 -16 14 -33 14
-38 0 -5 7 -16 15 -24 11 -11 15 -12 15 -3 0 7 2 10 5 7 10 -9 -7 -38 -18 -31
-6 3 -7 1 -3 -6 4 -6 11 -9 16 -6 5 3 10 -5 12 -17 2 -12 10 -24 18 -26 13 -4
13 -3 2 11 -11 13 -10 16 10 22 13 5 24 3 26 -4 2 -6 14 -11 27 -11 13 0 25
-6 28 -12 4 -10 7 -10 18 0 7 6 38 12 69 12 56 0 57 0 57 -30 0 -35 -18 -35
-28 1 -5 16 -7 18 -8 7 -1 -10 -9 -18 -18 -19 -15 0 -15 -2 2 -9 20 -9 20 -9
0 -9 -11 -1 -30 6 -41 14 -18 12 -24 12 -39 1 -17 -12 -13 -15 33 -26 28 -8
49 -17 46 -22 -3 -4 6 -8 20 -8 14 0 26 -4 26 -10 0 -5 10 -10 23 -10 15 0 29
-11 40 -30 11 -18 23 -27 32 -23 8 3 15 9 15 13 0 5 14 6 30 4 17 -3 30 -1 30
5 0 6 9 11 20 11 11 0 20 -4 20 -10 0 -5 18 -10 40 -10 38 0 40 -1 41 -32 1
-18 3 -43 4 -54 2 -16 -2 -20 -16 -17 -11 3 -19 9 -19 14 0 5 -8 9 -17 10 -11
0 -13 3 -5 6 6 2 12 12 12 20 0 12 -7 14 -35 9 -23 -5 -35 -3 -35 4 0 6 -4 8
-10 5 -17 -11 -11 -20 28 -40 20 -11 39 -23 42 -26 10 -13 92 -50 98 -45 3 3
-1 6 -8 6 -7 0 -11 2 -8 5 3 3 18 1 33 -5 18 -7 25 -15 21 -26 -3 -8 -2 -12 4
-9 6 3 10 17 10 31 0 20 5 24 30 24 20 0 30 -5 30 -15 0 -8 -7 -15 -15 -15
-10 0 -15 -10 -15 -26 0 -21 4 -25 20 -21 11 3 20 1 20 -4 0 -5 -6 -9 -12 -9
-7 0 2 -9 20 -20 37 -23 49 -25 34 -7 -8 9 -3 12 19 13 22 1 29 -3 25 -12 -5
-12 6 -19 18 -11 9 5 55 -47 49 -56 -3 -6 -1 -7 5 -3 7 4 12 2 12 -3 0 -6 7
-11 15 -11 9 0 12 6 9 18 -5 16 -5 16 6 -1 6 -9 8 -22 4 -29 -4 -7 -3 -8 5 -4
7 4 20 4 29 0 9 -4 21 -8 26 -8 5 -1 11 -7 14 -13 3 -12 -11 -18 -33 -13 -5 1
-6 -2 -2 -7 5 -4 12 -8 17 -8 4 0 16 -9 26 -20 11 -12 16 -16 11 -9 -6 9 16
12 83 13 l90 2 0 -41 c0 -22 -4 -40 -9 -40 -31 0 -71 15 -71 26 0 8 -7 14 -15
14 -18 0 -19 -12 -2 -28 12 -13 13 -17 16 -48 1 -10 7 -14 16 -10 8 3 15 1 15
-4 0 -6 4 -10 10 -10 5 0 7 6 5 13 -3 6 -1 19 4 26 8 13 15 12 50 -5 42 -19
53 -34 26 -34 -8 0 -15 4 -15 10 0 6 -10 5 -25 -2 -19 -9 -24 -16 -19 -32 6
-20 5 -20 -12 -5 -38 32 -48 31 -18 -2 17 -19 37 -43 45 -54 8 -11 21 -20 29
-20 8 0 16 -8 18 -19 3 -13 0 -16 -9 -11 -8 5 -10 4 -5 -3 4 -7 14 -12 22 -12
8 0 14 -7 14 -15 0 -24 3 -28 33 -58 37 -36 52 -30 51 21 0 33 2 38 13 27 14
-15 18 -65 5 -65 -4 0 -6 -16 -4 -36 4 -29 2 -35 -9 -29 -8 5 -6 -1 4 -13 11
-11 24 -19 31 -16 7 3 18 -7 24 -21 8 -16 8 -25 1 -25 -6 0 -7 -5 -3 -11 4 -8
9 -8 17 0 6 6 28 11 49 11 37 0 38 -1 39 -37 0 -21 3 -51 5 -67 4 -22 2 -27
-10 -23 -10 4 -13 1 -9 -9 3 -9 13 -14 24 -11 16 4 18 -1 14 -56 -2 -39 0 -56
6 -46 8 12 10 12 19 -1 13 -19 13 -33 0 -25 -5 3 -10 -1 -10 -9 0 -9 5 -16 10
-16 6 0 10 -5 10 -11 0 -5 -4 -7 -10 -4 -12 7 -12 6 -12 -120 0 -60 -3 -84 -6
-60 -6 35 -7 31 -13 -35 -3 -46 -5 1 -5 120 l0 195 -32 53 c-31 51 -110 162
-123 172 -4 3 -17 21 -30 40 -89 131 -265 363 -306 402 -31 30 -63 50 -90 57
-23 7 -45 16 -48 21 -3 5 -45 31 -93 56 -320 173 -470 265 -505 310 -31 41
-67 63 -110 69 -30 3 -77 26 -77 37 0 5 -4 6 -10 3 -5 -3 -10 -1 -10 4 0 6 -6
11 -14 11 -7 0 -19 6 -26 14 -6 8 -26 16 -43 18 -29 3 -34 9 -61 73 -49 120
-47 115 -69 104 -17 -10 -18 -17 -12 -62 4 -29 9 -74 11 -102 6 -87 15 -138
30 -160 12 -18 10 -34 -17 -135 -17 -63 -50 -176 -75 -250 -24 -74 -49 -151
-55 -170 -21 -63 -108 -249 -144 -304 -45 -71 -118 -133 -191 -163 -85 -36
-117 -71 -164 -182 -25 -59 -56 -113 -81 -141 -23 -25 -38 -36 -34 -25 7 20
10 44 13 98 2 32 22 37 22 5 l1 -23 19 24 c11 12 18 27 15 31 -3 5 -1 11 5 15
6 4 8 11 4 16 -3 6 -3 17 1 27 5 14 7 14 16 2 7 -11 8 -6 3 15 -3 17 -2 25 3
18 6 -8 12 -4 20 13 10 22 9 25 -13 30 -24 6 -24 8 -24 121 l0 115 -25 -6
c-20 -5 -25 -3 -25 13 0 27 10 51 22 51 5 0 6 -4 3 -10 -4 -6 8 -10 29 -10 29
0 36 -4 36 -20 0 -19 7 -20 132 -20 l131 0 -19 21 c-16 17 -16 22 -4 29 11 7
16 4 18 -10 2 -11 8 -18 13 -15 5 4 9 0 9 -7 0 -10 3 -9 10 2 6 10 3 20 -11
33 -23 22 -18 37 6 17 13 -11 15 -8 15 20 0 19 3 30 6 27 4 -3 15 5 26 18 11
14 23 23 27 20 5 -2 6 7 3 22 -3 18 -1 24 7 19 6 -4 11 -2 11 4 0 6 7 18 15
26 13 14 13 17 -1 32 -11 11 -13 17 -5 20 6 2 9 8 5 13 -3 5 -1 9 4 9 6 0 8
17 5 40 -4 27 -2 40 6 40 7 0 9 -5 5 -12 -5 -7 -3 -8 5 -4 7 5 16 18 21 30 8
20 9 20 10 -4 1 -23 2 -23 9 -5 5 11 5 25 0 31 -10 13 25 87 36 76 4 -4 5 2 3
13 -3 11 4 35 15 53 15 26 17 36 7 47 -9 11 -9 23 -2 45 12 34 2 46 -26 31
-14 -8 -22 -5 -35 10 -23 26 -21 32 8 27 51 -10 53 -2 58 268 2 138 7 257 11
263 4 6 12 11 19 11 6 0 2 -7 -9 -16z m196 -24 c0 -11 -4 -20 -10 -20 -5 0
-10 9 -10 20 0 11 5 20 10 20 6 0 10 -9 10 -20z m-39 -43 c-10 -9 -11 -8 -5 6
3 10 9 15 12 12 3 -3 0 -11 -7 -18z m-201 -9 c0 -9 4 -8 10 2 8 11 9 7 4 -15
-8 -37 -10 -39 -23 -30 -14 8 -14 55 -1 55 6 0 10 -6 10 -12z m300 -72 c0 -15
-7 -26 -20 -29 -17 -4 -20 0 -20 24 0 22 5 29 20 29 14 0 20 -7 20 -24z m185
-136 c-3 -5 -12 -10 -18 -10 -7 0 -6 4 3 10 19 12 23 12 15 0z m-1500 -10 c3
-5 40 -10 81 -10 41 0 74 -4 74 -8 0 -5 -37 -7 -82 -6 -46 2 -74 0 -63 -3 20
-6 20 -6 0 -13 -17 -6 -16 -7 7 -12 15 -3 25 -2 23 2 -6 9 19 20 46 20 11 0
17 -4 14 -10 -3 -5 0 -7 8 -5 9 4 14 -6 16 -37 1 -23 4 -45 7 -48 3 -3 4 15 3
39 -4 50 13 65 31 30 11 -20 10 -40 -6 -103 -5 -22 -3 -26 15 -26 19 0 21 -6
21 -60 0 -53 -2 -60 -20 -60 -17 0 -20 7 -20 39 0 33 -3 39 -25 43 -14 3 -25
1 -25 -4 0 -5 -7 -5 -17 1 -14 7 -21 1 -38 -32 -15 -28 -18 -46 -12 -54 7 -9
5 -13 -7 -13 -9 0 -22 -16 -31 -36 -18 -44 -20 -78 -4 -68 9 5 10 -1 5 -22 -4
-16 -7 -38 -7 -49 0 -16 -2 -17 -9 -5 -5 8 -12 11 -15 8 -14 -14 8 -28 42 -28
20 0 33 -3 30 -7 -9 -8 57 -53 77 -53 23 0 46 -11 41 -20 -5 -8 32 -28 80 -44
15 -6 16 -9 6 -15 -10 -6 -10 -10 -1 -16 6 -4 14 -4 17 -1 3 3 12 1 20 -6 8
-6 26 -13 40 -14 32 -4 41 -13 24 -23 -10 -6 -10 -13 -2 -28 5 -11 8 -23 5
-25 -2 -3 3 -11 12 -19 14 -11 18 -10 30 6 13 17 16 18 24 5 5 -8 10 -23 10
-32 0 -11 5 -15 15 -12 10 4 15 0 15 -15 0 -30 -16 -26 -32 9 -14 31 -23 37
-33 20 -8 -12 14 -82 23 -76 4 2 7 -18 7 -46 0 -32 5 -54 15 -61 12 -10 15
-35 14 -122 -1 -60 -5 -126 -9 -145 -7 -33 -8 -33 -16 -12 -5 12 -8 57 -8 100
1 118 -17 207 -60 299 -36 75 -108 163 -133 163 -5 0 -6 5 -2 11 4 7 1 10 -7
7 -7 -2 -26 8 -41 24 -15 15 -34 28 -43 28 -9 0 -34 14 -56 32 -21 17 -41 29
-43 27 -3 -2 2 -19 11 -37 17 -36 12 -52 -12 -32 -11 9 -22 9 -46 1 -44 -15
-114 -14 -128 3 -6 7 -39 26 -73 41 -59 26 -61 29 -38 37 14 6 62 7 107 4 58
-3 85 -1 90 7 4 7 6 37 4 68 -2 52 2 64 65 187 37 72 72 128 78 125 5 -3 6 -1
2 5 -3 6 1 26 10 45 20 41 11 87 -9 53 -7 -11 -28 -38 -48 -60 -20 -23 -40
-51 -44 -64 -5 -16 -12 -21 -24 -17 -22 7 -45 -19 -37 -41 4 -10 1 -14 -6 -11
-11 3 -78 -81 -78 -99 0 -6 -82 -102 -145 -169 -42 -43 -37 -56 31 -87 54 -23
68 -41 59 -75 -4 -17 -9 -23 -14 -15 -11 19 -114 52 -126 41 -5 -5 -15 -9 -22
-9 -28 0 -102 -66 -123 -110 -29 -62 -71 -106 -124 -131 -48 -22 -63 -43 -43
-63 15 -15 47 -17 44 -2 -1 5 25 20 57 31 33 12 53 24 45 27 -8 3 -11 9 -7 13
4 4 13 3 20 -3 16 -12 160 50 198 86 13 12 27 22 31 22 4 0 22 12 39 26 28 24
37 26 86 21 54 -6 139 15 155 37 9 12 39 0 39 -15 0 -20 -85 -96 -115 -103
-14 -4 -44 -18 -66 -31 -21 -14 -43 -25 -49 -25 -20 0 -73 -39 -90 -68 -21
-34 -56 -50 -73 -33 -20 20 -50 11 -101 -32 -28 -23 -76 -61 -106 -84 -30 -23
-70 -57 -87 -75 -42 -43 -71 -68 -81 -68 -4 0 -13 -9 -20 -20 -7 -11 -18 -20
-26 -20 -7 0 -21 -9 -32 -21 -18 -20 -18 -21 -1 -34 22 -16 50 -10 72 15 9 10
23 16 30 13 8 -2 20 5 27 17 7 11 37 32 65 47 29 14 65 37 80 52 43 42 78 61
94 50 8 -5 10 -9 4 -10 -55 -5 -76 -22 -69 -58 5 -23 2 -29 -17 -34 -28 -7
-39 1 -19 13 8 5 11 12 8 15 -4 4 -16 1 -27 -7 -12 -8 -18 -18 -14 -21 3 -4
-7 -7 -23 -8 -16 0 -23 -3 -16 -6 10 -4 10 -10 -3 -29 -9 -14 -13 -29 -10 -35
4 -5 3 -9 -2 -8 -21 4 -33 -2 -33 -16 0 -8 9 -15 20 -15 13 0 20 -7 20 -20 0
-18 7 -20 79 -20 48 0 83 4 87 11 4 8 9 7 15 -2 6 -10 13 -10 31 -2 20 9 24 8
24 -7 0 -10 -5 -16 -10 -13 -5 4 -6 1 -1 -6 4 -7 16 -10 27 -8 13 4 28 -3 44
-20 25 -27 31 -38 14 -28 -5 3 -10 -3 -10 -15 0 -25 -23 -71 -43 -88 -10 -9
-18 -8 -33 3 -17 13 -17 14 -2 15 9 0 29 16 44 36 24 30 25 37 13 49 -12 13
-17 10 -34 -15 -11 -17 -23 -30 -27 -30 -12 0 -10 28 2 35 16 10 12 25 -6 25
-9 0 -14 -6 -11 -12 6 -18 -12 -65 -21 -52 -4 6 -16 14 -27 18 -16 4 -21 2
-21 -13 0 -11 5 -17 13 -14 7 3 13 -2 13 -11 0 -14 14 -22 23 -13 1 1 13 -8
27 -20 22 -21 29 -24 46 -22 4 0 10 -3 13 -8 16 -21 72 -44 87 -35 9 5 70 63
136 128 87 87 121 115 127 106 4 -8 12 -13 17 -13 13 2 17 -78 4 -94 -6 -7
-12 -61 -13 -122 -2 -131 4 -143 69 -141 36 2 44 6 44 21 0 15 5 18 23 13 12
-3 29 -6 37 -6 13 0 13 -1 0 -10 -12 -8 -13 -14 -2 -42 9 -23 9 -34 1 -39 -16
-10 -2 -59 16 -59 8 0 15 -9 15 -20 0 -13 7 -20 20 -20 13 0 20 -7 20 -19 0
-11 5 -21 11 -23 7 -2 7 -12 0 -31 -6 -16 -16 -25 -24 -21 -11 4 -13 -7 -10
-54 3 -38 0 -62 -7 -67 -7 -4 -2 -14 14 -26 26 -21 102 -132 128 -189 14 -29
44 -162 41 -180 -8 -62 -11 -92 -7 -82 3 6 12 12 20 12 8 0 14 10 15 23 0 14
2 17 6 7 3 -8 11 -22 18 -30 7 -8 20 -37 29 -65 8 -27 22 -70 31 -94 9 -24 14
-50 11 -58 -3 -7 -1 -13 4 -13 6 0 10 -7 10 -15 0 -8 -9 -15 -19 -15 -37 0
-51 -12 -51 -41 0 -16 -4 -29 -8 -29 -10 0 -45 -60 -35 -60 4 0 2 -4 -5 -9 -9
-5 -15 -39 -19 -97 -4 -73 -8 -92 -24 -103 -10 -7 -19 -20 -19 -28 0 -8 -17
-43 -37 -78 -31 -53 -44 -65 -70 -70 -18 -3 -33 -10 -33 -15 0 -5 -16 -14 -35
-21 -22 -8 -35 -20 -35 -30 0 -22 -59 -43 -120 -42 -25 0 -78 12 -118 26 -40
15 -76 26 -80 25 -18 -5 -74 37 -134 100 -87 93 -160 216 -199 337 -30 93 -32
97 -45 74 -7 -13 -13 -36 -14 -51 0 -15 -4 -29 -9 -32 -4 -3 -11 -29 -14 -57
-4 -28 -10 -56 -16 -63 -12 -15 -8 -223 6 -266 28 -85 28 -80 -5 -80 -17 0
-33 -4 -37 -9 -3 -5 0 -41 7 -80 11 -65 11 -72 -6 -84 -26 -19 -15 -82 17 -93
16 -6 7 -9 -37 -11 -32 -2 -66 -1 -75 3 -30 13 -42 13 -48 -2 -3 -9 -19 -14
-42 -14 -20 0 -42 -5 -49 -12 -9 -9 -12 -3 -12 27 0 34 5 42 27 53 15 6 34 12
42 11 11 0 10 -3 -4 -9 -18 -8 -17 -9 8 -9 26 -1 34 14 28 51 0 5 3 8 7 8 11
0 3 58 -9 66 -5 3 -9 0 -9 -7 0 -10 -3 -10 -12 0 -10 11 -10 14 0 18 27 10 10
22 -27 19 -39 -4 -39 -3 -30 21 5 14 7 28 4 33 -3 4 -1 19 4 32 10 23 10 23
10 1 1 -12 5 -24 10 -27 5 -4 5 10 0 32 -5 20 -9 41 -9 46 0 4 -7 6 -15 2 -13
-5 -14 -2 -4 15 6 12 7 19 2 16 -5 -3 -34 1 -66 8 -31 7 -57 9 -57 4 0 -5 7
-9 17 -9 9 0 13 -3 9 -7 -4 -4 -35 -8 -69 -8 -34 -1 -72 -5 -84 -10 -13 -4
-23 -3 -23 2 0 13 40 33 73 35 15 1 27 6 27 10 0 11 -36 19 -55 12 -12 -5 -16
-4 -12 3 9 15 -16 23 -69 23 -28 0 -43 4 -39 10 3 5 1 10 -4 10 -6 0 -11 -7
-11 -15 0 -8 -8 -15 -18 -15 -30 0 -34 13 -10 26 l23 12 -30 12 c-48 19 -113
21 -111 2 0 -8 -7 -16 -16 -17 -10 -2 -18 2 -18 9 0 7 -12 18 -26 24 -19 9
-24 9 -18 0 5 -7 2 -9 -8 -5 -12 4 -14 1 -11 -14 7 -26 -6 -24 -17 3 -8 21 -9
19 -10 -12 -1 -19 -4 -30 -6 -23 -3 7 -12 9 -20 6 -8 -3 -14 0 -14 6 0 17 -28
13 -39 -6 -6 -10 -11 -13 -11 -6 0 6 -11 10 -25 8 -20 -2 -23 0 -14 12 10 11
8 12 -7 6 -10 -4 -24 -13 -29 -20 -13 -17 -45 -7 -45 13 0 8 -7 14 -15 14 -8
0 -15 8 -15 17 0 9 -3 13 -7 10 -10 -11 -33 14 -33 36 0 20 -1 20 -13 2 -10
-12 -16 -14 -21 -7 -4 7 -2 12 4 12 6 0 8 5 4 11 -3 6 0 16 7 21 10 7 8 7 -8
3 -27 -8 -52 4 -33 15 7 4 13 34 14 69 2 51 -2 68 -20 93 l-22 30 2 -37 c2
-22 -2 -42 -11 -51 -19 -18 -27 -18 -19 2 4 10 -2 23 -16 33 -19 16 -18 49 1
37 4 -3 14 4 21 15 8 10 20 19 27 19 15 0 17 29 3 50 -8 13 -10 12 -10 -3 0
-26 -20 -10 -21 16 0 21 -1 21 -9 2 -6 -14 -7 -6 -4 25 4 33 3 41 -5 30 -19
-27 -13 17 9 59 16 33 17 40 5 45 -8 3 -15 13 -15 21 0 9 -4 13 -10 10 -7 -4
-7 3 0 20 6 15 10 76 10 136 l0 109 -50 0 c-43 0 -50 3 -50 20 0 11 5 20 10
20 6 0 10 10 9 23 l0 22 -11 -23 c-13 -25 -23 -28 -31 -8 -4 10 -1 13 9 9 16
-6 20 12 4 22 -6 4 -8 11 -5 16 4 5 -3 9 -15 9 -13 0 -20 -5 -18 -12 3 -7 -13
-21 -36 -31 -28 -13 -37 -20 -27 -26 10 -6 9 -10 -4 -15 -10 -4 -15 -12 -11
-22 3 -8 2 -12 -4 -9 -6 3 -10 -1 -10 -10 0 -9 -11 -27 -25 -41 -14 -14 -25
-33 -25 -43 0 -10 -7 -35 -15 -54 -8 -20 -15 -44 -14 -54 0 -11 3 -13 6 -5 8
20 33 14 33 -8 0 -11 -7 -20 -15 -20 -13 0 -15 -11 -13 -57 3 -52 5 -58 28
-63 14 -3 26 -14 28 -23 4 -22 -17 -22 -35 1 -13 15 -14 15 -10 -11 7 -43 -8
-19 -21 33 -21 87 -22 99 -13 163 10 74 48 170 64 160 6 -3 7 -1 3 5 -13 21
77 137 97 125 6 -3 7 -1 4 4 -8 12 42 49 60 45 6 -1 15 3 19 9 4 8 3 9 -4 5
-7 -4 -12 -5 -12 -2 0 8 102 67 108 62 3 -3 -1 -6 -9 -6 -11 0 -11 -2 1 -10
13 -8 12 -10 -2 -10 -10 0 -18 -4 -18 -9 0 -5 -12 -12 -27 -14 -23 -3 -21 -4
10 -6 30 -1 37 -5 37 -21 0 -17 7 -20 40 -20 38 0 40 2 40 30 0 21 -4 28 -14
24 -8 -3 -17 0 -21 6 -4 7 2 14 14 17 27 7 27 21 0 31 -36 14 42 41 135 48
112 9 194 -16 307 -91 152 -103 236 -184 315 -304 l29 -45 5 125 c5 123 6 126
38 167 32 40 36 42 90 42 54 0 67 -9 20 -15 -43 -5 -53 -10 -61 -30 -5 -13
-10 -16 -15 -8 -13 20 -50 -21 -57 -63 l-6 -39 15 33 c8 17 18 32 21 32 3 0 3
-4 0 -10 -3 -5 1 -10 9 -10 10 0 16 -9 16 -22 0 -16 3 -19 11 -11 8 8 7 17 -5
34 -20 29 -20 39 0 39 8 0 12 -4 9 -10 -3 -5 1 -10 9 -10 14 0 16 -22 16 -160
l0 -160 -120 0 -120 0 0 44 c0 35 -4 46 -19 51 -22 7 -39 93 -23 120 8 15 11
14 30 -10 17 -21 19 -29 9 -40 -6 -7 -19 -10 -27 -7 -12 4 -13 2 -2 -9 6 -7
12 -21 12 -31 0 -10 4 -18 9 -18 6 0 8 9 6 21 -2 12 2 27 10 35 7 8 12 20 11
28 -2 15 -96 121 -96 109 0 -4 -6 1 -13 12 -8 10 -19 15 -25 11 -7 -4 -12 -2
-12 4 0 6 -5 8 -12 4 -7 -5 -9 -2 -5 8 4 11 -7 23 -39 39 -24 13 -44 28 -44
34 -1 13 -73 58 -102 62 -12 2 -29 1 -37 -2 -14 -5 -14 -7 -1 -16 12 -8 10
-10 -8 -6 -17 4 -30 -4 -53 -33 -21 -25 -42 -40 -64 -44 -32 -6 -34 -9 -31
-41 3 -38 -11 -70 -21 -47 -9 22 -31 13 -61 -24 -29 -35 -49 -80 -32 -69 10 6
25 -34 16 -42 -3 -4 -6 1 -6 10 0 10 -6 17 -14 17 -8 0 -17 6 -19 13 -3 6 -6
2 -6 -9 -1 -12 -8 -25 -17 -28 -14 -5 -14 -8 0 -27 9 -13 13 -33 9 -49 -6 -33
21 -49 36 -22 14 25 23 9 12 -22 -6 -14 -7 -26 -2 -26 10 0 21 49 14 66 -2 7
-11 10 -19 7 -10 -3 -12 0 -8 10 8 23 34 30 35 9 0 -15 1 -15 8 1 6 17 8 17
20 3 16 -20 6 -87 -12 -81 -7 3 -20 -8 -29 -25 -14 -24 -14 -30 -3 -30 8 0 17
5 20 10 10 17 33 -7 40 -41 8 -37 25 -28 25 13 0 30 1 30 19 14 15 -13 20 -14
24 -4 3 7 6 3 6 -9 1 -31 21 -40 21 -9 0 14 4 26 8 26 4 0 6 -15 4 -34 -4 -37
11 -54 33 -36 12 10 15 9 15 -3 0 -23 15 -28 45 -17 18 7 25 15 21 25 -3 8 -1
15 4 15 6 0 10 -9 10 -20 0 -11 5 -20 10 -20 6 0 10 5 10 11 0 8 4 8 14 0 11
-9 12 -6 8 15 -3 19 -1 25 7 20 6 -4 11 -14 11 -22 0 -8 4 -14 8 -14 5 0 14
-12 21 -27 9 -19 15 -23 23 -15 8 8 18 3 36 -21 19 -24 23 -27 20 -11 -3 12 1
32 8 45 13 23 13 21 14 -26 1 -27 4 -45 6 -39 4 9 11 9 29 0 28 -12 35 -56 10
-56 -19 0 -31 -48 -18 -69 7 -10 28 -17 62 -19 46 -3 51 -1 51 17 0 12 5 21
10 21 6 0 10 9 10 20 0 16 7 20 30 20 28 0 30 -2 30 -40 l0 -40 80 0 c73 0 80
-2 80 -20 0 -14 -7 -20 -22 -20 -29 0 -88 -22 -88 -32 0 -5 10 -13 23 -18 32
-13 11 -12 -35 2 -27 8 -42 8 -49 1 -8 -8 -4 -11 12 -11 13 0 43 -5 66 -10 23
-5 40 -5 37 -1 -3 5 1 9 8 9 8 0 6 5 -4 11 -29 16 -21 29 17 29 28 0 35 -4 35
-19 0 -23 35 -37 53 -23 7 6 31 16 55 23 37 11 45 10 53 -2 7 -12 9 -11 9 3 0
9 7 21 16 26 15 8 15 10 0 15 -9 4 -19 0 -24 -9 -6 -11 -8 -4 -8 20 1 39 5 43
24 24 10 -10 18 -6 38 17 14 17 22 23 18 15 -4 -8 18 12 49 45 32 32 57 68 57
78 0 13 5 17 15 13 35 -14 50 -18 38 -9 -7 5 -12 20 -11 33 1 14 0 48 -2 75
l-3 50 -7 -40 c-4 -22 -5 29 -2 114 3 106 2 152 -5 148 -12 -8 -23 24 -23 70
0 17 -4 35 -10 38 -18 11 -11 35 10 35 12 0 20 -7 20 -17 0 -10 5 -25 10 -33
7 -11 10 -7 10 17 0 23 -9 42 -33 66 l-34 33 31 -4 c40 -6 56 -19 56 -45 0
-21 0 -21 14 -2 12 18 35 88 66 205 13 48 22 178 12 162 -10 -15 -38 -6 -67
21 -27 25 -81 47 -116 47 -27 0 -79 -18 -89 -31 -3 -4 -21 -9 -40 -13 -19 -3
-55 -10 -80 -15 -57 -13 -90 -13 -90 -2 0 5 39 16 88 26 107 21 136 31 187 66
65 43 113 59 182 59 77 0 111 16 145 67 54 83 54 79 -4 109 -29 15 -71 39 -93
54 -22 15 -58 36 -80 48 -36 18 -44 19 -72 7 -17 -7 -34 -18 -38 -24 -4 -8
-24 -10 -56 -6 -41 5 -48 3 -43 -10 5 -11 2 -14 -12 -9 -40 13 -90 37 -105 51
-9 7 -21 13 -27 11 -5 -2 -21 9 -35 24 -14 15 -27 25 -30 22 -2 -2 -17 12 -33
33 -15 20 -35 45 -44 54 -44 50 -115 158 -155 239 -64 127 -148 421 -126 443
8 8 43 -70 57 -130 4 -15 10 -32 14 -38 4 -5 12 -32 19 -60 18 -74 59 -179 79
-201 10 -10 19 -22 20 -26 7 -21 38 -68 45 -68 5 0 6 -4 3 -8 -3 -5 11 -26 30
-47 19 -21 34 -42 34 -46 0 -4 12 -12 28 -18 15 -6 38 -18 52 -28 22 -15 21
-14 -4 12 -54 55 -148 189 -186 265 -82 163 -160 500 -160 692 0 112 -6 143
-25 130 -15 -11 -35 -74 -35 -113 0 -47 -24 -169 -39 -197 -12 -22 -31 -30
-31 -13 0 47 -133 -27 -220 -122 -30 -33 -170 -175 -311 -316 -283 -283 -259
-251 -427 -581 -197 -385 -189 -363 -167 -460 18 -77 10 -48 79 -288 74 -256
91 -303 137 -395 42 -82 45 -92 29 -82 -12 7 -12 -1 -4 -44 l7 -31 98 0 99 0
0 -40 0 -40 -160 0 -160 0 0 124 c0 68 -3 131 -6 140 -3 8 3 22 15 33 25 21
26 33 6 59 -15 18 -16 17 -10 -11 l6 -30 -66 3 -65 4 0 149 c0 142 -1 149 -20
149 -11 0 -20 7 -20 15 0 8 9 15 20 15 19 0 21 6 19 51 -2 27 -6 52 -10 55 -5
2 -5 12 -2 20 3 9 0 19 -6 24 -7 4 -17 25 -21 46 -12 51 -13 217 -1 210 5 -3
12 2 15 11 4 9 2 19 -4 23 -6 4 -10 11 -9 16 1 5 0 11 -1 14 -1 3 -3 15 -4 28
-3 28 14 29 21 2 5 -20 6 -20 25 -4 10 10 16 24 14 31 -3 7 -1 13 5 13 6 0 7
5 3 11 -5 8 -10 6 -16 -6 -9 -15 -11 -15 -29 4 -10 11 -19 34 -19 51 0 28 3
30 34 30 28 0 36 -5 43 -26 l9 -26 12 28 c11 23 11 26 -1 16 -11 -9 -16 -7
-25 14 -15 32 -15 34 4 34 10 0 14 -5 10 -15 -4 -13 -2 -14 14 -5 26 14 26 40
0 40 -11 0 -20 4 -20 8 0 12 22 32 34 32 6 0 4 -5 -4 -10 -13 -9 -13 -11 0
-20 8 -5 17 -10 20 -10 9 0 71 132 65 138 -3 3 -5 0 -5 -6 0 -7 -7 -12 -15
-12 -8 0 -15 7 -15 16 0 8 5 12 10 9 6 -3 10 0 10 8 0 8 7 20 15 27 9 7 14 19
11 27 -4 8 -1 11 5 8 6 -4 8 -13 5 -21 -10 -25 10 -15 22 11 15 32 15 45 2 25
-8 -11 -9 -7 -4 14 4 17 2 31 -5 35 -9 6 -7 12 5 22 12 9 15 10 10 2 -4 -8 -2
-13 4 -13 7 0 10 -7 6 -15 -7 -19 -2 -19 13 -1 9 11 6 20 -14 41 l-25 28 22
19 c22 18 22 18 33 -9 l12 -28 12 23 c9 16 9 27 1 43 -9 16 -8 24 3 37 8 9 12
22 10 29 -3 7 3 10 16 6 13 -3 23 2 31 17 8 15 17 19 31 15 18 -6 24 3 20 28
-1 5 2 6 7 3 11 -7 62 48 62 67 0 10 7 13 19 10 11 -3 21 2 24 11 4 10 1 16
-8 16 -8 0 -15 7 -15 15 0 8 9 15 21 15 11 0 17 -4 14 -10 -6 -10 17 -14 27
-4 9 8 -3 44 -13 38 -5 -3 -9 1 -9 9 0 8 10 13 23 13 17 -1 22 4 21 22 0 12 3
22 8 22 4 0 8 -4 8 -10 0 -14 28 -12 33 3 2 6 -3 18 -12 25 -9 8 -11 11 -5 8
21 -10 64 -15 59 -6 -3 5 -1 11 4 15 7 4 7 15 1 33 -9 23 -8 25 3 10 12 -15
15 -15 43 7 16 13 33 21 38 18 5 -4 6 -1 3 4 -4 6 2 21 12 34 10 13 16 29 14
36 -4 12 63 52 81 49 5 0 10 7 12 17 1 9 -1 15 -4 13 -4 -2 -8 12 -10 31 -1
24 2 33 10 30 7 -2 12 -11 12 -19 -1 -14 8 -15 50 -9 4 0 6 10 3 21 -3 11 -1
20 4 20 5 0 9 -5 9 -11 0 -6 7 -3 16 5 8 9 20 16 25 16 5 0 8 6 6 13 -1 6 6
11 15 11 10 -1 15 2 12 7 -3 5 1 9 9 9 10 0 13 7 10 20 -4 16 -2 19 11 14 9
-3 13 -11 9 -18 -4 -6 2 -4 13 4 29 22 30 24 12 17 -10 -4 -18 -2 -18 3 0 6 7
10 15 10 18 0 19 9 1 33 -16 21 -30 22 -22 1 4 -10 1 -14 -6 -12 -7 3 -14 12
-16 21 -4 22 31 23 48 2 17 -21 27 -11 35 35 4 22 11 40 16 40 5 0 9 14 9 30
0 17 -4 30 -8 30 -5 0 -9 6 -9 13 0 7 -3 25 -6 39 -8 31 -4 32 88 42 34 4 44
3 30 -3 -17 -8 -15 -10 13 -10 37 -1 35 7 32 -143 -1 -83 1 -108 11 -108 10 0
10 -3 1 -12 -7 -7 -12 -23 -11 -37 l1 -26 8 25 c4 14 8 19 9 13 1 -7 8 -13 16
-13 8 0 15 -4 15 -10 0 -5 -7 -10 -15 -10 -8 0 -15 -3 -15 -6 0 -13 22 -89 32
-110 5 -11 11 -58 13 -105 2 -72 20 -174 24 -144 1 6 10 -6 21 -25 13 -26 15
-38 7 -48 -8 -10 -7 -16 2 -21 7 -5 12 -11 12 -15 -4 -27 1 -38 14 -32 8 3 15
0 15 -6 0 -7 5 -6 15 2 18 15 20 37 3 43 -8 2 -9 8 -4 13 5 5 11 3 14 -5 2 -7
13 -22 23 -32 17 -17 26 -49 15 -49 -2 0 -13 -3 -23 -6 -14 -5 -15 -4 -4 4 8
6 11 17 7 27 -6 16 -8 15 -26 -5 -12 -14 -20 -18 -20 -10 0 7 -3 11 -6 7 -10
-10 7 -47 21 -47 8 0 17 -9 20 -20 3 -11 12 -20 18 -21 7 0 4 -3 -5 -7 -15 -6
-15 -9 -2 -26 8 -11 14 -15 14 -9 0 20 37 2 51 -25 13 -27 13 -27 19 20 3 26
8 49 10 50 3 2 15 12 28 23 22 18 23 18 16 0 -5 -13 -4 -16 4 -11 7 4 12 14
12 23 0 8 6 13 13 10 6 -2 18 2 25 9 11 12 9 14 -7 14 -15 0 -19 5 -14 16 4
12 8 13 13 3 11 -16 71 30 64 50 -3 11 -1 11 9 3 17 -14 28 -6 20 15 -4 10 -2
14 7 11 8 -2 22 4 32 14 20 20 24 38 8 38 -5 0 -10 -7 -10 -16 0 -9 -5 -12
-12 -8 -7 5 -8 3 -3 -6 5 -8 4 -11 -3 -6 -6 3 -13 2 -17 -3 -3 -6 -13 -8 -23
-5 -12 4 -13 3 -4 -3 16 -12 -30 -38 -52 -30 -25 10 -19 27 10 27 25 0 26 2
20 35 -5 24 -3 35 5 35 6 0 8 -7 5 -16 -5 -14 -4 -15 8 -5 11 9 15 7 19 -10 8
-31 27 -13 27 26 0 19 4 45 9 58 6 14 7 28 3 31 -3 4 -12 -10 -19 -31 l-12
-38 5 35 c3 19 14 47 25 62 10 15 15 29 10 32 -11 7 -3 44 12 53 6 4 8 0 4
-10 -3 -9 -2 -19 3 -22 6 -4 10 4 10 17 0 18 2 20 10 8 11 -17 13 -10 4 14 -3
8 -11 13 -19 10 -7 -3 -14 1 -17 8 -5 16 39 61 47 47 4 -5 1 -9 -4 -9 -17 0
-13 -17 6 -24 10 -4 15 -4 11 -1 -7 7 38 55 52 55 5 0 11 4 14 8 4 8 -16 12
-61 12 -20 0 -23 5 -23 40 0 33 3 40 20 40 11 0 20 5 20 10 0 6 18 10 41 10
28 0 39 -4 36 -12 -2 -7 -11 -12 -21 -10 -9 2 -16 -2 -16 -8 0 -5 -9 -10 -20
-10 -11 0 -20 -5 -20 -11 0 -6 10 -9 23 -8 12 2 28 0 36 -5 8 -5 16 -4 21 5 5
7 23 20 42 28 22 11 36 26 42 48 6 17 18 34 28 36 10 3 18 11 18 19 0 10 -3
10 -11 -2 -9 -12 -10 -12 -5 3 3 10 6 23 6 29 0 7 5 6 14 -1 12 -10 13 -8 9 8
-4 15 1 23 18 30 18 7 19 10 7 10 -10 1 -18 6 -18 12 0 6 9 9 20 6 11 -3 17
-1 14 4 -7 12 15 41 26 34 5 -3 12 0 16 6 4 7 3 9 -3 6 -14 -9 -26 24 -14 36
7 7 15 6 25 -2 13 -11 18 -7 31 24 8 21 15 41 15 46 0 5 10 9 22 9 21 0 21 0
2 14 -12 9 -21 11 -25 4 -4 -7 -9 -6 -13 1 -4 6 -20 11 -37 11 -16 0 -29 5
-29 10 0 6 9 10 20 10 11 0 20 5 20 10 0 17 35 11 47 -8 9 -16 28 -20 63 -13
3 1 -2 6 -10 11 -13 9 -13 10 0 11 8 1 19 1 24 0 5 -1 6 5 2 14 -3 9 -2 13 4
10 6 -3 10 -3 10 2 0 10 92 9 109 -1 9 -6 9 -11 0 -22 -6 -7 -16 -11 -22 -7
-6 4 -7 1 -2 -6 13 -22 38 14 41 59 1 28 -2 40 -11 40 -7 0 -16 -6 -18 -12 -4
-8 -8 -4 -12 10 -6 16 -15 22 -36 22 -22 0 -29 5 -29 20 0 18 7 20 59 20 33 0
63 -4 66 -10z m-105 -59 c0 -4 -18 -8 -40 -8 -22 0 -40 4 -40 8 0 5 18 9 40 9
22 0 40 -4 40 -9z m1980 -81 c0 -5 -9 -10 -20 -10 -11 0 -20 5 -20 10 0 6 9
10 20 10 11 0 20 -4 20 -10z m134 -92 c9 -34 8 -38 -10 -38 -8 0 -12 5 -9 10
3 6 2 10 -3 10 -6 0 -8 9 -5 20 7 27 19 25 27 -2z m-2034 -2 c0 -3 -4 -8 -10
-11 -5 -3 -10 -1 -10 4 0 6 5 11 10 11 6 0 10 -2 10 -4z m-1373 -58 c-3 -8 -6
-5 -6 6 -1 11 2 17 5 13 3 -3 4 -12 1 -19z m1033 7 c0 -8 7 -15 15 -15 17 0
20 -16 5 -25 -6 -3 -17 0 -25 9 -17 17 -20 46 -5 46 6 0 10 -7 10 -15z m-780
-15 c0 -5 -4 -10 -10 -10 -5 0 -10 5 -10 10 0 6 5 10 10 10 6 0 10 -4 10 -10z
m1286 -4 c8 -8 14 -31 14 -50 0 -29 -4 -36 -19 -36 -21 0 -37 54 -25 84 8 20
11 20 30 2z m841 -33 c-3 -10 -5 -2 -5 17 0 19 2 27 5 18 2 -10 2 -26 0 -35z
m-2380 -5 c-3 -7 -5 -2 -5 12 0 14 2 19 5 13 2 -7 2 -19 0 -25z m3 -58 c0 -5
-7 -10 -15 -10 -8 0 -15 5 -15 10 0 6 7 10 15 10 8 0 15 -4 15 -10z m310 -30
l0 -40 -40 0 c-33 0 -40 3 -40 20 0 13 -7 20 -20 20 -11 0 -20 5 -20 10 0 6 9
10 20 10 11 0 20 5 20 10 0 6 18 10 40 10 l40 0 0 -40z m650 26 c0 -22 -11
-46 -21 -46 -5 0 -9 14 -9 30 0 20 5 30 15 30 8 0 15 -6 15 -14z m510 4 c0 -5
-5 -10 -11 -10 -5 0 -7 5 -4 10 3 6 8 10 11 10 2 0 4 -4 4 -10z m-538 -109 c8
11 8 10 4 -4 -3 -10 -6 -23 -6 -29 0 -6 -6 -6 -15 2 -8 7 -15 22 -15 34 1 20
1 20 11 2 9 -15 13 -16 21 -5z m558 -10 c0 -5 -7 -11 -14 -14 -10 -4 -13 -1
-9 9 6 15 23 19 23 5z m-1612 -29 c2 -7 -3 -12 -12 -12 -9 0 -16 7 -16 16 0
17 22 14 28 -4z m1752 8 c0 -5 -9 -10 -20 -10 -11 0 -20 5 -20 10 0 6 9 10 20
10 11 0 20 -4 20 -10z m-120 -21 c0 -14 -17 -10 -23 5 -4 10 -1 13 9 9 7 -3
14 -9 14 -14z m787 -61 c-3 -8 -6 -5 -6 6 -1 11 2 17 5 13 3 -3 4 -12 1 -19z
m-2560 -20 c-3 -7 -5 -2 -5 12 0 14 2 19 5 13 2 -7 2 -19 0 -25z m993 15 c0
-15 -2 -16 -10 -3 -6 10 -10 11 -10 3 0 -7 -4 -13 -10 -13 -5 0 -10 7 -10 15
0 8 9 15 20 15 12 0 20 -7 20 -17z m1557 -86 c-2 -6 -10 -11 -19 -13 -11 -1
-14 4 -11 16 3 11 11 16 19 13 8 -3 13 -10 11 -16z m1623 3 c0 -5 -4 -10 -10
-10 -5 0 -10 5 -10 10 0 6 5 10 10 10 6 0 10 -4 10 -10z m-2815 -28 c6 -4 12
-16 13 -27 4 -18 2 -18 -17 4 -12 13 -21 26 -21 28 0 5 15 3 25 -5z m1146 -5
c-1 -4 -1 -15 -1 -25 0 -10 -7 -19 -15 -19 -15 0 -21 37 -8 51 8 8 25 3 24 -7z
m-1185 -25 c18 -11 34 -49 29 -64 -3 -8 -19 -22 -35 -32 -27 -15 -30 -15 -30
-1 0 9 -12 27 -26 40 l-26 24 34 21 c37 22 39 23 54 12z m-1448 -19 c-5 -26
-38 -29 -38 -4 0 15 6 21 21 21 14 0 19 -5 17 -17z m662 -47 c0 -8 -4 -18 -10
-21 -5 -3 -10 3 -10 14 0 12 5 21 10 21 6 0 10 -6 10 -14z m725 -16 c3 -5 -1
-10 -9 -10 -9 0 -16 5 -16 10 0 6 4 10 9 10 6 0 13 -4 16 -10z m-645 -10 c0
-5 18 -10 40 -10 l40 0 0 -40 c0 -33 -3 -40 -20 -40 -14 0 -20 7 -20 21 0 18
-5 21 -30 17 -20 -3 -27 -1 -21 5 6 6 5 15 -4 23 -19 19 -23 18 -28 -8 -3 -20
-5 -21 -11 -6 -5 10 -2 23 6 32 15 17 48 21 48 6z m3680 0 c0 -5 18 -10 40
-10 l40 0 0 -41 c0 -40 -1 -41 -27 -34 -16 5 -39 9 -53 10 -14 1 -24 5 -22 8
1 4 2 13 2 20 0 8 3 7 10 -3 5 -8 13 -11 17 -6 4 4 0 13 -10 20 -18 14 -24 46
-7 46 6 0 10 -4 10 -10z m-4495 -29 c-7 -22 -29 -28 -40 -11 -3 6 -15 10 -26
10 -10 0 -19 4 -19 10 0 5 16 9 35 8 19 -1 38 2 42 5 11 11 15 0 8 -22z m1457
-3 c-7 -7 -12 -8 -12 -2 0 6 3 14 7 17 3 4 9 5 12 2 2 -3 -1 -11 -7 -17z
m-1627 -168 c3 -5 1 -10 -4 -10 -6 0 -11 5 -11 10 0 6 2 10 4 10 3 0 8 -4 11
-10z m1190 0 c3 -5 1 -10 -5 -10 -6 0 -10 -6 -9 -12 5 -41 -1 -48 -39 -48 -44
0 -56 8 -41 26 7 8 22 11 40 7 26 -5 29 -3 29 21 0 26 13 35 25 16z m-1210
-20 c3 -5 1 -10 -4 -10 -6 0 -11 5 -11 10 0 6 2 10 4 10 3 0 8 -4 11 -10z
m1734 -107 c-10 -53 -22 -99 -27 -102 -4 -3 -13 -17 -20 -31 -12 -25 -12 -25
-6 5 4 17 6 41 5 55 -1 14 -1 40 -1 58 0 43 -8 56 -26 41 -11 -9 -14 -8 -14 3
0 8 12 20 27 27 23 11 25 10 14 -3 -11 -13 -9 -15 18 -13 24 2 30 6 25 19 -6
19 2 38 15 38 4 0 0 -44 -10 -97z m-1756 51 c-7 -18 -33 -6 -32 15 0 10 2 11
6 4 7 -20 23 -15 17 5 -5 13 -4 14 4 3 6 -8 8 -20 5 -27z m1636 -133 c7 -5 9
-11 5 -14 -5 -3 -15 1 -22 9 -14 16 -5 18 17 5z m3351 -81 l0 -80 -40 0 -40 0
0 80 0 80 40 0 40 0 0 -80z m-164 -7 c-3 -38 -13 -160 -22 -273 -9 -113 -21
-209 -26 -215 -7 -7 -8 -3 -4 10 3 12 10 134 15 272 5 138 12 256 15 262 18
29 27 7 22 -56z m-1736 22 c17 -9 30 -21 30 -27 0 -7 -7 -5 -17 4 -38 32 -43
31 -38 -10 5 -36 3 -40 -15 -35 -17 5 -20 0 -20 -31 0 -23 -5 -39 -15 -42 -8
-4 -12 -10 -10 -15 7 -10 -6 -13 -133 -34 -127 -21 -126 -21 -106 11 10 14 49
51 88 83 142 115 174 128 236 96z m-2354 -27 c-9 -12 -16 -27 -16 -32 0 -6 7
-1 15 11 9 12 32 27 52 32 33 10 40 8 63 -14 14 -14 31 -43 37 -65 10 -38 9
-42 -15 -60 -36 -29 -84 -26 -123 8 -23 19 -31 22 -26 10 4 -12 -1 -22 -16
-30 -12 -7 -25 -11 -29 -10 -3 1 -4 -16 -1 -37 3 -22 0 -48 -8 -62 -7 -13 -14
-26 -14 -29 -3 -18 -28 -50 -40 -50 -19 0 -19 2 6 44 15 26 22 62 28 140 8
110 19 137 66 157 33 13 37 10 21 -13z m894 -33 c0 -21 -5 -25 -30 -25 -22 0
-30 5 -30 18 0 25 9 32 37 32 18 0 23 -5 23 -25z m133 -39 c4 -10 1 -13 -8 -9
-8 3 -12 9 -9 14 7 12 11 11 17 -5z m43 -34 c-17 -16 -18 -16 -5 5 7 12 15 20
18 17 3 -2 -3 -12 -13 -22z m2489 -34 c14 -6 25 -14 25 -18 0 -4 13 -5 29 -2
15 2 50 -6 79 -18 29 -13 56 -19 64 -14 9 5 8 2 -2 -11 -10 -13 -11 -16 -2
-11 8 5 21 1 32 -9 10 -9 35 -18 55 -21 52 -6 59 -13 40 -34 -16 -18 -15 -21
11 -57 15 -21 40 -49 54 -63 34 -31 55 -120 45 -191 -11 -76 -33 -151 -47
-161 -11 -6 -10 -10 1 -17 7 -5 11 -15 9 -22 -4 -9 -10 -5 -18 13 -11 22 -11
30 0 43 12 14 11 18 -1 25 -12 8 -11 12 5 23 16 12 18 21 12 53 -4 21 -7 56
-6 77 0 24 -4 39 -14 43 -10 4 -13 17 -11 42 2 31 -3 42 -31 68 -25 22 -33 36
-28 49 6 14 4 16 -6 10 -9 -5 -11 -4 -6 4 16 25 16 79 1 85 -16 6 -47 -2 -55
-15 -3 -4 -12 -4 -20 1 -10 7 -11 10 -2 10 6 0 12 5 12 10 0 6 -9 10 -19 10
-11 0 -22 4 -25 9 -3 5 -14 7 -24 5 -24 -6 -62 24 -44 35 10 6 8 10 -8 14 -17
4 -20 2 -15 -11 13 -33 9 -35 -50 -39 -33 -2 -61 -8 -63 -14 -5 -12 -42 -12
-42 1 0 6 9 10 20 10 12 0 20 7 20 16 0 12 7 14 33 10 27 -5 28 -4 10 4 -13 5
-23 15 -23 22 0 9 -3 9 -10 -2 -8 -13 -10 -12 -10 3 0 13 -8 17 -36 17 -19 0
-45 5 -56 11 -15 8 -19 8 -14 0 4 -6 2 -11 -3 -11 -6 0 -11 -7 -11 -15 0 -8 9
-15 20 -15 13 0 20 -7 20 -20 0 -18 -7 -20 -58 -20 -32 0 -63 5 -70 12 -9 9
-12 8 -12 -5 0 -10 -7 -20 -15 -23 -8 -4 -15 -12 -15 -20 0 -7 -11 -25 -24
-39 -24 -26 -25 -31 -10 -97 5 -24 2 -28 -17 -28 -12 0 -28 -8 -35 -17 -18
-24 -17 -36 1 -29 11 4 15 -1 15 -18 0 -19 -5 -23 -26 -20 -19 2 -24 -1 -20
-13 3 -8 6 -21 6 -29 0 -8 5 -14 11 -14 5 0 7 5 4 10 -7 11 17 14 28 4 8 -8
-18 -77 -31 -82 -8 -2 -12 9 -12 29 0 42 -15 27 -24 -23 -6 -31 -4 -38 9 -38
8 0 15 5 15 10 0 6 9 10 20 10 16 0 20 -7 20 -30 0 -23 -4 -30 -20 -30 -13 0
-20 -7 -20 -20 0 -14 -7 -20 -21 -20 -19 0 -21 4 -16 37 4 21 2 42 -5 50 -8
10 -8 28 1 67 16 70 65 199 73 190 4 -3 4 3 2 14 -3 10 2 26 11 36 9 9 14 16
11 16 -13 0 34 77 79 133 30 36 59 60 79 66 45 13 141 13 171 -1z m-3202 -15
c-30 -6 -29 -23 0 -23 13 0 32 -9 43 -21 18 -20 18 -21 -1 -32 -11 -7 -29 -15
-40 -18 -11 -3 -19 -11 -17 -17 1 -7 -3 -12 -9 -12 -19 0 -38 33 -39 67 0 35
30 64 65 62 18 -2 17 -2 -2 -6z m1962 -23 c-3 -5 -1 -10 4 -10 6 0 11 5 11 10
0 6 4 10 9 10 4 0 3 -18 -2 -40 -6 -22 -17 -40 -24 -40 -7 0 -15 -11 -19 -25
-9 -36 -21 -31 -33 13 -14 49 -14 49 9 72 20 20 56 28 45 10z m1200 0 c-3 -5
-12 -10 -18 -10 -7 0 -6 4 3 10 19 12 23 12 15 0z m-2396 -60 c-20 -38 -29
-48 -29 -32 0 10 38 72 45 72 2 0 -5 -18 -16 -40z m999 -27 c8 -26 8 -41 1
-49 -12 -14 -168 -69 -175 -61 -5 5 146 147 157 147 3 0 11 -17 17 -37z m1979
-60 c-6 -92 -14 -137 -42 -238 -10 -33 -22 -84 -27 -113 -7 -38 -13 -51 -21
-43 -7 7 -7 17 0 33 24 50 52 180 69 311 10 75 20 137 22 137 2 0 2 -39 -1
-87z m-3807 36 c8 -13 5 -15 -18 -12 -15 2 -32 5 -39 5 -7 1 -3 11 10 24 22
23 24 22 47 -17z m2030 -11 c0 -16 -3 -19 -11 -11 -6 6 -8 16 -5 22 11 17 16
13 16 -11z m1570 6 c0 -8 -5 -12 -10 -9 -6 4 -8 11 -5 16 9 14 15 11 15 -7z
m-1256 -31 c9 -18 13 -33 8 -33 -9 0 -32 44 -32 62 0 15 4 10 24 -29z m1180
31 c9 -3 13 -11 10 -16 -4 -6 -10 -5 -14 3 -7 10 -11 10 -24 0 -13 -11 -16
-11 -16 3 0 17 17 20 44 10z m-1252 -45 c16 -7 25 -16 22 -24 -4 -11 -16 -8
-50 11 l-44 25 -1 -23 c-1 -13 -2 -30 -3 -38 -2 -8 -3 -23 -4 -32 -1 -10 -13
-20 -27 -24 -14 -3 -22 -10 -19 -15 3 -5 10 -6 16 -3 6 4 8 2 4 -4 -6 -10
-192 -9 -202 1 -11 10 76 80 140 112 74 37 103 39 168 14z m-2634 -24 c16 -16
-82 -145 -110 -145 -6 0 -5 -7 2 -15 20 -24 -32 -19 -63 6 -39 30 -54 87 -33
128 9 17 21 29 26 26 6 -3 18 -1 27 5 17 10 140 7 151 -5z m2977 -26 c53 -26
77 -44 98 -76 22 -34 26 -46 17 -62 -16 -32 -12 -61 9 -61 14 0 17 6 13 25 -2
14 -9 22 -15 18 -6 -4 -7 -1 -2 7 13 20 37 -20 30 -49 -17 -69 -18 -81 -1 -81
14 0 14 -3 4 -20 -9 -14 -24 -20 -50 -20 l-38 0 0 80 0 80 -120 0 c-113 0
-120 1 -120 20 0 14 -7 20 -21 20 -20 0 -21 4 -16 55 3 30 1 57 -4 61 -5 3 -6
10 -3 16 4 6 3 8 -3 5 -5 -3 -8 -21 -6 -39 l3 -33 -9 28 c-18 55 -1 66 104 62
45 -2 78 -11 130 -36z m-313 -6 c-6 -2 -10 -9 -7 -13 3 -5 1 -11 -5 -15 -5 -3
-10 3 -10 14 0 14 6 21 18 20 10 0 12 -3 4 -6z m1299 -112 c-1 -34 -6 -71 -12
-83 -7 -18 -8 -9 -5 35 3 31 1 55 -4 52 -4 -3 -7 10 -6 27 5 51 5 53 18 40 6
-6 10 -37 9 -71z m238 37 c0 -33 -2 -38 -9 -23 -12 28 -12 65 0 65 6 0 10 -19
9 -42z m-881 -10 c-6 -18 -28 -21 -28 -4 0 9 7 16 16 16 9 0 14 -5 12 -12z
m-616 -85 c-5 -10 -8 -33 -7 -50 2 -18 0 -33 -3 -33 -8 0 -32 -49 -32 -63 0
-5 8 -3 17 4 15 12 16 12 10 -3 -5 -13 -1 -18 13 -18 18 0 20 -7 20 -70 0 -63
-2 -70 -20 -70 -13 0 -20 7 -20 20 0 14 -7 20 -22 20 l-21 0 21 23 c12 13 22
28 22 34 0 13 -25 24 -34 16 -10 -10 -7 -25 4 -18 15 9 12 -6 -4 -24 -8 -9
-20 -38 -28 -66 -11 -40 -18 -51 -37 -53 -24 -4 -24 -3 5 23 26 24 27 26 7 20
-24 -7 -32 8 -12 21 6 3 9 17 6 31 -3 15 2 28 12 36 28 21 71 133 71 187 0 16
5 32 10 35 6 3 10 19 10 34 0 15 3 31 8 35 11 12 15 -50 4 -71z m818 47 c0
-27 -3 -30 -30 -30 -27 0 -30 3 -30 30 0 27 3 30 30 30 27 0 30 -3 30 -30z
m660 -22 c0 6 5 12 10 12 6 0 10 -13 10 -30 0 -23 -4 -30 -20 -30 -16 0 -20 7
-20 33 0 24 3 28 10 17 6 -10 10 -11 10 -2z m-1773 -14 c55 -16 55 -16 31 -32
-27 -20 -40 -22 -50 -7 -5 6 -8 6 -8 -2 0 -6 4 -15 10 -18 11 -7 -17 -55 -32
-55 -5 0 -6 5 -3 10 3 6 1 10 -6 10 -10 0 -10 3 -1 12 19 19 14 38 -9 38 -17
0 -20 -4 -16 -22 6 -22 5 -22 -8 -4 -8 10 -12 23 -9 27 3 5 0 9 -7 9 -15 0
-49 29 -49 42 0 14 99 9 157 -8z m913 7 c0 -6 -4 -13 -10 -16 -5 -3 -10 1 -10
9 0 9 5 16 10 16 6 0 10 -4 10 -9z m763 -53 c-9 -49 -25 -82 -17 -38 7 45 14
70 19 70 3 0 2 -15 -2 -32z m54 -15 c-3 -10 -5 -4 -5 12 0 17 2 24 5 18 2 -7
2 -21 0 -30z m-967 -43 c11 -8 19 -50 10 -55 -11 -7 -18 4 -24 36 -2 13 -7 38
-10 54 l-6 30 11 -30 c7 -16 15 -32 19 -35z m-3020 -29 c25 -24 37 -41 28 -38
-20 7 -21 6 -12 -17 3 -9 11 -13 18 -9 6 3 8 3 4 -2 -4 -4 5 -20 20 -35 16
-14 39 -42 52 -61 20 -29 15 -26 -29 16 -29 28 -79 90 -113 140 -60 89 -54 90
32 6z m3809 -64 c1 -30 -3 -46 -9 -42 -5 3 -10 34 -9 68 1 74 17 51 18 -26z
m201 -7 c0 -5 -9 -10 -19 -10 -11 0 -23 5 -26 10 -4 6 5 10 19 10 14 0 26 -4
26 -10z m-60 -30 c0 -11 -4 -20 -9 -20 -5 0 -11 9 -14 20 -3 13 0 20 9 20 8 0
14 -9 14 -20z m-5230 -30 c0 -5 -11 -10 -25 -10 -14 0 -25 5 -25 10 0 6 11 10
25 10 14 0 25 -4 25 -10z m3265 -68 c0 -26 -6 -56 -12 -67 -15 -25 -13 -30
-50 123 -5 23 -5 23 28 7 32 -15 34 -20 34 -63z m1985 68 c0 -5 -5 -10 -11
-10 -5 0 -7 5 -4 10 3 6 8 10 11 10 2 0 4 -4 4 -10z m-1877 -88 c31 -19 55
-37 52 -40 -2 -3 -11 1 -19 7 -8 7 -20 10 -26 6 -5 -3 -10 -2 -10 3 0 6 -10 8
-21 5 -18 -5 -20 -3 -14 17 4 13 3 20 -2 17 -5 -3 -22 3 -39 14 -27 19 -28 20
-4 14 14 -4 51 -23 83 -43z m-2688 19 c3 -5 2 -12 -3 -15 -5 -3 -9 1 -9 9 0
17 3 19 12 6z m-655 -43 c0 -26 -24 -18 -28 10 -3 16 1 20 12 16 9 -3 16 -15
16 -26z m3674 -13 c3 -8 1 -15 -5 -15 -6 0 -7 -6 -2 -12 4 -7 8 -20 8 -28 0
-22 115 -71 115 -49 0 5 9 4 20 -3 14 -9 16 -15 7 -21 -8 -6 -3 -7 11 -4 13 3
21 3 18 0 -6 -6 6 -18 57 -56 21 -16 37 -23 37 -16 0 14 39 59 52 59 4 0 8 -9
8 -20 0 -11 5 -20 10 -20 6 0 10 -4 10 -10 0 -5 -9 -10 -21 -10 -16 0 -20 -4
-15 -17 4 -11 -1 -9 -15 7 -17 22 -19 22 -10 3 14 -28 14 -56 0 -47 -8 4 -8 0
0 -15 6 -11 20 -25 31 -31 11 -6 20 -18 19 -28 0 -14 -2 -14 -9 3 -6 13 -9 15
-9 5 -1 -24 11 -60 18 -56 3 2 5 -37 4 -87 -1 -51 0 -86 3 -79 5 10 10 8 21
-8 10 -14 22 -20 34 -17 12 3 17 1 12 -6 -4 -6 0 -8 10 -4 10 3 17 2 17 -4 0
-6 5 -7 10 -4 6 4 22 0 35 -9 32 -21 33 -20 27 10 -3 18 -8 22 -15 15 -6 -6
-15 -11 -21 -11 -6 0 -5 5 2 12 7 7 12 20 12 30 0 13 8 18 30 18 23 0 30 -4
30 -20 0 -13 7 -20 20 -20 13 0 20 -7 20 -20 0 -13 7 -20 20 -20 26 0 26 -31
1 -54 -18 -16 -19 -16 -17 1 2 28 -40 30 -47 2 -4 -15 -1 -23 14 -26 10 -3 16
-9 13 -14 -3 -5 -2 -9 3 -8 22 4 33 -3 33 -20 0 -10 6 -19 13 -18 36 1 47 -4
47 -24 0 -19 -2 -20 -17 -8 -14 12 -14 10 1 -13 10 -16 23 -28 28 -28 5 0 7
-4 3 -9 -3 -5 0 -13 6 -17 6 -3 15 0 20 7 12 19 11 2 -1 -20 -10 -20 9 -99 20
-81 3 6 5 -18 4 -52 -2 -35 0 -53 2 -40 4 15 13 22 30 22 22 0 24 -3 24 -55 0
-41 -4 -55 -14 -55 -21 0 -30 -20 -17 -33 6 -6 11 -23 11 -38 0 -15 5 -31 10
-34 6 -4 10 -80 10 -196 0 -182 -1 -189 -20 -189 -17 0 -20 7 -20 40 0 31 -4
40 -17 41 -10 1 -31 2 -48 3 -16 0 -34 7 -38 14 -4 6 -22 12 -40 12 -25 0 -28
-3 -17 -10 13 -9 13 -11 0 -20 -21 -14 -21 -14 -62 24 -23 22 -33 36 -25 39 6
3 2 6 -10 6 -32 1 -36 16 -8 31 14 7 25 18 25 24 0 6 9 17 20 24 12 7 18 17
15 22 -10 16 7 12 43 -10 41 -25 46 -25 39 0 -3 11 -2 20 2 20 4 0 7 25 7 55
-1 31 -6 55 -11 55 -6 0 -28 -9 -50 -20 -53 -27 -71 -25 -112 10 -18 17 -41
30 -50 30 -12 0 -13 3 -4 14 7 8 16 28 21 45 7 24 6 31 -6 31 -13 0 -20 31 -9
42 6 6 156 -32 224 -56 24 -9 46 -14 49 -11 3 3 1 5 -4 5 -6 0 -11 19 -12 43
-7 144 -26 194 -104 259 -56 48 -142 108 -153 108 -4 0 -20 9 -36 20 l-28 21
-5 -23 c-3 -13 -7 -54 -11 -93 -6 -72 -30 -160 -46 -170 -5 -4 -5 5 1 20 15
38 12 97 -9 216 -19 108 -34 149 -51 149 -6 0 -10 7 -10 15 0 29 -29 15 -41
-20 -7 -19 -16 -35 -20 -35 -4 0 -11 -15 -15 -32 -4 -18 -9 -27 -12 -20 -2 8
-11 1 -21 -17 -63 -118 -91 -174 -91 -186 0 -8 -21 -31 -46 -51 l-46 -38 39
-13 c30 -11 52 -12 107 -2 92 15 346 -8 362 -33 3 -5 -5 -22 -19 -36 -13 -15
-30 -37 -36 -50 -7 -13 -18 -21 -24 -19 -7 2 -24 -2 -38 -11 -23 -13 -30 -12
-74 7 -26 12 -49 20 -49 19 -34 -68 -57 -83 -150 -98 -60 -9 -124 -39 -134
-62 -2 -5 -10 -8 -18 -8 -20 0 -123 -71 -151 -104 -13 -14 -27 -26 -32 -26
-14 0 -61 -75 -61 -98 0 -22 -3 -23 -92 -20 -68 2 -93 7 -96 17 -4 11 1 12 19
7 36 -10 151 -16 147 -8 -51 99 -60 127 -61 196 -1 61 3 81 28 130 16 32 38
64 47 70 23 14 22 29 -1 102 -10 33 -22 102 -25 154 -6 78 -4 103 9 138 22 54
8 77 -41 68 -52 -10 -83 32 -106 141 -22 102 -17 159 18 240 13 29 24 60 24
69 0 26 49 62 121 89 59 23 69 30 69 51 0 13 3 24 8 25 4 0 16 3 27 6 29 8
100 4 130 -7 16 -6 25 -6 25 0 0 6 8 5 20 -2 10 -7 23 -9 27 -5 4 5 1 12 -7
17 -15 10 -14 10 23 14 6 0 13 7 13 14 2 20 4 22 13 22 5 0 11 -7 15 -15z
m-1824 -15 c18 -12 2 -12 -25 0 -13 6 -15 9 -5 9 8 0 22 -4 30 -9z m1580 0 c0
-5 -2 -10 -4 -10 -3 0 -8 5 -11 10 -3 6 -1 10 4 10 6 0 11 -4 11 -10z m-1830
-41 c0 -14 -17 -10 -23 5 -4 10 -1 13 9 9 7 -3 14 -9 14 -14z m1650 -12 c0
-13 6 -29 13 -36 10 -11 9 -13 -1 -9 -8 2 -20 18 -28 36 -11 27 -11 32 1 32 9
0 15 -10 15 -23z m90 4 c0 -10 -30 -24 -37 -17 -3 3 -2 9 2 15 8 13 35 15 35
2z m-2240 -53 c0 -61 -16 -54 -22 10 -2 29 0 42 9 42 9 0 13 -16 13 -52z
m2736 25 c-10 -10 -19 5 -10 18 6 11 8 11 12 0 2 -7 1 -15 -2 -18z m-546 7 c0
-5 -5 -10 -11 -10 -5 0 -7 5 -4 10 3 6 8 10 11 10 2 0 4 -4 4 -10z m490 0 c0
-5 -7 -10 -16 -10 -8 0 -12 5 -9 10 3 6 10 10 16 10 5 0 9 -4 9 -10z m-2719
-102 c-13 -16 -12 -18 12 -18 20 0 27 -5 27 -20 0 -13 -7 -20 -20 -20 -11 0
-20 5 -20 11 0 6 -10 9 -22 7 -17 -2 -25 -12 -29 -38 -6 -31 -7 -29 -8 18 -1
40 3 52 14 53 28 3 33 4 41 12 5 4 8 25 7 45 l-1 37 7 -35 c5 -25 3 -40 -8
-52z m2879 73 c0 -15 -35 -19 -48 -4 -11 11 -7 13 18 13 16 0 30 -4 30 -9z
m-3440 -37 c0 -8 -4 -14 -10 -14 -5 0 -10 9 -10 21 0 11 5 17 10 14 6 -3 10
-13 10 -21z m790 -9 c0 -3 -9 -5 -20 -5 -11 0 -20 7 -20 15 0 13 4 14 20 5 11
-6 20 -13 20 -15z m-50 -45 c0 -33 -3 -40 -20 -40 -17 0 -20 7 -20 40 0 33 3
40 20 40 17 0 20 -7 20 -40z m-473 -2 c-3 -7 -5 -2 -5 12 0 14 2 19 5 13 2 -7
2 -19 0 -25z m-307 -18 c0 -13 -7 -20 -20 -20 -13 0 -20 7 -20 20 0 13 7 20
20 20 13 0 20 -7 20 -20z m233 -50 c-3 -12 -8 -19 -11 -16 -5 6 5 36 12 36 2
0 2 -9 -1 -20z m1244 -62 c-2 -13 -4 -3 -4 22 0 25 2 35 4 23 2 -13 2 -33 0
-45z m-1557 38 c0 -2 -7 -7 -16 -10 -8 -3 -12 -2 -9 4 6 10 25 14 25 6z m737
-53 c-3 -10 -5 -2 -5 17 0 19 2 27 5 18 2 -10 2 -26 0 -35z m-737 17 c0 -5 -6
-10 -14 -10 -8 0 -18 5 -21 10 -3 6 3 10 14 10 12 0 21 -4 21 -10z m577 1 c21
-6 35 -5 42 2 6 6 11 7 11 3 0 -5 -8 -15 -17 -23 -17 -14 -17 -14 3 -10 17 4
20 1 17 -14 -6 -21 -47 -26 -58 -8 -4 6 -13 8 -21 5 -17 -7 -18 6 -1 23 10 10
9 11 -5 6 -13 -5 -18 -2 -18 9 0 19 4 19 47 7z m133 -4 c0 -9 -11 -12 -35 -9
-19 2 -35 8 -35 13 0 5 16 9 35 9 22 0 35 -5 35 -13z m85 -47 c3 -11 15 -20
26 -20 16 0 19 -7 19 -40 0 -33 3 -40 20 -40 16 0 20 -7 20 -30 0 -32 -9 -36
-43 -19 -31 17 -37 28 -37 79 0 34 -5 49 -19 60 -11 7 -18 17 -15 22 9 14 22
9 29 -12z m2852 -107 c-2 -16 -4 -5 -4 22 0 28 2 40 4 28 2 -13 2 -35 0 -50z
m-3667 8 c0 -11 -4 -23 -10 -26 -6 -4 -10 5 -10 19 0 14 5 26 10 26 6 0 10 -9
10 -19z m1542 -33 c-9 -9 -12 -7 -12 12 0 19 3 21 12 12 9 -9 9 -15 0 -24z
m-945 0 c-3 -8 -6 -5 -6 6 -1 11 2 17 5 13 3 -3 4 -12 1 -19z m213 -4 c0 -8
-5 -12 -10 -9 -6 4 -8 11 -5 16 9 14 15 11 15 -7z m749 -56 c1 -5 -3 -8 -9 -8
-5 0 -10 12 -9 28 0 24 1 25 9 7 5 -11 9 -23 9 -27z m32 -1 c-8 -8 -11 -7 -11
4 0 9 3 19 7 23 4 4 9 2 11 -4 3 -7 -1 -17 -7 -23z m2116 27 c-3 -3 -12 -4
-19 -1 -8 3 -5 6 6 6 11 1 17 -2 13 -5z m-2180 -88 c8 -8 -21 -33 -39 -33 -10
0 -14 6 -11 16 3 9 -5 5 -18 -9 -12 -14 -19 -18 -15 -10 3 8 9 23 12 32 4 12
15 16 36 13 17 -2 32 -6 35 -9z m-47 -61 c-7 -8 -17 -12 -23 -8 -6 4 -3 9 9
14 27 11 28 11 14 -6z m2620 -85 c0 -53 -2 -60 -20 -60 -17 0 -20 7 -20 39 0
36 -2 39 -35 45 -21 4 -35 13 -35 21 0 11 14 15 55 15 l55 0 0 -60z m-3778
-30 c4 -26 3 -29 -9 -17 -8 7 -11 21 -7 30 9 24 11 21 16 -13z m978 -20 c0 -5
-5 -10 -11 -10 -5 0 -7 5 -4 10 3 6 8 10 11 10 2 0 4 -4 4 -10z m2775 -40 c3
-5 1 -10 -4 -10 -6 0 -11 5 -11 10 0 6 2 10 4 10 3 0 8 -4 11 -10z m-3735
-100 c0 -5 -4 -10 -10 -10 -5 0 -10 5 -10 10 0 6 5 10 10 10 6 0 10 -4 10 -10z
m57 -16 c-3 -4 0 -13 8 -21 21 -20 19 -33 -5 -33 -11 0 -20 6 -20 14 0 8 -5
16 -12 18 -16 6 -1 28 19 28 9 0 14 -3 10 -6z m463 -44 c0 -5 -7 -10 -16 -10
-8 0 -12 5 -9 10 3 6 10 10 16 10 5 0 9 -4 9 -10z m-240 -10 c0 -5 -5 -10 -11
-10 -5 0 -7 5 -4 10 3 6 8 10 11 10 2 0 4 -4 4 -10z m2913 -265 c20 -14 39
-36 43 -49 6 -26 -20 -76 -40 -76 -6 0 -4 5 4 10 8 5 10 10 4 10 -5 0 -19 -7
-30 -15 -10 -8 -27 -15 -36 -15 -10 0 -54 -18 -98 -40 -170 -82 -350 -106
-350 -45 0 17 146 165 164 165 4 0 20 10 36 22 46 34 119 55 195 57 60 1 76
-3 108 -24z m-1183 -86 c0 -5 3 -8 8 -7 4 1 29 -4 55 -11 59 -17 49 -36 -11
-22 -42 9 -42 9 -42 -19 0 -16 4 -31 8 -34 11 -7 27 6 27 23 0 8 6 16 13 19
17 5 15 -24 -4 -53 -14 -22 -14 -27 0 -56 17 -34 19 -78 6 -119 -7 -21 -8 -22
-9 -5 -1 11 -15 58 -31 105 -17 46 -30 95 -30 108 0 27 -26 82 -40 82 -5 0
-14 9 -20 20 -11 20 -10 20 30 -1 22 -12 40 -25 40 -30z m167 -55 c-3 -3 -12
-4 -19 -1 -8 3 -5 6 6 6 11 1 17 -2 13 -5z m83 -19 c30 -7 47 -14 38 -14 -10
-1 -18 -5 -18 -11 0 -5 -6 -10 -14 -10 -8 0 -17 -6 -19 -12 -3 -7 -6 0 -6 16
-1 25 -4 27 -26 22 -18 -5 -25 -2 -25 9 0 18 0 18 70 0z m-1420 -25 c0 -16 -4
-30 -10 -30 -5 0 -10 14 -10 30 0 17 5 30 10 30 6 0 10 -13 10 -30z m1280 0
c0 -5 -7 -10 -15 -10 -8 0 -15 5 -15 10 0 6 7 10 15 10 8 0 15 -4 15 -10z
m289 -6 c2 -2 -10 -4 -27 -4 -17 0 -34 4 -37 10 -5 9 53 3 64 -6z m993 -7
c-18 -10 -20 -15 -10 -26 11 -11 10 -12 -2 -5 -8 4 -28 7 -45 6 -30 -2 -30 -2
-5 9 14 6 32 15 40 19 8 5 22 9 30 9 9 0 6 -5 -8 -12z m58 -1 c0 -3 -4 -8 -10
-11 -5 -3 -10 -1 -10 4 0 6 5 11 10 11 6 0 10 -2 10 -4z m-1087 -13 c-7 -2
-21 -2 -30 0 -10 3 -4 5 12 5 17 0 24 -2 18 -5z m-1026 -29 c4 -11 14 -13 36
-8 25 5 29 4 24 -10 -4 -9 -1 -16 6 -16 7 0 4 -5 -6 -11 -18 -10 -18 -11 0
-31 13 -15 18 -36 17 -82 l0 -63 43 59 c24 32 43 67 43 77 0 20 33 29 78 23
29 -4 23 -26 -9 -30 -28 -4 -51 -22 -28 -22 23 0 46 -30 51 -66 3 -26 -1 -35
-26 -52 -32 -21 -126 -52 -158 -52 -11 0 -15 5 -12 15 5 13 -7 15 -74 15 -109
0 -172 10 -172 26 0 8 -10 14 -23 14 -13 0 -28 5 -35 12 -13 13 -16 32 -4 24
4 -2 27 15 51 39 24 25 57 47 75 51 30 6 30 7 8 15 -13 5 -20 13 -17 19 3 5 1
10 -4 10 -6 0 -11 12 -11 26 0 22 -3 24 -22 18 -13 -3 -20 -3 -16 1 23 24 175
23 185 -1z m1298 6 c3 -5 1 -10 -4 -10 -6 0 -11 5 -11 10 0 6 2 10 4 10 3 0 8
-4 11 -10z m658 -10 c4 -17 0 -20 -24 -20 -16 0 -29 5 -29 10 0 6 -7 10 -15
10 -8 0 -15 5 -15 10 0 6 17 10 39 10 30 0 40 -4 44 -20z m-103 -5 c10 -13 0
-14 -82 -11 -199 8 -211 10 -73 16 77 3 141 7 141 8 1 1 7 -5 14 -13z m-2260
-15 c0 -15 143 -13 159 3 11 10 14 10 18 0 3 -7 21 -13 41 -14 l37 -1 -35 -10
c-19 -6 -77 -13 -127 -15 -82 -4 -93 -2 -93 12 0 14 -7 16 -34 13 -24 -3 -32
0 -29 9 6 15 63 18 63 3z m1213 3 c-7 -2 -19 -2 -25 0 -7 3 -2 5 12 5 14 0 19
-2 13 -5z m122 -3 c3 -5 -1 -10 -9 -10 -8 0 -18 5 -21 10 -3 6 1 10 9 10 8 0
18 -4 21 -10z m1320 0 c15 -6 9 -9 -25 -9 -34 0 -40 3 -25 9 11 5 22 9 25 9 3
0 14 -4 25 -9z m85 0 c0 -5 -9 -10 -20 -10 -11 0 -20 5 -20 10 0 6 9 10 20 10
11 0 20 -4 20 -10z m-1520 -26 c0 -9 -12 -13 -35 -12 -25 1 -35 6 -35 18 0 12
8 15 35 12 21 -3 35 -10 35 -18z m1291 8 c-18 -2 -37 0 -42 5 -5 5 11 6 34 3
41 -4 41 -5 8 -8z m-2601 -8 l35 -14 -50 7 c-63 9 -134 7 -148 -6 -7 -5 -51
-11 -99 -12 -47 -2 -81 0 -75 4 9 6 9 10 0 14 -7 2 -13 9 -13 14 0 15 309 8
350 -7z m1430 -5 c0 -11 -3 -11 -24 -3 -23 9 -20 23 4 17 11 -3 20 -9 20 -14z
m1640 11 c0 -5 -9 -10 -20 -10 -11 0 -20 5 -20 10 0 6 9 10 20 10 11 0 20 -4
20 -10z m-1461 -4 c-2 -2 -26 -7 -53 -10 -33 -5 -46 -4 -41 3 3 6 27 11 52 11
26 0 44 -2 42 -4z m47 -14 c-10 -2 -22 0 -28 6 -6 6 0 7 19 4 21 -5 23 -7 9
-10z m1134 9 c0 -8 -130 -4 -139 5 -2 2 28 4 67 4 40 0 72 -4 72 -9z m120 -29
c0 -4 -9 -8 -20 -8 -11 0 -20 4 -20 8 0 4 9 8 20 8 11 0 20 -4 20 -8z m200
-22 c0 -23 -4 -30 -20 -30 -11 0 -20 7 -20 15 0 10 -10 15 -32 15 -18 0 -39 4
-47 9 -9 6 2 8 32 5 28 -3 47 0 47 6 0 5 9 10 20 10 16 0 20 -7 20 -30z
m-3440 -60 c0 -5 -4 -10 -10 -10 -5 0 -10 5 -10 10 0 6 5 10 10 10 6 0 10 -4
10 -10z m180 0 c0 -5 9 -10 20 -10 11 0 20 -4 20 -10 0 -6 30 -10 70 -10 40 0
70 -4 70 -10 0 -6 -40 -10 -100 -10 l-100 0 0 30 c0 17 5 30 10 30 6 0 10 -4
10 -10z m246 -44 c16 -16 19 -86 4 -86 -5 0 -10 9 -10 20 0 11 -4 20 -10 20
-5 0 -10 14 -10 30 0 34 5 37 26 16z m2974 -16 c0 -23 -4 -30 -20 -30 -23 0
-27 23 -7 45 19 22 27 18 27 -15z m-160 -20 c0 -5 9 -10 20 -10 11 0 20 5 20
10 0 6 9 10 20 10 16 0 20 -7 20 -30 0 -28 -2 -30 -40 -30 -33 0 -40 3 -40 20
0 11 -4 20 -10 20 -5 0 -10 5 -10 10 0 6 5 10 10 10 6 0 10 -4 10 -10z m-40
-40 c0 -5 -4 -10 -10 -10 -5 0 -10 5 -10 10 0 6 5 10 10 10 6 0 10 -4 10 -10z
m-2707 -17 c-7 -2 -13 -11 -13 -19 0 -8 -4 -14 -10 -14 -5 0 -10 9 -10 20 0
14 6 20 23 19 12 0 16 -3 10 -6z m910 -60 c-7 -2 -19 -2 -25 0 -7 3 -2 5 12 5
14 0 19 -2 13 -5z m1717 -3 c0 -5 18 -10 40 -10 22 0 40 -4 40 -10 0 -5 9 -10
20 -10 16 0 20 -7 20 -30 0 -23 -4 -30 -20 -30 -13 0 -20 7 -20 19 0 14 -10
21 -37 26 -52 9 -73 23 -67 40 7 17 24 20 24 5z m-1412 -7 c-15 -2 -42 -2 -60
0 -18 2 -6 4 27 4 33 0 48 -2 33 -4z m-1028 -23 c0 -16 -7 -20 -30 -20 -23 0
-30 4 -30 20 0 16 7 20 30 20 23 0 30 -4 30 -20z m120 10 c0 -14 27 -12 33 3
3 6 6 2 6 -10 1 -19 -4 -23 -29 -23 -23 0 -30 4 -30 20 0 11 5 20 10 20 6 0
10 -4 10 -10z m220 0 c0 -14 38 -12 42 2 3 9 9 8 21 -4 25 -25 22 -28 -33 -28
-37 0 -50 4 -50 14 0 8 -8 17 -17 19 -11 3 -7 5 10 6 15 0 27 -3 27 -9z m1042
-50 c15 0 38 -27 38 -44 0 -19 -16 -21 -24 -3 -5 10 -7 10 -12 0 -9 -20 -24
-15 -24 7 0 17 -7 20 -40 20 -33 0 -40 3 -40 20 0 15 7 20 29 20 17 0 33 5 37
12 5 8 11 5 17 -10 6 -12 14 -22 19 -22z m205 -26 c-3 -3 -12 -4 -19 -1 -8 3
-5 6 6 6 11 1 17 -2 13 -5z m211 -25 c2 -5 22 -7 45 -5 23 2 32 2 19 -1 -12
-2 -28 -13 -35 -24 -11 -17 -24 -19 -139 -19 l-128 0 0 25 c0 17 7 29 23 34
26 11 211 2 215 -10z m270 -6 c-10 -2 -28 -2 -40 0 -13 2 -5 4 17 4 22 1 32
-1 23 -4z m25 -20 c-13 -2 -33 -2 -45 0 -13 2 -3 4 22 4 25 0 35 -2 23 -4z
m-20 -20 c-7 -2 -19 -2 -25 0 -7 3 -2 5 12 5 14 0 19 -2 13 -5z m270 0 c-13
-2 -33 -2 -45 0 -13 2 -3 4 22 4 25 0 35 -2 23 -4z"/>
<path d="M4070 4621 c0 -7 7 -19 15 -27 19 -20 19 -5 0 20 -9 11 -15 14 -15 7z"/>
<path d="M4102 4528 c-1 -27 -6 -48 -12 -48 -6 0 -10 -27 -10 -62 0 -69 8 -74
14 -7 2 24 7 56 11 70 3 14 5 41 2 60 -3 28 -4 25 -5 -13z"/>
<path d="M4051 4254 c0 -11 3 -14 6 -6 3 7 2 16 -1 19 -3 4 -6 -2 -5 -13z"/>
<path d="M5305 4040 c3 -5 8 -10 11 -10 2 0 4 5 4 10 0 6 -5 10 -11 10 -5 0
-7 -4 -4 -10z"/>
<path d="M5335 4011 c-3 -5 -2 -12 3 -15 5 -3 9 1 9 9 0 17 -3 19 -12 6z"/>
<path d="M3961 3968 c-1 -10 -5 -18 -11 -18 -5 0 -10 -10 -10 -22 0 -21 2 -20
15 6 9 16 14 34 11 40 -2 6 -5 3 -5 -6z"/>
<path d="M5570 3692 c0 -12 19 -26 26 -19 2 2 -2 10 -11 17 -9 8 -15 8 -15 2z"/>
<path d="M3687 3533 c-4 -3 -7 -11 -7 -17 0 -6 5 -5 12 2 6 6 9 14 7 17 -3 3
-9 2 -12 -2z"/>
<path d="M3601 3501 c-8 -5 -10 -14 -6 -21 4 -7 2 -16 -6 -21 -11 -7 -12 -9
-1 -9 8 0 16 9 19 20 3 11 9 17 14 14 5 -3 17 0 26 6 16 10 16 11 -4 7 -12 -3
-23 -1 -25 4 -2 5 -9 5 -17 0z"/>
<path d="M3530 3405 c-8 -9 -8 -15 -2 -15 12 0 26 19 19 26 -2 2 -10 -2 -17
-11z"/>
<path d="M3147 4443 c-10 -31 -15 -58 -12 -61 3 -3 5 2 5 11 0 10 4 17 9 17 7
0 24 81 17 87 -1 1 -10 -23 -19 -54z"/>
<path d="M2870 4435 c0 -9 -7 -32 -16 -53 -8 -20 -14 -38 -12 -38 2 -1 -4 -10
-13 -20 -23 -28 -71 -114 -63 -114 4 0 -5 -11 -20 -25 -15 -14 -25 -29 -21
-34 3 -5 1 -12 -5 -16 -5 -3 -10 -11 -10 -16 0 -21 163 177 181 220 16 36 18
50 9 77 -12 35 -30 46 -30 19z"/>
<path d="M1646 4312 c-2 -4 -1 -14 5 -22 7 -12 9 -10 9 8 0 23 -5 28 -14 14z"/>
<path d="M1683 4313 c9 -2 23 -2 30 0 6 3 -1 5 -18 5 -16 0 -22 -2 -12 -5z"/>
<path d="M1776 4277 c3 -10 9 -15 12 -12 3 3 0 11 -7 18 -10 9 -11 8 -5 -6z"/>
<path d="M1817 3880 c7 -40 9 -45 16 -33 3 4 -1 22 -8 38 l-14 30 6 -35z"/>
<path d="M2326 3753 c-6 -14 -5 -15 5 -6 7 7 10 15 7 18 -3 3 -9 -2 -12 -12z"/>
<path d="M2254 3357 c-12 -12 -27 -32 -33 -44 -16 -32 5 -39 25 -8 9 14 23 25
30 25 8 0 14 10 14 25 0 30 -8 31 -36 2z"/>
<path d="M2092 3337 c-1 -21 -7 -48 -13 -60 -7 -12 -8 -19 -5 -15 9 7 47 -28
44 -39 -3 -11 25 -53 34 -53 5 0 8 11 8 25 0 14 -5 25 -12 25 -6 0 -9 3 -5 6
3 3 -5 23 -18 44 -13 20 -25 53 -28 71 l-4 34 -1 -38z"/>
<path d="M2016 3331 c-4 -5 -2 -12 3 -15 5 -4 12 -2 15 3 4 5 2 12 -3 15 -5 4
-12 2 -15 -3z"/>
<path d="M797 3297 c-7 -20 17 -24 29 -5 4 6 3 8 -4 4 -5 -3 -12 -1 -14 6 -3
8 -7 6 -11 -5z"/>
<path d="M2175 3299 c-11 -17 1 -21 15 -4 8 9 8 15 2 15 -6 0 -14 -5 -17 -11z"/>
<path d="M2285 3210 c-3 -5 -1 -10 4 -10 6 0 11 5 11 10 0 6 -2 10 -4 10 -3 0
-8 -4 -11 -10z"/>
<path d="M2318 3199 c-10 -5 -42 -10 -71 -10 -53 -1 -54 -2 -53 -29 1 -15 4
-26 8 -24 3 2 9 -2 11 -8 4 -10 6 -10 6 0 1 6 8 12 17 12 10 0 14 -6 11 -14
-4 -10 1 -12 16 -9 17 4 19 2 8 -5 -12 -9 -10 -12 10 -16 42 -9 53 -10 92 -2
42 9 50 26 12 26 -14 0 -25 -4 -25 -10 0 -16 -30 -12 -36 5 -4 8 -13 15 -21
15 -9 0 -13 7 -11 18 2 9 10 16 16 15 7 -2 12 4 12 13 0 8 5 12 10 9 6 -3 10
1 10 9 0 19 0 18 -22 5z"/>
<path d="M2070 3170 c0 -5 5 -10 11 -10 5 0 7 5 4 10 -3 6 -8 10 -11 10 -2 0
-4 -4 -4 -10z"/>
<path d="M2550 3100 c-10 -6 -11 -10 -2 -10 6 0 12 -5 12 -11 0 -5 -5 -7 -12
-3 -7 4 -8 3 -4 -4 4 -7 14 -12 22 -12 8 0 12 -4 9 -10 -3 -5 -2 -10 3 -10 16
0 22 13 11 27 -8 9 -8 13 -1 13 6 0 9 7 6 15 -7 17 -22 19 -44 5z"/>
<path d="M2380 3060 c8 -5 20 -10 25 -10 6 0 3 5 -5 10 -8 5 -19 10 -25 10 -5
0 -3 -5 5 -10z"/>
<path d="M2465 3060 c-4 -6 -16 -8 -28 -4 -17 5 -19 3 -11 -6 18 -18 91 -21
91 -3 0 7 -6 12 -14 9 -7 -3 -13 -1 -13 4 0 13 -17 13 -25 0z"/>
<path d="M483 2427 c4 -10 7 -27 7 -38 0 -10 4 -19 9 -19 10 0 -3 58 -15 69
-4 3 -4 -2 -1 -12z"/>
<path d="M1255 2350 c3 -5 15 -10 26 -10 11 0 17 5 14 10 -3 6 -15 10 -26 10
-11 0 -17 -4 -14 -10z"/>
<path d="M1311 2328 c1 -30 2 -31 8 -8 4 14 15 26 24 26 13 2 13 1 2 -3 -20
-6 -19 -43 1 -43 11 0 15 -6 11 -19 -6 -26 5 -42 22 -31 8 4 14 22 13 39 0 19
6 34 16 40 15 8 13 11 -11 20 -16 6 -42 11 -58 11 -26 0 -29 -3 -28 -32z m86
6 c-3 -3 -12 -4 -19 -1 -8 3 -5 6 6 6 11 1 17 -2 13 -5z m-17 -64 c0 -5 -5
-10 -11 -10 -5 0 -7 5 -4 10 3 6 8 10 11 10 2 0 4 -4 4 -10z"/>
<path d="M530 2243 c0 -24 3 -33 9 -25 7 12 4 62 -5 62 -2 0 -4 -17 -4 -37z"/>
<path d="M995 2230 c-3 -5 1 -10 10 -10 9 0 13 5 10 10 -3 6 -8 10 -10 10 -2
0 -7 -4 -10 -10z"/>
<path d="M553 2154 c-10 -22 -10 -25 3 -20 8 3 14 0 14 -8 0 -8 -7 -16 -15
-20 -8 -3 -15 -15 -15 -26 0 -11 7 -20 15 -20 8 0 15 5 15 11 0 6 7 8 18 4 14
-5 15 -4 5 6 -7 7 -13 24 -14 39 0 14 -3 33 -7 42 -6 15 -9 13 -19 -8z"/>
<path d="M1080 2150 c0 -23 4 -30 20 -30 16 0 20 7 20 30 0 23 -4 30 -20 30
-16 0 -20 -7 -20 -30z"/>
<path d="M2452 2080 c0 -19 2 -27 5 -17 2 9 2 25 0 35 -3 9 -5 1 -5 -18z"/>
<path d="M2000 2089 c0 -5 -4 -7 -10 -4 -6 4 -10 -16 -9 -52 0 -42 3 -52 9
-38 8 18 9 17 9 -8 1 -18 -3 -26 -10 -21 -7 4 -10 0 -7 -10 1 -10 6 -17 11
-17 4 1 16 1 27 1 17 0 20 7 20 46 0 27 -4 43 -10 39 -5 -3 -10 3 -10 15 0 12
5 18 10 15 6 -4 10 5 10 19 0 19 -5 26 -20 26 -11 0 -20 -5 -20 -11z"/>
<path d="M1801 2054 c0 -11 3 -14 6 -6 3 7 2 16 -1 19 -3 4 -6 -2 -5 -13z"/>
<path d="M600 2027 c0 -14 29 -77 35 -77 2 0 -3 20 -12 45 -15 45 -23 56 -23
32z"/>
<path d="M1888 1983 c7 -3 16 -2 19 1 4 3 -2 6 -13 5 -11 0 -14 -3 -6 -6z"/>
<path d="M590 1955 c0 -8 7 -15 15 -15 9 0 12 6 9 15 -4 8 -10 15 -15 15 -5 0
-9 -7 -9 -15z"/>
<path d="M1913 1963 c-15 -5 -17 -23 -4 -23 5 0 11 7 15 15 3 8 4 15 3 14 -1
0 -8 -3 -14 -6z"/>
<path d="M1163 1781 c0 -11 5 -18 9 -15 4 3 5 11 1 19 -7 21 -12 19 -10 -4z"/>
<path d="M676 1771 c-3 -5 -3 -23 0 -40 6 -26 11 -31 36 -31 25 0 29 3 23 18
-4 9 -10 27 -12 40 -5 22 -36 31 -47 13z"/>
<path d="M1227 1747 c-9 -12 -17 -37 -17 -57 0 -26 3 -31 10 -20 5 8 10 26 10
39 0 18 4 22 20 18 15 -4 20 0 20 13 0 27 -24 31 -43 7z"/>
<path d="M1131 1734 c0 -11 3 -14 6 -6 3 7 2 16 -1 19 -3 4 -6 -2 -5 -13z"/>
<path d="M1659 1574 c-4 -48 -2 -78 6 -81 11 -3 13 73 2 84 -4 3 -7 2 -8 -3z"/>
<path d="M1235 1460 c-4 -7 -1 -19 8 -27 19 -19 29 -3 12 20 -9 13 -15 15 -20
7z"/>
<path d="M1668 1458 c5 -5 16 -8 23 -6 8 3 3 7 -10 11 -17 4 -21 3 -13 -5z"/>
<path d="M1774 1463 c4 -4 -10 -12 -30 -18 -34 -9 -29 -10 48 -10 48 0 90 4
95 8 4 5 -4 6 -20 2 -18 -5 -27 -3 -27 5 0 7 -8 10 -20 7 -11 -3 -20 -1 -20 4
0 5 -7 9 -17 9 -9 0 -13 -3 -9 -7z"/>
<path d="M1286 1395 c4 -8 10 -12 15 -9 14 8 10 24 -6 24 -9 0 -12 -6 -9 -15z"/>
<path d="M1825 1285 c99 -47 355 -105 355 -81 0 23 -204 77 -340 90 l-45 5 30
-14z"/>
<path d="M2280 870 c-8 -5 -11 -12 -7 -17 5 -4 12 -1 16 6 7 11 10 11 14 0 3
-9 6 -10 6 -2 1 17 -13 23 -29 13z"/>
<path d="M2208 803 c6 -2 18 -2 25 0 6 3 1 5 -13 5 -14 0 -19 -2 -12 -5z"/>
<path d="M1195 3780 c-3 -5 -1 -10 4 -10 6 0 11 5 11 10 0 6 -2 10 -4 10 -3 0
-8 -4 -11 -10z"/>
<path d="M2080 3460 c0 -5 12 -10 28 -9 24 0 25 1 7 9 -27 12 -35 12 -35 0z"/>
<path d="M5017 3043 c-4 -3 -7 -11 -7 -17 0 -6 5 -5 12 2 6 6 9 14 7 17 -3 3
-9 2 -12 -2z"/>
<path d="M5530 2881 c0 -6 4 -13 10 -16 6 -3 7 1 4 9 -7 18 -14 21 -14 7z"/>
<path d="M5530 2841 c0 -6 4 -13 10 -16 6 -3 7 1 4 9 -7 18 -14 21 -14 7z"/>
<path d="M4444 2834 c-6 -3 -9 -16 -6 -29 4 -24 7 -25 84 -25 69 0 79 -2 77
-17 -4 -46 1 -63 21 -63 11 0 19 3 19 8 -1 4 0 9 1 12 15 37 -3 71 -38 75 -36
3 -72 17 -66 26 8 13 -30 11 -44 -3 -9 -9 -12 -8 -12 5 0 16 -13 20 -36 11z"/>
<path d="M3711 2294 c0 -11 3 -14 6 -6 3 7 2 16 -1 19 -3 4 -6 -2 -5 -13z"/>
<path d="M3930 2220 c-22 -13 -10 -18 35 -12 32 4 36 6 20 13 -27 10 -37 10
-55 -1z"/>
<path d="M4686 1608 c3 -5 10 -6 15 -3 13 9 11 12 -6 12 -8 0 -12 -4 -9 -9z"/>
<path d="M4341 1244 c0 -11 3 -14 6 -6 3 7 2 16 -1 19 -3 4 -6 -2 -5 -13z"/>
<path d="M4899 1103 c0 -10 -2 -38 -5 -63 -4 -39 -2 -42 8 -25 7 11 13 31 14
45 1 14 4 31 5 39 2 7 -2 16 -8 18 -7 3 -13 -3 -14 -14z"/>
<path d="M4920 1030 c0 -5 5 -10 10 -10 6 0 10 5 10 10 0 6 -4 10 -10 10 -5 0
-10 -4 -10 -10z"/>
<path d="M4871 948 c-5 -13 -6 -28 -4 -34 6 -16 -29 -27 -38 -12 -6 10 -9 9
-13 -2 -7 -19 -3 -47 9 -57 4 -5 4 -1 0 7 -5 8 4 3 19 -12 15 -15 25 -32 21
-38 -3 -5 -2 -10 4 -10 5 0 11 -6 14 -12 2 -7 3 -5 2 5 -2 11 4 17 18 18 21 0
21 1 -2 10 -22 9 -23 13 -19 84 2 41 2 75 0 75 -1 0 -6 -10 -11 -22z"/>
<path d="M4700 790 c0 -5 7 -10 16 -10 8 0 12 5 9 10 -3 6 -10 10 -16 10 -5 0
-9 -4 -9 -10z"/>
<path d="M4850 760 c0 -5 5 -10 10 -10 6 0 10 5 10 10 0 6 -4 10 -10 10 -5 0
-10 -4 -10 -10z"/>
<path d="M4171 861 c-21 -4 -37 -14 -42 -26 -4 -11 -8 -16 -8 -12 -1 4 -10 3
-21 -3 -22 -12 -18 -30 5 -30 7 0 21 7 30 17 14 14 18 14 27 2 7 -11 11 -11
15 -1 2 6 13 12 24 12 14 0 19 7 19 25 0 14 -3 24 -7 24 -5 -1 -23 -4 -42 -8z"/>
<path d="M2504 698 c-3 -4 2 -11 10 -14 26 -10 18 -21 -21 -33 -36 -10 -36
-10 -5 -6 22 3 34 0 38 -10 9 -23 54 3 54 32 0 18 -5 23 -26 23 -14 0 -23 4
-20 8 3 5 -2 9 -10 9 -8 0 -17 -4 -20 -9z"/>
</g>
</svg>
