<?xml version="1.0" standalone="no"?>
<!DOCTYPE svg PUBLIC "-//W3C//DTD SVG 20010904//EN"
 "http://www.w3.org/TR/2001/REC-SVG-20010904/DTD/svg10.dtd">
<svg version="1.0" xmlns="http://www.w3.org/2000/svg"
 width="900.000000pt" height="563.000000pt" viewBox="0 0 900.000000 563.000000"
 preserveAspectRatio="xMidYMid meet">

<g transform="translate(0.000000,563.000000) scale(0.100000,-0.100000)"
fill="#000000" stroke="none">
<path d="M4980 5577 c434 -241 643 -489 674 -802 7 -69 -11 -192 -36 -239 -39
-76 -318 -391 -318 -360 0 6 11 21 25 34 13 12 22 26 20 30 -2 4 22 38 55 76
33 38 60 75 60 82 0 6 3 12 8 12 13 0 47 72 44 93 -3 14 0 18 12 14 10 -4 13
-1 10 8 -6 14 -21 15 -41 2 -6 -4 -13 -2 -15 4 -4 13 -55 -10 -83 -37 -11 -12
-19 -14 -24 -6 -4 6 -12 8 -20 3 -8 -5 -10 -14 -6 -21 5 -9 4 -11 -3 -6 -7 4
-12 11 -12 15 0 10 47 62 55 60 19 -3 74 17 93 34 17 16 25 18 34 9 9 -9 7
-12 -12 -12 -17 0 -21 -3 -13 -11 8 -8 17 -7 34 3 34 20 59 41 59 51 0 5 -7 4
-16 -4 -22 -18 -36 6 -22 37 l11 24 19 -23 20 -22 -8 29 c-4 19 -2 31 7 36 19
12 -1 160 -36 264 -26 81 -92 191 -139 235 l-26 24 -1 -24 c0 -13 -3 -18 -6
-11 -10 24 -32 13 -27 -15 3 -14 2 -33 -1 -42 -5 -13 -7 -14 -15 -1 -8 12 -10
11 -10 -6 0 -21 -1 -21 -34 -5 -19 9 -38 24 -43 34 -7 16 -10 16 -28 3 -20
-16 -20 -16 3 -22 26 -7 30 -24 5 -24 -15 0 -16 -2 -3 -10 13 -9 12 -13 -6
-28 -16 -13 -20 -27 -18 -62 1 -25 -2 -50 -7 -56 -10 -13 -1 -72 12 -80 5 -3
12 2 15 10 8 21 34 21 34 0 0 -8 5 -12 10 -9 6 3 10 -3 10 -15 0 -12 -4 -19
-9 -15 -5 3 -12 1 -16 -5 -3 -5 3 -10 14 -10 27 0 27 -17 1 -25 -16 -5 -18
-10 -10 -26 7 -13 7 -19 0 -19 -5 0 -10 -9 -10 -20 0 -11 5 -20 12 -20 6 0 4
-7 -5 -18 -10 -10 -17 -24 -17 -30 0 -7 -4 -12 -10 -12 -5 0 -10 -4 -10 -10 0
-5 3 -10 8 -9 17 3 52 -14 52 -25 0 -6 -7 -22 -16 -34 -24 -35 -12 -46 21 -17
22 19 24 24 10 19 -16 -6 -18 -4 -8 6 17 18 53 21 46 3 -5 -14 12 -19 20 -5 2
4 2 1 1 -5 -2 -7 2 -13 8 -13 7 0 3 -6 -7 -14 -11 -8 -23 -12 -27 -9 -5 2 -18
1 -29 -2 -15 -5 -19 -13 -16 -27 4 -14 0 -22 -14 -25 -10 -3 -19 -9 -19 -13 0
-16 27 -29 48 -23 26 6 28 0 6 -22 -26 -26 -6 -31 21 -5 20 19 27 21 40 10 8
-7 15 -20 15 -29 0 -14 -2 -14 -10 -1 -7 12 -16 8 -45 -22 -21 -20 -43 -34
-51 -31 -7 3 -21 -2 -29 -11 -9 -9 -23 -16 -31 -16 -8 0 -14 -4 -14 -10 0 -5
-9 -10 -20 -10 -11 0 -20 5 -20 10 0 6 -15 10 -34 10 -30 0 -33 -2 -28 -25 2
-14 13 -32 24 -39 12 -9 17 -19 12 -27 -4 -7 3 -5 17 4 13 9 33 16 44 16 20
-1 20 -1 0 -6 -11 -3 -51 -30 -89 -60 -39 -32 -63 -47 -57 -35 6 12 17 25 25
29 18 11 39 53 27 53 -5 0 -21 -4 -35 -10 -25 -9 -26 -9 -25 43 1 44 6 57 33
85 l31 34 -39 -8 c-45 -8 -44 10 1 19 16 4 42 18 58 32 l30 25 -28 -10 c-53
-19 -52 -9 2 16 30 13 51 27 48 30 -3 4 -39 -9 -79 -28 l-73 -35 -37 77 c-46
95 -127 178 -302 309 -38 28 -73 51 -78 51 -5 0 -35 17 -66 39 -31 21 -59 38
-62 38 -3 0 -23 9 -45 20 -130 66 -420 169 -575 203 -445 99 -1184 209 -1780
265 -85 8 -175 17 -200 21 -25 3 -106 10 -180 15 -74 4 -198 13 -275 19 -708
57 -943 59 -1298 13 l-127 -17 0 -83 c0 -81 1 -83 22 -79 75 15 179 28 184 23
3 -3 -30 -11 -73 -19 l-78 -13 96 -5 c90 -5 98 -7 141 -40 25 -19 44 -38 41
-42 -2 -5 8 -8 23 -8 26 0 25 2 -18 30 -24 16 -53 39 -63 50 -18 20 -18 20 6
21 l24 0 -22 16 c-13 8 -23 19 -23 24 0 5 54 9 120 9 l120 0 46 -35 c25 -19
56 -35 69 -35 13 0 30 -2 37 -5 8 -3 38 13 68 35 l54 40 118 0 c117 0 140 -7
97 -30 -11 -7 -18 -14 -16 -17 3 -3 21 7 40 21 28 21 44 26 93 26 54 -1 64 -4
118 -45 33 -25 67 -45 76 -45 9 0 43 20 76 45 54 41 64 44 118 45 54 0 63 -3
123 -47 58 -43 62 -48 41 -54 -13 -3 42 -9 122 -13 482 -23 1182 -90 1595
-150 357 -53 722 -131 875 -188 30 -11 68 -22 83 -25 41 -8 229 -106 295 -155
132 -97 324 -328 291 -349 -8 -5 -20 -9 -26 -9 -16 0 -17 -17 -1 -22 15 -5
-91 -65 -122 -70 -15 -2 -26 -12 -30 -25 -5 -23 -97 -99 -107 -89 -4 3 -18
-11 -32 -32 -14 -20 -46 -58 -71 -82 -25 -25 -65 -68 -89 -95 -24 -28 -40 -43
-36 -35 20 36 71 109 109 154 37 45 39 49 22 62 -15 11 -27 10 -75 -8 -214
-78 -447 -233 -556 -368 -26 -33 -49 -60 -51 -60 -1 0 9 30 24 68 52 135 177
328 280 434 36 37 63 70 60 73 -13 14 -101 -9 -129 -32 -28 -24 -42 -20 -18 4
32 32 -171 -54 -206 -87 -11 -10 -23 -18 -28 -17 -16 4 -140 -98 -172 -142
-97 -132 -142 -334 -93 -424 7 -14 -3 -9 -33 15 -47 38 -129 78 -161 78 -11 0
-28 -4 -38 -10 -17 -9 -110 -139 -110 -155 0 -3 -11 -21 -24 -38 -24 -32 -71
-122 -99 -189 l-15 -37 94 -31 95 -32 72 25 72 26 -40 -34 -40 -34 45 -18 c62
-24 220 -101 220 -107 0 -3 -37 12 -82 33 -245 112 -619 204 -1318 322 -542
92 -932 142 -1480 189 -63 5 -144 14 -180 19 -36 5 -126 15 -200 21 -74 7
-164 18 -200 26 -36 7 -84 14 -107 14 l-43 0 0 -123 0 -123 207 -13 c1121 -65
2080 -161 2633 -263 91 -17 173 -31 183 -31 19 -1 19 -8 0 -97 -5 -24 -3 -23
22 8 14 17 33 32 41 32 8 0 12 4 9 10 -10 17 38 21 102 7 l61 -12 -54 -94
c-29 -52 -65 -124 -79 -160 -28 -76 -66 -239 -56 -245 3 -2 66 -5 138 -5 156
-2 160 0 194 113 34 114 70 218 91 259 10 21 16 42 13 47 -3 5 0 7 8 4 11 -4
12 -15 5 -57 -6 -29 -8 -76 -5 -105 6 -57 0 -70 -55 -121 -16 -14 -28 -30 -28
-36 0 -6 -14 -30 -31 -53 l-31 -42 79 -1 c126 -2 32 -15 -212 -30 -422 -26
-2155 -6 -2364 27 -19 3 -55 8 -80 10 -26 2 -116 10 -201 18 -180 17 -295 26
-400 31 -41 1 -101 6 -132 10 l-58 8 0 -127 c0 -119 1 -126 20 -126 11 0 20
-7 20 -15 0 -24 49 -37 114 -31 57 6 81 19 69 39 -3 5 29 6 73 3 44 -3 221 -8
394 -11 355 -7 440 -12 477 -26 19 -7 35 -6 57 4 24 12 122 16 461 21 237 4
493 9 570 12 95 3 135 1 125 -6 -8 -5 -31 -9 -50 -9 -19 0 -71 -4 -115 -9 -44
-6 -83 -8 -87 -6 -5 3 -8 1 -8 -3 0 -5 -20 -8 -44 -7 -24 1 -50 -2 -57 -7 -10
-6 -11 -9 -1 -9 22 0 13 -18 -15 -28 -34 -11 -76 4 -68 26 4 11 -22 13 -164
10 -93 -1 -173 -6 -177 -10 -4 -4 -1 -14 5 -22 10 -12 9 -14 -8 -9 -14 3 -23
0 -27 -11 -4 -10 -18 -16 -35 -16 -21 0 -27 -4 -23 -15 4 -8 1 -15 -6 -15 -8
0 -10 9 -6 25 6 22 3 25 -19 25 -18 0 -24 4 -19 12 5 8 2 9 -12 4 -31 -13 -60
-18 -49 -9 6 4 11 14 12 21 3 14 -279 17 -494 6 l-120 -7 1 -35 c1 -30 6 -37
26 -43 22 -6 23 -7 6 -14 -11 -5 -21 -3 -25 4 -12 19 -83 51 -113 51 -15 0
-48 10 -73 22 -39 19 -49 20 -66 9 -12 -7 -18 -8 -15 -3 4 6 -94 10 -264 11
l-270 2 0 -304 0 -305 25 -6 c42 -11 1039 -7 1195 4 159 11 299 24 430 40 121
14 135 14 120 -5 -10 -13 -9 -15 9 -15 11 0 21 5 21 10 0 6 10 8 23 5 20 -5
524 89 535 100 10 9 -15 5 -182 -30 -168 -35 -218 -42 -200 -27 5 5 74 21 154
36 80 15 173 33 207 41 72 17 117 19 108 5 -3 -5 -2 -10 2 -10 33 0 505 128
586 159 18 7 25 15 21 23 -5 7 -2 9 9 5 16 -6 23 6 33 59 3 14 11 45 19 67 20
56 19 64 -7 64 -44 1 -50 3 -45 18 4 9 -11 29 -40 55 -44 38 -78 55 -54 26 9
-11 8 -15 -5 -20 -9 -4 -19 -4 -22 -1 -3 3 0 5 6 5 17 0 9 35 -13 60 -12 14
-31 20 -58 20 l-40 0 23 -26 c21 -21 22 -27 10 -35 -13 -9 -12 -10 1 -6 10 3
26 -4 38 -17 26 -27 26 -36 4 -36 -15 0 -14 -4 6 -19 23 -18 20 -28 -9 -26 -8
0 -14 6 -13 13 2 6 -7 16 -20 22 -20 10 -21 10 -4 -4 17 -13 16 -14 -19 -11
-36 2 -84 40 -84 66 0 17 10 9 20 -15 5 -14 19 -30 31 -37 19 -10 21 -9 15 6
-3 10 -1 24 5 31 8 10 8 14 0 14 -6 0 -11 -5 -11 -12 0 -6 -9 -2 -21 10 -11
12 -17 26 -14 31 8 13 -42 50 -63 46 -9 -2 -40 -4 -69 -4 -42 -1 -51 -4 -47
-16 7 -17 -11 -21 -21 -5 -4 6 -10 8 -14 5 -5 -2 -17 2 -27 10 -17 13 -11 14
56 16 41 0 86 2 100 4 43 6 131 13 263 21 l128 7 43 -49 43 -49 16 30 c25 46
53 75 73 75 16 0 16 -2 -2 -21 -19 -21 -19 -22 3 -15 l23 7 -21 -48 c-11 -26
-36 -61 -55 -76 -38 -32 -43 -47 -16 -47 29 0 30 -6 14 -70 -14 -55 -17 -60
-48 -66 -22 -4 -31 -10 -27 -20 7 -20 22 -18 89 11 90 39 154 74 214 117 l55
39 -40 -36 c-91 -81 -245 -156 -500 -243 -296 -100 -539 -162 -965 -247 -69
-14 -165 -33 -215 -44 -85 -17 -244 -37 -485 -61 -292 -28 -1230 -43 -1238
-20 -2 6 -18 10 -35 9 -27 0 -29 -2 -12 -9 17 -7 17 -9 3 -9 -16 -1 -18 -13
-18 -116 l0 -115 122 5 c679 29 952 46 1208 75 172 20 240 24 195 13 -11 -3
-24 -12 -31 -21 -8 -10 -48 -18 -145 -28 -74 -7 -195 -20 -269 -28 -74 -9
-236 -20 -360 -26 -256 -12 -664 -30 -697 -30 -21 0 -23 -5 -23 -51 l0 -52
153 7 c153 7 312 15 702 37 116 6 221 10 235 7 30 -5 -134 -27 -250 -34 -46
-3 -86 -7 -89 -9 -5 -5 60 -9 97 -6 12 1 22 -3 22 -9 0 -6 -75 -10 -220 -10
-140 0 -220 -4 -220 -10 0 -10 114 -12 515 -10 105 0 298 10 430 21 318 26
864 87 895 99 14 5 48 9 76 8 63 -2 85 9 59 29 -17 12 -15 13 17 13 20 0 38
-5 40 -11 3 -8 19 -8 58 -1 32 5 43 10 28 11 -29 1 -40 21 -13 21 8 0 15 7 15
15 0 17 25 20 35 5 3 -5 21 -10 38 -10 30 -1 31 -2 13 -15 -18 -13 -17 -14 5
-20 40 -10 375 40 394 58 9 9 14 20 13 24 -2 4 17 9 41 11 37 3 43 1 37 -13
-3 -10 -2 -14 5 -10 6 4 8 13 5 21 -5 13 5 18 31 15 6 -1 14 2 17 7 2 4 -34 6
-82 4 -48 -2 -85 -2 -81 2 3 3 48 12 101 20 107 16 127 26 181 90 35 42 37 49
39 118 l2 73 5 -69 6 -70 28 36 c15 20 27 41 27 47 0 6 4 11 9 11 27 0 162
251 176 327 4 27 2 31 -12 29 -10 -2 -31 5 -48 16 l-30 20 28 -6 c15 -3 38 -9
51 -12 28 -7 35 7 46 96 7 54 7 54 9 11 2 -78 -49 -245 -107 -351 -59 -107
-119 -189 -209 -283 -30 -31 -49 -57 -42 -57 8 0 6 -5 -6 -12 -11 -6 -40 -29
-63 -51 l-44 -39 44 7 c23 3 69 13 101 21 32 8 70 14 83 14 13 0 24 5 24 11 0
5 5 7 12 3 6 -4 8 -3 5 3 -4 6 1 17 10 24 15 12 16 12 10 -3 -3 -10 -2 -20 3
-23 6 -4 10 -3 10 2 0 4 17 8 38 8 48 1 205 30 362 67 69 16 136 31 150 34
178 35 686 197 674 215 -3 5 1 6 8 4 16 -6 196 57 363 127 426 179 814 378
1201 616 172 106 344 222 344 233 0 5 3 8 8 7 15 -4 52 23 46 34 -4 7 -3 8 4
4 13 -8 184 113 176 125 -3 5 1 6 9 3 21 -8 30 11 11 26 -13 12 -11 17 18 47
31 32 61 42 72 24 4 -5 0 -11 -6 -14 -7 -2 -10 -8 -6 -12 10 -11 89 55 82 67
-4 7 -2 8 5 4 26 -17 353 286 482 447 148 184 170 271 92 375 -42 56 -156 110
-268 126 -35 6 -37 5 -17 -5 26 -14 29 -29 5 -29 -14 0 -11 -5 10 -18 29 -20
27 -32 -6 -32 -13 0 -17 5 -13 16 5 12 2 15 -9 10 -11 -4 -14 -2 -9 6 5 8 2 9
-12 3 -10 -4 -30 -8 -44 -9 -14 -1 -25 -5 -25 -11 0 -5 -4 -16 -8 -23 -5 -7
-3 -14 6 -18 16 -6 12 -44 -4 -44 -5 0 -9 -6 -9 -14 0 -8 -6 -17 -12 -20 -10
-4 -8 -9 4 -18 16 -12 16 -14 -6 -38 -13 -14 -28 -38 -33 -55 -6 -20 -16 -30
-29 -30 -10 0 -22 -8 -26 -17 -4 -10 -12 -18 -18 -18 -18 0 -11 28 11 43 14
10 17 17 9 22 -8 5 -7 12 5 25 8 9 13 24 10 33 -4 10 1 18 15 22 12 4 19 12
16 20 -3 8 0 16 7 19 9 5 9 7 -1 12 -10 5 -10 9 -1 20 6 8 8 14 5 14 -4 0 -1
10 6 23 15 27 16 46 5 71 -8 16 -5 18 32 14 23 -2 41 0 41 4 0 5 -13 9 -30 9
-16 1 -34 3 -40 4 -5 1 -38 4 -72 5 l-63 3 50 6 50 7 -63 8 c-34 4 -115 6
-180 3 -107 -5 -112 -5 -57 6 33 6 157 11 275 11 233 0 285 -8 396 -60 68 -32
109 -66 142 -118 22 -35 26 -52 24 -109 -1 -57 -7 -80 -38 -140 -20 -40 -39
-74 -43 -77 -15 -11 -72 -90 -66 -90 4 0 -3 -9 -16 -20 -13 -10 -20 -19 -15
-20 5 0 -18 -27 -52 -59 -34 -32 -62 -64 -62 -70 0 -6 -5 -11 -10 -11 -6 0
-16 -5 -23 -10 -7 -6 -21 -18 -32 -26 -11 -9 -13 -12 -5 -8 10 5 9 1 -4 -14
-10 -12 -22 -19 -27 -16 -4 2 -6 -5 -4 -17 4 -17 2 -19 -10 -9 -14 11 -19 7
-16 -12 0 -5 -5 -7 -12 -5 -6 1 -11 -3 -10 -10 1 -6 -4 -14 -13 -17 -10 -4
-13 -2 -8 7 4 6 -5 1 -19 -12 -15 -14 -25 -26 -22 -29 2 -2 -6 -13 -18 -23
-14 -12 -17 -18 -8 -19 7 0 23 10 35 23 22 22 69 57 96 71 8 4 2 -3 -15 -16
-16 -13 -46 -38 -66 -55 -20 -18 -41 -33 -45 -33 -5 0 -17 -9 -27 -20 -9 -11
-22 -20 -29 -20 -8 1 -5 7 6 15 11 8 21 25 22 37 2 13 0 17 -2 11 -3 -7 -5
-15 -4 -19 2 -10 -74 -63 -84 -57 -5 4 -6 1 -2 -6 6 -9 11 -9 22 0 8 6 18 9
22 5 7 -7 -5 -19 -64 -61 -15 -11 -43 -32 -62 -47 -19 -16 -38 -28 -41 -28 -3
0 -19 -11 -35 -25 -17 -14 -40 -28 -53 -31 -13 -4 -23 -9 -23 -13 0 -4 -24
-23 -52 -42 -29 -18 -61 -40 -71 -49 -10 -8 -21 -15 -25 -15 -7 0 -83 -45 -92
-54 -14 -16 -71 -41 -80 -36 -5 3 -7 0 -4 -8 3 -10 -9 -22 -40 -36 -24 -12
-50 -29 -56 -37 -7 -7 -18 -14 -25 -14 -7 0 -16 -7 -19 -16 -3 -8 -10 -13 -15
-9 -5 3 -12 1 -16 -5 -4 -6 -11 -7 -17 -4 -6 4 -8 3 -5 -3 8 -13 -61 -46 -76
-37 -7 4 -9 3 -4 -1 8 -9 -56 -49 -96 -59 -15 -3 -26 -12 -24 -19 1 -7 -7 -11
-23 -9 -20 2 -22 1 -10 -7 13 -9 13 -11 -2 -11 -10 0 -18 -5 -18 -11 0 -6 -9
-9 -20 -6 -12 3 -20 0 -20 -8 0 -7 -27 -27 -60 -44 -32 -18 -62 -36 -65 -41
-3 -5 -12 -7 -20 -3 -9 3 -15 -1 -15 -10 0 -9 -12 -18 -29 -22 -16 -3 -35 -13
-42 -21 -6 -8 -19 -14 -28 -14 -19 -1 -101 -39 -86 -40 19 -2 -30 -19 -58 -19
-16 -1 -26 -5 -22 -11 3 -5 -13 -14 -35 -20 -22 -6 -40 -15 -40 -20 0 -6 -10
-10 -23 -10 -13 0 -33 -9 -45 -20 -12 -11 -29 -20 -40 -20 -10 0 -27 -7 -38
-15 -10 -8 -26 -15 -35 -15 -15 0 -101 -34 -204 -80 -23 -10 -53 -22 -68 -25
-15 -4 -27 -12 -27 -18 0 -6 -2 -8 -6 -5 -3 3 -41 -10 -85 -28 -44 -19 -89
-34 -100 -34 -10 0 -19 -4 -19 -10 0 -5 -11 -10 -23 -10 -13 0 -27 -3 -31 -7
-6 -7 -67 -30 -96 -38 -8 -2 -28 -9 -45 -16 -16 -7 -32 -13 -35 -14 -3 -1 -25
-7 -50 -14 -25 -7 -49 -16 -55 -19 -5 -4 -14 -7 -20 -9 -5 -1 -30 -9 -55 -17
-25 -8 -63 -19 -85 -25 -22 -5 -94 -23 -160 -40 -198 -50 -395 -94 -540 -121
-27 -5 -68 -14 -90 -19 -22 -5 -69 -15 -105 -21 -36 -6 -94 -18 -130 -25 -36
-8 -154 -26 -262 -39 -108 -14 -241 -32 -295 -41 -170 -28 -578 -84 -680 -94
-54 -6 -161 -17 -238 -25 -257 -28 -598 -55 -785 -62 -199 -7 -322 -21 -200
-23 36 0 171 4 300 9 328 14 642 19 560 9 -154 -18 -610 -42 -915 -48 l-330
-6 244 -8 c134 -4 292 -8 350 -8 l106 -2 -85 -8 c-47 -5 -300 -6 -563 -2
l-477 6 0 -41 c0 -34 4 -41 23 -45 l22 -4 -22 -2 c-23 -1 -23 -1 -23 -182 l0
-182 127 8 c183 10 234 15 269 24 16 5 71 9 121 10 51 1 116 6 145 12 91 17
170 27 263 34 150 11 286 24 370 34 44 6 132 15 195 21 63 6 181 20 263 31 81
11 157 19 170 17 12 -2 -77 -18 -198 -35 -458 -68 -999 -131 -1435 -168 -102
-8 -209 -18 -238 -21 l-52 -6 0 -254 c0 -212 2 -254 14 -254 18 0 545 163 721
223 361 123 758 273 1032 388 105 45 114 47 82 19 l-24 -20 25 9 c14 5 86 39
160 75 93 46 124 65 100 62 -19 -3 -62 -7 -95 -10 l-60 -5 50 14 c28 7 64 14
82 14 26 1 31 5 28 20 -2 13 4 21 18 25 32 8 39 7 31 -5 -8 -14 25 -4 86 26
54 26 146 48 180 44 22 -4 19 -7 -25 -28 -27 -13 -60 -32 -73 -42 -13 -9 -37
-21 -55 -24 -27 -6 -219 -94 -362 -167 -22 -11 -96 -45 -165 -75 -69 -30 -138
-61 -155 -69 -16 -9 -127 -53 -245 -100 -118 -47 -235 -94 -260 -104 -25 -11
-78 -31 -118 -44 -40 -14 -104 -39 -141 -55 -38 -16 -71 -27 -74 -25 -2 2 -10
-2 -16 -10 -7 -8 -20 -12 -28 -9 -10 4 -14 2 -10 -3 3 -6 -78 -39 -191 -77
l-197 -67 185 3 c102 2 192 6 200 9 8 3 29 8 45 13 17 4 47 16 67 26 21 11 45
21 55 23 18 3 40 10 78 26 63 26 193 69 226 75 13 3 25 9 28 14 6 9 63 33 116
48 11 4 22 9 25 13 3 3 41 21 85 39 44 19 99 42 122 53 23 10 58 22 77 25 20
3 34 8 31 11 -7 7 111 60 152 68 18 3 33 10 33 16 0 5 4 6 10 3 5 -3 21 2 35
11 14 9 25 14 25 11 0 -10 96 38 132 65 18 14 48 29 66 32 18 5 29 12 26 18
-4 6 2 8 16 3 13 -4 20 -3 17 2 -4 5 -1 10 6 11 7 0 23 3 37 6 39 10 -373
-193 -578 -284 -180 -80 -467 -196 -707 -286 -66 -25 -122 -47 -124 -50 -3 -2
331 -4 742 -4 696 0 747 2 756 18 10 16 10 16 11 -2 0 -15 6 -17 38 -12 20 3
46 7 57 9 11 1 19 9 18 17 -2 9 6 21 17 28 12 7 20 8 20 2 0 -5 5 -10 11 -10
5 0 8 4 5 9 -4 5 3 7 15 4 16 -4 17 -8 7 -14 -13 -8 -11 -10 15 -13 6 -1 11
-8 9 -16 -2 -12 0 -12 10 1 7 9 23 19 35 23 18 6 22 4 17 -8 -4 -11 -1 -16 10
-16 9 0 16 5 16 11 0 6 8 8 20 4 13 -4 25 1 37 14 12 15 19 17 25 8 5 -8 16
-3 37 17 29 28 58 28 47 0 -7 -17 6 -18 22 -2 17 17 15 28 -4 28 -12 0 -15 6
-11 21 4 16 3 18 -9 8 -11 -9 -14 -8 -14 5 0 18 21 21 36 6 7 -7 17 -3 32 10
18 17 22 18 22 5 0 -8 7 -15 16 -15 9 0 18 -9 21 -20 3 -12 11 -18 17 -15 6 3
19 8 29 11 9 4 17 11 17 16 0 5 19 7 43 4 23 -2 47 -5 52 -5 6 -1 -1 -7 -15
-14 -20 -11 -24 -19 -22 -46 3 -29 1 -33 -15 -27 -14 6 -16 5 -5 -5 17 -18 15
-27 -5 -32 -10 -3 1340 -5 3000 -6 l3017 -1 0 2815 0 2815 -181 0 c-171 0
-181 -1 -168 -17 13 -17 13 -17 -13 0 -25 16 -89 17 -903 17 l-875 0 18 -37
c11 -21 22 -50 26 -65 9 -37 16 -35 45 12 14 22 26 38 29 36 4 -5 -19 -48 -33
-59 -6 -5 -3 -7 7 -3 27 8 30 -9 6 -30 -19 -17 -21 -17 -15 -1 4 9 2 17 -4 17
-16 0 -23 -31 -9 -40 7 -4 10 -13 6 -18 -10 -17 5 -62 20 -62 8 0 14 -7 14
-15 0 -8 -6 -12 -14 -9 -12 5 -14 -6 -9 -59 3 -39 1 -73 -6 -86 -9 -15 -9 -21
0 -21 6 0 -1 -21 -15 -46 -25 -45 -36 -75 -16 -44 5 8 10 10 10 4 0 -6 -7 -17
-15 -24 -8 -7 -15 -16 -15 -21 0 -5 -14 -39 -31 -76 -51 -111 -169 -277 -185
-260 -4 4 2 17 13 30 55 61 130 189 157 271 52 153 34 358 -47 539 l-30 67
-274 0 -274 0 116 -117 c64 -64 123 -118 131 -119 8 -1 11 3 7 9 -18 32 -72
98 -127 156 -56 60 -58 62 -17 31 44 -34 142 -150 188 -223 13 -21 42 -73 64
-117 38 -75 40 -83 40 -168 0 -100 -14 -158 -61 -253 -59 -120 -185 -260 -325
-361 -44 -31 -84 -61 -90 -66 -10 -8 -86 -50 -240 -132 -44 -24 -125 -67 -180
-97 -179 -96 -377 -194 -371 -185 3 6 44 29 92 52 47 23 83 44 80 47 -2 3 -29
8 -58 12 l-53 7 33 11 c18 7 30 9 28 4 -3 -4 10 -13 29 -18 33 -11 44 -6 247
106 268 148 414 238 521 322 96 76 191 184 182 206 -4 11 -1 13 12 9 14 -6 15
-5 6 5 -9 9 -6 22 14 58 32 58 33 59 33 32 0 -12 -4 -20 -8 -17 -4 2 -8 -4 -8
-14 0 -10 3 -17 6 -15 7 4 51 91 54 108 2 7 6 20 11 30 4 10 5 21 1 24 -3 4
-6 -1 -6 -10 0 -10 -3 -17 -8 -17 -4 0 -13 -14 -21 -31 -19 -42 -25 -30 -6 14
9 22 15 68 15 117 0 163 -82 322 -260 503 l-97 97 -256 0 c-222 0 -257 -2
-257 -15 0 -8 -6 -15 -14 -15 -7 0 -16 -15 -20 -32 -5 -26 -9 -30 -16 -18 -14
21 -13 24 15 54 l24 26 -98 0 c-81 0 -100 -3 -105 -16 -3 -8 -2 -23 3 -32 13
-25 80 -87 94 -88 7 0 20 -2 30 -2 14 -2 17 -10 16 -39 -1 -30 10 -57 50 -125
104 -176 150 -328 151 -499 0 -192 -78 -343 -293 -568 -34 -35 -55 -61 -47
-56 10 5 11 5 5 -2 -15 -14 -65 -34 -65 -25 0 4 16 24 36 45 19 20 33 37 30
37 -4 0 20 27 53 61 33 33 77 88 100 122 22 34 44 67 49 72 12 15 38 64 68
130 23 51 28 77 32 171 3 96 1 123 -22 207 -26 100 -90 246 -123 282 -10 11
-36 43 -58 70 -36 45 -127 138 -219 223 l-35 32 -218 0 -218 0 95 -53z m1980
13 c0 -5 -5 -10 -11 -10 -5 0 -7 5 -4 10 3 6 8 10 11 10 2 0 4 -4 4 -10z m-20
-24 c0 -2 -8 -10 -17 -17 -16 -13 -17 -12 -4 4 13 16 21 21 21 13z m1750 -236
c8 -5 11 -10 5 -10 -5 0 -3 -4 5 -10 12 -8 12 -10 -3 -16 -9 -3 -17 -12 -17
-20 0 -8 -7 -14 -16 -14 -11 0 -14 -6 -9 -20 3 -11 1 -28 -5 -37 -10 -16 -11
-16 -6 -1 3 10 1 20 -5 23 -5 4 -7 11 -3 16 3 5 0 16 -6 24 -7 8 -9 24 -4 37
11 36 35 47 64 28z m64 -102 c-3 -4 -11 -8 -17 -8 -7 0 -6 4 3 10 11 7 11 10
2 10 -7 0 -10 5 -6 11 4 8 9 7 15 -2 4 -7 5 -17 3 -21z m51 -16 c-3 -3 0 -10
5 -17 6 -8 5 -17 -3 -28 -12 -16 -34 -21 -77 -17 l-25 2 23 6 c13 4 22 10 20
13 -5 11 31 46 47 46 8 0 13 -3 10 -5z m-35 -94 c0 -4 -9 -8 -20 -8 -11 0 -20
4 -20 9 0 6 9 9 20 8 11 -1 20 -5 20 -9z m-3485 -28 c3 -5 1 -10 -4 -10 -6 0
-11 5 -11 10 0 6 2 10 4 10 3 0 8 -4 11 -10z m2320 -10 c3 -5 1 -10 -4 -10 -6
0 -11 5 -11 10 0 6 2 10 4 10 3 0 8 -4 11 -10z m-2215 -330 c0 -5 -5 -10 -11
-10 -5 0 -7 5 -4 10 3 6 8 10 11 10 2 0 4 -4 4 -10z m20 -22 c0 -3 -14 -10
-32 -13 -17 -4 -40 -17 -50 -29 l-18 -21 6 30 c4 17 8 33 10 37 5 8 84 5 84
-4z m47 -28 c-13 -21 -27 -26 -27 -10 0 6 5 10 10 10 6 0 10 7 10 16 0 8 4 12
10 9 6 -4 5 -13 -3 -25z m1473 -4 c0 -2 -8 -10 -17 -17 -16 -13 -17 -12 -4 4
13 16 21 21 21 13z m-96 -140 c-3 -8 -12 -12 -21 -9 -12 5 -12 7 -1 14 20 13
28 11 22 -5z m1181 -16 c3 -5 1 -10 -4 -10 -6 0 -11 5 -11 10 0 6 2 10 4 10 3
0 8 -4 11 -10z m-2535 -39 c0 -14 -29 -21 -36 -9 -4 6 -3 8 4 4 6 -3 13 -2 17
4 8 12 15 13 15 1z m234 -45 c-3 -9 -10 -16 -15 -16 -6 0 -5 9 1 21 13 24 24
20 14 -5z m236 -91 c-15 -18 0 -20 33 -4 21 10 21 9 -2 -10 -29 -26 -50 -27
-46 -3 2 9 4 20 4 25 1 4 6 7 12 7 8 0 8 -5 -1 -15z m446 -40 c-3 -9 1 -18 10
-22 9 -3 20 -17 25 -30 7 -18 14 -23 29 -18 24 7 26 -7 5 -25 -8 -7 -15 -21
-15 -31 0 -21 35 -61 44 -51 3 3 6 0 6 -7 0 -7 14 -11 39 -10 29 2 38 6 34 17
-5 11 -7 11 -14 0 -7 -10 -9 -8 -9 6 0 14 5 17 25 12 24 -6 31 4 26 37 0 4 4
7 9 7 6 0 12 0 15 0 3 0 6 -3 7 -7 3 -16 33 -31 43 -23 7 6 16 1 23 -11 7 -11
17 -17 22 -14 5 3 42 7 82 10 40 3 143 10 228 16 154 11 501 9 494 -2 -2 -3
22 -12 54 -19 81 -18 179 -56 233 -91 93 -59 129 -147 129 -314 0 -55 4 -106
8 -113 9 -14 41 103 43 154 1 22 5 15 20 -31 25 -75 22 -249 -5 -305 -16 -35
-16 -35 -11 -5 12 71 18 295 8 295 -6 0 -13 -19 -16 -42 -2 -24 -9 -68 -16
-98 -6 -30 -14 -82 -18 -115 l-7 -60 -6 45 c-5 41 -6 43 -14 20 -15 -43 -89
-190 -93 -186 -3 2 0 15 7 28 l11 23 -18 -21 c-10 -12 -44 -57 -75 -100 -55
-76 -228 -253 -425 -436 -72 -66 -90 -88 -80 -96 10 -8 27 -1 68 28 77 56 99
67 64 34 -45 -43 -159 -134 -167 -134 -15 0 -8 19 14 40 16 14 19 23 11 31 -8
8 -42 -14 -124 -78 -102 -80 -145 -129 -107 -121 15 3 12 -50 -4 -69 -12 -15
-32 -17 -23 -3 12 19 -19 10 -82 -25 -71 -41 -82 -35 -22 10 50 37 114 95 105
95 -12 0 -49 -24 -129 -82 -42 -32 -80 -58 -82 -58 -2 0 -74 -44 -160 -97
-187 -117 -335 -198 -335 -184 0 6 4 11 8 11 5 0 19 9 32 20 31 27 25 26 -57
-15 -58 -29 -76 -33 -95 -25 -21 10 -21 10 5 5 19 -4 26 -2 22 5 -3 5 1 10 10
10 9 0 13 5 10 11 -4 6 -1 10 6 8 31 -4 50 2 47 13 -3 7 1 19 8 26 20 20 117
62 127 55 6 -3 7 -1 3 6 -4 6 -12 8 -18 5 -7 -4 -8 -2 -4 4 4 7 14 12 22 12 8
0 14 4 14 8 0 9 37 29 54 30 5 0 13 7 18 16 5 9 14 16 20 16 6 0 26 11 43 25
34 25 47 24 38 -3 -3 -10 3 -7 15 7 10 13 24 21 30 17 6 -3 13 -2 16 3 4 5 2
12 -4 16 -21 13 -9 25 13 14 19 -11 21 -10 9 3 -11 14 -6 20 35 47 26 17 79
53 117 81 63 46 106 65 91 40 -3 -6 1 -7 10 -4 10 4 15 14 12 24 -2 10 4 22
15 29 11 7 17 8 14 2 -4 -5 3 -13 14 -16 15 -5 28 0 45 17 31 30 55 50 55 44
0 -8 43 17 82 49 l37 29 -25 17 -25 16 38 28 c21 16 48 39 60 52 22 23 50 32
38 13 -3 -6 -4 -19 0 -29 6 -18 9 -18 53 12 61 41 152 131 152 150 0 9 6 17
13 19 16 4 147 148 147 161 0 5 25 41 56 79 47 58 57 79 70 139 8 38 12 74 9
79 -3 5 8 33 24 62 47 83 81 183 81 238 0 28 4 50 9 50 15 0 22 32 10 46 -6 7
-8 17 -5 22 12 20 -21 60 -91 105 -40 27 -83 51 -96 54 -12 3 -26 9 -32 13 -9
7 -67 17 -150 26 -207 24 -628 19 -925 -11 -143 -14 -377 -52 -560 -89 -41 -8
-138 -27 -215 -41 -77 -14 -215 -44 -308 -66 -154 -36 -244 -45 -263 -26 -6 5
59 37 75 37 3 0 29 12 56 26 40 20 45 21 25 5 -14 -11 -28 -21 -32 -21 -5 0
-8 -4 -8 -9 0 -5 10 -7 23 -4 17 4 19 3 7 -6 -8 -5 -25 -8 -37 -5 -14 4 -29 0
-38 -10 -15 -15 -14 -16 8 -16 13 0 43 7 66 15 42 15 440 104 646 145 61 12
114 26 119 31 5 4 23 6 40 3 25 -4 27 -3 11 5 -15 8 -10 9 21 5 32 -5 42 -3
47 10 4 9 13 16 22 16 16 0 36 39 34 68 0 14 -2 13 -10 -3 -7 -15 -8 -11 -3
15 3 19 8 52 11 73 3 20 9 37 13 37 4 0 13 14 20 30 12 30 27 43 16 15z
m-1051 -15 c-3 -5 -11 -10 -16 -10 -6 0 -7 5 -4 10 3 6 11 10 16 10 6 0 7 -4
4 -10z m505 6 c0 -3 -4 -8 -10 -11 -5 -3 -10 -1 -10 4 0 6 5 11 10 11 6 0 10
-2 10 -4z m-905 -46 c-28 -12 -37 -12 -30 0 3 6 16 10 28 9 21 0 21 -1 2 -9z
m215 -10 c0 -5 -4 -10 -10 -10 -5 0 -10 5 -10 10 0 6 5 10 10 10 6 0 10 -4 10
-10z m181 -4 c-15 -17 -141 -98 -141 -90 0 9 53 49 65 49 5 1 9 6 8 13 -3 11
17 16 33 10 3 -2 10 5 15 15 6 9 15 17 21 17 7 0 6 -5 -1 -14z m1185 -53 c-7
-7 -26 7 -26 19 0 6 6 6 15 -2 9 -7 13 -15 11 -17z m-1578 -30 c-5 -21 -10
-44 -10 -50 -1 -7 -4 -11 -6 -8 -3 3 -16 -5 -29 -17 -28 -26 -30 -13 -3 27 11
17 20 33 20 36 0 6 -29 2 -108 -16 -48 -11 -10 13 45 29 32 9 65 21 73 26 25
16 28 12 18 -27z m256 -94 c-10 -12 -32 -30 -49 -41 -18 -12 -12 -4 15 21 49
44 64 53 34 20z m1969 4 c-7 -2 -19 -2 -25 0 -7 3 -2 5 12 5 14 0 19 -2 13 -5z
m-515 -60 c-10 -2 -26 -2 -35 0 -10 3 -2 5 17 5 19 0 27 -2 18 -5z m-95 -10
c-7 -2 -19 -2 -25 0 -7 3 -2 5 12 5 14 0 19 -2 13 -5z m197 3 c0 -9 -40 -13
-46 -5 -3 5 6 9 20 9 14 0 26 -2 26 -4z m-273 -26 c1 -12 -6 -17 -25 -17 -37
1 -69 -11 -75 -27 -4 -11 -15 -12 -44 -6 -21 5 -50 7 -65 5 -41 -5 -36 23 5
30 17 3 66 11 107 18 95 17 96 17 97 -3z m191 13 c-10 -2 -26 -2 -35 0 -10 3
-2 5 17 5 19 0 27 -2 18 -5z m182 -33 c0 -5 -5 -10 -11 -10 -5 0 -7 5 -4 10 3
6 8 10 11 10 2 0 4 -4 4 -10z m-1630 -10 c0 -5 -2 -10 -4 -10 -3 0 -8 5 -11
10 -3 6 -1 10 4 10 6 0 11 -4 11 -10z m47 -16 c-3 -3 -12 -4 -19 -1 -8 3 -5 6
6 6 11 1 17 -2 13 -5z m1973 -4 c0 -5 -2 -10 -4 -10 -3 0 -8 5 -11 10 -3 6 -1
10 4 10 6 0 11 -4 11 -10z m-2146 -59 c3 -5 0 -11 -8 -14 -8 -3 -17 1 -20 9
-6 15 19 20 28 5z m1136 -5 c0 -3 -4 -8 -10 -11 -5 -3 -10 -1 -10 4 0 6 5 11
10 11 6 0 10 -2 10 -4z m121 -49 c-1 -12 -15 -9 -19 4 -3 6 1 10 8 8 6 -3 11
-8 11 -12z m-156 -28 c-9 -17 -18 -29 -21 -27 -6 6 20 58 29 58 4 0 0 -14 -8
-31z m-1018 -78 c-8 -100 -38 -251 -49 -251 -6 0 -7 10 -4 23 26 90 52 287 37
287 -15 0 -205 -175 -239 -220 -36 -48 -52 -60 -52 -40 0 33 281 287 302 274
7 -4 9 -31 5 -73z m297 69 c-12 -5 -25 -13 -28 -18 -3 -6 -17 -9 -31 -7 -18 2
-25 -2 -25 -16 0 -16 -6 -17 -52 -12 -29 3 -55 7 -57 9 -9 8 58 27 100 29 25
1 54 7 65 13 10 6 26 11 34 11 9 0 6 -4 -6 -9z m71 -30 c-4 -12 -2 -20 5 -20
6 0 8 -5 4 -11 -4 -7 -11 -6 -22 5 -13 12 -13 18 -2 30 17 22 23 20 15 -4z
m2282 -12 c-3 -7 -5 -2 -5 12 0 14 2 19 5 13 2 -7 2 -19 0 -25z m-217 8 c0 -2
-7 -6 -15 -10 -8 -3 -15 -1 -15 4 0 6 7 10 15 10 8 0 15 -2 15 -4z m151 -39
c-8 -8 -11 -7 -11 4 0 20 13 34 18 19 3 -7 -1 -17 -7 -23z m-2334 17 c-3 -3
-12 -4 -19 -1 -8 3 -5 6 6 6 11 1 17 -2 13 -5z m18 -34 c-3 -5 -14 -10 -23 -9
-14 0 -13 2 3 9 27 11 27 11 20 0z m835 -14 c0 -8 6 -16 13 -19 6 -3 2 -4 -10
-4 -15 1 -23 8 -23 19 0 10 5 18 10 18 6 0 10 -6 10 -14z m1455 -36 c-10 -22
-20 -38 -22 -36 -2 2 4 22 14 44 9 23 19 39 22 37 2 -3 -4 -23 -14 -45z
m-1592 -50 c-8 -41 -22 -84 -29 -95 -18 -26 -18 -14 2 35 9 23 14 43 11 46 -3
3 2 26 10 50 8 25 17 44 18 42 2 -2 -4 -37 -12 -78z m-718 40 c-7 -22 10 -28
19 -7 3 8 11 5 24 -10 11 -13 27 -23 36 -23 9 0 16 -8 16 -20 0 -14 -5 -18
-17 -13 -16 6 -16 4 -5 -9 11 -14 10 -18 -4 -26 -9 -5 -25 -7 -35 -5 -13 4
-19 0 -19 -11 0 -31 -21 -53 -46 -48 -26 5 -33 22 -9 22 8 0 15 2 15 5 0 8
-43 69 -55 77 -6 5 -5 8 3 8 6 0 12 7 12 16 0 8 -4 13 -8 10 -4 -2 -14 -1 -22
5 -11 6 -7 9 16 9 18 0 42 9 55 20 30 24 32 24 24 0z m2125 11 c0 -6 -12 -23
-26 -38 l-25 -28 23 37 c24 40 28 44 28 29z m-3255 -12 c4 -5 4 -20 1 -33 -7
-30 -154 -87 -251 -96 -38 -4 -71 -6 -73 -5 -7 6 281 139 310 144 4 0 10 -4
13 -10z m517 -49 c-23 -16 -83 -48 -134 -71 -51 -23 -95 -44 -98 -47 -3 -2 19
-2 48 2 31 4 52 3 52 -3 0 -9 -201 -164 -260 -200 -29 -17 -29 -18 -12 -34 28
-25 36 -22 81 32 42 50 90 79 134 83 14 1 24 5 21 9 -2 4 16 19 40 33 45 26
61 49 50 69 -5 8 -2 7 7 0 18 -18 44 -16 60 3 8 9 21 13 35 10 13 -4 26 -1 30
6 4 7 3 8 -4 4 -7 -4 -12 -2 -12 3 0 14 2 14 37 -1 30 -13 39 -14 94 -17 32
-1 37 -5 44 -33 4 -18 7 -39 6 -45 -1 -7 8 -13 21 -13 12 0 49 -13 83 -30 33
-16 71 -32 85 -34 37 -8 57 -27 64 -65 5 -25 3 -32 -8 -28 -7 3 -39 -8 -71
-24 -32 -16 -70 -29 -84 -29 -15 0 -31 -4 -36 -9 -14 -13 -211 -111 -224 -111
-6 0 -11 -4 -11 -10 0 -5 -9 -10 -20 -10 -11 0 -20 -5 -20 -10 0 -6 -3 -9 -7
-9 -28 5 -53 -2 -47 -13 4 -7 3 -8 -5 -4 -6 4 -17 3 -24 -2 -7 -6 -14 -10 -17
-11 -3 0 -12 -2 -20 -5 -17 -6 -134 -38 -202 -56 -26 -7 -56 -21 -67 -31 -12
-11 -21 -17 -21 -14 0 3 -13 -1 -29 -9 -16 -9 -31 -12 -35 -9 -3 4 -6 1 -6 -5
0 -6 -15 -16 -34 -23 -19 -7 -39 -23 -45 -36 -6 -13 -15 -23 -21 -23 -6 0 -9
-4 -5 -9 11 -19 -35 -39 -81 -35 l-44 4 -2 -47 c-1 -44 -2 -45 -5 -10 -2 20 5
65 16 100 29 91 32 96 26 53 l-4 -40 34 51 c54 81 68 124 56 170 -10 36 -9 39
16 60 l28 23 11 -32 c15 -44 27 -44 48 -1 17 37 17 38 -3 54 -19 16 -19 19 -5
79 8 34 21 71 29 83 8 12 15 26 15 32 -1 15 -27 -22 -62 -87 -22 -41 -51 -74
-97 -111 -102 -81 -141 -109 -141 -100 0 4 -20 24 -45 43 -24 19 -51 50 -60
68 -9 17 -20 32 -24 32 -5 0 -16 12 -26 26 -14 22 -15 28 -4 35 11 6 10 9 -3
14 -10 4 -14 14 -11 26 4 14 0 19 -16 19 -11 0 -21 4 -21 9 0 5 -13 11 -29 14
-33 7 -61 45 -42 56 6 4 42 8 81 9 61 2 70 1 71 -15 1 -17 2 -17 6 0 2 9 12
17 21 16 29 -1 106 -36 94 -43 -6 -4 -8 -21 -5 -42 l6 -35 -54 6 c-40 4 -48 3
-31 -4 26 -12 30 -41 5 -42 -12 -1 -9 -4 7 -8 14 -4 27 -3 28 1 2 5 11 3 19
-4 8 -7 20 -13 27 -14 6 -1 32 -8 57 -15 l46 -12 109 109 c128 129 205 184
408 288 156 79 208 97 138 46z m2239 3 c-9 -12 -25 -22 -36 -22 -17 1 -17 2
-2 6 9 2 15 9 12 14 -9 14 1 25 23 25 19 0 19 -2 3 -23z m736 -35 c-2 -13 -4
-5 -4 17 -1 22 1 32 4 23 2 -10 2 -28 0 -40z m-96 5 c-11 -21 -30 -49 -42 -63
l-21 -25 17 29 c10 16 26 44 37 63 27 45 33 42 9 -4z m-222 -28 c-18 -25 -34
-45 -36 -45 -6 0 6 19 35 58 37 49 38 38 1 -13z m-1894 25 c3 -5 2 -10 -4 -10
-5 0 -13 5 -16 10 -3 6 -2 10 4 10 5 0 13 -4 16 -10z m2186 -57 c-12 -20 -14
-14 -5 12 4 9 9 14 11 11 3 -2 0 -13 -6 -23z m-2436 -34 c37 -11 65 -22 63
-25 -4 -4 -54 10 -138 36 -14 5 -18 9 -9 9 9 1 47 -8 84 -20z m2445 4 c0 -1
-27 -40 -60 -85 -33 -46 -87 -122 -120 -170 -56 -82 -85 -114 -60 -69 13 26
13 34 -2 24 -7 -4 21 33 62 82 87 103 153 195 153 211 0 6 6 11 14 11 7 0 13
-2 13 -4z m-3795 -23 c-8 -13 -76 -30 -142 -35 -77 -6 -58 7 40 26 102 21 110
21 102 9z m3413 -15 c-6 -13 -15 -22 -20 -19 -5 3 -2 15 8 25 23 25 26 24 12
-6z m-1894 0 c25 -19 9 -19 -24 0 -14 8 -19 14 -10 14 8 0 24 -6 34 -14z m1
-36 c5 -5 -5 -4 -23 2 -17 6 -32 13 -32 16 0 7 43 -8 55 -18z m2432 -11 c-3
-7 -5 -2 -5 12 0 14 2 19 5 13 2 -7 2 -19 0 -25z m-567 -7 c0 -5 -13 -11 -30
-13 -24 -4 -27 -2 -19 9 13 15 49 18 49 4z m-326 -16 c-4 -8 -11 -15 -16 -15
-6 0 -5 6 2 15 7 8 14 15 16 15 2 0 1 -7 -2 -15z m-1014 -8 c0 -2 -17 -19 -37
-38 l-38 -34 34 38 c33 34 41 42 41 34z m855 -93 c-25 -55 -45 -65 -45 -23 0
43 16 70 38 62 14 -6 15 -4 5 8 -10 12 -10 18 0 28 22 22 24 -29 2 -75z m621
31 c-50 -61 -57 -58 -9 4 21 27 40 47 42 45 2 -2 -13 -24 -33 -49z m-1748 26
c14 -1 17 -31 3 -31 -5 0 -12 6 -15 13 -4 6 -4 2 -2 -10 3 -20 1 -21 -15 -12
-11 5 -16 15 -13 21 4 6 3 8 -4 5 -14 -9 -43 3 -36 14 3 5 19 7 37 5 18 -2 38
-4 45 -5z m-1584 -53 c27 -14 45 -28 39 -31 -5 -3 -39 -3 -74 1 -63 7 -64 8
-67 39 -3 31 -2 32 25 24 16 -5 50 -19 77 -33z m1760 -13 c-9 -14 -18 -25 -21
-25 -5 0 5 18 20 38 17 22 18 13 1 -13z m46 11 c0 -3 -4 -8 -10 -11 -5 -3 -10
-1 -10 4 0 6 5 11 10 11 6 0 10 -2 10 -4z m30 -45 c0 -5 -8 -17 -17 -28 -10
-10 -14 -12 -8 -5 8 12 6 14 -12 8 -27 -9 -39 9 -16 23 22 13 53 14 53 2z m-7
-88 c-7 -2 -19 -2 -25 0 -7 3 -2 5 12 5 14 0 19 -2 13 -5z m991 -58 c-4 -8
-10 -15 -16 -15 -5 0 -6 -6 -2 -12 5 -9 3 -9 -7 0 -12 11 -11 15 5 28 25 18
27 18 20 -1z m755 -72 c-56 -75 -191 -209 -221 -218 -20 -7 -21 -6 -9 9 8 9
10 20 6 24 -4 4 -10 1 -12 -5 -8 -21 -23 -15 -23 10 0 19 -10 13 -63 -40 -34
-35 -88 -84 -119 -109 -32 -25 -55 -51 -51 -57 3 -6 1 -7 -5 -3 -7 4 -12 2
-12 -3 0 -6 -8 -11 -17 -11 -20 1 -17 4 126 124 49 42 80 75 79 85 -2 9 3 15
10 13 8 -1 11 2 8 7 -4 5 19 32 51 60 59 53 86 62 40 13 -33 -35 -34 -42 -2
-42 14 0 25 -5 25 -10 0 -29 78 41 170 152 30 37 56 65 58 63 2 -2 -16 -30
-39 -62z m-929 0 c0 -18 -25 -16 -40 2 -10 12 -10 18 1 31 12 14 14 14 26 -2
7 -10 13 -24 13 -31z m-2657 22 c-3 -9 -8 -14 -10 -11 -3 3 -2 9 2 15 9 16 15
13 8 -4z m-23 -20 c0 -9 -9 -15 -22 -15 -22 1 -23 1 -4 15 25 19 26 19 26 0z
m1775 5 c3 -5 15 -10 26 -10 10 0 19 -4 19 -10 0 -13 -10 -13 -49 1 -17 6 -31
15 -31 20 0 12 27 11 35 -1z m-1035 -54 c0 -47 -7 -76 -19 -76 -5 0 -20 22
-34 48 -30 55 -24 72 25 72 26 0 28 -2 28 -44z m-713 -18 c-3 -7 -5 -2 -5 12
0 14 2 19 5 13 2 -7 2 -19 0 -25z m2673 28 c0 -2 -8 -10 -17 -17 -16 -13 -17
-12 -4 4 13 16 21 21 21 13z m-45 -36 c-3 -5 2 -10 11 -10 14 0 15 -3 6 -12
-10 -10 -15 -10 -22 2 -8 13 -5 30 6 30 3 0 2 -4 -1 -10z m-2638 -32 c-3 -8
-6 -5 -6 6 -1 11 2 17 5 13 3 -3 4 -12 1 -19z m2608 5 c-2 -10 -4 -22 -4 -27
-1 -5 -7 -3 -14 3 -8 6 -16 10 -18 8 -3 -1 4 6 14 16 11 9 21 17 22 17 2 0 2
-8 0 -17z m-553 -35 c-7 -7 -12 -8 -12 -2 0 14 12 26 19 19 2 -3 -1 -11 -7
-17z m-2222 -52 c0 -10 -34 2 -38 13 -3 10 0 10 17 2 11 -7 21 -13 21 -15z
m1120 -23 c-18 -56 -119 -255 -140 -277 -16 -16 -21 -17 -54 -5 -49 18 -45 32
7 24 32 -5 46 -3 55 8 10 12 5 18 -30 32 -49 20 -37 31 17 16 l36 -10 45 92
c25 51 50 109 56 130 6 20 13 35 16 33 2 -3 -2 -22 -8 -43z m1433 -68 c-3 -9
-8 -14 -10 -11 -3 3 -2 9 2 15 9 16 15 13 8 -4z m497 -55 c0 -5 -5 -10 -11
-10 -5 0 -7 5 -4 10 3 6 8 10 11 10 2 0 4 -4 4 -10z m-2956 -66 c13 -5 13 -11
-5 -47 -18 -35 -23 -38 -31 -23 -5 9 -6 25 -2 34 4 9 6 23 5 30 -2 13 9 15 33
6z m2995 -65 c-12 -10 -26 -19 -31 -19 -5 0 -6 -6 -2 -12 5 -9 3 -9 -9 1 -9 7
-14 18 -11 23 3 5 8 7 11 4 3 -3 14 4 26 14 11 11 24 17 29 14 5 -3 -1 -14
-13 -25z m1324 -55 c-9 -19 -22 -32 -27 -29 -6 3 -19 8 -28 11 -15 5 -12 11
18 35 45 35 59 29 37 -17z m-3510 10 c-3 -8 -9 -14 -15 -14 -5 0 -6 -4 -3 -10
3 -5 2 -10 -4 -10 -5 0 -22 -11 -37 -25 -15 -14 -34 -23 -42 -20 -10 4 -12 0
-8 -10 3 -9 2 -13 -4 -10 -18 11 -10 27 33 69 42 41 92 60 80 30z m-665 -17
c16 -19 33 -67 24 -67 -5 0 -18 18 -31 40 -21 38 -16 55 7 27z m722 10 c0 -2
-10 -12 -22 -23 l-23 -19 19 23 c18 21 26 27 26 19z m-849 -112 c-5 -47 -9
-63 -10 -40 -1 47 12 157 16 135 2 -8 -1 -51 -6 -95z m4209 97 c0 -12 -60 -65
-67 -58 -4 3 6 20 22 36 28 29 45 38 45 22z m-1300 -66 c0 -2 -8 -10 -17 -17
-16 -13 -17 -12 -4 4 13 16 21 21 21 13z m1215 -17 c0 -7 -26 -26 -57 -42 -32
-16 -58 -33 -58 -38 0 -5 -7 -9 -15 -9 -8 0 -15 4 -15 10 0 13 78 69 107 76
12 4 20 11 17 16 -4 6 -1 9 7 6 8 -3 14 -11 14 -19z m-1430 -39 c-3 -5 -10
-10 -16 -10 -5 0 -9 5 -9 10 0 6 7 10 16 10 8 0 12 -4 9 -10z m-4685 -29 c0
-11 -39 -25 -47 -18 -3 3 -2 10 2 16 8 13 45 15 45 2z m58 -1 c12 0 13 -3 5
-11 -8 -8 -17 -7 -35 6 -16 12 -18 16 -5 11 10 -3 26 -6 35 -6z m-1303 -80 c3
-5 -1 -10 -9 -10 -9 0 -16 5 -16 10 0 6 4 10 9 10 6 0 13 -4 16 -10z m2099 1
c3 -4 -4 -17 -17 -27 -22 -19 -22 -19 -4 2 9 11 14 24 10 27 -3 4 -4 7 0 7 3
0 8 -4 11 -9z m1510 -7 c9 -3 13 -10 10 -15 -3 -5 6 -14 20 -21 14 -6 26 -15
26 -20 0 -5 -13 -1 -30 9 -16 9 -30 23 -30 29 0 7 -6 15 -12 17 -7 3 -10 6 -6
6 3 1 13 -2 22 -5z m-3614 -24 c0 -5 -4 -10 -10 -10 -5 0 -10 5 -10 10 0 6 5
10 10 10 6 0 10 -4 10 -10z m1915 -18 c-3 -3 -11 0 -18 7 -9 10 -8 11 6 5 10
-3 15 -9 12 -12z m940 -59 c-4 -21 -7 -53 -6 -70 2 -38 -4 -42 -20 -12 -9 17
-8 20 2 14 9 -6 11 -3 6 9 -7 17 11 96 21 96 2 0 1 -17 -3 -37z m2535 13 c0
-3 -4 -8 -10 -11 -5 -3 -10 -1 -10 4 0 6 5 11 10 11 6 0 10 -2 10 -4z m2140
-12 c0 -8 -4 -12 -10 -9 -5 3 -10 10 -10 16 0 5 5 9 10 9 6 0 10 -7 10 -16z
m-290 -9 c-13 -16 -80 -21 -80 -7 0 16 14 22 53 22 34 0 38 -2 27 -15z m-3554
-19 c3 -23 -20 -15 -24 8 -3 11 1 17 9 14 7 -2 13 -12 15 -22z m-13 -22 c9 -3
12 -14 9 -29 -2 -14 -9 -22 -14 -19 -5 3 -7 12 -4 20 3 8 1 14 -4 14 -6 0 -10
5 -10 10 0 12 3 12 23 4z m1642 -14 c3 -5 1 -10 -4 -10 -6 0 -11 5 -11 10 0 6
2 10 4 10 3 0 8 -4 11 -10z m964 -31 c-5 -10 -16 -19 -24 -19 -8 0 -15 -5 -15
-11 0 -6 -7 -9 -15 -6 -8 4 -17 2 -20 -3 -3 -4 1 -11 7 -13 8 -3 6 -6 -4 -6
-10 -1 -18 5 -18 12 0 6 -11 -1 -24 -18 -20 -24 -27 -28 -37 -17 -11 10 -9 12
9 12 12 0 22 4 22 9 0 14 -23 19 -42 9 -11 -5 -18 -5 -18 1 0 12 48 24 62 15
7 -5 8 -2 3 6 -6 9 -2 10 15 5 15 -5 20 -4 16 4 -5 7 3 11 23 11 16 0 33 5 36
10 4 6 3 10 -2 9 -19 -3 -27 2 -14 10 7 5 22 6 32 4 15 -4 16 -9 8 -24z
m-3872 -152 c-43 -98 -56 -112 -24 -25 29 76 47 112 53 106 2 -3 -11 -39 -29
-81z m2602 57 c-7 -9 -12 -29 -11 -44 2 -20 -3 -33 -20 -44 -29 -21 -62 -22
-35 -2 14 11 15 15 5 19 -10 4 -10 8 2 16 13 10 13 11 0 12 -8 1 -19 1 -25 -1
-18 -3 8 17 50 39 48 25 51 26 34 5z m1111 2 c0 -2 -7 -7 -16 -10 -8 -3 -12
-2 -9 4 6 10 25 14 25 6z m-3800 -23 c-1 -18 -18 -35 -24 -24 -4 6 -4 16 -1
21 7 12 25 13 25 3z m1464 -12 c3 -4 -6 -6 -19 -3 -14 2 -25 6 -25 8 0 8 39 4
44 -5z m-908 -29 c-3 -6 -15 -8 -27 -5 -12 4 -25 0 -29 -8 -5 -7 -12 -10 -16
-7 -9 9 18 35 42 40 22 5 39 -6 30 -20z m88 -11 c-5 -6 -34 20 -34 30 0 5 8 1
18 -8 10 -10 17 -20 16 -22z m-677 -27 c14 -49 12 -152 -5 -259 -8 -47 -9 -49
-19 -24 -6 14 -16 86 -23 160 -6 74 -13 140 -15 146 -4 13 24 34 40 30 5 -2
15 -26 22 -53z m1494 39 c10 3 17 2 14 -3 -3 -4 -16 -10 -30 -12 -14 -3 -23
-3 -21 0 3 3 -2 11 -12 19 -15 13 -14 13 7 3 12 -7 32 -10 42 -7z m183 -8 c-4
-8 -13 -15 -20 -15 -8 0 -17 -7 -21 -16 -3 -8 -12 -13 -19 -10 -7 3 -11 0 -8
-7 3 -8 -11 -13 -43 -14 -26 -1 -56 -6 -67 -12 -27 -13 -137 -30 -130 -20 2 4
28 15 57 24 28 10 56 21 62 26 5 5 18 9 28 9 10 0 33 6 50 14 80 36 119 43
111 21z m-1637 -47 c-3 -7 -5 -2 -5 12 0 14 2 19 5 13 2 -7 2 -19 0 -25z m107
-60 c-9 -34 -21 -67 -25 -72 -5 -5 -4 6 1 25 5 19 14 54 20 78 6 23 14 41 16
38 3 -3 -2 -34 -12 -69z m388 37 c13 -17 -1 -18 -27 -1 -31 21 -34 41 -2 24
12 -7 25 -17 29 -23z m238 25 c0 -5 -5 -10 -11 -10 -5 0 -7 5 -4 10 3 6 8 10
11 10 2 0 4 -4 4 -10z m760 -34 c0 -3 -15 -12 -32 -20 l-33 -16 24 20 c21 19
41 26 41 16z m3044 -26 c14 -5 26 -16 26 -24 0 -10 6 -13 15 -10 29 12 14 -14
-35 -60 -54 -50 -78 -56 -105 -26 -12 14 -25 18 -41 14 -31 -8 -30 4 4 44 24
30 42 39 80 41 7 1 11 5 8 10 -4 5 0 12 6 14 7 3 14 6 15 6 1 1 13 -3 27 -9z
m-3797 -22 c-3 -8 -6 -5 -6 6 -1 11 2 17 5 13 3 -3 4 -12 1 -19z m2839 -13 c1
-14 -2 -25 -7 -25 -10 0 -12 33 -2 43 3 4 7 7 7 7 1 0 2 -11 2 -25z m-2590
-65 c24 -21 16 -28 -28 -26 -48 3 -61 20 -23 30 14 4 23 11 20 17 -4 5 -3 18
1 27 6 14 9 12 11 -10 3 -14 11 -32 19 -38z m2568 11 c7 -10 -23 -20 -43 -13
-11 4 -11 6 0 13 18 11 36 11 43 0z m-54 -31 c0 -5 -2 -10 -4 -10 -3 0 -8 5
-11 10 -3 6 -1 10 4 10 6 0 11 -4 11 -10z m-3370 -6 c0 -8 -19 -13 -24 -6 -3
5 1 9 9 9 8 0 15 -2 15 -3z m627 -34 c-3 -11 -1 -20 4 -20 5 0 9 -8 9 -17 -1
-16 -2 -16 -13 -2 -7 9 -25 19 -42 24 l-30 7 35 13 c19 8 37 14 39 14 2 1 1
-8 -2 -19z m-1712 -36 c-9 -9 -19 -13 -23 -10 -3 4 0 11 8 16 24 15 33 11 15
-6z m4395 -24 c0 -5 -5 -10 -11 -10 -5 0 -7 5 -4 10 3 6 8 10 11 10 2 0 4 -4
4 -10z m-3080 -11 c0 7 5 9 10 6 6 -4 4 -12 -5 -22 -12 -12 -19 -13 -30 -3
-14 12 -19 7 -16 -13 1 -5 -3 -6 -8 -3 -5 4 -12 2 -16 -4 -3 -5 2 -10 12 -10
15 0 15 -2 3 -10 -16 -10 -43 6 -34 21 11 19 -14 8 -36 -16 -13 -14 -29 -24
-36 -21 -6 2 -22 -3 -35 -11 -19 -13 -18 -10 4 12 21 20 26 30 17 35 -8 5 11
13 46 20 32 7 68 15 79 20 11 4 26 3 33 -2 8 -7 12 -7 12 1z m3045 -19 c-5 -8
-11 -8 -17 -2 -6 6 -7 16 -3 22 5 8 11 8 17 2 6 -6 7 -16 3 -22z m-4588 -7
c-16 -16 -18 -16 -34 0 -16 16 -15 17 17 17 32 0 33 -1 17 -17z m2926 -15 c7
-26 -4 -35 -78 -60 -61 -21 -78 -22 -45 -2 20 12 21 14 5 12 -12 -2 -21 4 -23
16 -4 17 -3 18 19 2 27 -19 43 -21 33 -4 -4 6 -3 8 4 5 14 -9 43 3 36 14 -3 5
-22 7 -42 4 l-37 -5 40 19 c55 27 81 26 88 -1z m1648 6 c7 -9 14 -25 16 -36 3
-16 -1 -18 -19 -12 -28 8 -26 6 -28 24 -6 42 7 52 31 24z m89 6 c0 -5 -5 -10
-11 -10 -5 0 -7 5 -4 10 3 6 8 10 11 10 2 0 4 -4 4 -10z m-40 -31 c0 -5 -4 -9
-10 -9 -5 0 -10 7 -10 16 0 8 5 12 10 9 6 -3 10 -10 10 -16z m-97 -75 c0 -13
5 -24 13 -24 7 0 16 -4 19 -10 4 -6 -10 -9 -34 -8 -40 1 -49 11 -41 43 1 6 2
17 2 25 0 8 2 21 4 29 7 21 37 -24 37 -55z m-1380 34 c4 -13 -1 -31 -13 -45
-10 -13 -16 -31 -13 -38 5 -14 -19 -46 -34 -46 -4 0 -18 -2 -31 -6 -12 -3 -28
0 -36 6 -7 6 -15 8 -18 6 -3 -3 0 13 6 36 8 32 18 45 48 60 21 11 38 24 38 30
0 6 7 9 15 5 8 -3 15 -1 15 4 0 19 18 10 23 -12z m1867 -53 c-8 -9 -25 -13
-51 -10 -21 2 -41 0 -44 -5 -3 -5 6 -7 20 -4 22 4 19 -2 -26 -45 -29 -28 -61
-52 -73 -53 -12 -2 -26 -12 -33 -23 -7 -11 -12 -14 -13 -7 0 6 -5 12 -12 12
-6 0 -8 -3 -5 -7 4 -3 2 -12 -5 -20 -9 -11 -14 -11 -29 3 -21 19 -26 50 -7 38
7 -5 9 -2 5 8 -5 15 20 48 38 48 4 0 14 8 22 18 8 9 11 10 7 3 -4 -9 6 -5 24
8 18 12 29 27 26 33 -4 6 2 5 15 -1 17 -10 25 -9 38 4 8 9 22 14 29 11 8 -3
14 0 14 6 0 6 8 17 18 24 14 10 20 9 35 -7 15 -16 16 -23 7 -34z m-2251 24
c-22 -14 -33 -10 -19 6 7 8 17 12 22 9 6 -4 5 -10 -3 -15z m1711 13 c0 -5 -15
-24 -34 -43 -35 -36 -106 -141 -106 -158 0 -10 -78 -36 -85 -29 -5 5 64 78 74
78 6 0 13 9 16 20 3 11 11 20 16 20 5 0 8 3 8 8 -3 19 2 33 11 27 5 -3 17 12
26 34 9 22 23 42 32 44 29 8 42 7 42 -1z m235 -2 c3 -5 1 -10 -4 -10 -6 0 -11
5 -11 10 0 6 2 10 4 10 3 0 8 -4 11 -10z m-4188 -36 c-3 -3 -12 -4 -19 -1 -8
3 -5 6 6 6 11 1 17 -2 13 -5z m-92 -9 c-23 -8 -83 -10 -79 -3 3 4 24 8 47 7
23 0 38 -2 32 -4z m3519 -11 c13 -33 5 -63 -21 -84 -20 -16 -28 -18 -35 -8 -6
10 -8 10 -8 1 0 -7 -18 -21 -40 -32 -22 -10 -40 -15 -40 -10 0 6 -4 8 -9 5
-21 -13 -41 6 -35 33 5 25 5 26 -11 6 -12 -14 -19 -16 -22 -7 -3 6 -11 12 -18
12 -32 0 -24 60 9 61 54 2 112 11 120 20 6 5 19 1 33 -13 22 -21 23 -21 23 -1
0 11 3 23 7 26 12 13 41 7 47 -9z m-3627 0 c-3 -3 -12 -4 -19 -1 -8 3 -5 6 6
6 11 1 17 -2 13 -5z m2883 -36 l30 -33 -26 -22 c-14 -13 -28 -23 -32 -23 -13
0 -35 44 -42 81 -6 33 -5 36 17 33 13 -1 37 -17 53 -36z m-2870 -8 c-8 -5 -28
-9 -45 -9 -29 1 -29 1 -5 9 14 4 34 8 45 9 16 1 17 -1 5 -9z m4140 -4 c0 -2
-7 -9 -15 -16 -12 -10 -15 -10 -15 4 0 9 7 16 15 16 8 0 15 -2 15 -4z m-2100
-36 c0 -5 -6 -10 -14 -10 -8 0 -18 5 -21 10 -3 6 3 10 14 10 12 0 21 -4 21
-10z m258 -47 c2 -13 -2 -23 -8 -23 -6 0 -10 -6 -9 -12 4 -36 -1 -41 -21 -23
-41 37 -34 83 13 81 15 -1 23 -8 25 -23z m479 -40 c7 -17 -44 -96 -59 -91 -19
7 -47 51 -50 77 -4 34 33 53 74 39 16 -6 32 -17 35 -25z m-4179 10 c-10 -2
-26 -2 -35 0 -10 3 -2 5 17 5 19 0 27 -2 18 -5z m115 0 c-18 -2 -48 -2 -65 0
-18 2 -4 4 32 4 36 0 50 -2 33 -4z m2952 -23 c3 -5 1 -10 -4 -10 -6 0 -11 5
-11 10 0 6 2 10 4 10 3 0 8 -4 11 -10z m509 -9 c3 -5 -1 -22 -9 -37 l-15 -29
0 38 c0 35 12 48 24 28z m-729 -16 c-41 -14 -103 -20 -93 -9 6 6 91 22 118 22
8 0 -3 -6 -25 -13z m-105 -26 c0 -6 -6 -9 -13 -6 -8 3 -45 -1 -82 -9 -38 -8
-73 -13 -79 -11 -11 4 121 34 157 36 9 0 17 -4 17 -10z m2480 1 c0 -5 -7 -10
-16 -10 -8 0 -12 5 -9 10 3 6 10 10 16 10 5 0 9 -4 9 -10z m-2451 -35 c-3 -3
-21 -7 -40 -11 -26 -4 -30 -3 -19 5 8 6 23 11 33 11 12 0 16 5 11 13 -5 9 -4
9 6 0 8 -7 11 -15 9 -18z m70 14 c-17 -11 -59 -12 -59 -1 0 4 16 8 36 8 24 1
31 -1 23 -7z m1205 -2 l30 -13 -38 -42 c-21 -23 -42 -42 -47 -42 -5 0 -9 25
-9 55 0 61 8 66 64 42z m-1496 -12 c-2 -3 -36 -11 -74 -19 -38 -8 -98 -22
-134 -31 -36 -9 -81 -15 -100 -13 -25 2 8 12 110 34 137 30 209 40 198 29z
m10 -49 c-10 -7 -15 -15 -12 -18 3 -4 0 -9 -7 -14 -8 -5 -10 -3 -4 5 11 19
-87 2 -101 -17 -7 -10 -22 -13 -50 -10 -47 6 -295 -32 -288 -44 3 -5 -6 -6
-21 -2 -19 5 -25 3 -23 -7 2 -11 -13 -14 -67 -15 -93 0 -197 -13 -215 -25 -10
-7 -3 -8 25 -3 72 12 32 -3 -54 -20 -85 -17 -119 -15 -63 5 18 6 32 14 32 18
0 15 98 52 123 46 14 -4 62 0 108 8 46 9 107 19 134 23 28 4 59 8 70 10 11 2
67 12 125 23 58 12 130 23 160 26 30 3 73 10 95 14 22 5 42 9 45 10 3 0 -3 -6
-12 -13z m3062 6 c0 -5 -11 -14 -25 -20 -17 -8 -23 -17 -19 -29 5 -15 4 -16
-6 -3 -9 12 -13 12 -17 2 -3 -7 -12 -18 -20 -25 -25 -21 -58 -55 -76 -79 -14
-18 -20 -20 -26 -10 -12 19 -19 17 -53 -15 -17 -15 -28 -22 -23 -14 4 8 2 17
-5 21 -13 8 -6 16 65 79 17 15 37 26 65 36 50 17 114 49 118 58 5 10 22 9 22
-1z m-3433 -28 c-3 -3 -12 -4 -19 -1 -8 3 -5 6 6 6 11 1 17 -2 13 -5z m-52
-14 c-11 -5 -31 -9 -45 -9 -23 0 -23 1 -5 9 11 5 31 9 45 9 23 0 23 -1 5 -9z
m3530 -20 c-3 -5 -11 -10 -16 -10 -6 0 -7 5 -4 10 3 6 11 10 16 10 6 0 7 -4 4
-10z m-6112 -17 c-62 -2 -164 -2 -225 0 -62 1 -12 3 112 3 124 0 174 -2 113
-3z m6264 -39 c7 14 12 15 18 6 4 -6 2 -17 -4 -23 -18 -18 -13 -28 8 -15 10 6
17 17 14 24 -2 6 0 15 5 18 15 9 23 -53 10 -77 -7 -12 -13 -31 -15 -42 -5 -32
-25 -65 -40 -65 -8 0 -11 -5 -8 -10 4 -6 11 -7 17 -4 7 4 8 2 4 -4 -4 -7 -17
-12 -29 -13 -12 0 -16 -3 -9 -6 6 -2 12 -11 12 -19 0 -8 5 -14 10 -14 18 0 11
-36 -7 -38 -68 -10 -68 -10 -71 36 -4 59 -25 50 -36 -16 -9 -54 -20 -66 -31
-32 -6 20 -8 19 -53 -7 -26 -14 -52 -32 -58 -39 -13 -16 -94 -29 -94 -15 0 5
-15 6 -34 1 -19 -4 -37 -5 -40 -2 -3 2 -9 -3 -12 -12 -5 -13 -9 -15 -15 -5 -6
10 -11 10 -25 -2 -9 -8 -25 -13 -35 -11 -10 2 -20 -5 -24 -18 -4 -14 -15 -20
-36 -20 -32 0 -37 15 -14 46 16 21 20 60 7 68 -18 11 -52 -7 -58 -30 -3 -13
-11 -21 -16 -18 -6 4 -8 -2 -3 -15 5 -15 2 -21 -9 -21 -9 0 -16 7 -16 15 0 19
-2 19 -47 -5 -29 -15 -45 -17 -68 -11 -17 5 -24 10 -17 10 6 1 12 10 12 21 0
24 45 70 68 70 9 0 24 7 34 17 16 14 22 14 43 3 23 -12 28 -11 51 11 18 16 28
20 31 12 6 -17 43 -17 68 0 11 7 37 18 57 25 46 16 147 73 176 100 13 11 28
16 45 13 4 0 7 4 7 10 0 6 7 9 15 5 8 -3 15 -2 15 2 0 9 93 52 112 52 8 0 25
13 38 29 20 23 26 26 31 13 5 -14 7 -14 16 2z m-6529 -1 c-15 -2 -42 -2 -60 0
-18 2 -6 4 27 4 33 0 48 -2 33 -4z m170 -10 c-15 -2 -42 -2 -60 0 -18 2 -6 4
27 4 33 0 48 -2 33 -4z m6992 -58 c0 -11 -42 -25 -53 -18 -8 5 -2 10 18 14 17
4 31 7 33 8 1 0 2 -1 2 -4z m-2938 -22 c-9 -4 -7 -10 8 -23 18 -15 18 -19 5
-24 -9 -3 -14 -10 -10 -15 7 -13 -6 -20 -49 -26 -27 -3 -39 0 -43 11 -4 12 -8
10 -18 -8 -16 -31 -10 -39 21 -28 37 15 54 11 19 -4 -30 -12 -30 -12 -6 -19
16 -4 22 -11 18 -21 -4 -9 -3 -16 2 -16 5 0 11 -16 13 -35 4 -37 -7 -45 -32
-22 -12 10 -12 9 -4 -3 15 -22 11 -44 -8 -48 -13 -3 -16 1 -11 14 4 11 2 15
-4 11 -6 -4 -27 -8 -47 -11 -27 -3 -36 -1 -36 10 0 8 5 14 10 14 6 0 10 5 10
11 0 5 -4 7 -10 4 -15 -9 -12 21 3 34 8 6 17 8 20 4 4 -3 8 5 9 18 2 39 5 53
11 69 3 8 7 26 9 40 2 18 10 26 27 28 13 2 27 -1 31 -8 5 -8 11 -6 20 5 10 13
10 15 -6 15 -35 0 13 27 51 28 6 0 4 -2 -3 -5z m3808 -13 c0 -10 -39 -34 -46
-28 -2 2 3 14 12 26 14 21 34 22 34 2z m-1080 -20 c-8 -5 -22 -9 -30 -9 -10 0
-8 3 5 9 27 12 43 12 25 0z m-355 -10 c-3 -5 -10 -10 -16 -10 -5 0 -9 5 -9 10
0 6 7 10 16 10 8 0 12 -4 9 -10z m1260 -40 c20 19 27 21 40 10 21 -18 19 -30
-12 -62 -20 -21 -23 -28 -11 -28 9 0 29 -10 45 -23 15 -13 36 -26 46 -30 15
-6 25 -37 12 -37 -3 0 -32 14 -65 30 -33 17 -62 30 -65 30 -3 0 -5 -16 -5 -35
0 -28 -4 -35 -19 -35 -16 0 -19 7 -19 53 1 63 -11 119 -26 129 -10 7 -6 9 34
21 10 2 16 -4 18 -21 l4 -24 23 22z m352 -9 c8 -28 7 -44 -3 -62 -19 -34 -17
-52 7 -84 l22 -27 -24 4 c-19 2 -25 10 -27 36 -3 32 -16 42 -25 20 -4 -8 -8
-4 -12 10 -9 29 -25 28 -25 -1 0 -30 -6 -36 -31 -30 -14 4 -18 11 -13 22 4 9
8 34 10 56 7 72 13 87 36 83 14 -2 24 -12 28 -28 6 -24 6 -24 13 8 9 44 32 41
44 -7z m-1627 17 c0 -7 -4 -19 -9 -26 -7 -11 -10 -10 -15 3 -3 9 -4 21 0 26 8
13 24 11 24 -3z m1075 -13 c14 -13 25 -29 25 -35 0 -19 -29 -69 -46 -78 -13
-7 -14 -15 -4 -51 6 -23 8 -46 5 -51 -15 -25 -35 -4 -70 75 -21 47 -44 85 -51
85 -16 0 -37 37 -29 50 8 13 63 28 108 29 28 1 45 -6 62 -24z m379 9 c23 -9
20 -24 -11 -57 -26 -27 -26 -29 -5 -18 18 10 27 10 38 0 22 -18 -3 -39 -53
-46 -35 -5 -43 -2 -62 22 -44 57 21 127 93 99z m352 -60 c11 -47 11 -48 18
-19 13 52 15 55 36 55 26 0 26 -8 -11 -117 -22 -68 -34 -90 -45 -86 -12 4 -20
45 -15 76 0 4 -3 7 -9 7 -5 0 -10 -11 -10 -25 0 -15 -6 -25 -14 -25 -24 0 -29
19 -11 47 18 27 14 94 -8 129 -10 17 1 23 31 15 22 -6 29 -16 38 -57z m-6219
15 c-22 -11 -41 -18 -44 -16 -6 7 48 36 67 36 8 0 -2 -9 -23 -20z m2053 7 c0
-2 -7 -7 -16 -10 -8 -3 -12 -2 -9 4 6 10 25 14 25 6z m-207 -20 c4 -10 1 -13
-8 -9 -8 3 -12 9 -9 14 7 12 11 11 17 -5z m4310 -23 c15 -33 -18 -77 -61 -81
-41 -4 -62 33 -44 73 22 48 84 52 105 8z m-6613 13 c0 -3 -4 -8 -10 -11 -5 -3
-10 -1 -10 4 0 6 5 11 10 11 6 0 10 -2 10 -4z m6072 -13 c24 -21 23 -44 -3
-77 -26 -33 -71 -35 -93 -4 -22 31 -20 45 9 73 28 29 61 32 87 8z m-4886 -51
c-1 -22 -17 -33 -36 -27 -20 6 -50 -14 -32 -22 17 -7 16 -63 -2 -63 -17 0 -27
-39 -24 -99 1 -33 -3 -47 -17 -57 -10 -8 -13 -14 -7 -14 7 0 12 -14 12 -34 0
-34 -1 -35 -47 -42 -27 -4 -59 -14 -73 -24 -14 -9 -38 -22 -55 -28 -16 -6 -24
-11 -17 -11 7 -1 10 -5 7 -11 -3 -5 -20 -7 -37 -3 -19 4 -29 2 -25 -4 3 -5 -8
-9 -26 -9 -44 0 -160 -14 -171 -22 -6 -3 -29 -5 -53 -3 -27 2 -43 -2 -43 -9 0
-6 4 -9 9 -5 11 6 26 -13 17 -22 -3 -3 -12 0 -20 6 -8 7 -21 9 -28 5 -7 -4 0
7 15 24 16 16 30 34 30 39 1 4 6 7 10 5 13 -4 42 22 42 38 0 8 8 14 17 14 10
-1 15 3 11 9 -3 5 2 16 12 24 11 7 15 13 11 13 -5 0 -3 7 4 15 11 13 10 14 -4
9 -9 -3 -16 -10 -16 -16 0 -5 -4 -6 -10 -3 -5 3 6 20 25 36 19 17 39 28 45 24
5 -3 16 -3 23 2 6 4 21 8 32 8 11 0 19 6 17 13 -1 6 4 11 10 10 7 -2 12 3 10
10 -1 8 2 11 7 8 5 -4 13 -1 18 7 4 7 20 18 36 24 15 7 27 17 27 23 0 6 -6 8
-12 5 -7 -4 4 10 26 29 21 20 43 33 47 30 5 -3 9 1 9 8 0 10 2 10 8 1 6 -10
12 -10 28 2 18 15 18 15 0 8 -14 -5 -17 -3 -12 6 5 7 17 11 27 8 11 -3 17 -1
14 3 -11 18 125 93 150 83 7 -2 12 -12 11 -21z m3914 8 c0 -5 -5 -10 -11 -10
-5 0 -7 5 -4 10 3 6 8 10 11 10 2 0 4 -4 4 -10z m-1123 -72 c-3 -8 -6 -5 -6 6
-1 11 2 17 5 13 3 -3 4 -12 1 -19z m197 -53 c3 -8 1 -15 -4 -15 -6 0 -10 7
-10 15 0 8 2 15 4 15 2 0 6 -7 10 -15z m-3343 -59 c-11 -13 -51 -29 -51 -20 0
3 51 33 59 34 2 0 -2 -6 -8 -14z m5190 -38 l2 -23 4 23 c2 12 11 22 19 22 8 0
15 -10 15 -22 2 -21 2 -21 6 -2 3 18 11 20 78 21 41 0 75 -4 75 -8 0 -5 -6 -9
-12 -10 -10 0 -10 -2 0 -6 6 -2 12 -10 12 -17 0 -10 -30 -13 -120 -14 l-120 0
-1 26 -2 27 -4 -27 c-6 -37 -20 -36 -25 2 -4 29 -3 30 34 30 32 0 38 -3 39
-22z m259 12 c0 -5 -4 -10 -10 -10 -5 0 -10 -4 -10 -10 0 -5 7 -10 15 -10 8 0
15 9 15 20 0 28 30 25 31 -2 2 -22 2 -22 6 -2 3 18 11 22 44 22 37 1 39 -1 39
-29 l0 -29 -79 1 c-71 1 -80 3 -85 22 -3 11 -3 24 0 29 7 11 34 10 34 -2z
m186 -5 c-8 -21 11 -19 23 3 9 15 12 15 21 2 6 -10 10 -11 10 -2 0 6 7 12 15
12 8 0 15 -6 16 -12 0 -10 2 -10 6 0 9 22 23 13 23 -16 0 -29 0 -29 -70 -30
l-70 -1 0 29 c0 21 5 30 16 30 10 0 14 -6 10 -15z m140 -7 c-1 -13 3 -26 9
-30 6 -5 3 -8 -7 -8 -13 0 -18 8 -18 30 0 17 4 30 9 30 4 0 8 -10 7 -22z
m-4137 -61 c19 -1 36 -7 38 -12 2 -7 -37 -10 -109 -9 -136 2 -131 2 -123 14 3
5 12 7 20 4 7 -3 22 -1 32 5 11 7 37 9 63 5 25 -3 60 -6 79 -7z m-229 -7 c0
-3 -13 -11 -28 -18 -16 -7 -35 -23 -42 -36 -14 -27 -64 -40 -93 -24 -15 7 -16
12 -6 24 6 8 19 14 28 14 9 0 22 5 28 11 21 21 58 36 85 35 16 0 28 -3 28 -6z
m2218 -58 c2 -7 -3 -12 -12 -12 -9 0 -16 7 -16 16 0 17 22 14 28 -4z m-3390
-83 c-3 -8 -7 -3 -11 10 -4 17 -3 21 5 13 5 -5 8 -16 6 -23z m2609 -23 c-9
-23 -37 -20 -37 3 0 21 20 33 34 20 5 -4 6 -15 3 -23z m76 19 c10 0 21 -6 26
-13 7 -11 9 -11 13 0 4 9 25 13 69 13 55 -1 64 -4 67 -20 3 -17 1 -17 -7 -5
-7 10 -11 11 -11 3 0 -7 -11 -13 -25 -13 -14 0 -25 6 -25 13 0 8 -4 7 -10 -3
-9 -13 -10 -13 -10 0 0 11 -2 12 -8 3 -13 -20 -91 -11 -108 12 -13 18 -14 18
-14 0 0 -10 -3 -16 -6 -12 -12 11 5 39 18 30 7 -4 21 -8 31 -8z m253 -24 c-10
-16 -36 -13 -43 5 -8 22 18 37 36 20 7 -8 10 -19 7 -25z m122 31 c9 9 12 8 12
-4 0 -9 11 -18 27 -21 26 -5 26 -4 8 9 -10 8 -17 14 -14 15 26 5 59 3 59 -3 0
-4 7 -5 15 -2 11 5 15 0 14 -17 -1 -19 -2 -20 -6 -6 -4 17 -6 17 -17 2 -6 -9
-20 -16 -31 -15 -11 0 -49 0 -84 0 -61 -1 -64 0 -50 16 9 11 9 15 2 10 -7 -4
-13 -3 -13 3 0 12 42 19 56 9 6 -4 16 -2 22 4z m448 -4 c4 -6 3 -8 -4 -4 -6 3
-13 2 -16 -3 -9 -14 13 -24 27 -12 7 5 26 9 43 9 17 -1 36 2 42 6 6 3 16 -2
22 -11 8 -13 13 -14 16 -5 7 15 70 16 79 1 4 -6 4 -13 0 -17 -4 -4 -10 -1 -13
7 -4 11 -6 11 -12 0 -7 -10 -11 -10 -24 0 -12 10 -16 10 -16 2 0 -15 -102 -12
-113 3 -6 8 -10 7 -14 -1 -7 -19 -40 -16 -47 4 -4 9 -1 20 6 25 17 10 16 10
24 -4z m-539 -30 c-3 -7 -5 -2 -5 12 0 14 2 19 5 13 2 -7 2 -19 0 -25z m246
-1 c-3 -5 -10 -4 -15 1 -6 6 -7 16 -3 22 6 9 9 9 16 -1 4 -7 5 -17 2 -22z
m117 22 c0 -3 21 -3 47 1 53 8 62 8 81 -3 17 -11 15 -27 -4 -27 -8 0 -12 5 -9
10 3 6 2 10 -4 10 -5 0 -11 -6 -14 -12 -3 -10 -9 -10 -28 1 -16 10 -24 10 -27
2 -5 -15 -62 -14 -63 2 0 10 -2 10 -6 0 -6 -16 -43 -17 -43 -2 0 6 -7 9 -14 6
-9 -4 -13 -1 -10 6 4 12 94 18 94 6z m470 -9 c-9 -6 -9 -9 1 -13 10 -4 9 -6
-3 -6 -9 -1 -18 5 -21 12 -3 9 -7 9 -20 -2 -15 -12 -17 -11 -17 6 0 16 6 18
36 15 22 -3 31 -7 24 -12z m54 5 c-4 -8 -1 -15 5 -15 6 0 11 8 11 18 0 13 2
14 9 3 6 -10 10 -10 16 -1 5 8 11 6 21 -7 13 -17 13 -17 14 2 0 17 2 17 10 5
6 -10 10 -11 10 -2 0 6 9 12 20 12 11 0 20 -5 20 -11 0 -6 -6 -9 -14 -6 -8 3
-16 1 -18 -5 -5 -13 -99 -20 -117 -8 -8 4 -10 13 -7 19 11 16 26 13 20 -4z
m183 -7 c-3 -8 -6 -5 -6 6 -1 11 2 17 5 13 3 -3 4 -12 1 -19z m76 5 c-4 -19
24 -16 31 4 6 15 8 15 20 -2 12 -16 13 -16 19 -1 8 21 23 21 23 -1 0 -15 -9
-18 -56 -17 -30 0 -59 2 -65 3 -5 2 -13 3 -17 2 -5 0 -8 5 -8 13 0 8 11 13 28
12 16 -1 26 -6 25 -13z m267 7 c0 -13 -11 -13 -30 0 -12 8 -11 10 8 10 12 0
22 -4 22 -10z m70 6 c0 -2 -6 -9 -13 -15 -10 -8 -14 -7 -14 4 0 8 6 15 14 15
7 0 13 -2 13 -4z m120 -16 c0 -23 -19 -26 -39 -7 -11 10 -14 10 -18 0 -6 -18
-33 -16 -33 1 0 10 13 16 38 19 20 2 40 4 45 5 4 1 7 -7 7 -18z m64 11 c3 -4
17 -6 31 -3 20 3 24 1 19 -12 -7 -19 -40 -21 -48 -3 -5 10 -7 10 -12 0 -7 -15
-30 -17 -39 -4 -3 5 0 13 6 17 8 4 9 3 5 -4 -4 -7 -2 -12 3 -12 6 0 11 7 11
15 0 16 16 20 24 6z m176 -11 c0 -15 -26 -18 -43 -5 -24 18 -21 22 13 17 17
-2 30 -8 30 -12z m330 -6 c0 -8 -4 -14 -10 -14 -5 0 -10 9 -10 21 0 11 5 17
10 14 6 -3 10 -13 10 -21z m181 18 c17 7 27 5 35 -6 12 -17 29 -22 19 -6 -3 6
-1 10 4 10 6 0 11 -7 11 -15 0 -18 -14 -19 -41 -5 -13 7 -19 7 -19 0 0 -13
-37 -13 -46 1 -3 6 -16 8 -28 4 -11 -4 -40 -9 -63 -12 -34 -4 -43 -2 -43 10 0
19 36 24 102 16 25 -3 57 -1 69 3z m129 -13 c-11 -19 -22 -24 -33 -13 -11 11
3 30 23 31 17 2 18 -1 10 -18z m236 7 c8 -3 13 -10 9 -15 -7 -12 -46 -11 -62
2 -8 6 -18 6 -26 -1 -14 -12 -35 -11 -54 1 -7 4 -21 3 -32 -3 -16 -8 -20 -7
-18 7 1 16 11 18 84 16 46 -1 91 -4 99 -7z m-5746 0 c0 -3 -4 -8 -10 -11 -5
-3 -10 -1 -10 4 0 6 5 11 10 11 6 0 10 -2 10 -4z m4345 -6 c-3 -5 -1 -10 6
-10 7 0 10 -3 7 -6 -4 -3 -16 -1 -27 6 -14 7 -21 7 -21 0 0 -5 -4 -10 -10 -10
-5 0 -10 7 -10 15 0 10 10 15 31 15 17 0 28 -4 24 -10z m451 1 c-4 -5 0 -11 6
-14 7 -2 1 -4 -14 -4 -17 0 -28 5 -28 13 0 8 9 14 21 14 11 0 18 -4 15 -9z
m259 -1 c4 -6 4 -14 0 -18 -3 -3 -10 0 -14 7 -6 9 -11 10 -15 2 -5 -7 -15 -7
-33 2 -21 9 -27 9 -31 -1 -5 -16 -30 -15 -47 2 -12 11 -2 14 60 15 44 1 76 -3
80 -9z m105 1 c0 -17 -22 -24 -32 -10 -7 11 -11 11 -15 2 -7 -18 -33 -16 -33
2 0 11 11 15 40 15 22 0 40 -4 40 -9z m-5080 -32 c0 -5 -4 -9 -10 -9 -5 0 -10
7 -10 16 0 8 5 12 10 9 6 -3 10 -10 10 -16z m-605 -9 c-3 -5 -16 -15 -28 -21
-22 -12 -22 -12 -3 10 19 21 43 30 31 11z m1372 -29 c1 -14 -3 -18 -13 -14
-11 4 -12 9 -3 19 15 18 14 18 16 -5z m-1047 5 c0 -3 -4 -8 -10 -11 -5 -3 -10
-1 -10 4 0 6 5 11 10 11 6 0 10 -2 10 -4z m-361 -22 c6 4 11 0 11 -8 0 -9 -4
-16 -10 -16 -5 0 -10 -5 -10 -11 0 -7 -8 -18 -17 -26 -10 -8 -12 -11 -4 -7 9
4 12 2 9 -6 -2 -8 -13 -14 -25 -15 -26 -2 -25 26 2 40 11 6 21 19 23 29 3 15
0 18 -19 13 -23 -6 -23 -5 -5 8 14 11 22 12 27 4 4 -6 12 -8 18 -5z m1361 -24
c0 -6 4 -9 9 -8 5 2 9 0 10 -4 3 -23 -1 -30 -14 -24 -9 3 -15 0 -15 -9 0 -8
-7 -15 -15 -15 -19 0 -19 14 0 30 9 7 14 19 11 27 -3 7 -1 13 4 13 6 0 10 -5
10 -10z m-1460 -45 c-7 -9 -15 -13 -17 -11 -7 7 7 26 19 26 6 0 6 -6 -2 -15z"/>
<path d="M6620 4165 c0 -8 4 -15 10 -15 5 0 7 7 4 15 -4 8 -8 15 -10 15 -2 0
-4 -7 -4 -15z"/>
<path d="M6680 4160 c0 -5 5 -10 11 -10 5 0 7 5 4 10 -3 6 -8 10 -11 10 -2 0
-4 -4 -4 -10z"/>
<path d="M7700 4096 c0 -2 7 -7 16 -10 8 -3 12 -2 9 4 -6 10 -25 14 -25 6z"/>
<path d="M7760 4063 c14 -9 40 -30 59 -47 l34 -31 -22 33 c-12 18 -35 39 -51
47 -39 20 -50 19 -20 -2z"/>
<path d="M7900 3709 c0 -9 -23 -62 -51 -119 -34 -71 -49 -113 -47 -134 3 -29
5 -26 28 31 14 35 29 59 35 55 5 -3 4 2 -4 11 -12 15 -12 17 1 12 10 -4 19 6
30 34 11 28 13 41 5 44 -8 2 -6 12 5 29 11 16 13 30 7 39 -7 12 -9 11 -9 -2z"/>
<path d="M7932 3600 c0 -19 2 -27 5 -17 2 9 2 25 0 35 -3 9 -5 1 -5 -18z"/>
<path d="M7888 3513 c-16 -44 -79 -161 -122 -225 -10 -16 -16 -28 -13 -28 8 0
110 160 130 204 25 54 37 96 29 96 -4 0 -15 -21 -24 -47z"/>
<path d="M7689 3183 c-13 -16 -12 -17 4 -4 9 7 17 15 17 17 0 8 -8 3 -21 -13z"/>
<path d="M7205 2809 c-9 -14 -2 -20 14 -10 8 6 9 11 3 15 -6 3 -14 1 -17 -5z"/>
<path d="M6325 2180 c-3 -6 1 -7 9 -4 18 7 21 14 7 14 -6 0 -13 -4 -16 -10z"/>
<path d="M6365 3950 c3 -5 8 -10 11 -10 2 0 4 5 4 10 0 6 -5 10 -11 10 -5 0
-7 -4 -4 -10z"/>
<path d="M5400 3611 c0 -7 -4 -10 -8 -7 -5 3 -9 -1 -9 -9 0 -8 4 -15 9 -15 11
0 22 29 14 37 -3 4 -6 1 -6 -6z"/>
<path d="M4720 3321 l-25 -8 25 -4 c16 -3 31 -16 42 -39 13 -26 17 -30 18 -15
0 11 -7 30 -15 41 -8 12 -11 24 -8 28 8 7 -4 6 -37 -3z"/>
<path d="M4590 3255 c-18 -19 -20 -25 -8 -25 17 0 30 -32 19 -47 -3 -5 -14
-12 -23 -16 -10 -3 -18 -13 -18 -22 0 -8 -4 -15 -10 -15 -5 0 -10 -4 -10 -10
0 -18 76 -11 93 8 21 24 21 30 0 28 -25 -2 -28 30 -4 51 26 22 26 35 3 56 -17
16 -20 15 -42 -8z"/>
<path d="M4107 3123 c-3 -5 0 -17 4 -28 9 -19 9 -19 5 2 -3 17 2 23 23 26 l26
4 -27 2 c-15 0 -29 -2 -31 -6z"/>
<path d="M4196 2774 c-9 -24 -7 -28 9 -14 17 14 20 30 6 30 -5 0 -12 -7 -15
-16z"/>
<path d="M5820 1920 c-9 -6 -10 -10 -3 -10 6 0 15 5 18 10 8 12 4 12 -15 0z"/>
<path d="M6566 1492 c-3 -5 1 -9 9 -9 8 0 12 4 9 9 -3 4 -7 8 -9 8 -2 0 -6 -4
-9 -8z"/>
<path d="M5820 1280 c0 -11 5 -20 10 -20 6 0 10 9 10 20 0 11 -4 20 -10 20 -5
0 -10 -9 -10 -20z"/>
<path d="M2908 933 c6 -2 18 -2 25 0 6 3 1 5 -13 5 -14 0 -19 -2 -12 -5z"/>
<path d="M5971 584 c0 -11 3 -14 6 -6 3 7 2 16 -1 19 -3 4 -6 -2 -5 -13z"/>
<path d="M7828 724 c-11 -10 8 -59 23 -59 18 0 25 45 7 56 -15 10 -23 11 -30
3z"/>
<path d="M8197 733 c-10 -9 -9 -43 1 -43 10 0 42 33 42 43 0 9 -35 9 -43 0z"/>
<path d="M8473 684 c-7 -20 10 -37 33 -32 23 4 30 26 7 24 -10 0 -17 5 -15 12
3 18 -18 15 -25 -4z"/>
<path d="M7944 665 c-4 -9 -2 -21 4 -27 15 -15 46 -5 50 17 2 15 1 16 -6 7 -7
-11 -12 -10 -26 3 -15 15 -17 15 -22 0z"/>
<path d="M3025 560 c3 -5 8 -10 11 -10 2 0 4 5 4 10 0 6 -5 10 -11 10 -5 0 -7
-4 -4 -10z"/>
<path d="M2855 504 c-16 -13 -25 -24 -19 -24 15 0 61 37 54 43 -3 3 -18 -6
-35 -19z"/>
<path d="M6145 190 c3 -5 8 -10 11 -10 2 0 4 5 4 10 0 6 -5 10 -11 10 -5 0 -7
-4 -4 -10z"/>
<path d="M6790 5623 c0 -4 5 -15 10 -23 8 -13 10 -13 10 2 0 9 -4 20 -10 23
-5 3 -10 3 -10 -2z"/>
<path d="M0 5533 c0 -16 26 -16 110 1 l65 12 -87 0 c-63 -1 -88 -5 -88 -13z"/>
<path d="M75 5515 c-44 -7 -64 -13 -45 -13 19 0 73 6 120 13 48 7 67 13 45 12
-22 0 -76 -5 -120 -12z"/>
<path d="M6851 5485 c1 -19 18 -51 18 -35 0 8 -4 22 -9 30 -5 8 -9 11 -9 5z"/>
<path d="M5176 5375 c-9 -26 -7 -32 5 -12 6 10 9 21 6 23 -2 3 -7 -2 -11 -11z"/>
<path d="M5066 5364 c-8 -21 11 -44 35 -44 12 0 19 7 19 20 0 11 -7 20 -15 20
-8 0 -15 5 -15 10 0 16 -17 12 -24 -6z"/>
<path d="M5196 5354 c-8 -31 -3 -39 19 -31 19 8 20 31 1 46 -11 9 -15 6 -20
-15z"/>
<path d="M6480 5364 c0 -10 8 -26 18 -37 9 -11 11 -17 5 -13 -20 11 -16 -1 15
-47 15 -23 27 -48 27 -56 0 -8 6 -16 13 -18 21 -8 13 30 -22 104 -35 72 -56
98 -56 67z"/>
<path d="M334 5316 l29 -24 -24 -4 c-23 -3 -22 -5 16 -31 22 -15 50 -27 63
-27 23 0 112 -56 112 -70 0 -17 -91 -70 -119 -70 -31 0 -31 0 -31 -55 l0 -55
54 0 c54 0 76 12 191 100 6 5 43 -16 84 -46 l73 -54 89 0 89 0 0 55 0 55 -66
0 c-57 0 -71 4 -110 30 -24 17 -44 34 -44 39 0 15 88 71 112 71 13 0 41 12 63
27 39 26 39 27 16 33 l-25 6 30 21 29 22 -93 1 -94 0 -61 -47 c-34 -25 -67
-50 -73 -54 -6 -5 -40 15 -82 46 l-72 55 -92 0 -93 -1 29 -23z m217 -59 c-6
-6 -19 -3 -35 11 -17 13 -22 22 -14 25 19 6 61 -24 49 -36z m186 -1 c-70 -56
-87 -66 -104 -66 -24 1 -88 56 -74 65 16 9 73 -34 64 -48 -5 -8 -2 -8 9 0 8 7
18 9 22 5 4 -4 6 -2 4 5 -4 16 73 72 91 65 11 -4 8 -10 -12 -26z m-294 11 c-3
-6 -1 -7 6 -3 15 9 73 -32 65 -46 -4 -6 -2 -8 3 -5 6 4 26 -7 43 -23 31 -29
32 -31 15 -50 -9 -10 -20 -19 -24 -18 -18 2 -32 -3 -27 -10 2 -4 -4 -8 -15 -8
-22 0 -24 -2 36 42 19 14 19 16 2 25 -9 6 -14 15 -11 21 4 7 2 8 -5 4 -6 -4
-28 6 -49 23 -21 16 -53 31 -72 33 -50 5 -52 28 -1 26 24 -1 38 -5 34 -11z
m457 -2 c-7 -8 -25 -15 -41 -15 -18 0 -51 -16 -89 -44 l-60 -44 37 -31 37 -30
-29 5 c-37 6 -47 13 -39 25 3 5 2 8 -3 7 -4 -2 -9 1 -10 6 -1 5 -6 12 -12 15
-15 10 -3 23 68 74 53 40 70 47 108 47 39 0 44 -2 33 -15z m-250 -105 c0 -5
-7 -10 -15 -10 -8 0 -15 5 -15 10 0 6 7 10 15 10 8 0 15 -4 15 -10z m14 -43
c16 -12 16 -13 -3 -13 -11 0 -17 5 -14 10 4 5 -3 7 -15 4 -12 -4 -20 -2 -16 3
7 13 27 11 48 -4z"/>
<path d="M559 5143 c-13 -16 -12 -17 4 -4 16 13 21 21 13 21 -2 0 -10 -8 -17
-17z"/>
<path d="M1016 5313 c-35 -26 -37 -28 -16 -31 l22 -4 -23 -24 -22 -24 64 0
c55 0 70 -4 111 -32 27 -18 48 -35 48 -38 0 -3 -19 -18 -43 -35 -34 -24 -55
-31 -112 -35 l-70 -5 0 -50 0 -50 90 -2 90 -3 168 125 168 125 66 0 66 0 -22
24 -23 24 23 4 c21 3 19 5 -17 31 -31 21 -52 27 -91 27 -46 0 -57 -5 -122 -55
l-72 -55 -70 55 c-65 50 -75 55 -123 55 -40 0 -60 -6 -90 -27z"/>
<path d="M5270 5252 c0 -17 4 -34 10 -37 6 -4 8 6 6 25 -5 42 -16 51 -16 12z"/>
<path d="M911 5226 c-17 -20 6 -26 102 -26 74 0 85 -3 109 -25 28 -26 38 -30
38 -17 0 4 -15 17 -33 30 -28 19 -46 22 -121 22 -74 0 -87 2 -82 15 7 19 2 19
-13 1z"/>
<path d="M5143 5206 c12 -25 27 -26 27 -1 0 7 -7 16 -16 19 -23 9 -23 8 -11
-18z"/>
<path d="M843 5203 c9 -2 25 -2 35 0 9 3 1 5 -18 5 -19 0 -27 -2 -17 -5z"/>
<path d="M5210 5176 c0 -9 5 -16 10 -16 6 0 10 4 10 9 0 6 -4 13 -10 16 -5 3
-10 -1 -10 -9z"/>
<path d="M253 5173 c37 -2 96 -2 130 0 34 2 4 3 -68 3 -72 0 -99 -1 -62 -3z"/>
<path d="M1648 5173 c7 -3 16 -2 19 1 4 3 -2 6 -13 5 -11 0 -14 -3 -6 -6z"/>
<path d="M1698 5173 c7 -3 16 -2 19 1 4 3 -2 6 -13 5 -11 0 -14 -3 -6 -6z"/>
<path d="M5460 5162 c0 -5 10 -17 22 -28 l21 -19 -18 28 c-18 28 -25 33 -25
19z"/>
<path d="M253 5143 c37 -2 97 -2 135 0 37 2 6 3 -68 3 -74 0 -105 -1 -67 -3z"/>
<path d="M1563 5143 c32 -2 81 -2 110 0 29 2 3 3 -58 3 -60 0 -84 -1 -52 -3z"/>
<path d="M263 5107 l77 -10 0 -58 c0 -89 0 -89 89 -87 l76 2 -75 5 -75 6 0 70
c0 66 -1 70 -25 76 -14 4 -52 6 -85 6 l-60 0 78 -10z"/>
<path d="M383 5113 c9 -2 25 -2 35 0 9 3 1 5 -18 5 -19 0 -27 -2 -17 -5z"/>
<path d="M1423 5103 c37 -2 96 -2 130 0 34 2 4 3 -68 3 -71 0 -99 -1 -62 -3z"/>
<path d="M6576 5039 c-4 -29 -3 -56 2 -61 5 -5 10 16 11 52 1 33 0 60 -2 60
-3 0 -7 -23 -11 -51z"/>
<path d="M604 5034 c-29 -25 -29 -25 -2 -8 28 16 29 16 96 -30 l67 -46 200 3
200 2 -199 3 -198 2 -37 28 c-20 16 -50 38 -67 50 l-30 21 -30 -25z"/>
<path d="M5142 5034 c-7 -8 -10 -19 -6 -26 5 -7 10 -3 16 12 10 28 7 33 -10
14z"/>
<path d="M535 4984 c-18 -16 -22 -22 -9 -15 18 9 53 42 43 41 -2 -1 -17 -12
-34 -26z"/>
<path d="M6475 4770 c-3 -5 -1 -10 4 -10 6 0 11 5 11 10 0 6 -2 10 -4 10 -3 0
-8 -4 -11 -10z"/>
<path d="M5075 4680 c3 -5 8 -10 11 -10 2 0 4 5 4 10 0 6 -5 10 -11 10 -5 0
-7 -4 -4 -10z"/>
<path d="M5190 4416 c7 -7 13 -7 20 0 6 6 3 10 -10 10 -13 0 -16 -4 -10 -10z"/>
<path d="M5150 4406 c0 -2 7 -7 16 -10 8 -3 12 -2 9 4 -6 10 -25 14 -25 6z"/>
<path d="M50 4194 c0 -12 -7 -15 -25 -12 -14 3 -25 1 -25 -3 0 -14 56 -10 69
4 6 8 8 17 4 20 -11 12 -23 7 -23 -9z"/>
<path d="M27 4123 c-21 -3 -27 -10 -27 -29 0 -20 5 -24 29 -24 16 0 42 3 59 6
l31 6 -29 24 c-15 13 -29 23 -31 23 -2 -1 -16 -4 -32 -6z"/>
<path d="M650 4074 c-201 -11 -449 -29 -513 -38 -26 -3 -67 -9 -92 -12 -40 -5
-45 -8 -45 -30 0 -22 3 -24 33 -19 38 7 154 20 332 37 74 7 289 12 500 13 368
0 570 -11 760 -41 100 -16 142 -18 131 -6 -4 4 -11 7 -14 7 -4 1 -36 6 -72 13
-143 26 -321 51 -440 61 -127 11 -480 20 -580 15z"/>
<path d="M543 3973 c9 -2 23 -2 30 0 6 3 -1 5 -18 5 -16 0 -22 -2 -12 -5z"/>
<path d="M1823 3957 c5 -15 37 -22 37 -9 0 5 -9 12 -21 15 -13 3 -19 1 -16 -6z"/>
<path d="M537 3942 c-14 -9 -29 -23 -32 -30 -4 -11 0 -11 19 2 14 9 32 16 41
16 8 0 15 4 15 9 0 18 -16 19 -43 3z"/>
<path d="M548 3862 c-10 -2 -18 -8 -18 -13 0 -5 -6 -9 -13 -9 -21 0 -42 -46
-29 -62 15 -19 4 -66 -16 -63 -10 1 -11 0 -4 -2 6 -3 12 -9 12 -14 0 -20 20
-8 26 16 8 32 28 33 22 0 -4 -16 -1 -22 6 -18 6 4 23 6 37 5 32 -4 57 39 34
58 -9 8 -13 21 -9 36 7 29 -24 71 -48 66z m-8 -71 c0 -11 -5 -23 -11 -27 -15
-9 -33 12 -26 30 9 23 37 20 37 -3z"/>
<path d="M590 3846 c0 -2 7 -6 15 -10 8 -3 15 -1 15 4 0 6 -7 10 -15 10 -8 0
-15 -2 -15 -4z"/>
<path d="M987 3784 c-8 -9 11 -44 23 -44 6 0 10 11 10 25 0 23 -18 34 -33 19z"/>
<path d="M23 3314 c0 -16 7 -39 18 -52 10 -14 19 -30 19 -37 0 -17 69 -16 94
1 13 9 25 10 38 3 10 -5 23 -7 28 -4 6 3 10 1 10 -5 0 -7 6 -10 13 -7 6 2 12
10 12 17 0 16 50 31 72 23 11 -4 14 -2 9 5 -4 8 3 16 20 22 31 12 42 6 25 -14
-9 -11 -8 -14 6 -12 12 1 18 -6 17 -20 0 -18 5 -21 40 -19 23 1 49 6 59 10 10
4 17 3 17 -4 0 -6 -6 -11 -14 -11 -9 0 -12 -11 -10 -36 2 -26 -1 -33 -8 -26
-8 8 -18 6 -34 -5 -15 -9 -24 -11 -24 -4 0 6 -4 11 -10 11 -5 0 -10 -6 -10
-14 0 -15 -60 -94 -60 -80 0 5 -5 1 -11 -9 -6 -9 -14 -15 -19 -12 -4 3 -10 -2
-14 -10 -3 -8 -14 -15 -25 -15 -14 0 -19 -5 -15 -15 4 -9 -1 -17 -12 -21 -11
-3 -26 -9 -34 -13 -8 -4 -36 -14 -62 -22 -27 -7 -48 -16 -48 -20 0 -4 -9 -9
-20 -12 -14 -4 -26 2 -38 19 -53 77 -51 78 -52 -20 0 -80 2 -87 17 -82 21 9
232 55 443 97 85 18 161 36 167 42 15 11 18 51 4 42 -11 -6 -91 17 -91 26 0
14 52 40 73 37 19 -3 22 2 23 32 1 51 3 55 16 42 7 -7 31 -12 55 -12 39 0 43
2 43 25 0 25 23 35 35 15 3 -5 17 -10 31 -10 13 0 24 5 24 10 0 6 -9 10 -20
10 -11 0 -25 9 -32 19 -9 15 -19 18 -40 14 -20 -4 -29 -1 -34 11 -9 24 10 41
25 22 7 -8 19 -12 28 -9 8 3 19 0 23 -7 13 -21 30 -1 30 35 0 21 -6 35 -16 39
-23 9 -24 8 -24 -19 0 -30 -16 -32 -41 -4 -21 25 -97 38 -109 19 -6 -9 -14 -8
-35 6 -20 13 -29 14 -34 5 -5 -7 -25 -13 -47 -14 -21 -1 -42 -6 -46 -12 -5 -6
-11 -5 -16 3 -5 7 -13 12 -18 11 -20 -3 -35 2 -29 10 9 15 -21 19 -205 26
l-175 7 -2 -28z m340 -11 c-7 -2 -19 -2 -25 0 -7 3 -2 5 12 5 14 0 19 -2 13
-5z m-183 -27 c0 -3 -4 -8 -10 -11 -5 -3 -10 -1 -10 4 0 6 5 11 10 11 6 0 10
-2 10 -4z m45 -27 c-8 -12 -35 -12 -35 0 0 11 22 20 33 14 4 -2 5 -9 2 -14z
m275 -225 c0 -21 -5 -24 -34 -24 -46 0 -55 18 -17 31 17 6 31 15 31 21 0 5 5
6 10 3 6 -3 10 -17 10 -31z"/>
<path d="M442 3310 c10 -6 25 -7 40 -1 20 9 18 10 -17 10 -31 0 -36 -2 -23 -9z"/>
<path d="M1790 3179 c0 -5 5 -7 10 -4 6 3 10 8 10 11 0 2 -4 4 -10 4 -5 0 -10
-5 -10 -11z"/>
<path d="M1487 3173 c-15 -26 -16 -61 -2 -67 8 -3 15 -1 15 4 0 6 4 10 9 10 4
0 7 -12 4 -27 -3 -27 -3 -27 8 -5 14 26 63 31 73 7 9 -25 26 -17 27 13 0 15 3
22 5 15 7 -16 34 -5 34 14 0 11 -7 13 -26 9 -23 -6 -26 -4 -21 13 4 17 2 19
-13 11 -24 -13 -77 -13 -85 0 -7 12 -22 13 -28 3z"/>
<path d="M1684 3159 c-3 -5 -2 -9 3 -9 4 0 19 -3 32 -7 16 -4 22 -2 18 4 -9
15 -46 23 -53 12z"/>
<path d="M1320 3141 c0 -14 -2 -14 -10 -1 -9 13 -11 13 -20 0 -9 -13 -11 -13
-20 0 -9 13 -11 13 -20 0 -5 -8 -10 -19 -10 -25 0 -5 4 -4 9 3 6 10 17 4 43
-22 32 -32 38 -34 72 -26 21 4 39 10 40 12 2 3 21 46 27 63 2 6 -20 11 -53 11
-48 2 -58 -1 -58 -15z"/>
<path d="M1810 3140 c0 -5 5 -10 10 -10 6 0 10 5 10 10 0 6 -4 10 -10 10 -5 0
-10 -4 -10 -10z"/>
<path d="M2664 3113 c-10 -16 -14 -16 -35 -5 -31 16 -79 1 -79 -25 -1 -18 -22
-53 -32 -53 -10 0 -16 50 -7 56 19 11 8 21 -18 16 -16 -3 -23 -7 -16 -9 13 -5
6 -31 -14 -51 -9 -10 -18 -11 -26 -4 -7 5 -21 6 -32 1 -19 -7 -19 -8 3 -8 13
-1 21 -5 18 -9 -8 -13 233 -65 291 -63 43 1 51 -1 47 -14 -4 -8 -2 -15 4 -15
6 0 17 -3 26 -6 9 -3 16 -1 16 5 0 6 -6 11 -14 11 -21 0 -28 33 -16 66 9 23 8
31 -4 40 -9 6 -16 16 -16 22 0 6 -9 14 -20 17 -11 4 -18 10 -15 14 2 5 -7 13
-21 20 -31 14 -27 14 -40 -6z m-37 -120 c-3 -10 -5 -4 -5 12 0 17 2 24 5 18 2
-7 2 -21 0 -30z"/>
<path d="M215 3070 c-8 -13 3 -30 21 -30 18 0 18 14 0 29 -10 8 -16 9 -21 1z"/>
<path d="M2348 3028 c5 -5 16 -8 23 -6 8 3 3 7 -10 11 -17 4 -21 3 -13 -5z"/>
<path d="M2837 3006 c-4 -10 -5 -21 -2 -24 9 -9 17 6 13 25 -3 17 -4 17 -11
-1z"/>
<path d="M6870 2979 c-12 -8 -10 -9 9 -4 17 5 22 4 16 -5 -5 -9 -4 -11 4 -6 6
4 9 12 6 17 -8 12 -16 11 -35 -2z"/>
<path d="M2363 2954 c20 -6 21 -8 5 -37 -16 -27 -47 -51 -71 -54 -10 -2 -36
-12 -57 -23 -22 -11 -40 -16 -40 -10 0 5 -4 10 -10 10 -17 0 -11 -19 12 -42
l21 -21 -23 -19 c-18 -15 -20 -21 -10 -33 8 -9 11 -30 7 -54 -4 -31 -2 -38 9
-34 8 3 15 0 15 -6 1 -6 2 -16 3 -23 2 -17 55 -33 69 -19 8 8 2 11 -23 12
l-35 1 40 8 c22 4 48 4 58 -1 11 -6 17 -6 17 1 0 6 18 8 45 6 25 -3 45 0 45 5
0 5 6 9 14 9 8 0 28 16 45 35 35 41 41 29 11 -21 l-21 -33 30 9 c19 5 33 5 37
-1 3 -6 12 -8 20 -5 10 4 14 0 12 -11 -2 -11 4 -19 17 -20 11 -1 32 -5 48 -9
21 -5 27 -3 27 10 0 10 9 16 25 16 14 0 25 -4 25 -8 0 -5 14 -7 30 -4 17 2 30
9 30 14 0 5 5 6 10 3 6 -4 8 -11 4 -16 -3 -6 11 -9 33 -9 21 1 52 -2 70 -5 28
-6 33 -4 38 18 4 14 2 35 -5 46 -6 12 -8 21 -5 21 4 0 -2 12 -13 28 -11 15
-21 30 -23 33 -2 4 4 16 14 26 19 21 14 33 -15 33 -10 0 -18 7 -18 16 0 8 -4
12 -10 9 -5 -3 -10 1 -10 9 0 9 6 16 13 16 6 1 -5 9 -25 20 -50 24 -254 73
-278 65 -10 -3 -21 -1 -24 4 -4 5 -30 14 -59 20 -61 12 -150 22 -124 15z m51
-29 c-4 -11 0 -15 16 -15 l23 0 -23 -20 c-13 -11 -28 -19 -34 -17 -19 6 -19
40 0 54 23 17 25 16 18 -2z m421 -85 c4 -6 -5 -10 -20 -10 -15 0 -24 4 -20 10
3 6 12 10 20 10 8 0 17 -4 20 -10z m-185 -51 c-7 -11 -14 -18 -17 -15 -3 3 0
12 7 21 18 21 23 19 10 -6z m152 -1 c-7 -7 -12 -8 -12 -2 0 6 3 14 7 17 3 4 9
5 12 2 2 -3 -1 -11 -7 -17z m-322 -118 c0 -5 -5 -10 -11 -10 -5 0 -7 5 -4 10
3 6 8 10 11 10 2 0 4 -4 4 -10z m-80 -21 c0 -5 -13 -9 -30 -9 -35 0 -41 17 -7
22 26 5 37 1 37 -13z m-150 1 c0 -5 -4 -10 -10 -10 -5 0 -10 5 -10 10 0 6 5
10 10 10 6 0 10 -4 10 -10z"/>
<path d="M1662 2930 c0 -14 2 -19 5 -12 2 6 2 18 0 25 -3 6 -5 1 -5 -13z"/>
<path d="M710 2919 c-19 -5 -55 -11 -80 -13 -25 -2 -63 -9 -85 -15 -22 -7 -51
-14 -65 -15 -14 -1 -47 -7 -75 -13 -27 -6 -88 -19 -135 -28 -47 -9 -113 -25
-148 -36 -34 -10 -76 -19 -92 -19 -17 0 -30 -4 -30 -10 0 -5 6 -10 13 -10 8 0
7 -4 -3 -10 -8 -5 -10 -10 -4 -10 6 0 13 3 17 6 3 4 28 8 54 9 26 1 104 17
173 34 69 17 143 36 165 42 22 5 72 16 110 23 39 8 89 21 113 29 23 8 51 13
61 10 10 -3 22 0 25 6 4 6 16 11 27 11 10 0 19 5 19 10 0 12 -12 11 -60 -1z"/>
<path d="M1137 2892 c-10 -10 -17 -27 -17 -38 0 -10 -7 -32 -15 -48 -13 -25
-14 -35 -3 -60 6 -17 16 -34 22 -38 6 -4 4 -10 -7 -14 -9 -3 -23 -2 -30 3 -17
14 -77 24 -77 13 0 -9 -36 4 -108 36 -23 11 -46 13 -73 9 -37 -6 -39 -8 -25
-24 22 -25 20 -31 -11 -31 -27 -1 -27 -1 -9 -15 11 -8 26 -15 34 -15 7 0 20
-7 28 -15 9 -8 27 -15 42 -15 23 1 25 2 10 11 -30 17 -20 29 15 17 17 -6 37
-15 43 -20 17 -13 60 -17 232 -23 84 -3 172 -9 195 -14 23 -5 168 -12 322 -15
154 -4 333 -9 397 -12 113 -5 117 -5 115 14 0 12 -4 19 -8 16 -4 -2 -13 1 -21
8 -18 17 -19 17 -150 22 -185 7 -272 23 -210 39 9 3 3 5 -15 6 -40 1 -100 -48
-81 -67 18 -18 -4 -15 -31 4 -18 13 -20 18 -10 25 11 7 11 9 -2 9 -8 0 -20 -5
-26 -11 -14 -14 -53 -2 -48 14 6 15 -40 67 -58 67 -8 0 -20 7 -28 16 -7 8 -21
13 -31 11 -10 -3 -18 -4 -18 -2 0 7 73 45 78 41 3 -3 -3 -8 -12 -12 -22 -9
-20 -31 4 -39 15 -5 26 0 40 17 l18 23 11 -28 c12 -30 14 -29 70 10 24 17 24
17 19 -4 -6 -23 7 -33 43 -33 14 0 19 7 19 30 0 17 -4 30 -10 30 -5 0 -10 -9
-10 -20 0 -11 -5 -20 -11 -20 -7 0 -9 11 -6 29 4 19 2 31 -6 34 -7 2 -8 8 -3
13 5 5 11 4 13 -3 5 -15 33 -17 33 -3 0 6 -6 10 -13 10 -16 0 -47 36 -47 55 0
23 -13 18 -40 -15 -24 -28 -49 -42 -34 -19 4 8 -1 9 -16 4 -15 -5 -20 -4 -16
4 4 6 3 11 -1 11 -12 0 -44 -40 -39 -48 2 -4 -11 -7 -30 -8 -19 0 -34 3 -34 8
0 4 -12 8 -27 7 -17 0 -22 -3 -13 -6 29 -11 40 -43 14 -43 -8 0 -12 5 -9 10 3
6 1 10 -4 10 -6 0 -11 -7 -11 -15 0 -12 -7 -14 -26 -9 -19 5 -25 4 -20 -5 10
-15 -5 -14 -42 4 -20 10 -29 21 -25 30 3 9 -1 15 -10 15 -8 0 -17 9 -20 20 -3
11 -13 20 -24 20 -10 0 -24 9 -31 21 -10 16 -16 18 -26 9 -11 -8 -18 -7 -29 5
-21 20 -40 19 -60 -3z m458 -71 c3 -5 1 -12 -5 -16 -5 -3 -10 1 -10 9 0 18 6
21 15 7z m-315 -26 c15 5 20 2 20 -13 0 -11 14 -30 33 -42 17 -12 24 -19 15
-17 -52 17 -87 18 -116 3 -35 -18 -62 -21 -62 -6 0 6 6 10 13 10 19 0 50 37
42 49 -11 18 5 34 20 21 8 -7 23 -9 35 -5z m311 -118 c-13 -13 -31 0 -24 19 4
11 8 12 20 3 9 -8 10 -16 4 -22z m-26 -49 c7 -7 2 -8 -15 -3 -14 4 -29 12 -35
17 -7 7 -2 8 15 3 14 -4 30 -12 35 -17z"/>
<path d="M2270 2890 c0 -5 6 -10 14 -10 8 0 18 5 21 10 3 6 -3 10 -14 10 -12
0 -21 -4 -21 -10z"/>
<path d="M1410 2860 c0 -5 -11 -10 -25 -10 -33 0 -32 -18 1 -30 19 -7 31 -7
40 1 19 15 18 49 -1 49 -8 0 -15 -4 -15 -10z"/>
<path d="M1053 2841 c-29 -24 -29 -31 1 -31 22 0 36 16 36 41 0 14 -13 10 -37
-10z"/>
<path d="M1880 2850 c0 -5 5 -10 11 -10 5 0 7 5 4 10 -3 6 -8 10 -11 10 -2 0
-4 -4 -4 -10z"/>
<path d="M1780 2815 c1 -26 2 -28 11 -12 8 14 8 22 0 30 -8 8 -11 3 -11 -18z"/>
<path d="M611 2821 c-9 -6 -5 -8 13 -8 14 0 26 3 26 8 0 11 -21 11 -39 0z"/>
<path d="M1900 2820 c0 -5 -15 -10 -34 -10 -46 0 -64 -22 -32 -39 32 -18 60
-10 64 17 2 12 8 22 13 22 5 0 9 5 9 10 0 6 -4 10 -10 10 -5 0 -10 -4 -10 -10z"/>
<path d="M415 2784 c-60 -14 -117 -28 -125 -31 -8 -3 -20 -5 -27 -4 -6 1 -14
-3 -18 -9 -3 -6 0 -7 9 -4 9 4 16 1 16 -6 0 -15 48 -5 71 16 22 20 26 18 21
-14 -4 -28 -2 -29 65 -45 37 -10 76 -17 85 -17 23 0 41 33 26 48 -9 9 -7 16 5
30 9 10 17 24 17 30 0 6 8 9 18 6 14 -5 14 -3 -2 10 -25 20 -28 20 -161 -10z"/>
<path d="M1780 2758 c0 -7 5 -20 10 -28 8 -13 12 -13 27 3 16 15 16 19 3 27
-21 14 -40 12 -40 -2z"/>
<path d="M175 2720 c-3 -5 -13 -6 -23 -3 -13 5 -14 3 -5 -7 9 -10 16 -9 34 4
13 9 18 16 12 16 -7 0 -14 -4 -18 -10z"/>
<path d="M210 2726 c0 -2 7 -7 16 -10 8 -3 12 -2 9 4 -6 10 -25 14 -25 6z"/>
<path d="M1598 2563 c7 -3 16 -2 19 1 4 3 -2 6 -13 5 -11 0 -14 -3 -6 -6z"/>
<path d="M2308 2553 c7 -3 16 -2 19 1 4 3 -2 6 -13 5 -11 0 -14 -3 -6 -6z"/>
<path d="M2668 2553 c6 -2 18 -2 25 0 6 3 1 5 -13 5 -14 0 -19 -2 -12 -5z"/>
<path d="M3020 2354 c0 -16 9 -18 28 -5 10 6 9 10 -7 14 -14 3 -21 0 -21 -9z"/>
<path d="M3080 2341 c0 -5 -10 -7 -22 -3 -21 5 -22 4 -8 -14 8 -10 19 -22 23
-25 5 -3 8 -9 8 -13 -1 -3 1 -5 2 -3 2 1 12 -5 23 -13 12 -9 11 -5 -4 12 -17
18 -22 33 -17 47 3 12 4 21 1 21 -3 0 -6 -4 -6 -9z"/>
<path d="M1518 2283 c7 -3 16 -2 19 1 4 3 -2 6 -13 5 -11 0 -14 -3 -6 -6z"/>
<path d="M2388 1843 c7 -3 16 -2 19 1 4 3 -2 6 -13 5 -11 0 -14 -3 -6 -6z"/>
<path d="M0 1651 c0 -7 28 -11 83 -12 59 -1 74 -4 52 -9 l-30 -8 37 -1 c21 -1
38 4 41 12 3 9 9 9 28 -1 17 -9 58 -12 134 -9 l110 3 -115 3 c-78 2 -105 6
-85 11 23 6 15 8 -36 9 -36 0 -100 4 -142 7 -55 5 -77 4 -77 -5z"/>
<path d="M18 1623 c12 -2 32 -2 45 0 12 2 2 4 -23 4 -25 0 -35 -2 -22 -4z"/>
<path d="M0 1150 c0 -6 36 -9 93 -8 55 1 82 5 67 9 -39 11 -160 10 -160 -1z"/>
<path d="M6 1109 c3 -5 35 -9 71 -9 37 0 64 2 62 4 -9 8 -138 13 -133 5z"/>
<path d="M358 1053 c6 -2 18 -2 25 0 6 3 1 5 -13 5 -14 0 -19 -2 -12 -5z"/>
<path d="M1765 611 c-22 -11 -37 -20 -34 -20 10 -1 79 29 79 34 0 7 0 7 -45
-14z"/>
<path d="M1540 510 c-9 -6 -10 -10 -3 -10 6 0 15 5 18 10 8 12 4 12 -15 0z"/>
<path d="M1220 380 c-45 -24 -28 -24 25 0 22 10 33 19 25 19 -8 0 -31 -8 -50
-19z"/>
<path d="M1125 340 c-3 -6 1 -7 9 -4 18 7 21 14 7 14 -6 0 -13 -4 -16 -10z"/>
<path d="M675 185 c-40 -14 -40 -14 -5 -8 19 3 42 9 50 14 22 12 1 9 -45 -6z"/>
<path d="M550 153 c-25 -8 -58 -19 -75 -25 -16 -5 -36 -10 -42 -11 -7 0 -13
-5 -13 -10 0 -6 -3 -8 -6 -4 -3 3 -29 -3 -57 -13 -29 -10 -72 -24 -97 -31 -25
-7 -49 -16 -55 -19 -12 -8 -58 -20 -99 -26 -39 -5 -46 -14 -11 -14 40 0 511
146 521 161 7 13 -14 10 -66 -8z"/>
<path d="M2839 123 c0 -5 -2 -18 -3 -29 -2 -19 0 -20 16 -11 22 14 24 47 3 47
-8 0 -15 -3 -16 -7z"/>
<path d="M225 19 c-27 -10 -37 -17 -21 -14 31 7 97 33 81 33 -5 0 -32 -8 -60
-19z"/>
<path d="M2455 30 c-3 -6 -4 -14 0 -20 8 -13 35 -1 35 16 0 16 -26 19 -35 4z"/>
</g>
</svg>
